<?xml version="1.0" encoding="UTF-8"?>
<svg width="63px" height="63px" viewBox="0 0 63 63" version="1.1" xmlns="http://www.w3.org/2000/svg" xmlns:xlink="http://www.w3.org/1999/xlink">
    <!-- Generator: sketchtool 53 (72520) - https://sketchapp.com -->
    <title>448C446F-8809-4E58-A496-4B1B94D1A0CC</title>
    <desc>Created with sketchtool.</desc>
    <g id="MNUM" stroke="none" stroke-width="1" fill="none" fill-rule="evenodd">
        <g id="Home-MNUM" transform="translate(-773.000000, -3819.000000)" fill="#222222" fill-rule="nonzero">
            <g id="4---ABC" transform="translate(200.000000, 3266.000000)">
                <g id="a-venir" transform="translate(573.000000, 550.500000)">
                    <path d="M61.6078689,4.69131064 C64.1960839,14.7278438 62.9173368,25.2823082 58.0068324,34.4106621 C56.9277694,36.4161447 55.6946233,38.313625 54.3232342,40.0891827 C56.1357527,45.1696107 54.884846,50.8207707 51.0370843,54.6685325 L43.3473209,62.3587759 C43.1073158,62.598781 42.7929092,62.7183036 42.4780225,62.7183036 C42.1636158,62.7183036 41.8492091,62.598781 41.609204,62.3587759 L33.0530222,53.8021141 C33.0525421,53.8021141 33.0525421,53.8016341 33.0525421,53.8016341 L31.9489988,52.6980906 L24.4896403,53.7133122 C24.4339591,53.7209924 24.3787579,53.7243525 24.3235567,53.7243525 C24.0000299,53.7243525 23.6870632,53.5966697 23.4547383,53.3648249 L22.5619193,52.4715258 L12.2104994,62.7773448 C11.9704942,63.0159099 11.6570476,63.1354324 11.343601,63.1354324 C11.0282343,63.1354324 10.7128676,63.0144698 10.4723824,62.7735048 C9.99381228,62.2925345 9.99573232,61.514438 10.4767025,61.0353877 L20.8238024,50.7338889 L14.6830319,44.5926385 L7.34703598,51.9732753 C6.86894594,52.4542454 6.09084932,52.4566455 5.60939918,51.9780753 C5.12794892,51.4999852 5.1255489,50.7218887 5.60411904,50.2404384 L12.945395,42.8550016 L12.051616,41.9612225 C11.7799302,41.6895368 11.6512875,41.3069687 11.7031286,40.9263205 L12.7183502,33.466962 L11.6148067,32.3638987 C11.6148067,32.3634187 11.6143267,32.3634187 11.6143267,32.3629386 L3.05766484,23.8067568 C2.57813475,23.3267466 2.57813475,22.5486501 3.05766484,22.0686399 L10.7479083,14.3788765 C14.5956701,10.5311148 20.2468301,9.28068824 25.3272581,11.0927266 C27.1028158,9.72133754 28.9998161,8.48819137 31.0057787,7.40912844 C40.1336526,2.49910409 50.688117,1.21987688 60.7246502,3.80809187 C61.1580993,3.91993434 61.4960265,4.25786152 61.6078689,4.69131064 Z M11.9719343,29.2452724 C14.314384,22.9523387 18.1218249,17.3981406 23.0457696,12.991167 C19.2656893,12.1780297 15.2931249,13.3089338 12.4855452,16.1169934 L5.66460026,22.9379383 L11.9719343,29.2452724 Z M24.761806,51.1956588 L29.7659124,50.5145243 L14.9014365,35.6500484 L14.220302,40.6541548 L24.761806,51.1956588 Z M49.2994474,52.9304156 C52.107027,50.122356 53.2379311,46.1502715 52.4247938,42.3701912 C48.0178202,47.2941359 42.4641021,51.1015768 36.1711685,53.4440265 L42.4780225,59.7513605 L49.2994474,52.9304156 Z M34.3941707,51.4707046 C53.0867279,45.039528 63.9589588,25.1738259 59.403182,6.01277881 C40.241655,1.45652188 20.3764328,12.329713 13.9452562,31.0217901 L13.8948552,31.1681932 L34.2477676,51.5211056 L34.3941707,51.4707046 Z M47.9030977,16.0075511 C48.3269468,15.8937887 48.7795964,16.0152313 49.0901629,16.3257979 C49.4007295,16.6363644 49.5216921,17.089014 49.4079297,17.5128631 L45.0863979,33.6416857 C44.9731155,34.0655348 44.6419084,34.3967418 44.2175795,34.5105043 C43.7937304,34.6237867 43.3410808,34.5028241 43.0305142,34.1922575 L40.6347834,31.7965265 L31.6979534,40.7338365 C31.4579483,40.9738416 31.1435416,41.0933641 30.8291349,41.0933641 C30.5147283,41.0933641 30.2003216,40.9738416 29.9603165,40.7338365 C29.4803063,40.2538263 29.4803063,39.4757298 29.9603165,38.9957196 L39.7659648,29.1895911 C39.9963697,28.9591862 40.3093364,28.8300635 40.6352633,28.8300635 C40.9611903,28.8300635 41.2736768,28.9591862 41.5040817,29.1895911 L43.2637992,30.9493086 L46.4837076,18.9327332 L34.4666522,22.1526417 L36.2263697,23.9123591 C36.7063799,24.3923693 36.7063799,25.1704658 36.2263697,25.649996 L30.5296085,31.347237 C30.0495983,31.8267672 29.2715018,31.8267672 28.7914916,31.347237 C28.3119615,30.8672268 28.3119615,30.0891303 28.7914916,29.6091201 L33.6199143,24.7811775 L31.2237033,22.3854466 C30.9136167,22.07488 30.7921741,21.6222304 30.9059365,21.1983813 C31.019699,20.7740524 31.350906,20.4428453 31.7747551,20.329083 L47.9030977,16.0075511 Z M11.7952905,53.6206703 C12.2753007,54.1006805 12.2753007,54.878777 11.7952905,55.3583072 L2.09764445,65.0559532 C1.85811945,65.2959584 1.54323276,65.4159609 1.22882605,65.4159609 C0.914419336,65.4159609 0.600012625,65.2959584 0.360007649,65.0559532 C-0.12000255,64.575943 -0.12000255,63.7978465 0.360007649,63.3183164 L10.0576536,53.6206703 C10.5376638,53.1406601 11.3157604,53.1406601 11.7952905,53.6206703 Z M3.09318566,55.7178348 C2.76965872,55.7178348 2.45285212,55.587752 2.22436714,55.3578272 C1.99588241,55.1293423 1.86435955,54.8134956 1.86435955,54.4890087 C1.86435955,54.1659619 1.99588241,53.8491551 2.22436714,53.6206703 C2.45285212,53.3917055 2.76869876,53.2601826 3.09318566,53.2601826 C3.41623249,53.2601826 3.73303922,53.3917055 3.96200418,53.6206703 C4.19048891,53.8491551 4.32201177,54.1659619 4.32201177,54.4890087 C4.32201177,54.8134956 4.19048891,55.1293423 3.96200418,55.3578272 C3.73303922,55.587752 3.41623249,55.7178348 3.09318566,55.7178348 Z M24.7522059,33.6484059 C25.2571765,33.1947962 26.0338331,33.2365571 26.4874427,33.742008 C26.9410524,34.2469786 26.8988115,35.0236351 26.3938407,35.4772447 L26.3832805,35.486365 C26.1485555,35.6975695 25.8552693,35.8012517 25.5629431,35.8012517 C25.2259759,35.8012517 24.8904488,35.6634887 24.6480436,35.393243 C24.194434,34.8882722 24.2361949,34.1111358 24.7416456,33.6575262 L24.7522059,33.6484059 Z" id="a-venir-icon"></path>
                </g>
            </g>
        </g>
    </g>
</svg>