<?xml version="1.0" encoding="UTF-8"?>
<svg width="280px" height="61px" viewBox="0 0 280 61" version="1.1" xmlns="http://www.w3.org/2000/svg" xmlns:xlink="http://www.w3.org/1999/xlink">
    <!-- Generator: sketchtool 53 (72520) - https://sketchapp.com -->
    <title>E346A42F-9C31-4487-AADF-E8B1A6FB16C7</title>
    <desc>Created with sketchtool.</desc>
    <g id="MNUM" stroke="none" stroke-width="1" fill="none" fill-rule="evenodd">
        <g id="Home-MNUM" transform="translate(-273.000000, -3362.000000)" fill="#FFFFFF" fill-rule="nonzero">
            <g id="4---ABC" transform="translate(200.000000, 3266.000000)">
                <path d="M112.476,117.46 L121.66,151.408 C122.644,155.098 121.988,156 118.134,156 L116.576,156 C112.722,156 111.574,155.098 110.59,151.408 L108.458,143.044 L86.81,143.044 L84.678,151.408 C83.694,155.098 82.546,156 78.692,156 L77.134,156 C73.28,156 72.624,155.098 73.608,151.408 L82.792,117.46 C84.432,111.31 85.334,108.768 87.548,105.816 C89.762,102.864 92.714,101.88 97.634,101.88 C102.554,101.88 105.506,102.864 107.72,105.816 C109.934,108.768 110.836,111.31 112.476,117.46 Z M93.37,117.952 L89.352,133.204 L105.834,133.204 L101.898,117.952 C101.16,115.246 100.586,113.606 100.176,112.868 C99.766,112.13 98.864,111.72 97.634,111.72 C96.404,111.72 95.502,112.13 95.092,112.868 C94.682,113.606 94.108,115.246 93.37,117.952 Z M139.454,102.7 L151.262,102.7 C163.398,102.7 168.728,108.194 168.728,117.05 C168.728,122.134 166.596,125.906 162.332,128.366 C168.318,131.318 170.368,135.008 170.368,140.666 C170.368,150.916 164.3,156 152.082,156 L139.454,156 C132.566,156 129.614,153.048 129.614,146.16 L129.614,112.54 C129.614,105.652 132.566,102.7 139.454,102.7 Z M152.082,133.45 L140.602,133.45 L140.602,143.29 C140.602,144.93 141.422,145.75 143.062,145.75 L152.082,145.75 C156.838,145.75 159.216,143.782 159.216,139.764 C159.216,135.582 156.838,133.45 152.082,133.45 Z M151.262,112.95 L143.062,112.95 C141.422,112.95 140.602,113.77 140.602,115.41 L140.602,124.02 L151.262,124.02 C155.444,124.02 157.576,122.134 157.576,118.362 C157.576,114.754 155.444,112.95 151.262,112.95 Z M189.556,123.282 L189.556,136.402 C189.556,142.88 192.508,146.734 201.938,146.734 C204.89,146.734 207.842,146.324 210.794,145.504 C214.402,144.52 215.386,145.34 215.386,149.194 L215.386,149.85 C215.386,153.54 214.484,154.442 210.876,155.754 C208.498,156.574 205.382,156.984 201.446,156.984 C186.03,156.984 178.24,150.834 178.24,136.402 L178.24,123.282 C178.24,109.834 186.03,101.88 201.528,101.88 C205.382,101.88 208.416,102.372 210.794,103.274 C214.484,104.668 215.386,105.57 215.386,109.178 L215.386,109.834 C215.386,113.688 214.238,114.59 210.63,113.524 C207.596,112.622 204.562,112.13 201.528,112.13 C193.082,112.13 189.556,115.656 189.556,123.282 Z M251.958,102.7 L265.406,102.7 C277.46,102.7 283.528,108.686 283.528,120.576 C283.528,132.466 277.46,138.37 265.406,138.37 L253.106,138.37 L253.106,151.244 C253.106,154.934 252.204,156 248.35,156 L246.874,156 C243.02,156 242.118,154.934 242.118,151.244 L242.118,112.54 C242.118,105.652 245.07,102.7 251.958,102.7 Z M265.406,112.95 L255.566,112.95 C253.926,112.95 253.106,113.77 253.106,115.41 L253.106,128.12 L265.406,128.12 C270.572,128.12 272.54,125.742 272.54,120.576 C272.54,115.41 270.572,112.95 265.406,112.95 Z M291.4,151.408 L291.4,119.592 C291.4,115.902 292.302,115 295.992,115 L297.468,115 C301.158,115 302.06,115.902 302.06,119.592 L302.06,151.408 C302.06,155.098 301.158,156 297.468,156 L295.992,156 C292.302,156 291.4,155.098 291.4,151.408 Z M292.22,107.21 C289.678,104.668 289.678,100.732 292.22,98.19 C294.762,95.648 298.698,95.648 301.24,98.19 C303.782,100.732 303.782,104.668 301.24,107.21 C298.698,109.752 294.762,109.752 292.22,107.21 Z M324.2,119.018 L327.808,126.07 C329.366,129.104 329.612,129.514 331.17,129.514 C332.728,129.514 332.974,129.104 334.532,126.07 L338.14,119.018 C339.78,115.738 341.092,115 344.782,115 L347.324,115 C351.014,115 351.506,115.82 349.62,119.018 L344.946,127.3 C343.88,129.186 343.142,130.58 342.404,131.646 C341.666,132.794 340.846,133.696 339.616,134.188 C340.518,134.68 341.174,135.336 341.83,135.992 C342.158,136.32 342.896,137.55 343.142,137.96 C343.47,138.37 344.536,140.256 344.946,140.994 L351.26,151.982 C353.146,155.18 352.654,156 348.964,156 L346.34,156 C342.65,156 341.338,155.18 339.616,151.982 L334.45,142.224 C332.81,139.026 332.564,138.78 331.17,138.78 C329.776,138.78 329.53,139.026 327.89,142.224 L322.724,151.982 C321.002,155.18 319.69,156 316,156 L313.376,156 C309.686,156 309.194,155.18 311.08,151.982 L317.394,140.994 L318.296,139.436 C319.198,138.042 319.198,137.878 319.772,136.976 C320.756,135.418 321.412,134.926 322.642,134.188 C321.658,133.696 321.084,133.204 320.346,132.302 L319.362,130.744 L318.788,129.842 L317.394,127.3 L312.72,119.018 C310.834,115.82 311.326,115 315.016,115 L317.558,115 C321.248,115 322.56,115.738 324.2,119.018 Z" id="ABCPix"></path>
            </g>
        </g>
    </g>
</svg>