<?xml version="1.0" encoding="UTF-8"?>
<svg width="51px" height="65px" viewBox="0 0 51 65" version="1.1" xmlns="http://www.w3.org/2000/svg" xmlns:xlink="http://www.w3.org/1999/xlink">
    <!-- Generator: sketchtool 53 (72520) - https://sketchapp.com -->
    <title>088A439D-91BF-4DCB-A516-33B08B0BD67C</title>
    <desc>Created with sketchtool.</desc>
    <g id="MNUM" stroke="none" stroke-width="1" fill="none" fill-rule="evenodd">
        <g id="Home-MNUM" transform="translate(-780.000000, -3549.000000)" fill="#222222" fill-rule="nonzero">
            <g id="4---ABC" transform="translate(200.000000, 3266.000000)">
                <g id="experimentation" transform="translate(580.000000, 279.000000)">
                    <path d="M44.5373433,7.05176985 C48.0567216,7.05176985 50.9200759,9.91494817 50.9200759,13.4343265 L50.9200759,62.4552819 C50.9200759,65.9748362 48.0567216,68.8380145 44.5373433,68.8380145 L6.50448341,68.8380145 C2.98492915,68.8380145 0.121750833,65.9746603 0.121750833,62.4552819 L0.121750833,13.4345024 C0.121750833,9.91494817 2.98510508,7.05176985 6.50448341,7.05176985 L14.3056987,7.05176985 L14.3056987,4 L36.736128,4 L36.736128,7.05176985 L44.5373433,7.05176985 Z M16.9445728,6.63887403 L16.9445728,10.1033638 L34.097254,10.1033638 L34.097254,6.63887403 L16.9445728,6.63887403 Z M48.2812019,62.455106 L48.2812019,13.4345024 C48.2812019,11.3700233 46.6016465,9.69064388 44.5373433,9.69064388 L36.736128,9.69064388 L36.736128,12.7422378 L14.3056987,12.7422378 L14.3056987,9.69046796 L6.50448341,9.69046796 C4.44000429,9.69046796 2.76062486,11.3700233 2.76062486,13.4343265 L2.76062486,62.455106 C2.76062486,64.5195851 4.44018022,66.1989646 6.50448341,66.1989646 L44.5373433,66.1989646 C46.6018224,66.1989646 48.2812019,64.5194092 48.2812019,62.455106 Z M36.9905154,33.7942952 C37.6169841,32.8425413 38.6714782,32.2743037 39.8105921,32.2739519 L43.9559114,32.2739519 L43.9559114,34.9128259 L39.8105921,34.9128259 C39.5616584,34.9128259 39.3311967,35.0370289 39.1943271,35.2449722 L37.8219367,37.3295068 C37.2021531,38.2712329 36.1589183,38.8394705 35.0315913,38.8494982 C35.0215636,38.8494982 35.0113599,38.8494982 35.0011563,38.8494982 C33.8854403,38.8496741 32.8453721,38.3016679 32.2145053,37.3796454 L32.1763296,37.3238772 C31.957479,37.0040456 31.6343049,36.9952494 31.5062315,37.0051012 C31.3776304,37.0160085 31.0609655,37.0786378 30.8978831,37.4301358 L30.1649798,39.0102936 C29.6021959,40.2241756 28.4275451,40.9671066 27.1149692,40.9671066 C27.0069513,40.9671066 26.8980538,40.9621807 26.7882766,40.9518012 C25.3462199,40.8173945 24.1844116,39.8234186 23.8283396,38.4197136 L22.2334041,32.1318045 C22.1053307,31.6267241 21.694546,31.5758817 21.514223,31.575178 C21.340585,31.5760577 20.923643,31.6328814 20.8008473,32.1391934 L19.3621332,38.0682156 C19.0145056,39.501476 17.8403825,40.5095259 16.3708816,40.6363678 C14.9005009,40.7626819 13.5719158,39.9710197 12.9837988,38.6185088 L11.5654919,35.3566845 C11.4483259,35.0869916 11.1826793,34.9128259 10.8887087,34.9128259 L7.08538754,34.9128259 L7.08538754,32.2739519 L10.8887087,32.2739519 C12.2336548,32.2739519 13.4492962,33.0708918 13.9855154,34.3044775 L15.4038222,37.5663017 C15.5948767,38.0057622 15.9856059,38.0207158 16.1441143,38.0073455 C16.3029745,37.9936234 16.6849076,37.9116424 16.7978514,37.446145 L18.2365655,31.5171228 C18.6089986,29.9818259 19.9208708,28.9447484 21.5006767,28.9366559 C21.50701,28.9366559 21.5131674,28.9366559 21.5195007,28.9366559 C23.0910382,28.9366559 24.4044937,29.9579001 24.7913527,31.4831693 L26.386464,37.7710783 C26.5020467,38.2268999 26.8772946,38.3099364 27.03334,38.3245382 C27.1890336,38.3393159 27.5734296,38.3270011 27.7711692,37.9002072 L28.5040725,36.3200495 C29.0214677,35.2043335 30.0622396,34.4774117 31.2879087,34.3755512 C32.5134018,34.2743943 33.6599046,34.818882 34.3544562,35.8339689 L34.3926319,35.8897371 C34.5931863,36.1826521 34.8868051,36.2111519 35.0083692,36.210976 C35.1267667,36.2099205 35.4230243,36.1754392 35.6183009,35.8788297 L36.9905154,33.7942952 Z M7.08538754,51.8123511 L21.9841185,51.8123511 L21.9841185,54.4512252 L7.08538754,54.4512252 L7.08538754,51.8123511 Z M7.08538754,58.2628148 L36.8826735,58.2628148 L36.8826735,60.9016888 L7.08538754,60.9016888 L7.08538754,58.2628148 Z" id="experiment-results-icon"></path>
                </g>
            </g>
        </g>
    </g>
</svg>