<?xml version="1.0" encoding="UTF-8"?>
<svg width="139px" height="80px" viewBox="0 0 139 80" version="1.1" xmlns="http://www.w3.org/2000/svg" xmlns:xlink="http://www.w3.org/1999/xlink">
    <!-- Generator: Sketch 51.3 (57544) - http://www.bohemiancoding.com/sketch -->
    <title>icon gratuit</title>
    <desc>Created with Sketch.</desc>
    <defs>
        <linearGradient x1="50%" y1="0%" x2="50%" y2="97.4643244%" id="linearGradient-1">
            <stop stop-color="#555555" offset="0%"></stop>
            <stop stop-color="#222222" offset="100%"></stop>
        </linearGradient>
        <linearGradient x1="68.6429521%" y1="0%" x2="68.6429501%" y2="100%" id="linearGradient-2">
            <stop stop-color="#FFBE00" offset="0%"></stop>
            <stop stop-color="#FF9F00" offset="100%"></stop>
        </linearGradient>
        <rect id="path-3" x="0.13671875" y="28.5" width="123.792969" height="43.4948269" rx="5"></rect>
    </defs>
    <g id="SCO" stroke="none" stroke-width="1" fill="none" fill-rule="evenodd">
        <g id="Home-Sco-V2" transform="translate(-1031.000000, -686.000000)">
            <g id="icon-gratuit" transform="translate(1038.693359, 686.132812)">
                <path d="M87.0485817,31.2384395 L68.0328894,9.08684082 C68.2459265,8.44772949 68.3907917,7.77453223 68.3907917,7.06298828 C68.3907917,3.53935449 65.5233122,0.671875 61.9996784,0.671875 C58.4760446,0.671875 55.6085651,3.53935449 55.6085651,7.06298828 C55.6085651,7.77453223 55.7534304,8.44772949 55.9664675,9.08684082 L36.9465144,31.2427002 C36.1838415,32.1331953 36.2860993,33.4795898 37.1765944,34.2422627 C37.581365,34.5873828 38.0713503,34.7578125 38.5655964,34.7578125 C39.166361,34.7578125 39.7586042,34.5064287 40.1804177,34.0164434 L58.6592566,12.4911738 C59.6349665,13.0876777 60.7725847,13.4541016 61.9996784,13.4541016 C63.2267722,13.4541016 64.3643903,13.0876777 65.3358396,12.4869131 L83.8189392,34.0121826 C84.2407526,34.5064287 84.8329958,34.7578125 85.4337605,34.7578125 C85.9237458,34.7578125 86.4179919,34.5873828 86.8185017,34.2422627 C87.7132575,33.4795898 87.8197761,32.1331953 87.0485817,31.2384395 Z M59.8693073,7.06298828 C59.8693073,5.88702344 60.8237136,4.93261719 61.9996784,4.93261719 C63.1756433,4.93261719 64.1300495,5.88702344 64.1300495,7.06298828 C64.1300495,8.23895312 63.1756433,9.19335937 61.9996784,9.19335937 C60.8237136,9.19335937 59.8693073,8.23895312 59.8693073,7.06298828 Z" id="Shape" fill="#555555" fill-rule="nonzero"></path>
                <g id="Rectangle-7" fill-rule="nonzero">
                    <use fill="#FFFFFF" xlink:href="#path-3"></use>
                    <rect stroke="url(#linearGradient-1)" stroke-width="7" x="-3.36328125" y="25" width="130.792969" height="50.4948269" rx="5"></rect>
                    <use stroke="#FFFFFF" stroke-width="7" xlink:href="#path-3"></use>
                    <rect stroke="url(#linearGradient-2)" stroke-width="4" stroke-linejoin="square" x="2.13671875" y="30.5" width="119.792969" height="39.4948269" rx="5"></rect>
                </g>
                <path d="M28.5003216,57.3818359 C27.7809169,58.1604857 26.8986015,58.7465801 25.8533489,59.1401367 C24.8080963,59.5336934 23.6634137,59.7304688 22.4192669,59.7304688 C20.2949073,59.7304688 18.6445332,59.072435 17.468095,57.7563477 C16.2916568,56.4402603 15.6865197,54.5254032 15.6526653,52.0117188 L15.6526653,48.6855469 C15.6526653,46.1380081 16.2091376,44.1766019 17.3220989,42.8012695 C18.4350602,41.4259371 20.0579281,40.7382812 22.1907513,40.7382812 C24.1966207,40.7382812 25.7094636,41.2333935 26.7293255,42.2236328 C27.7491873,43.2138721 28.3395135,44.7669165 28.5003216,46.8828125 L24.8694622,46.8828125 C24.7678992,45.7063743 24.5224589,44.9044618 24.1331341,44.4770508 C23.7438092,44.0496398 23.1344403,43.8359375 22.3050091,43.8359375 C21.2978426,43.8359375 20.5657535,44.2040979 20.10872,44.9404297 C19.6516865,45.6767615 19.4147097,46.8489503 19.3977825,48.4570312 L19.3977825,51.8085938 C19.3977825,53.492847 19.6495704,54.7179324 20.1531536,55.4838867 C20.6567369,56.2498411 21.4840398,56.6328125 22.6350872,56.6328125 C23.371419,56.6328125 23.9680927,56.484702 24.4251263,56.1884766 L24.7552044,55.9599609 L24.7552044,52.5703125 L22.13997,52.5703125 L22.13997,49.7519531 L28.5003216,49.7519531 L28.5003216,57.3818359 Z M36.7395794,52.7226562 L34.8860638,52.7226562 L34.8860638,59.4765625 L31.1536419,59.4765625 L31.1536419,40.9921875 L37.1077434,40.9921875 C38.9781955,40.9921875 40.4233308,41.4767204 41.4431927,42.4458008 C42.4630545,43.4148811 42.9729778,44.7923088 42.9729778,46.578125 C42.9729778,49.0325644 42.0800831,50.7506461 40.2942669,51.7324219 L43.5315716,59.2988281 L43.5315716,59.4765625 L39.5198528,59.4765625 L36.7395794,52.7226562 Z M34.8860638,49.6123047 L37.0061809,49.6123047 C37.7509763,49.6123047 38.3095645,49.3647486 38.6819622,48.8696289 C39.0543599,48.3745092 39.2405559,47.7122437 39.2405559,46.8828125 C39.2405559,45.0292876 38.5169304,44.1025391 37.0696575,44.1025391 L34.8860638,44.1025391 L34.8860638,49.6123047 Z M54.3606731,55.6933594 L49.2698528,55.6933594 L48.2796184,59.4765625 L44.3313763,59.4765625 L50.1077434,40.9921875 L53.5227825,40.9921875 L59.3372356,59.4765625 L55.3509075,59.4765625 L54.3606731,55.6933594 Z M50.0823528,52.5830078 L53.5354778,52.5830078 L51.8089153,45.9941406 L50.0823528,52.5830078 Z M71.5120403,44.1025391 L66.9417278,44.1025391 L66.9417278,59.4765625 L63.1966106,59.4765625 L63.1966106,44.1025391 L58.70247,44.1025391 L58.70247,40.9921875 L71.5120403,40.9921875 L71.5120403,44.1025391 Z M85.6800091,40.9921875 L85.6800091,53.7890625 C85.6630819,55.7102961 85.1341158,57.1808217 84.093095,58.2006836 C83.0520742,59.2205455 81.558274,59.7304688 79.6116497,59.7304688 C77.631171,59.7304688 76.1183281,59.2141979 75.0730755,58.1816406 C74.0278229,57.1490834 73.5052044,55.6552832 73.5052044,53.7001953 L73.5052044,40.9921875 L77.2630169,40.9921875 L77.2630169,53.7128906 C77.2630169,54.762375 77.432286,55.511391 77.7708294,55.9599609 C78.1093727,56.4085309 78.7229734,56.6328125 79.6116497,56.6328125 C80.500326,56.6328125 81.1096949,56.4106468 81.4397747,55.9663086 C81.7698545,55.5219704 81.9391236,54.7919973 81.9475872,53.7763672 L81.9475872,40.9921875 L85.6800091,40.9921875 Z M92.4085247,59.4765625 L88.6761028,59.4765625 L88.6761028,40.9921875 L92.4085247,40.9921875 L92.4085247,59.4765625 Z M107.147783,44.1025391 L102.57747,44.1025391 L102.57747,59.4765625 L98.8323528,59.4765625 L98.8323528,44.1025391 L94.3382122,44.1025391 L94.3382122,40.9921875 L107.147783,40.9921875 L107.147783,44.1025391 Z" id="GRATUIT" fill="#222222"></path>
            </g>
        </g>
    </g>
</svg>