<?xml version="1.0" encoding="UTF-8"?>
<svg width="79px" height="82px" viewBox="0 0 79 82" version="1.1" xmlns="http://www.w3.org/2000/svg" xmlns:xlink="http://www.w3.org/1999/xlink">
    <!-- Generator: Sketch 50.2 (55047) - http://www.bohemiancoding.com/sketch -->
    <title>Home Sco V2</title>
    <desc>Created with Sketch.</desc>
    <defs>
        <linearGradient x1="68.6429521%" y1="0%" x2="68.6429501%" y2="100%" id="linearGradient-1">
            <stop stop-color="#FFBE00" offset="0%"></stop>
            <stop stop-color="#FF9F00" offset="100%"></stop>
        </linearGradient>
    </defs>
    <g id="SCO" stroke="none" stroke-width="1" fill="none" fill-rule="evenodd">
        <g id="Home-Sco-V2" transform="translate(-1064.000000, -689.000000)">
            <g id="0---INFOS" transform="translate(165.000000, 691.000000)">
                <g id="3" transform="translate(765.000000, 0.000000)">
                    <g id="Group-5" transform="translate(139.000000, 0.000000)">
                        <path d="M34.6290554,7.99132047 C31.6869175,7.99132047 29.3015084,10.3767296 29.3015084,13.3188674 L29.3015084,73.2537709 L39.9566023,73.2537709 L39.9566023,13.3188674 C39.9566023,10.3767296 37.5711932,7.99132047 34.6290554,7.99132047" id="Fill-1" fill="url(#linearGradient-1)" fill-rule="nonzero"></path>
                        <path d="M66.5943372,29.3015084 L46.616036,29.3015084 L46.616036,31.9652819 L62.598677,31.9652819 L62.598677,70.5899974 C62.598677,71.323867 62.0006598,71.9218842 61.2667902,71.9218842 L41.2884891,71.9218842 L41.2884891,31.9652819 L43.9522626,31.9652819 L43.9522626,29.3015084 L41.2884891,29.3015084 L41.2884891,15.9826409 L62.598677,15.9826409 C64.8016177,15.9826409 66.5943372,17.7753605 66.5943372,19.9783012 L66.5943372,29.3015084 Z M49.8059048,3.52150855 C50.6090325,2.96078423 51.5493445,2.66377349 52.5269494,2.66377349 C55.142775,2.66377349 57.27113,4.79212851 57.27113,7.40795407 L57.27113,13.3188674 L41.2884891,13.3188674 C41.2884891,12.1428114 40.9555174,11.0533281 40.418767,10.0930377 L49.8059048,3.52150855 Z M30.6333951,13.3188674 C30.6333951,11.1159268 32.4261147,9.32320721 34.6290554,9.32320721 C36.831996,9.32320721 38.6247156,11.1159268 38.6247156,13.3188674 L30.6333951,13.3188674 Z M30.6333951,71.9218842 L38.6247156,71.9218842 L38.6247156,15.9826409 L30.6333951,15.9826409 L30.6333951,71.9218842 Z M27.9696216,13.3188674 L11.9869807,13.3188674 L11.9869807,7.40795407 C11.9869807,4.79212851 14.1153357,2.66377349 16.7311613,2.66377349 C17.7087662,2.66377349 18.6490782,2.96078423 19.4522059,3.52150855 L28.8393437,10.0930377 C28.3025933,11.0533281 27.9696216,12.1428114 27.9696216,13.3188674 Z M27.9696216,29.3015084 L2.66377349,29.3015084 L2.66377349,19.9783012 C2.66377349,17.7753605 4.45649305,15.9826409 6.65943372,15.9826409 L27.9696216,15.9826409 L27.9696216,29.3015084 Z M27.9696216,71.9218842 L7.85147236,71.9218842 C7.11760276,71.9218842 6.51958561,71.323867 6.51958561,70.5899974 L6.51958561,31.9652819 L27.9696216,31.9652819 L27.9696216,71.9218842 Z M62.598677,13.3188674 L59.9349035,13.3188674 L59.9349035,7.40795407 C59.9349035,3.32305743 56.6118461,0 52.5269494,0 C51.0006072,0 49.5302042,0.463496587 48.2795626,1.33854618 L38.6726635,8.06324235 C37.5472192,7.19618408 36.1553976,6.65943372 34.6290554,6.65943372 C33.1027131,6.65943372 31.7108915,7.19618408 30.5867791,8.06457424 L20.97988,1.33987806 C19.7279065,0.463496587 18.2575035,0 16.7311613,0 C12.6462646,0 9.32320721,3.32305743 9.32320721,7.40795407 L9.32320721,13.3188674 L6.65943372,13.3188674 C2.98742197,13.3188674 0,16.3062894 0,19.9783012 L0,31.9652819 L3.85581212,31.9652819 L3.85581212,70.5899974 C3.85581212,72.7929381 5.64853168,74.5856577 7.85147236,74.5856577 L61.2667902,74.5856577 C63.4697309,74.5856577 65.2624505,72.7929381 65.2624505,70.5899974 L65.2624505,31.9652819 L69.2581107,31.9652819 L69.2581107,19.9783012 C69.2581107,16.3062894 66.2706887,13.3188674 62.598677,13.3188674 Z" id="Fill-3" fill="#222222"></path>
                    </g>
                </g>
            </g>
        </g>
    </g>
</svg>