<?xml version="1.0" encoding="UTF-8"?>
<svg width="88px" height="69px" viewBox="0 0 88 69" version="1.1" xmlns="http://www.w3.org/2000/svg" xmlns:xlink="http://www.w3.org/1999/xlink">
    <!-- Generator: Sketch 51.1 (57501) - http://www.bohemiancoding.com/sketch -->
    <title>icn-calendar</title>
    <desc>Created with Sketch.</desc>
    <defs></defs>
    <g id="SCO" stroke="none" stroke-width="1" fill="none" fill-rule="evenodd">
        <g id="Home-Sco-V2" transform="translate(-676.000000, -3887.000000)" fill-rule="nonzero">
            <g id="5---AGENDA" transform="translate(0.000000, 3786.304688)">
                <g id="icn-calendar" transform="translate(662.000000, 92.050781)">
                    <rect id="Rectangle-3" fill="#D8D8D8" opacity="0" x="0" y="0.64453125" width="110" height="87"></rect>
                    <path d="M91.3439,72.525 C91.3439,73.3011 90.7139,73.9314 89.9375,73.9314 L18.2189,73.9314 C17.4425,73.9314 16.8125,73.3014 16.8125,72.525 L16.8125,31.7439 L91.3439,31.7439 L91.3439,50.025 L94.1564,50.025 L94.1564,21.9 C94.1564,19.5741 92.2637,17.6811 89.9375,17.6811 L84.3125,17.6811 L84.3125,13.4625 C84.3125,11.1366 82.4198,9.2436 80.0936,9.2436 C77.7677,9.2436 75.8747,11.1363 75.8747,13.4625 L75.8747,17.6814 L32.2814,17.6814 L32.2814,13.4625 C32.2814,11.1366 30.3887,9.2436 28.0625,9.2436 C25.7363,9.2436 23.8436,11.1363 23.8436,13.4625 L23.8436,17.6814 L18.2186,17.6814 C15.8927,17.6814 14,19.5741 14,21.9 L14,72.525 C14,74.8509 15.8927,76.7439 18.2189,76.7439 L89.9378,76.7439 C92.2637,76.7439 94.1567,74.8512 94.1567,72.525 L94.1567,69.7125 L91.3442,69.7125 L91.3442,72.525 L91.3439,72.525 Z M78.6875,13.4625 C78.6875,12.6876 79.3175,12.0561 80.0939,12.0561 C80.8703,12.0561 81.5,12.6876 81.5,13.4625 L81.5,19.0875 C81.5,19.8624 80.87,20.4939 80.0936,20.4939 C79.3172,20.4939 78.6872,19.8624 78.6872,19.0875 L78.6872,13.4625 L78.6875,13.4625 Z M26.6564,13.4625 C26.6564,12.6876 27.2864,12.0561 28.0628,12.0561 C28.8392,12.0561 29.4692,12.6876 29.4692,13.4625 L29.4692,19.0875 C29.4692,19.8624 28.8392,20.4939 28.0628,20.4939 C27.2864,20.4939 26.6564,19.8624 26.6564,19.0875 L26.6564,13.4625 Z M18.2189,20.4939 L24.1028,20.4939 C24.6851,22.1265 26.2319,23.3064 28.0628,23.3064 C29.8937,23.3064 31.4405,22.1265 32.0228,20.4939 L76.1354,20.4939 C76.7177,22.1265 78.2645,23.3064 80.0954,23.3064 C81.9263,23.3064 83.4731,22.1265 84.0554,20.4939 L89.9378,20.4939 C90.7139,20.4939 91.3442,21.1254 91.3442,21.9003 L91.3442,28.932 L16.8125,28.932 L16.8125,21.9 C16.8125,21.1251 17.4425,20.4939 18.2189,20.4939 Z" id="Shape" fill="#333333"></path>
                    <path d="M89.2346,71.1189 C82.6436,71.1189 77.2814,65.757 77.2814,59.1657 C77.2814,52.5744 82.6433,47.2125 89.2346,47.2125 C95.8259,47.2125 101.1878,52.5744 101.1878,59.1657 C101.1878,65.757 95.8256,71.1189 89.2346,71.1189 Z" id="Shape" fill="#FFBE00"></path>
                    <polygon id="Shape" fill="#333333" points="83.6867 58.6989 82.1258 61.0389 87.4064 64.5588 100.8698 48.1026 98.693 46.3224 86.8439 60.804"></polygon>
                    <path d="M30.875,35.9625 L21.0314,35.9625 L21.0314,44.4 L30.875,44.4 L30.875,35.9625 Z M28.0625,41.5875 L23.8439,41.5875 L23.8439,38.775 L28.0628,38.775 L28.0625,41.5875 Z" id="Shape" fill="#333333"></path>
                    <path d="M44.9375,35.9625 L35.0939,35.9625 L35.0939,44.4 L44.9378,44.4 L44.9378,35.9625 L44.9375,35.9625 Z M42.125,41.5875 L37.9064,41.5875 L37.9064,38.775 L42.125,38.775 L42.125,41.5875 Z" id="Shape" fill="#333333"></path>
                    <path d="M59,35.9625 L49.1561,35.9625 L49.1561,44.4 L59,44.4 L59,35.9625 Z M56.1875,41.5875 L51.9686,41.5875 L51.9686,38.775 L56.1875,38.775 L56.1875,41.5875 Z" id="Shape" fill="#333333"></path>
                    <path d="M73.0625,35.9625 L63.2186,35.9625 L63.2186,44.4 L73.0625,44.4 L73.0625,35.9625 Z M70.25,41.5875 L66.0311,41.5875 L66.0311,38.775 L70.25,38.775 L70.25,41.5875 Z" id="Shape" fill="#333333"></path>
                    <path d="M87.125,35.9625 L77.2811,35.9625 L77.2811,44.4 L87.125,44.4 L87.125,35.9625 Z M84.3125,41.5875 L80.0936,41.5875 L80.0936,38.775 L84.3125,38.775 L84.3125,41.5875 Z" id="Shape" fill="#333333"></path>
                    <path d="M30.875,48.6189 L21.0314,48.6189 L21.0314,57.0564 L30.875,57.0564 L30.875,48.6189 Z M28.0625,54.2439 L23.8439,54.2439 L23.8439,51.4314 L28.0628,51.4314 L28.0625,54.2439 Z" id="Shape" fill="#333333"></path>
                    <path d="M44.9375,48.6189 L35.0939,48.6189 L35.0939,57.0564 L44.9378,57.0564 L44.9378,48.6189 L44.9375,48.6189 Z M42.125,54.2439 L37.9064,54.2439 L37.9064,51.4314 L42.125,51.4314 L42.125,54.2439 Z" id="Shape" fill="#333333"></path>
                    <path d="M59,48.6189 L49.1561,48.6189 L49.1561,57.0564 L59,57.0564 L59,48.6189 Z M56.1875,54.2439 L51.9686,54.2439 L51.9686,51.4314 L56.1875,51.4314 L56.1875,54.2439 Z" id="Shape" fill="#333333"></path>
                    <path d="M73.0625,48.6189 L63.2186,48.6189 L63.2186,57.0564 L73.0625,57.0564 L73.0625,48.6189 Z M70.25,54.2439 L66.0311,54.2439 L66.0311,51.4314 L70.25,51.4314 L70.25,54.2439 Z" id="Shape" fill="#333333"></path>
                    <path d="M21.0314,69.7125 L30.875,69.7125 L30.875,61.275 L21.0314,61.275 L21.0314,69.7125 Z M23.8439,64.0875 L28.0628,64.0875 L28.0628,66.9 L23.8439,66.9 L23.8439,64.0875 Z" id="Shape" fill="#333333"></path>
                    <path d="M35.0939,69.7125 L44.9378,69.7125 L44.9378,61.275 L35.0939,61.275 L35.0939,69.7125 Z M37.9064,64.0875 L42.125,64.0875 L42.125,66.9 L37.9064,66.9 L37.9064,64.0875 Z" id="Shape" fill="#333333"></path>
                    <path d="M49.1564,69.7125 L59,69.7125 L59,61.275 L49.1561,61.275 L49.1561,69.7125 L49.1564,69.7125 Z M51.9689,64.0875 L56.1878,64.0875 L56.1878,66.9 L51.9689,66.9 L51.9689,64.0875 Z" id="Shape" fill="#333333"></path>
                    <path d="M63.2189,69.7125 L73.0628,69.7125 L73.0628,61.275 L63.2189,61.275 L63.2189,69.7125 Z M66.0314,64.0875 L70.25,64.0875 L70.25,66.9 L66.0311,66.9 L66.0311,64.0875 L66.0314,64.0875 Z" id="Shape" fill="#333333"></path>
                </g>
            </g>
        </g>
    </g>
</svg>