<?xml version="1.0" encoding="UTF-8"?>
<svg width="79px" height="82px" viewBox="0 0 79 82" version="1.1" xmlns="http://www.w3.org/2000/svg" xmlns:xlink="http://www.w3.org/1999/xlink">
    <!-- Generator: Sketch 50.2 (55047) - http://www.bohemiancoding.com/sketch -->
    <title>Home Sco V2</title>
    <desc>Created with Sketch.</desc>
    <defs>
        <linearGradient x1="68.6429521%" y1="0%" x2="68.6429501%" y2="100%" id="linearGradient-1">
            <stop stop-color="#FFBE00" offset="0%"></stop>
            <stop stop-color="#FF9F00" offset="100%"></stop>
        </linearGradient>
        <linearGradient x1="50%" y1="0%" x2="50%" y2="97.4643244%" id="linearGradient-2">
            <stop stop-color="#555555" offset="0%"></stop>
            <stop stop-color="#222222" offset="100%"></stop>
        </linearGradient>
    </defs>
    <g id="SCO" stroke="none" stroke-width="1" fill="none" fill-rule="evenodd">
        <g id="Home-Sco-V2" transform="translate(-680.000000, -689.000000)" fill-rule="nonzero">
            <g id="0---INFOS" transform="translate(165.000000, 691.000000)">
                <g id="2" transform="translate(387.000000, 0.000000)">
                    <g id="icon-certification" transform="translate(129.000000, 0.974898)">
                        <path d="M9.31518805,9.17115463 L69.8446546,9.17115463 L69.8446546,55.0267738 L11.149419,55.0267738 C10.1368717,55.0267738 9.31518805,54.2050901 9.31518805,53.1925428 L9.31518805,9.17115463 Z" id="Shape" fill="#FFFFFF"></path>
                        <circle id="Oval" fill="url(#linearGradient-1)" cx="60.673654" cy="49.524081" r="14.6738474"></circle>
                        <g id="Group" transform="translate(53.300067, 42.054677)">
                            <circle id="Oval" fill="#FFFFFF" cx="7.37358676" cy="7.46940364" r="7.33692371"></circle>
                            <polygon id="Shape" fill="url(#linearGradient-1)" points="1.87089398 22.1432511 1.87089398 34.9828675 7.37358676 31.3144057 12.8761255 34.9828675 12.8761255 22.1432511"></polygon>
                        </g>
                        <path d="M71.6788855,0 L5.6467262,0 C2.60738999,0 0.144033419,2.46335658 0.144033419,5.50269278 L0.144033419,56.8610047 C0.144033419,59.9003409 2.60738999,62.3636975 5.6467262,62.3636975 L44.1655757,62.3636975 L44.1655757,58.6952356 L5.6467262,58.6952356 C4.63417897,58.6952356 3.81249527,57.8735519 3.81249527,56.8610047 L3.81249527,5.50269278 C3.81249527,4.49014555 4.63417897,3.66846185 5.6467262,3.66846185 L71.6788855,3.66846185 C72.6914327,3.66846185 73.5131164,4.49014555 73.5131164,5.50269278 L73.5131164,34.8503876 L77.1815783,34.8503876 L77.1815783,5.50269278 C77.1815783,2.46335658 74.7182217,0 71.6788855,0 Z" id="Shape" fill="url(#linearGradient-2)"></path>
                        <path d="M69.8446546,29.3476948 L69.8446546,11.0053856 C69.8446546,8.97859659 68.2029817,7.33692371 66.1761927,7.33692371 L11.149419,7.33692371 C9.12263001,7.33692371 7.48095713,8.97859659 7.48095713,11.0053856 L7.48095713,51.3583119 C7.48095713,53.3851009 9.12263001,55.0267738 11.149419,55.0267738 L40.4971138,55.0267738 L40.4971138,51.3583119 L11.149419,51.3583119 L11.149419,11.0053856 L66.1761927,11.0053856 L66.1761927,29.3476948 L69.8446546,29.3476948 Z" id="Shape" fill="url(#linearGradient-1)"></path>
                        <path d="M60.673654,33.0161567 C51.5648882,33.0069139 44.1729699,40.3823492 44.1637271,49.4929636 C44.1563329,55.7697397 47.712957,61.5053507 53.3367303,64.2897401 L53.3367303,77.0375449 C53.3367303,78.0500921 54.158414,78.8717758 55.1709612,78.8717758 C55.5342027,78.8717758 55.8882014,78.7653297 56.1889001,78.5636829 L60.673654,75.5702526 L65.1584079,78.5599858 C66.0002717,79.1230255 67.1394451,78.895653 67.7024848,78.0519407 C67.9024371,77.751088 68.0105777,77.3989378 68.0105777,77.0375449 L68.0105777,64.2897401 C76.1728822,60.2470994 79.5130711,50.3533129 75.4704305,42.1891599 C72.6858871,36.5653866 66.9502761,33.0087624 60.673654,33.0161567 Z M64.3419618,66.0321593 L64.3419618,73.611244 L61.6914388,71.843099 C61.075099,71.4322572 60.2717468,71.4322572 59.655407,71.843099 L57.0048841,73.611244 L57.0048841,66.0321593 L64.3419618,66.0321593 Z M60.673654,62.3636975 C53.5825884,62.3636975 47.8340375,56.6153006 47.8340375,49.524081 C47.8340375,42.4328613 53.5824344,36.6844645 60.673654,36.6844645 C67.7647196,36.6844645 73.5132705,42.4328613 73.5132705,49.524081 C73.5058763,56.6116035 67.762871,62.3564573 60.673654,62.3636975 Z" id="Shape" fill="url(#linearGradient-2)"></path>
                        <path d="M60.673654,40.3529263 C55.6093774,40.3529263 51.5024994,44.4598044 51.5024994,49.524081 C51.5024994,54.5883576 55.6093774,58.6952356 60.673654,58.6952356 C65.7379306,58.6952356 69.8448086,54.5883576 69.8448086,49.524081 C69.839263,44.4616529 65.7360821,40.358472 60.673654,40.3529263 Z M60.673654,55.0267738 C57.6343178,55.0267738 55.1709612,52.5634172 55.1709612,49.524081 C55.1709612,46.4847448 57.6343178,44.0213882 60.673654,44.0213882 C63.7129902,44.0213882 66.1763468,46.4847448 66.1763468,49.524081 C66.1763468,52.5634172 63.7128362,55.0267738 60.673654,55.0267738 Z" id="Shape" fill="url(#linearGradient-2)"></path>
                        <rect id="Rectangle-path" fill="#000000" x="29.4917282" y="20.0752917" width="14.6738474" height="3.66846185"></rect>
                        <rect id="Rectangle-path" fill="#000000" x="20.3205736" y="27.5134639" width="33.0161567" height="3.66846185"></rect>
                    </g>
                </g>
            </g>
        </g>
    </g>
</svg>