<?xml version="1.0" encoding="UTF-8"?>
<svg width="125px" height="24px" viewBox="0 0 125 24" version="1.1" xmlns="http://www.w3.org/2000/svg" xmlns:xlink="http://www.w3.org/1999/xlink">
    <!-- Generator: sketchtool 53 (72520) - https://sketchapp.com -->
    <title>08D9A15E-3816-4254-B8AB-33BA03E1CD7F</title>
    <desc>Created with sketchtool.</desc>
    <g id="QUI-SOMMES-NOUS" stroke="none" stroke-width="1" fill="none" fill-rule="evenodd">
        <g id="Qui-sommes-nous" transform="translate(-1102.000000, -2190.000000)" fill="#C4122D" fill-rule="nonzero">
            <g id="SERVICE-PUBLIC" transform="translate(0.000000, 1840.000000)">
                <g id="Group-2" transform="translate(203.000000, 332.000000)">
                    <g id="6.-logos/logos--cnam" transform="translate(889.933464, 0.000000)">
                        <path d="M16.7337023,32.1699525 C16.7773166,26.5660696 20.0495102,23.2457886 24.7654501,23.2122391 C26.9774798,23.2155941 28.607985,23.8418512 29.7072899,24.9568125 C30.8054766,26.0728922 31.4272604,27.7403017 31.4294971,29.997064 C31.4294971,30.6579889 31.3769362,31.4519935 31.2315551,32.2359332 L18.4782757,32.2359332 L18.4782757,32.8935032 C18.4782757,35.1234258 19.490352,37.0044338 20.6444544,38.3318752 C21.8030302,39.6693815 23.4827413,40.4287183 25.3950622,40.4276 L25.408482,40.4276 L25.4185468,40.4276 L25.4274934,40.4276 C26.8567016,40.4264816 28.0231056,40.0999333 28.8663161,39.3383599 C29.5462524,38.7221676 29.9544378,37.8800755 30.1646813,36.8702359 L31.3825278,37.2594099 C31.0906472,38.5566568 30.4163025,39.4434816 29.4433673,40.0853952 C28.3395891,40.8055909 26.9316288,41.1656887 25.2127766,41.1656887 L25.2083034,41.1656887 C22.58026,41.1634521 20.4957184,40.3694475 19.0452621,38.8887968 C17.5959241,37.4059094 16.7359389,35.1860515 16.7337023,32.1699525 Z M9.75697406,40.9527622 L9.75697406,18.4130964 L11.1079002,18.4130964 L11.1079002,40.9527622 L9.75697406,40.9527622 Z M50.3686303,23.1716441 C54.0635474,23.196247 56.3572141,24.8256339 56.9767614,27.5364326 C56.2800503,27.7600959 55.7208922,27.9613928 55.0923984,28.1582165 C54.4169353,25.999866 52.6824267,24.4733643 50.3115962,24.4733643 L50.2903481,24.4733643 L50.2735734,24.4733643 C48.2963902,24.4733643 46.7475221,25.3691356 45.7589304,26.7826874 C44.760274,28.1973576 44.2872262,30.0984953 44.2861079,32.1785637 C44.2861079,34.2944181 44.8899987,36.2168039 46.0105516,37.6270007 C47.1232763,39.0383159 48.7716746,39.9206675 50.7499762,39.9206675 L50.7633959,39.9206675 C50.7868806,39.9206675 50.8092469,39.9206675 50.8327316,39.9206675 C53.5222823,39.9206675 55.1002266,38.3225935 55.7007625,36.1251019 C56.3348478,36.3208073 56.7989491,36.4583602 57.392775,36.6518289 C56.5808774,39.6399701 54.6976327,41.1843649 50.6459727,41.2246243 C45.1818792,41.1977847 42.0271089,37.5308255 41.9946777,32.1785637 C42.0360554,26.8039355 44.8709873,23.2029569 50.3686303,23.1716441 Z M71.3590912,23.1476004 C75.3984498,23.1654935 77.3924078,25.7488042 77.4158924,29.9939329 L77.4158924,40.9735625 L74.1481721,40.9746808 L74.1481721,30.2634471 C74.1481721,28.86667 73.8126772,27.8020329 73.1819468,27.0807189 C72.5523347,26.3616415 71.6386703,26.0138451 70.5639683,26.0138451 L70.5516668,26.0138451 C67.0569283,26.0507496 65.1904583,30.468099 65.1871034,35.7633268 L65.1871034,40.9735625 L61.9126731,40.9735625 L61.9126731,23.521118 L63.7142807,23.521118 L64.4993388,28.2918555 L64.9142342,28.3086302 C65.8413184,24.553324 67.6261513,23.1699667 71.3590912,23.1476004 Z M126.798387,23.1711967 C129.803303,23.1711967 133.387507,24.5925767 133.387507,31.3651002 L133.387507,40.9770289 L126.31863,40.9770289 L126.31863,31.3651002 C126.31863,28.9249341 125.132096,28.9249341 124.703781,28.9249341 C122.412351,28.9249341 121.544538,32.9173233 121.544538,36.6256601 L121.544538,40.9770289 L114.41639,40.9770289 L114.41639,31.3651002 C114.41639,28.9249341 113.229856,28.9249341 112.800423,28.9249341 C109.706042,28.9249341 109.640061,34.8206976 109.640061,36.6256601 L109.640061,40.9770289 L103.447944,40.9770289 L103.447944,23.4977451 L107.212197,23.4977451 L108.147109,28.1890819 L108.592199,28.1913186 C109.773141,25.0846359 111.913598,23.1711967 114.893911,23.1711967 C117.205471,23.1711967 119.925216,24.7055267 120.999918,28.2539443 C122.17415,25.3440853 124.117783,23.1711967 126.798387,23.1711967 Z M90.2139045,23.1852874 C95.5482732,23.1852874 98.1416487,25.680251 98.1416487,30.8122043 L98.1416487,36.4328619 C98.1416487,37.6999142 98.6817954,38.3149881 99.7945201,38.3149881 C100.118832,38.3149881 100.358152,38.2691372 100.556094,38.215458 L100.556094,40.2172441 C99.7911652,40.8826423 98.8517795,41.1935342 97.6070935,41.1935342 C94.7822265,41.1935342 93.3776213,40.0729813 93.1875075,37.6663647 L92.9079284,37.6238687 C92.2492401,39.2689119 90.7361582,41.2304386 87.2693777,41.2304386 C83.9121922,41.2304386 81.9081694,39.5216514 81.9081694,36.6598801 C81.9081694,33.6314796 84.4422741,31.9640701 89.0430273,31.9640701 C90.1412139,31.9640701 91.3422856,32.0389973 92.6115746,32.1877333 L92.7737305,32.2067447 L92.7737305,30.2083136 C92.7737305,27.7323613 91.8354631,26.4776105 89.9857679,26.4776105 C88.2881638,26.4776105 87.2749692,27.2928631 87.2749692,28.6605638 C87.2749692,28.7097698 87.288389,28.9736924 87.3275301,29.2007106 C87.358843,29.3863511 87.4158771,29.5473886 87.4158771,29.5473886 L82.6697428,30.6086708 C82.6552046,30.574003 82.6059987,30.4453966 82.5635027,30.3100803 C82.5187701,30.1702908 82.4829839,30.0215547 82.4695641,29.9634023 C82.3476677,29.4333204 82.2861603,28.9211315 82.2861603,28.434664 C82.2861603,25.0987266 85.1747713,23.1852874 90.2139045,23.1852874 Z M24.7878161,23.8686908 C22.9817353,23.8675725 21.4384589,24.7197295 20.4565772,26.0180947 C19.4769322,27.3063951 18.6314851,28.9111789 18.4816307,30.7921869 L18.4391347,31.3010208 L18.4234782,31.5023178 L18.6247752,31.5023178 L29.5786829,31.5023178 L29.7229457,31.5023178 L29.7598501,31.3614099 C29.9197694,30.7262063 29.9231243,29.7521528 29.9231243,29.1929946 L29.9231243,29.1896397 L29.9231243,29.1874031 L29.9231243,29.1717466 C29.9197694,27.6709662 29.3751494,26.3412881 28.5062176,25.3784178 C27.6384042,24.4110742 26.3489856,23.8675725 24.8213656,23.8686908 L24.7989992,23.8698091 L24.7878161,23.8686908 Z M89.1951154,38.4659612 C91.3691222,38.4659612 92.7737275,36.8533492 92.7737275,34.3583856 L92.7737275,33.6247701 L92.6182815,33.634835 C88.0577877,33.9345437 87.1239936,35.0618065 87.1239936,36.6598804 C87.1239936,37.7904982 87.8978685,38.4659612 89.1951154,38.4659612 Z" id="Le-cnam"></path>
                    </g>
                </g>
            </g>
        </g>
    </g>
</svg>