<?xml version="1.0" encoding="UTF-8"?>
<svg width="240px" height="198px" viewBox="0 0 240 198" version="1.1" xmlns="http://www.w3.org/2000/svg" xmlns:xlink="http://www.w3.org/1999/xlink">
    <!-- Generator: Sketch 50 (54983) - http://www.bohemiancoding.com/sketch -->
    <title>logos--pix/blanc</title>
    <desc>Created with Sketch.</desc>
    <defs></defs>
    <g id="logos--pix/blanc" stroke="none" stroke-width="1" fill="none" fill-rule="evenodd">
        <g id="Group-2" transform="translate(17.000000, 21.500000)" fill="#FFFFFF">
            <g id="Group" transform="translate(126.000000, 37.000000)">
                <path d="M40.7983048,59.29476 L44.8007908,54.4383697 C47.2805231,51.586755 48.9865234,48.9526255 49.9187915,46.4002606 C50.1463333,46.7019588 50.3909956,47.0118906 50.652189,47.3300544 L75.1046427,77.1846779 C79.3838825,82.6679776 79.1798504,83.6835372 72.048086,83.6835372 L69.6027199,83.6835372 C62.4709555,83.6835372 59.8218592,82.2618741 55.5426194,77.1846779 L40.7983048,59.29476 Z M31.677818,46.4002606 C30.5483009,43.3078672 30.5545646,40.3354982 31.6966093,37.2417737 C33.0547279,38.9246325 33.797247,40.4595259 33.797247,41.8464539 C33.797247,43.0656335 33.0478773,44.5836956 31.677818,46.4002606 Z M40.7983048,24.3984486 L55.5426194,6.5085306 C59.8218592,1.4313344 62.4709555,0.00967133196 69.6027199,0.00967133196 L72.048086,0.00967133196 C79.1798504,0.00967133196 79.3838825,1.0252309 75.1046427,6.5085306 L50.652189,36.3631542 C50.3837905,36.6603767 50.1328477,36.9532499 49.9000002,37.2417737 C48.9636905,34.7053718 47.263954,32.0873995 44.8007908,29.2548388 L40.7983048,24.3984486 Z" id="Combined-Shape"></path>
                <path d="M41.865595,83.6835372 C48.9973595,83.6835372 49.2013915,82.6679776 44.9221517,77.1846779 L20.4696981,47.3300544 C18.6358244,45.0961843 17.6168716,43.2681169 17.6168716,41.8464539 C17.6168716,40.221739 18.6358244,38.3939725 20.4696981,36.3631542 L44.9221517,6.5085306 C49.2013915,1.0252309 48.9973595,0.00967133196 41.865595,0.00967133196 L39.4202289,0.00967133196 C32.2884645,0.00967133196 29.6393682,1.4313344 25.3601284,6.5085306 L6.61332779,29.2548388 C-1.33396111,38.3939725 -1.33396111,45.2992361 6.61332779,54.4383697 L25.3601284,77.1846779 C29.6393682,82.2618741 32.2884645,83.6835372 39.4202289,83.6835372 L41.865595,83.6835372 Z" id="Page-1" transform="translate(24.207059, 41.846604) scale(-1, 1) translate(-24.207059, -41.846604) "></path>
            </g>
            <path d="M0,146.719601 C0,152.783189 1.52096217,154.299086 7.60481085,154.299086 L9.63256556,154.299086 C15.7164142,154.299086 17.2373764,152.783189 17.2373764,146.719601 L17.2373764,111.517522 C21.8002629,118.759979 30.0810894,122.465538 42.0795637,122.465538 C65.5697196,122.465538 77.2303322,110.169993 77.2303322,85.7475619 L77.2303322,71.0939868 C77.2303322,46.6712646 64.7247731,35.2181434 38.5305545,35.2181434 C14.1954521,35.2181434 0,47.0082925 0,71.0939868 L0,146.719601 Z M59.8240249,86.0842985 C59.8240249,100.232477 55.0922075,106.127698 38.6997776,106.127698 C21.9691938,106.127698 17.2373764,100.064109 17.2373764,86.0842985 L17.2373764,71.5990917 C17.2373764,57.4509128 22.3073477,51.3873243 38.6997776,51.3873243 C55.4300692,51.3873243 59.8240249,57.4509128 59.8240249,71.5990917 L59.8240249,86.0842985 Z" id="Fill-1"></path>
            <path d="M93.4857412,112.901644 C93.4857412,118.965232 95.0067034,120.48113 101.090552,120.48113 L103.287238,120.48113 C109.371086,120.48113 110.892048,118.965232 110.892048,112.901644 L110.892048,44.5184879 C110.892048,38.4548994 109.371086,36.9390023 103.287238,36.9390023 L101.090552,36.9390023 C95.0067034,36.9390023 93.4857412,38.4548994 93.4857412,44.5184879 L93.4857412,112.901644 Z M94.6685494,18.7485281 C98.8935742,22.7908233 105.653146,22.7908233 109.70924,18.7485281 C113.933973,14.5375733 113.933973,7.80051171 109.70924,3.75821648 C105.653146,-0.452738318 98.8935742,-0.452738318 94.6685494,3.75821648 C90.4438169,7.80051171 90.4438169,14.5375733 94.6685494,18.7485281 L94.6685494,18.7485281 Z" id="Fill-2"></path>
        </g>
    </g>
</svg>