<?xml version="1.0" encoding="UTF-8"?>
<svg width="117px" height="100px" viewBox="0 0 117 100" version="1.1" xmlns="http://www.w3.org/2000/svg" xmlns:xlink="http://www.w3.org/1999/xlink">
    <!-- Generator: Sketch 50.2 (55047) - http://www.bohemiancoding.com/sketch -->
    <title>Group 37</title>
    <desc>Created with Sketch.</desc>
    <defs>
        <polygon id="path-1" points="0 99.6387483 116.166457 99.6387483 116.166457 0 0 0"></polygon>
    </defs>
    <g id="PRO" stroke="none" stroke-width="1" fill="none" fill-rule="evenodd">
        <g id="Home-Pro-V2" transform="translate(-197.000000, -3186.000000)">
            <g id="4---ILS-INVENTENT" transform="translate(-0.500000, 2954.886719)">
                <g id="Group-37" transform="translate(197.741151, 231.255630)">
                    <path d="M29.3241929,99.6387483 L30.6319497,94.0517927 C30.6319497,94.0517927 14.8946331,82.8057148 6.17345912,63.9674936 C6.17345912,63.9674936 -9.71962264,33.7495293 20.5063732,0 C20.5063732,0 -6.28146751,22.6471573 1.37681342,55.1117015 C1.37681342,55.1117015 5.31140461,76.8108606 29.3241929,99.6387483" id="Fill-1" fill="#004F92"></path>
                    <path d="M25.7368134,76.7535037 C25.7368134,76.7535037 32.3108176,82.9125633 30.5934172,93.0052295 L25.5005451,88.2748609 C25.5005451,88.2748609 27.7160587,83.5120696 25.7368134,76.7535037" id="Fill-3" fill="#004F92"></path>
                    <path d="M30.6813627,60.9163703 L30.6813627,61.0837133 C30.6813627,61.2171694 30.6587212,61.3958081 30.6140671,61.6190018 C30.569413,61.8421955 30.4524319,62.0647617 30.2624948,62.2877463 C30.072348,62.51094 29.7874423,62.7031753 29.4073585,62.8646613 C29.0272746,63.0259382 28.5021174,63.1073087 27.8318868,63.1073087 C27.1616562,63.1073087 26.636499,63.0259382 26.2564151,62.8646613 C25.8765409,62.7031753 25.5916352,62.51094 25.4019078,62.2877463 C25.2121803,62.0647617 25.0943606,61.839267 25.0499161,61.6106346 C25.0052621,61.3824206 24.9826205,61.2067105 24.9826205,61.0837133 L24.9826205,60.665565 L24.9826205,53.1736184 L24.9826205,52.7387357 C24.9826205,52.616157 25.0052621,52.4404468 25.0499161,52.2120236 C25.0943606,51.9836004 25.2121803,51.7581057 25.4019078,51.5347028 C25.5916352,51.311509 25.8765409,51.1192737 26.2564151,50.9579969 C26.636499,50.7965109 27.1616562,50.7153495 27.8318868,50.7153495 C28.5021174,50.7153495 29.0272746,50.7965109 29.4073585,50.9579969 C29.7874423,51.1192737 30.072348,51.311509 30.2624948,51.5347028 C30.4524319,51.7581057 30.569413,51.9836004 30.6140671,52.2120236 C30.6587212,52.4404468 30.6813627,52.616157 30.6813627,52.7387357 L30.6813627,53.1736184 L29.2564151,53.1736184 L29.2564151,52.9897502 C29.2564151,52.8893444 29.2396436,52.7807807 29.2063103,52.6636405 C29.1731866,52.5465004 29.1027463,52.4377275 28.997086,52.3375309 C28.890587,52.2373342 28.742369,52.1511526 28.5526415,52.0783584 C28.3624948,52.0057733 28.1061006,51.9695854 27.7813627,51.9695854 C27.4798952,51.9695854 27.2371279,52.0057733 27.0528512,52.0783584 C26.8685744,52.1511526 26.7258071,52.2429821 26.6251782,52.354056 C26.5247589,52.4657574 26.460608,52.579969 26.4325157,52.6971091 C26.4046331,52.8140401 26.3910063,52.9230222 26.3910063,53.0232188 L26.3910063,53.1736184 L26.3910063,60.665565 L26.3910063,60.8161737 C26.3910063,60.9163703 26.4046331,61.0251433 26.4325157,61.1424926 C26.460608,61.2596327 26.5247589,61.371125 26.6251782,61.4765511 C26.7258071,61.5828139 26.8685744,61.6717148 27.0528512,61.7442999 C27.2371279,61.8166757 27.4798952,61.853282 27.7813627,61.853282 C28.1061006,61.853282 28.3624948,61.8166757 28.5526415,61.7442999 C28.742369,61.6717148 28.890587,61.5851148 28.997086,61.4851274 C29.1027463,61.3845124 29.1731866,61.2761578 29.2063103,61.1590177 C29.2396436,61.0416684 29.2564151,60.9389616 29.2564151,60.8494331 L29.2564151,60.665565 L29.2564151,59.8127432 L29.2564151,58.3576957 C29.2564151,58.1683889 29.2455136,58.01527 29.2230818,57.8979208 C29.2004403,57.7809898 29.1421593,57.7002468 29.0469811,57.6556918 C28.9518029,57.6111367 28.8096646,57.6052797 28.6199371,57.6387483 C28.4295807,57.6724261 28.1673166,57.7445927 27.8318868,57.8562942 L27.8318868,56.4512404 C27.9771698,56.3960172 28.1197275,56.345396 28.2595597,56.3010501 C28.3987631,56.256495 28.53,56.2119399 28.6532704,56.1667573 C28.9214046,56.0778563 29.211761,56.0667699 29.5251782,56.1337071 C29.8379665,56.2008534 30.0947799,56.3401665 30.2960377,56.5512279 C30.396457,56.6522612 30.4719287,56.7524579 30.5218239,56.8526545 C30.572348,56.9530603 30.6111321,57.0618332 30.6396436,57.178555 C30.6671069,57.2961135 30.6813627,57.4327072 30.6813627,57.5887545 L30.6813627,58.1238338 L30.6813627,59.1605238 L30.6813627,60.9163703 Z" id="Fill-5" fill="#004F92"></path>
                    <path d="M36.6314256,56.5685688 L36.6314256,56.4179601 C36.6314256,56.3175543 36.6171698,56.2089905 36.5892872,56.0918504 C36.5614046,55.9745011 36.497044,55.8636364 36.3966247,55.7573736 C36.2959958,55.6517383 36.1538574,55.5626281 35.9689518,55.4898339 C35.7844654,55.4174581 35.5419078,55.381061 35.2398113,55.381061 C34.9270231,55.381061 34.6731447,55.4174581 34.4773375,55.4898339 C34.28174,55.5626281 34.130587,55.6488098 34.024717,55.7492156 C33.9190566,55.8494122 33.848826,55.957976 33.8154927,56.0753253 C33.7821593,56.1922562 33.7655975,56.2955905 33.7655975,56.3847007 L33.7655975,56.5685688 L33.7655975,56.5850939 L33.7655975,56.7189683 L33.7655975,58.1240221 C33.7876101,58.0236163 33.8381342,57.9424549 33.9165409,57.8811655 C33.9938994,57.8198762 34.0836268,57.7726018 34.1842558,57.7393423 C34.2846751,57.7054554 34.385304,57.6834916 34.4857233,57.6724051 C34.5863522,57.6609003 34.6647589,57.6556708 34.7207338,57.6556708 L35.6756604,57.6556708 C35.9326834,57.6556708 36.1563732,57.5636322 36.3467296,57.3795549 C36.5356184,57.1958959 36.6314256,56.9756307 36.6314256,56.7189683 L36.6314256,56.5850939 L36.6314256,56.5685688 Z M35.206478,54.1270343 C35.8769182,54.1270343 36.4018658,54.2079864 36.7819497,54.3694725 C37.1614046,54.5307493 37.4469392,54.7236121 37.637086,54.9461783 C37.8268134,55.1695812 37.9440042,55.3950759 37.9892872,55.6237083 C38.0333124,55.8523407 38.0557442,56.0280509 38.0557442,56.1502113 L38.0557442,56.5685688 L38.0557442,56.5850939 L38.0557442,56.9530394 C38.0557442,57.1429737 38.0196855,57.3542442 37.9471488,57.5887336 C37.8737736,57.8223863 37.7037526,58.0734008 37.4356184,58.3411496 C37.3125577,58.4748149 37.1731447,58.5754299 37.0167505,58.6419487 C36.8603564,58.7088859 36.7207338,58.7595072 36.5974633,58.7925574 C36.4523899,58.8371125 36.3014465,58.8594946 36.1456813,58.8594946 L34.8716771,58.8594946 C34.5802725,58.8594946 34.3238784,58.9659666 34.1003983,59.1772372 C33.8767086,59.3889261 33.7655975,59.6512362 33.7655975,59.9635401 L33.7655975,60.7159562 C33.7655975,60.9834958 33.8154927,61.1953939 33.9165409,61.3514412 C33.960566,61.4296741 34.0110901,61.4964021 34.067065,61.5518345 C34.1230398,61.6078944 34.2068973,61.657679 34.3186373,61.7026524 C34.4079455,61.7472075 34.5219916,61.7863239 34.6618239,61.819165 C34.8014465,61.8534703 34.9829979,61.8702046 35.206478,61.8702046 C35.4972537,61.8702046 35.7263941,61.8392461 35.8934801,61.7779567 C36.061195,61.716249 36.1790147,61.663536 36.2454717,61.6191901 C36.3907547,61.5074886 36.4918029,61.3740325 36.5475681,61.2173577 C36.603543,61.0617287 36.6314256,60.8945948 36.6314256,60.7159562 L38.0557442,60.7159562 L38.0557442,61.1169518 C38.0557442,61.4179601 37.9915933,61.6967954 37.8632914,61.9530394 C37.7347799,62.2101201 37.5360377,62.4324771 37.2685325,62.6217839 C37.0781761,62.7560766 36.815283,62.8730076 36.4804822,62.9736226 C36.1456813,63.07361 35.7205241,63.1240221 35.206478,63.1240221 C34.8266038,63.1240221 34.497044,63.0928545 34.2173795,63.0317743 C33.9379245,62.9706941 33.6953669,62.8924612 33.488239,62.7981216 C33.2819497,62.7031544 33.1112998,62.5947998 32.9775472,62.4718027 C32.8437945,62.3496423 32.7312159,62.2266452 32.6427463,62.1038573 C32.4410692,61.8141447 32.3465199,61.4796678 32.3572117,61.1004267 L32.3572117,60.7159562 L32.3572117,59.9635401 L32.3572117,56.5850939 L32.3572117,56.5685688 L32.3572117,56.1502113 C32.3572117,56.016546 32.3798532,55.8383257 32.4245073,55.6155503 C32.4691614,55.3925658 32.5861426,55.1695812 32.776499,54.9461783 C32.9662264,54.7236121 33.2509224,54.5307493 33.6310063,54.3694725 C34.0110901,54.2079864 34.5362474,54.1270343 35.206478,54.1270343 Z" id="Fill-7" fill="#004F92"></path>
                    <path d="M45.111761,62.9903987 L43.6874423,62.9903987 L43.6874423,56.5686106 L43.6874423,56.4180019 C43.6874423,56.3175961 43.6729769,56.2090323 43.6450943,56.0918922 C43.6172117,55.9745429 43.5528512,55.8636782 43.4522222,55.7574154 C43.3518029,55.6517801 43.2096646,55.56267 43.0247589,55.4898757 C42.8411111,55.4172907 42.5977149,55.3811028 42.2962474,55.3811028 C41.9834591,55.3811028 41.7287421,55.4172907 41.5331447,55.4898757 C41.3375472,55.56267 41.1872327,55.6488516 41.0807338,55.7490482 C40.9748637,55.8492449 40.9046331,55.9580178 40.8712998,56.0751579 C40.8379665,56.192298 40.8214046,56.2956323 40.8214046,56.3845333 L40.8214046,56.5686106 L40.8214046,62.9903987 L39.396457,62.9903987 L39.396457,56.4512613 L39.396457,56.1502531 C39.396457,56.0165879 39.4190985,55.8383676 39.463543,55.6155922 C39.5081971,55.3926076 39.6283229,55.1696231 39.8239203,54.946011 C40.0190985,54.7236539 40.3069392,54.5307911 40.6870231,54.3695143 C41.0668973,54.2080283 41.5920545,54.1270761 42.2622851,54.1270761 C42.9325157,54.1270761 43.457673,54.2080283 43.8377568,54.3695143 C44.2178407,54.5307911 44.5027463,54.7236539 44.6928931,54.946011 C44.8819916,55.1696231 45.000021,55.3951178 45.0450943,55.6237502 C45.0891195,55.8521734 45.111761,56.0278835 45.111761,56.1502531 L45.111761,56.3175961 L45.111761,62.9903987 Z" id="Fill-9" fill="#004F92"></path>
                    <path d="M49.6030189,61.8866879 C49.8826834,61.8866879 50.1143396,61.8559386 50.298826,61.7942308 C50.4833124,61.733569 50.6283857,61.6524076 50.7342558,61.5517927 C50.8405451,61.4518052 50.9162264,61.3403129 50.9608805,61.2173158 C51.0053249,61.0951554 51.0279665,60.9782245 51.0279665,60.8661047 L51.0279665,57.320943 L51.0279665,57.2376898 L51.0279665,55.1641007 C51.0053249,55.2868887 50.9524948,55.3757896 50.8686373,55.4314312 C50.7847799,55.4872819 50.6979874,55.52598 50.6093082,55.5483621 C50.441174,55.6042129 50.2596226,55.6652931 50.0644444,55.7324394 C49.8684277,55.7991675 49.6868763,55.8604568 49.5191614,55.9163076 C49.3183229,55.983454 49.1283857,56.0499728 48.9501887,56.11691 C48.8155975,56.1729699 48.6872956,56.2564322 48.5640252,56.3679245 C48.4636059,56.4572439 48.3713627,56.5714555 48.2875052,56.7105593 C48.2042767,56.8504999 48.1619287,57.0255826 48.1619287,57.2376898 L48.1619287,57.320943 L48.1619287,60.7830607 C48.1732495,60.9278124 48.2042767,61.0671255 48.2541719,61.2007907 C48.3040671,61.3346651 48.3826834,61.4518052 48.4885535,61.5517927 C48.5944235,61.6524076 48.7401258,61.733569 48.9246122,61.7942308 C49.1095178,61.8559386 49.335304,61.8866879 49.6030189,61.8866879 Z M52.4522851,61.11691 C52.441174,61.6967535 52.2065828,62.1791198 51.7487212,62.5637995 C51.2902306,62.9480609 50.5753459,63.1411329 49.6030189,63.1411329 C49.1005031,63.1411329 48.6669602,63.0875831 48.3040671,62.9821571 C47.9413836,62.8758942 47.6426415,62.7311425 47.4078407,62.5470652 C47.1730398,62.3629879 47.0030189,62.1483705 46.8965199,61.9034222 C46.790021,61.6576371 46.7376101,61.3957453 46.7376101,61.11691 L46.7376101,60.7159143 L46.7543816,60.7159143 L46.7543816,57.320943 L46.7376101,57.320943 L46.7376101,56.9362632 C46.7376101,56.5126762 46.8466247,56.1282057 47.0642348,55.782224 C47.2818449,55.4368698 47.5975681,55.1919215 48.0116143,55.0465423 C48.2120335,54.9800234 48.4409644,54.9022089 48.6977778,54.8126804 C48.9548008,54.7235703 49.2011321,54.6369703 49.4359329,54.5532987 C49.6703145,54.4696272 49.8766038,54.3943229 50.0556394,54.3271765 C50.2340461,54.2608668 50.3464151,54.2215412 50.3910692,54.2106639 C50.4357233,54.188491 50.4940042,54.1575325 50.5671698,54.1186253 C50.6397065,54.079718 50.7097275,54.021148 50.7766038,53.9429151 C50.8434801,53.8651006 50.9025996,53.7753629 50.9524948,53.6753755 C51.0030189,53.5747605 51.0279665,53.4580387 51.0279665,53.3241643 L51.0279665,53.0062126 L51.0279665,50.8658955 L52.4522851,50.8658955 L52.4522851,61.11691 Z" id="Fill-11" fill="#004F92"></path>
                    <path d="M58.3860377,58.558319 C58.3633962,58.6698113 58.3072117,58.753692 58.2183229,58.8093336 C58.1290147,58.8651843 58.0445283,58.9043007 57.9667505,58.9264737 C57.7990356,58.9825336 57.6176939,59.0465423 57.4218868,59.1187089 C57.2262893,59.191294 57.0449476,59.2555119 56.8770231,59.3109442 C56.6761845,59.3776723 56.4860377,59.4448186 56.3074214,59.511965 C56.1734591,59.5676066 56.0449476,59.6454211 55.9218868,59.7456177 C55.8214675,59.8351462 55.7285954,59.9491486 55.6457862,60.0884617 C55.5617191,60.2279839 55.5191614,60.4043216 55.5191614,60.6155922 C55.5191614,61.0393884 55.6206289,61.353784 55.8214675,61.5602435 C56.0225157,61.7667029 56.3965199,61.8702464 56.9443187,61.8702464 C57.5025996,61.8702464 57.8828931,61.7608459 58.0837317,61.5437184 C58.2847799,61.3265908 58.3860377,61.0167971 58.3860377,60.6155922 L58.3860377,58.558319 Z M56.9443187,54.1270761 C57.9275472,54.1270761 58.6483019,54.3193114 59.1061635,54.703782 C59.5646541,55.0886709 59.7935849,55.5706188 59.7935849,56.1502531 L59.7935849,56.9530812 L59.7935849,60.6155922 L59.7935849,61.1004686 C59.7935849,61.3008618 59.7575262,61.5211271 59.6845702,61.7608459 C59.6124528,62.0009831 59.4692662,62.22083 59.2571069,62.4212233 C59.0451572,62.6218257 58.7548008,62.7891687 58.3860377,62.9234615 C58.017065,63.0567084 57.5367715,63.1240639 56.9443187,63.1240639 C56.3518658,63.1240639 55.8715723,63.0567084 55.5025996,62.9234615 C55.1338365,62.7891687 54.8436897,62.6218257 54.6306918,62.4212233 C54.4189518,62.22083 54.2763941,62.0009831 54.2040671,61.7608459 C54.1313208,61.5211271 54.0950524,61.3008618 54.0950524,61.1004686 L54.0950524,60.3141656 C54.0950524,59.8912061 54.2040671,59.5065264 54.4223061,59.1605447 C54.6397065,58.8151906 54.9495597,58.5696147 55.3522851,58.4246538 C55.5531237,58.3577166 55.7822642,58.2799021 56.0392872,58.1910011 C56.295891,58.1012634 56.5445283,58.015291 56.7849895,57.9316195 C57.0252411,57.847948 57.2344654,57.7726436 57.4132914,57.7054972 C57.5921174,57.6387692 57.7036478,57.5998619 57.7489308,57.5887755 C57.7935849,57.5666025 57.8518658,57.5358532 57.9244025,57.4965276 C57.9969392,57.4574112 58.0671698,57.3990503 58.1344654,57.3208175 C58.2015514,57.2432121 58.2598323,57.154102 58.3097275,57.0532778 C58.3608805,56.9530812 58.3860377,56.8361503 58.3860377,56.7022759 L58.3860377,56.3845333 C58.3860377,56.2734594 58.3633962,56.1584111 58.3187421,56.0416893 C58.2740881,55.9247584 58.195891,55.8157763 58.0837317,55.7157888 C57.971782,55.6155922 57.8244025,55.53464 57.6401258,55.4731414 C57.4556394,55.4120612 57.2239832,55.3811028 56.9443187,55.3811028 C56.3851992,55.3811028 56.00826,55.4957328 55.8130818,55.724156 C55.617065,55.9525792 55.5191614,56.228486 55.5191614,56.5512488 L54.0950524,56.5512488 L54.0950524,56.1502531 C54.0950524,55.8718362 54.1478826,55.609526 54.2543816,55.3641593 C54.3602516,55.119211 54.5306918,54.9045936 54.765283,54.7203071 C55.0005031,54.5366481 55.2956813,54.3918964 55.6537526,54.2856336 C56.0114046,54.1799983 56.4413836,54.1270761 56.9443187,54.1270761 Z" id="Fill-13" fill="#004F92"></path>
                    <path d="M64.2851363,54.1436012 C64.475283,54.1436012 64.6400629,54.1410911 64.7790566,54.1352341 C64.9188889,54.1295862 65.0668973,54.1379534 65.223501,54.1601263 L64.9052621,55.3811028 C64.7708805,55.3811028 64.6591405,55.3840313 64.5698323,55.3894699 C64.4807338,55.3951178 64.3742348,55.3978371 64.2518029,55.3978371 C63.9501258,55.3978371 63.7071488,55.4369535 63.5224528,55.5149772 C63.3375472,55.5930009 63.1954088,55.6850395 63.0949895,55.7910932 C62.9951992,55.8969376 62.9302096,56.0082207 62.9021174,56.1253608 C62.8744444,56.2420826 62.860608,56.3510647 62.860608,56.4512613 L62.860608,56.6018701 L62.860608,62.9903987 L61.43587,62.9903987 L61.43587,56.5512488 L61.43587,56.1667782 C61.43587,56.0444087 61.4585115,55.8689077 61.502956,55.6400661 C61.5471908,55.4120612 61.6648008,55.1861482 61.8551572,54.9631636 C62.0444654,54.7401791 62.3297904,54.5479438 62.7092453,54.3862486 C63.0889099,54.2245534 63.614696,54.1436012 64.2851363,54.1436012" id="Fill-15" fill="#004F92"></path>
                    <path d="M76.2180294,62.9903987 L74.7937107,62.9903987 L74.7937107,56.5686106 L74.7937107,56.4180019 C74.7937107,56.3175961 74.7796646,56.2090323 74.7515723,56.0918922 C74.7234801,55.9745429 74.6622642,55.8636782 74.5672956,55.7574154 C74.4719078,55.6517801 74.332914,55.56267 74.1486373,55.4898757 C73.963522,55.4172907 73.7150943,55.3811028 73.4027254,55.3811028 C73.0899371,55.3811028 72.8352201,55.4172907 72.6404612,55.4898757 C72.4446541,55.56267 72.293501,55.6488516 72.1870021,55.7490482 C72.0811321,55.8492449 72.01174,55.9580178 71.9775681,56.0751579 C71.9444444,56.192298 71.9278826,56.2956323 71.9278826,56.3845333 L71.9278826,56.5686106 L71.9278826,62.9903987 L70.5027254,62.9903987 L70.5027254,56.5686106 L70.5027254,56.4180019 C70.5027254,56.3175961 70.4886792,56.2090323 70.4610063,56.0918922 C70.4333333,55.9745429 70.3714885,55.8636782 70.2767296,55.7574154 C70.181761,55.6517801 70.0425577,55.56267 69.8582809,55.4898757 C69.6737945,55.4172907 69.4245283,55.3811028 69.11174,55.3811028 C68.7987421,55.3811028 68.5450734,55.4172907 68.3492662,55.4898757 C68.1534591,55.56267 68.0027254,55.6488516 67.8968553,55.7490482 C67.7903564,55.8492449 67.7207547,55.9580178 67.687631,56.0751579 C67.6542977,56.192298 67.6375262,56.2956323 67.6375262,56.3845333 L67.6375262,56.5686106 L67.6375262,62.9903987 L66.2291405,62.9903987 L66.2291405,56.4512613 L66.2291405,56.1502531 C66.2291405,56.0165879 66.251782,55.8383676 66.2958071,55.6155922 C66.3410901,55.3926076 66.4580713,55.1696231 66.6480084,54.946011 C66.8383648,54.7236539 67.1228512,54.5307911 67.5031447,54.3695143 C67.8823899,54.2080283 68.4081761,54.1270761 69.0784067,54.1270761 C69.6144654,54.1270761 70.0532495,54.1799983 70.39413,54.2856336 C70.7348008,54.3918964 71.0113208,54.5228423 71.2238994,54.6786805 C71.4360587,54.5228423 71.7125786,54.3918964 72.0534591,54.2856336 C72.39413,54.1799983 72.832914,54.1270761 73.3696017,54.1270761 C74.0389937,54.1270761 74.5641509,54.2080283 74.9450734,54.3695143 C75.324109,54.5307911 75.6092243,54.7236539 75.7995807,54.946011 C75.9899371,55.1696231 76.1071279,55.3951178 76.151782,55.6237502 C76.1955975,55.8521734 76.2180294,56.0278835 76.2180294,56.1502531 L76.2180294,56.3175961 L76.2180294,62.9903987 Z" id="Fill-17" fill="#004F92"></path>
                    <path d="M82.1511111,56.5685688 L82.1511111,56.4179601 C82.1511111,56.3175543 82.1368553,56.2089905 82.1096017,56.0918504 C82.0808805,55.9745011 82.0171488,55.8636364 81.9167296,55.7573736 C81.8163103,55.6517383 81.6737526,55.5626281 81.4892662,55.4898339 C81.3049895,55.4174581 81.0615933,55.381061 80.7601258,55.381061 C80.4473375,55.381061 80.1926205,55.4174581 79.9970231,55.4898339 C79.8020545,55.5626281 79.6509015,55.6488098 79.5448218,55.7492156 C79.4385325,55.8494122 79.3689308,55.957976 79.3355975,56.0753253 C79.3018449,56.1922562 79.285283,56.2955905 79.285283,56.3847007 L79.285283,56.5685688 L79.285283,56.5850939 L79.285283,56.7189683 L79.285283,58.1240221 C79.3072956,58.0236163 79.3578197,57.9424549 79.4355975,57.8811655 C79.5142138,57.8198762 79.6033124,57.7726018 79.7045702,57.7393423 C79.8045702,57.7054554 79.9054088,57.6834916 80.0054088,57.6724051 C80.106457,57.6609003 80.1842348,57.6556708 80.2410482,57.6556708 L81.1959748,57.6556708 C81.4532075,57.6556708 81.6760587,57.5636322 81.8664151,57.3795549 C82.0559329,57.1958959 82.1511111,56.9756307 82.1511111,56.7189683 L82.1511111,56.5850939 L82.1511111,56.5685688 Z M80.7265828,54.1270343 C81.3970231,54.1270343 81.9221803,54.2079864 82.3024738,54.3694725 C82.6815094,54.5307493 82.9668344,54.7236121 83.1567715,54.9461783 C83.346499,55.1695812 83.4645283,55.3950759 83.5083438,55.6237083 C83.5529979,55.8523407 83.5760587,56.0280509 83.5760587,56.1502113 L83.5760587,56.5685688 L83.5760587,56.5850939 L83.5760587,56.9530394 C83.5760587,57.1429737 83.5391614,57.3542442 83.4668344,57.5887336 C83.3942977,57.8223863 83.2238574,58.0734008 82.9557233,58.3411496 C82.8326625,58.4748149 82.6930398,58.5754299 82.5364361,58.6419487 C82.3802516,58.7088859 82.2406289,58.7595072 82.1179874,58.7925574 C81.9720755,58.8371125 81.821761,58.8594946 81.6653669,58.8594946 L80.3913627,58.8594946 C80.100587,58.8594946 79.8435639,58.9659666 79.6207128,59.1772372 C79.3961845,59.3889261 79.285283,59.6512362 79.285283,59.9635401 L79.285283,60.7159562 C79.285283,60.9834958 79.3355975,61.1953939 79.4355975,61.3514412 C79.4808805,61.4296741 79.5307757,61.4964021 79.5867505,61.5518345 C79.6427254,61.6078944 79.7267925,61.657679 79.8383229,61.7026524 C79.927631,61.7472075 80.0420964,61.7863239 80.1819287,61.819165 C80.321761,61.8534703 80.5026834,61.8702046 80.7265828,61.8702046 C81.0169392,61.8702046 81.24587,61.8392461 81.4135849,61.7779567 C81.5812998,61.716249 81.6987002,61.663536 81.7655765,61.6191901 C81.9108595,61.5074886 82.0114885,61.3740325 82.0674633,61.2173577 C82.1230189,61.0617287 82.1511111,60.8945948 82.1511111,60.7159562 L83.5760587,60.7159562 L83.5760587,61.1169518 C83.5760587,61.4179601 83.5119078,61.6967954 83.3836059,61.9530394 C83.2544654,62.2101201 83.0561426,62.4324771 82.7880084,62.6217839 C82.5978616,62.7560766 82.3355975,62.8730076 81.9999581,62.9736226 C81.6653669,63.07361 81.2406289,63.1240221 80.7265828,63.1240221 C80.3469182,63.1240221 80.0165199,63.0928545 79.7376939,63.0317743 C79.4580294,62.9706941 79.2150524,62.8924612 79.0087631,62.7981216 C78.8016352,62.7031544 78.6316143,62.5947998 78.4972327,62.4718027 C78.3634801,62.3496423 78.2513208,62.2266452 78.1624319,62.1038573 C77.9615933,61.8141447 77.8662055,61.4796678 77.8775262,61.1004267 L77.8775262,60.7159562 L77.8775262,59.9635401 L77.8775262,56.5850939 L77.8775262,56.5685688 L77.8775262,56.1502113 C77.8775262,56.016546 77.8993291,55.8383257 77.9441929,55.6155503 C77.988847,55.3925658 78.1066667,55.1695812 78.2959748,54.9461783 C78.4865409,54.7236121 78.7714465,54.5307493 79.1511111,54.3694725 C79.5307757,54.2079864 80.0565618,54.1270343 80.7265828,54.1270343 Z" id="Fill-19" fill="#004F92"></path>
                    <path d="M87.7654298,54.1436012 C87.9557862,54.1436012 88.120566,54.1410911 88.2601887,54.1352341 C88.3998113,54.1295862 88.5474004,54.1379534 88.7044235,54.1601263 L88.3863941,55.3811028 C88.2518029,55.3811028 88.1400629,55.3840313 88.0507547,55.3894699 C87.9610273,55.3951178 87.8545283,55.3978371 87.7320964,55.3978371 C87.43,55.3978371 87.1872327,55.4369535 87.0027463,55.5149772 C86.8184696,55.5930009 86.6759119,55.6850395 86.5759119,55.7910932 C86.4750734,55.8969376 86.4107128,56.0082207 86.3830398,56.1253608 C86.3547379,56.2420826 86.3409015,56.3510647 86.3409015,56.4512613 L86.3409015,56.6018701 L86.3409015,62.9903987 L84.9165828,62.9903987 L84.9165828,56.5512488 L84.9165828,56.1667782 C84.9165828,56.0444087 84.938805,55.8689077 84.9832495,55.6400661 C85.0276939,55.4120612 85.1450943,55.1861482 85.3354507,54.9631636 C85.5255975,54.7401791 85.8100839,54.5479438 86.1897484,54.3862486 C86.5700419,54.2245534 87.0951992,54.1436012 87.7654298,54.1436012" id="Fill-21" fill="#004F92"></path>
                    <mask id="mask-2" fill="white">
                        <use xlink:href="#path-1"></use>
                    </mask>
                    <g id="Clip-24"></g>
                    <path d="M89.9104822,62.9902104 L91.3190776,62.9902104 L91.3190776,54.2607622 L89.9104822,54.2607622 L89.9104822,62.9902104 Z M89.9102725,52.5716437 L91.3188679,52.5716437 L91.3188679,50.8825252 L89.9102725,50.8825252 L89.9102725,52.5716437 Z" id="Fill-23" fill="#004F92" mask="url(#mask-2)"></path>
                    <path d="M97.2518029,56.5685688 L97.2518029,56.4179601 C97.2518029,56.3175543 97.2377568,56.2089905 97.2102935,56.0918504 C97.1824109,55.9745011 97.1172117,55.8636364 97.0167925,55.7573736 C96.9167925,55.6517383 96.7742348,55.5626281 96.5899581,55.4898339 C96.4056813,55.4174581 96.1624948,55.381061 95.860608,55.381061 C95.5478197,55.381061 95.2933124,55.4174581 95.0979245,55.4898339 C94.9021174,55.5626281 94.7513836,55.6488098 94.6457233,55.7492156 C94.539434,55.8494122 94.4692034,55.957976 94.43587,56.0753253 C94.402327,56.1922562 94.3857652,56.2955905 94.3857652,56.3847007 L94.3857652,56.5685688 L94.3857652,56.5850939 L94.3857652,56.7189683 L94.3857652,58.1240221 C94.4084067,58.0236163 94.4585115,57.9424549 94.536499,57.8811655 C94.6149057,57.8198762 94.7048428,57.7726018 94.8050524,57.7393423 C94.9050524,57.7054554 95.0054717,57.6834916 95.1067296,57.6724051 C95.2073585,57.6609003 95.2851363,57.6556708 95.3411111,57.6556708 L96.2960377,57.6556708 C96.5536897,57.6556708 96.7765409,57.5636322 96.9671069,57.3795549 C97.1568344,57.1958959 97.2518029,56.9756307 97.2518029,56.7189683 L97.2518029,56.5850939 L97.2518029,56.5685688 Z M95.827065,54.1270343 C96.4975052,54.1270343 97.0226625,54.2079864 97.402956,54.3694725 C97.7824109,54.5307493 98.0673166,54.7236121 98.257673,54.9461783 C98.4474004,55.1695812 98.5643816,55.3950759 98.6092453,55.6237083 C98.6534801,55.8523407 98.6763312,56.0280509 98.6763312,56.1502113 L98.6763312,56.5685688 L98.6763312,56.5850939 L98.6763312,56.9530394 C98.6763312,57.1429737 98.6398532,57.3542442 98.5673166,57.5887336 C98.4941509,57.8223863 98.3247589,58.0734008 98.0564151,58.3411496 C97.9333543,58.4748149 97.7937317,58.5754299 97.6373375,58.6419487 C97.4807338,58.7088859 97.3411111,58.7595072 97.2186792,58.7925574 C97.0727673,58.8371125 96.9224528,58.8594946 96.7660587,58.8594946 L95.4920545,58.8594946 C95.2012788,58.8594946 94.9442558,58.9659666 94.7214046,59.1772372 C94.497086,59.3889261 94.3857652,59.6512362 94.3857652,59.9635401 L94.3857652,60.7159562 C94.3857652,60.9834958 94.43587,61.1953939 94.536499,61.3514412 C94.5815723,61.4296741 94.6314675,61.4964021 94.6880713,61.5518345 C94.7432075,61.6078944 94.8272746,61.657679 94.938805,61.7026524 C95.0283229,61.7472075 95.1421593,61.7863239 95.2826205,61.819165 C95.4218239,61.8534703 95.6031656,61.8702046 95.827065,61.8702046 C96.1178407,61.8702046 96.3467715,61.8392461 96.5144864,61.7779567 C96.6813627,61.716249 96.799392,61.663536 96.8658491,61.6191901 C97.0109224,61.5074886 97.1121803,61.3740325 97.1679455,61.2173577 C97.2237107,61.0617287 97.2518029,60.8945948 97.2518029,60.7159562 L98.6763312,60.7159562 L98.6763312,61.1169518 C98.6763312,61.4179601 98.6119706,61.6967954 98.4836688,61.9530394 C98.3551572,62.2101201 98.157044,62.4324771 97.8889099,62.6217839 C97.6985535,62.7560766 97.4360797,62.8730076 97.1006499,62.9736226 C96.7660587,63.07361 96.3413208,63.1240221 95.827065,63.1240221 C95.4469811,63.1240221 95.1174214,63.0928545 94.8383857,63.0317743 C94.5589308,62.9706941 94.3155346,62.8924612 94.1092453,62.7981216 C93.9021174,62.7031544 93.7323061,62.5947998 93.5979245,62.4718027 C93.4639623,62.3496423 93.3522222,62.2266452 93.2631237,62.1038573 C93.0620755,61.8141447 92.9668973,61.4796678 92.9775891,61.1004267 L92.9775891,60.7159562 L92.9775891,59.9635401 L92.9775891,56.5850939 L92.9775891,56.5685688 L92.9775891,56.1502113 C92.9775891,56.016546 93.0002306,55.8383257 93.0455136,55.6155503 C93.0893291,55.3925658 93.2071488,55.1695812 93.3968763,54.9461783 C93.5866038,54.7236121 93.8715094,54.5307493 94.251174,54.3694725 C94.6314675,54.2079864 95.1566247,54.1270343 95.827065,54.1270343 Z" id="Fill-25" fill="#004F92" mask="url(#mask-2)"></path>
                    <path d="M28.4338155,73.088378 L27.5738574,73.088378 L27.5738574,69.2110405 L27.5738574,69.1196293 C27.5738574,69.0591767 27.5654717,68.9939129 27.5482809,68.9234197 C27.5317191,68.8520897 27.492935,68.7851525 27.432348,68.7209346 C27.3709224,68.6567167 27.2853878,68.6035853 27.1740671,68.5596578 C27.062956,68.5155211 26.9159958,68.4935573 26.7333962,68.4935573 C26.5442977,68.4935573 26.3908386,68.5155211 26.2732285,68.5596578 C26.1554088,68.6035853 26.0637945,68.6550433 26.0002725,68.7163327 C25.9359119,68.7761578 25.8937736,68.8426767 25.8734382,68.9131699 C25.8533124,68.9838723 25.8432495,69.0462076 25.8432495,69.1001757 L25.8432495,69.2110405 L25.8432495,73.088378 L24.9826625,73.088378 L24.9826625,69.1405472 L24.9826625,68.9583525 C24.9826625,68.8776095 24.9962893,68.7700916 25.022914,68.6349621 C25.0503774,68.5006694 25.122914,68.3661674 25.2407338,68.2312471 C25.3591824,68.0967452 25.5327673,67.9802326 25.7616981,67.8823369 C25.9912579,67.7850688 26.3088679,67.7365393 26.7130608,67.7365393 C27.1189308,67.7365393 27.435283,67.7850688 27.6648428,67.8823369 C27.8944025,67.9802326 28.0663103,68.0967452 28.1809853,68.2312471 C28.29587,68.3661674 28.3665199,68.5019244 28.3939832,68.6401916 C28.4201887,68.7780404 28.4338155,68.8838849 28.4338155,68.9583525 L28.4338155,69.0591767 L28.4338155,73.088378 Z" id="Fill-26" fill="#004F92" mask="url(#mask-2)"></path>
                    <path d="M36.490566,70.4127725 C36.4769392,70.4797097 36.4427673,70.5303309 36.3895178,70.5642179 C36.3345912,70.5978957 36.284696,70.6209053 36.2373166,70.6347111 C36.1360587,70.6685981 36.0266247,70.707087 35.9083857,70.7510145 C35.7899371,70.7947329 35.6805031,70.8330126 35.5794549,70.8673179 C35.4580713,70.9074802 35.3433962,70.9474334 35.2356394,70.9882232 C35.1540881,71.0221102 35.0769392,71.0689662 35.0025157,71.1296281 C34.9419287,71.1838054 34.8861635,71.252416 34.8354298,71.3367151 C34.7849057,71.4208049 34.7599581,71.5270677 34.7599581,71.6542484 C34.7599581,71.9104924 34.8205451,72.1002175 34.9419287,72.2248881 C35.0631027,72.3497678 35.2890985,72.4121031 35.6199161,72.4121031 C35.957652,72.4121031 36.1867925,72.3466301 36.3079665,72.215475 C36.4297694,72.0836924 36.490566,71.8975233 36.490566,71.6542484 L36.490566,70.4127725 Z M35.6199161,67.7365393 C36.2134172,67.7365393 36.6486373,67.8522152 36.9259958,68.084822 C37.2018868,68.3168012 37.3404612,68.6081873 37.3404612,68.9583525 L37.3404612,69.4430197 L37.3404612,71.6542484 L37.3404612,71.9473079 C37.3404612,72.0682132 37.3184486,72.2012509 37.2744235,72.3466301 C37.2310273,72.4909635 37.1446541,72.6235828 37.0163522,72.7446973 C36.88826,72.8664394 36.7129979,72.9674727 36.490566,73.0482157 C36.2677149,73.1287495 35.9773585,73.1697486 35.6199161,73.1697486 C35.2624738,73.1697486 34.9721174,73.1287495 34.7492662,73.0482157 C34.5268344,72.9674727 34.3513627,72.8664394 34.2234801,72.7446973 C34.0949686,72.6235828 34.009434,72.4909635 33.9654088,72.3466301 C33.9213836,72.2012509 33.8993711,72.0682132 33.8993711,71.9473079 L33.8993711,71.4724721 C33.8993711,71.2174832 33.9654088,70.9846672 34.0968553,70.7756976 C34.2280922,70.5675647 34.4155136,70.419257 34.6589099,70.3314019 C34.7800839,70.2910304 34.9180294,70.2441744 35.0733753,70.1904154 C35.2285115,70.1362381 35.3784067,70.0841526 35.5236897,70.0341589 C35.6687631,69.9831193 35.7953878,69.9379367 35.902935,69.8975652 C36.0111111,69.8574028 36.0790356,69.8335565 36.1056604,69.8264444 C36.1324948,69.8134753 36.1681342,69.7950676 36.2121593,69.7712212 C36.2561845,69.747584 36.2979036,69.712442 36.3383648,69.6649584 C36.378826,69.6181023 36.4144654,69.5641342 36.4448637,69.5034724 C36.4750524,69.4430197 36.490566,69.3725265 36.490566,69.2911559 L36.490566,69.1001757 C36.490566,69.0324018 36.4769392,68.963582 36.4501048,68.8924612 C36.4228512,68.821968 36.375891,68.756495 36.3079665,68.6954148 C36.2408805,68.6349621 36.1515723,68.586851 36.0396226,68.5496172 C35.9285115,68.5125926 35.7886792,68.4935573 35.6199161,68.4935573 C35.2819706,68.4935573 35.0549266,68.5623771 34.9371069,68.7006443 C34.8186583,68.8391206 34.7599581,69.0056269 34.7599581,69.2009999 L33.8993711,69.2009999 L33.8993711,68.9583525 C33.8993711,68.7897544 33.9314465,68.6318245 33.9958071,68.4835167 C34.0599581,68.3358365 34.1626834,68.2057273 34.3044025,68.0948626 C34.4459119,67.9839978 34.6243187,67.8967703 34.8408805,67.8319249 C35.0561845,67.7683345 35.3165618,67.7365393 35.6199161,67.7365393 Z" id="Fill-27" fill="#004F92" mask="url(#mask-2)"></path>
                    <path d="M45.598805,72.33113 L45.598805,73.0883571 C45.1937736,73.0883571 44.8767925,73.0398276 44.647652,72.9423503 C44.4183019,72.8444547 44.2445073,72.7281513 44.1268973,72.5934402 C44.0084486,72.458729 43.9359119,72.322972 43.9090776,72.1847048 C43.8818239,72.0470652 43.8681971,71.9408024 43.8681971,71.8665439 L43.8681971,71.6849768 L43.8681971,68.4533741 L43.2203983,68.4533741 L43.2203983,67.7365184 L43.8681971,67.7365184 L43.8681971,66.3929632 L44.7285744,66.3929632 L44.7285744,67.7365184 L45.598805,67.7365184 L45.598805,68.4533741 L44.7285744,68.4533741 L44.7285744,71.6042338 L44.7285744,71.6950174 C44.7285744,71.7556792 44.7371698,71.8213613 44.7541509,71.8914362 C44.7709224,71.9627662 44.8094969,72.0313768 44.8700839,72.0991507 C44.9308805,72.1662971 45.0166247,72.2221478 45.1283648,72.2654479 C45.2401048,72.3093754 45.3864361,72.33113 45.5684067,72.33113 L45.598805,72.33113 Z" id="Fill-28" fill="#004F92" mask="url(#mask-2)"></path>
                    <path d="M51.3169811,73.0883153 L52.1675052,73.0883153 L52.1675052,67.8172196 L51.3169811,67.8172196 L51.3169811,73.0883153 Z M51.3169811,66.7970548 L52.1675052,66.7970548 L52.1675052,65.7770991 L51.3169811,65.7770991 L51.3169811,66.7970548 Z" id="Fill-29" fill="#004F92" mask="url(#mask-2)"></path>
                    <path d="M60.6280503,71.6849977 L60.6280503,69.2212902 L60.6280503,69.1095888 C60.6280503,69.0489269 60.6177778,68.9838723 60.597652,68.9131699 C60.5777358,68.8426767 60.5355975,68.7761578 60.4716562,68.7163327 C60.4072956,68.6550433 60.3177778,68.6035853 60.2031027,68.5596578 C60.0886373,68.5155211 59.933501,68.4935573 59.7379036,68.4935573 C59.555304,68.4935573 59.4091824,68.5155211 59.297652,68.5596578 C59.1859119,68.6035853 59.1003774,68.6567167 59.0393711,68.7209346 C58.9783648,68.7851525 58.9393711,68.8539723 58.9230189,68.9280216 C58.9058281,69.00228 58.8972327,69.0658704 58.8972327,69.1196293 L58.8972327,69.2212902 L58.8972327,71.6849977 L58.8972327,71.7858219 C58.8972327,71.83979 58.9058281,71.9040079 58.9230189,71.9780571 C58.9393711,72.0516881 58.9783648,72.1205079 59.0393711,72.1847258 C59.1003774,72.2485253 59.1859119,72.3027026 59.297652,72.3466301 C59.4091824,72.3899301 59.555304,72.4121031 59.7379036,72.4121031 C59.933501,72.4121031 60.0886373,72.3899301 60.2031027,72.3466301 C60.3177778,72.3027026 60.4072956,72.2504079 60.4716562,72.1893277 C60.5355975,72.128875 60.5777358,72.0636113 60.597652,71.9929088 C60.6177778,71.9224156 60.6280503,71.8565243 60.6280503,71.7958624 L60.6280503,71.6849977 Z M61.4886373,71.7858219 L61.4886373,71.9473079 C61.4886373,72.0280509 61.4750105,72.1359871 61.4473375,72.2706982 C61.4213417,72.4052002 61.3498532,72.5401205 61.2358071,72.6746224 C61.1207128,72.8089152 60.9485954,72.9252186 60.7196646,73.0226959 C60.4901048,73.1203824 60.172914,73.1697486 59.7680922,73.1697486 C59.3632704,73.1697486 59.04587,73.1203824 58.8165199,73.0226959 C58.5869602,72.9252186 58.4150524,72.8089152 58.3001677,72.6746224 C58.1863312,72.5401205 58.1148428,72.4037359 58.0877987,72.2652596 C58.061174,72.12762 58.0475472,72.0213572 58.0475472,71.9473079 L58.0475472,71.8364431 L58.0475472,68.9583525 C58.0475472,68.8838849 58.061174,68.7780404 58.0877987,68.6401916 C58.1148428,68.5019244 58.1863312,68.3661674 58.3001677,68.2312471 C58.4150524,68.0967452 58.5869602,67.9802326 58.8165199,67.8823369 C59.04587,67.7850688 59.3632704,67.7365393 59.7680922,67.7365393 C60.172914,67.7365393 60.4901048,67.7850688 60.7196646,67.8823369 C60.9485954,67.9802326 61.1207128,68.0967452 61.2358071,68.2312471 C61.3498532,68.3661674 61.4213417,68.5006694 61.4473375,68.6349621 C61.4750105,68.7700916 61.4886373,68.8776095 61.4886373,68.9583525 L61.4886373,71.7858219 Z" id="Fill-30" fill="#004F92" mask="url(#mask-2)"></path>
                    <path d="M70.8199161,73.088378 L69.9593291,73.088378 L69.9593291,69.2110405 L69.9593291,69.1196293 C69.9593291,69.0591767 69.9507338,68.9939129 69.9341719,68.9234197 C69.9169811,68.8520897 69.8784067,68.7851525 69.8178197,68.7209346 C69.7570231,68.6567167 69.6712788,68.6035853 69.5595388,68.5596578 C69.4486373,68.5155211 69.3016771,68.4935573 69.1197065,68.4935573 C68.9301887,68.4935573 68.7771488,68.5155211 68.6591195,68.5596578 C68.5408805,68.6035853 68.4498952,68.6550433 68.3857442,68.7163327 C68.3213836,68.7761578 68.2792453,68.8426767 68.2589099,68.9131699 C68.2385744,68.9838723 68.2289308,69.0462076 68.2289308,69.1001757 L68.2289308,69.2110405 L68.2289308,73.088378 L67.3685535,73.088378 L67.3685535,69.1405472 L67.3685535,68.9583525 C67.3685535,68.8776095 67.381761,68.7700916 67.4090147,68.6349621 C67.4356394,68.5006694 67.5085954,68.3661674 67.6268344,68.2312471 C67.7446541,68.0967452 67.9180294,67.9802326 68.1477987,67.8823369 C68.3775681,67.7850688 68.6943396,67.7365393 69.0991614,67.7365393 C69.5039832,67.7365393 69.821174,67.7850688 70.0507338,67.8823369 C70.2798742,67.9802326 70.451782,68.0967452 70.566457,68.2312471 C70.6813417,68.3661674 70.7528302,68.5019244 70.778826,68.6401916 C70.8060797,68.7780404 70.8199161,68.8838849 70.8199161,68.9583525 L70.8199161,69.0591767 L70.8199161,73.088378 Z" id="Fill-31" fill="#004F92" mask="url(#mask-2)"></path>
                    <path d="M79.2904193,70.4127725 C79.2774214,70.4797097 79.2440881,70.5303309 79.1895807,70.5642179 C79.1361216,70.5978957 79.0853878,70.6209053 79.0377987,70.6347111 C78.9367505,70.6685981 78.8273166,70.707087 78.7088679,70.7510145 C78.5912579,70.7947329 78.481195,70.8330126 78.3799371,70.8673179 C78.2587631,70.9074802 78.1438784,70.9474334 78.0359119,70.9882232 C77.9549895,71.0221102 77.877631,71.0689662 77.8032075,71.1296281 C77.7424109,71.1838054 77.6864361,71.252416 77.6359119,71.3367151 C77.5853878,71.4208049 77.5604403,71.5270677 77.5604403,71.6542484 C77.5604403,71.9104924 77.6210273,72.1002175 77.7424109,72.2248881 C77.8644235,72.3497678 78.0904193,72.4121031 78.420608,72.4121031 C78.7575052,72.4121031 78.9872746,72.3466301 79.1090776,72.215475 C79.2304612,72.0836924 79.2904193,71.8975233 79.2904193,71.6542484 L79.2904193,70.4127725 Z M78.420608,67.7365393 C79.014109,67.7365393 79.4495388,67.8522152 79.7266876,68.084822 C80.0027883,68.3168012 80.1415723,68.6081873 80.1415723,68.9583525 L80.1415723,69.4430197 L80.1415723,71.6542484 L80.1415723,71.9473079 C80.1415723,72.0682132 80.1189308,72.2012509 80.0755346,72.3466301 C80.0315094,72.4909635 79.9459748,72.6235828 79.817673,72.7446973 C79.6889518,72.8664394 79.514109,72.9674727 79.2904193,73.0482157 C79.0681971,73.1287495 78.7786792,73.1697486 78.420608,73.1697486 C78.0631656,73.1697486 77.7728092,73.1287495 77.5503774,73.0482157 C77.3273166,72.9674727 77.1520545,72.8664394 77.0239623,72.7446973 C76.8954507,72.6235828 76.8099161,72.4909635 76.765891,72.3466301 C76.7218658,72.2012509 76.7000629,72.0682132 76.7000629,71.9473079 L76.7000629,71.4724721 C76.7000629,71.2174832 76.765891,70.9846672 76.8973375,70.7756976 C77.0289937,70.5675647 77.2162055,70.419257 77.459392,70.3314019 C77.5799371,70.2910304 77.7185115,70.2441744 77.8736478,70.1904154 C78.0292034,70.1362381 78.1795178,70.0841526 78.3241719,70.0341589 C78.4698742,69.9831193 78.59587,69.9379367 78.7042558,69.8975652 C78.8118029,69.8574028 78.8790985,69.8335565 78.9061426,69.8264444 C78.9331866,69.8134753 78.9684067,69.7950676 79.0126415,69.7712212 C79.0562474,69.747584 79.0990147,69.712442 79.1394759,69.6649584 C79.1799371,69.6181023 79.2151572,69.5641342 79.2451363,69.5034724 C79.2763732,69.4430197 79.2904193,69.3725265 79.2904193,69.2911559 L79.2904193,69.1001757 C79.2904193,69.0324018 79.2774214,68.963582 79.2501677,68.8924612 C79.2239623,68.821968 79.1763732,68.756495 79.1090776,68.6954148 C79.0413627,68.6349621 78.9514256,68.586851 78.8407338,68.5496172 C78.7289937,68.5125926 78.5887421,68.4935573 78.420608,68.4935573 C78.0830818,68.4935573 77.8554088,68.5623771 77.7371698,68.7006443 C77.6193501,68.8391206 77.5604403,69.0056269 77.5604403,69.2009999 L76.7000629,69.2009999 L76.7000629,68.9583525 C76.7000629,68.7897544 76.7321384,68.6318245 76.796499,68.4835167 C76.8604403,68.3358365 76.9627463,68.2057273 77.1048847,68.0948626 C77.2470231,67.9839978 77.4254298,67.8967703 77.6413627,67.8319249 C77.857086,67.7683345 78.117044,67.7365393 78.420608,67.7365393 Z" id="Fill-32" fill="#004F92" mask="url(#mask-2)"></path>
                    <polygon id="Fill-33" fill="#004F92" mask="url(#mask-2)" points="86.284696 73.0883153 87.1350105 73.0883153 87.1350105 65.7668493 86.284696 65.7668493"></polygon>
                    <path d="M95.6055556,69.2109986 L95.6055556,69.1195875 C95.6055556,69.0591348 95.5971698,68.9938711 95.580608,68.9233778 C95.5634172,68.8520479 95.5246331,68.7851107 95.4640461,68.7208928 C95.4028302,68.6568841 95.3172956,68.6035435 95.2066038,68.5596159 C95.0946541,68.5154792 94.9472746,68.4935155 94.7659329,68.4935155 C94.5768344,68.4935155 94.4233753,68.5154792 94.3049266,68.5596159 C94.1868973,68.6035435 94.0957023,68.6550015 94.031761,68.7162908 C93.9678197,68.776116 93.9252621,68.8426348 93.9053459,68.9131281 C93.8852201,68.9838305 93.8749476,69.0461658 93.8749476,69.1001339 L93.8749476,69.2109986 L93.8749476,69.2212484 L93.8749476,69.3019914 L93.8749476,70.1504204 C93.8887841,70.0893403 93.9189727,70.0408108 93.9661426,70.0031586 C94.013522,69.9665523 94.0669811,69.938104 94.1277778,69.9178137 C94.1889937,69.8975233 94.2491614,69.8839267 94.3103774,69.8774422 C94.3707547,69.8703301 94.4179245,69.8674016 94.4525157,69.8674016 L95.0292453,69.8674016 C95.1837526,69.8674016 95.3189727,69.8115509 95.4338574,69.7006861 C95.5485325,69.5891938 95.6055556,69.4561561 95.6055556,69.3019914 L95.6055556,69.2212484 L95.6055556,69.2109986 Z M94.7455975,67.7364975 C95.15,67.7364975 95.4669811,67.7852362 95.6965409,67.8822951 C95.9261006,67.9801908 96.098218,68.0967033 96.2126834,68.2312053 C96.3275681,68.3661256 96.3984277,68.5018826 96.4256813,68.6401498 C96.4523061,68.7779986 96.4661426,68.8840522 96.4661426,68.9583107 L96.4661426,69.2109986 L96.4661426,69.2212484 L96.4661426,69.4429779 C96.4661426,69.5576078 96.44413,69.6852069 96.4001048,69.8264025 C96.3569182,69.9682257 96.2533543,70.1196712 96.0915094,70.280948 C96.0172956,70.361691 95.9334382,70.4227712 95.8380503,70.4631427 C95.74413,70.5035142 95.6598532,70.5336359 95.5854298,70.5539263 C95.4971698,70.5813287 95.4063941,70.5942978 95.3124738,70.5942978 L94.5430818,70.5942978 C94.3674004,70.5942978 94.2122642,70.6585157 94.0778826,70.7865331 C93.9422432,70.9141321 93.8749476,71.0724804 93.8749476,71.2607413 L93.8749476,71.7152868 C93.8749476,71.8765636 93.9053459,72.0047902 93.9661426,72.0991298 C93.9933962,72.1459859 94.0237945,72.1863574 94.0573375,72.2204535 C94.0908805,72.2535037 94.1414046,72.284253 94.2091195,72.3110279 C94.2634172,72.3375936 94.3321803,72.36144 94.4160377,72.3815211 C94.5007338,72.4018115 94.6107966,72.4120612 94.7455975,72.4120612 C94.9210692,72.4120612 95.0592243,72.3934443 95.1602725,72.3566289 C95.2611111,72.3200226 95.3323899,72.2871815 95.3732704,72.2606158 C95.4611111,72.1930511 95.5212788,72.1129356 95.5550314,72.0183868 C95.5889937,71.9242564 95.6055556,71.8225955 95.6055556,71.7152868 L96.4661426,71.7152868 L96.4661426,71.9573066 C96.4661426,72.1395013 96.4271488,72.3074719 96.3497904,72.4622642 C96.2715933,72.6172656 96.1518868,72.7519767 95.9898323,72.8666067 C95.8757862,72.9471405 95.7166667,73.0176338 95.5145702,73.0780864 C95.3124738,73.1387483 95.0562893,73.1697067 94.7455975,73.1697067 C94.5160377,73.1697067 94.317086,73.1506715 94.1479036,73.113856 C93.9795597,73.0770405 93.8328092,73.029557 93.7078616,72.9726603 C93.582914,72.9151362 93.4808176,72.8498724 93.3996855,72.7756139 C93.3183438,72.7015647 93.2510482,72.6273062 93.1971698,72.5532569 C93.0751572,72.3781743 93.0183438,72.1763168 93.0248428,71.947266 L93.0248428,71.7152868 L93.0248428,71.2607413 L93.0248428,69.2212484 L93.0248428,69.2109986 L93.0248428,68.9583107 C93.0248428,68.8775677 93.0380503,68.770259 93.0657233,68.6349203 C93.0917191,68.5006275 93.1632075,68.3661256 93.2778826,68.2312053 C93.3925577,68.0967033 93.5646751,67.9801908 93.7940252,67.8822951 C94.0237945,67.7852362 94.3401468,67.7364975 94.7455975,67.7364975 Z" id="Fill-34" fill="#004F92" mask="url(#mask-2)"></path>
                    <path d="M19.0214675,54.1335816 C19.4782809,60.8352508 21.568847,63.1412375 21.568847,63.1412375 L10.517065,63.1412375 C10.517065,63.1412375 8.21161426,62.0505794 7.55186583,54.1335816 L19.0214675,54.1335816 Z" id="Fill-35" fill="#004F92" mask="url(#mask-2)"></path>
                    <path d="M113.61935,54.1335816 C114.076164,60.8352508 116.16631,63.1412375 116.16631,63.1412375 L105.115157,63.1412375 C105.115157,63.1412375 102.809497,62.0505794 102.149748,54.1335816 L113.61935,54.1335816 Z" id="Fill-36" fill="#D61920" mask="url(#mask-2)"></path>
                </g>
            </g>
        </g>
    </g>
</svg>