<?xml version="1.0" encoding="UTF-8"?>
<svg width="172px" height="45px" viewBox="0 0 172 45" version="1.1" xmlns="http://www.w3.org/2000/svg" xmlns:xlink="http://www.w3.org/1999/xlink">
    <!-- Generator: Sketch 50.2 (55047) - http://www.bohemiancoding.com/sketch -->
    <title>Vinci logo</title>
    <desc>Created with Sketch.</desc>
    <defs></defs>
    <g id="PRO" stroke="none" stroke-width="1" fill="none" fill-rule="evenodd">
        <g id="Home-Pro-V2" transform="translate(-382.000000, -3213.000000)">
            <g id="4---ILS-INVENTENT" transform="translate(-0.500000, 2954.886719)">
                <g id="Vinci-logo" transform="translate(382.621094, 258.195763)">
                    <path d="M76.1171844,16.9784617 L76.1171844,30.7838109 C76.1171844,30.7838109 81.1544741,32.0316151 89.0437015,32.0316151 C96.8794855,32.0316151 101.970219,30.7896281 101.970219,30.7896281 L101.970219,26.1028483 C101.970219,26.1028483 96.4985793,27.1732258 88.9912298,27.1732258 C85.3493004,27.1732258 82.9336557,26.7466261 81.6374087,26.6128289 C81.6315785,25.4891264 81.6403238,22.2944761 81.6374087,21.1542914 C83.0900993,21.0107987 85.5319799,20.5919554 89.0446732,20.5919554 C96.3528244,20.6181331 101.97119,21.7040233 101.97119,21.7040233 L101.97119,16.9794312 C101.97119,16.9794312 96.9562497,15.7345356 89.0446732,15.7345356 C81.073823,15.7335661 76.1171844,16.9784617 76.1171844,16.9784617 Z" id="path5" fill="#004990"></path>
                    <polygon id="polygon7" fill="#004990" points="108.108444 31.7213608 113.770536 31.7213608 113.770536 15.9904955 108.108444 15.9904955"></polygon>
                    <polygon id="polygon9" fill="#004990" points="32.3635038 31.7213608 38.0246245 31.7213608 38.0246245 15.9904955 32.3635038 15.9904955"></polygon>
                    <path d="M64.3732255,25.7702944 C64.3732255,25.7702944 60.2833427,22.7491927 54.26658,19.6388928 C48.9999692,16.9173803 44.3669065,16.0166732 44.3669065,16.0166732 L44.3669065,31.7213608 L49.8463194,31.7213608 L49.8463194,23.3280109 C51.1620004,23.8612606 52.5787381,24.4362007 54.2588064,25.306852 C60.2755691,28.4181214 64.3693387,31.7213608 64.3693387,31.7213608 L69.8681856,31.7213608 L69.8681856,15.9904955 L64.3741972,15.9904955 L64.3741972,25.7702944 L64.3732255,25.7702944 Z" id="path11" fill="#004990"></path>
                    <path d="M14.5396217,25.1488162 C13.2754408,23.9698496 4.6904766,15.7219315 4.6904766,15.7219315 L0.486905,19.5438774 L14.5396217,32.1411737 L28.5855365,19.5526033 L24.3936253,15.7219315 C24.3936253,15.7219315 15.8096328,23.9698496 14.5396217,25.1488162 Z" id="path13" fill="#004990"></path>
                    <path d="M152.720135,13.5511206 C153.935731,13.5511206 154.920062,12.5709108 154.920062,11.3599492 L154.920062,2.83474132 C154.920062,1.6218407 153.935731,0.640661308 152.720135,0.640661308 L144.180841,0.640661308 C142.967188,0.640661308 141.986743,1.6218407 141.986743,2.83474132 C141.986743,2.83474132 141.986743,9.35783911 141.986743,9.3685041 C141.986743,11.398731 140.434939,13.1429422 139.770297,13.8342277 C139.097881,14.5313305 137.297322,15.9953432 134.419148,16.0001909 L126.542553,16.0001909 L126.542553,28.9581579 L139.525429,28.9581579 L139.525429,21.0980578 C139.535146,18.2252964 140.992695,16.4296993 141.692318,15.7616829 C142.389027,15.094636 144.134199,13.5511206 146.166022,13.5511206 C146.179626,13.5511206 152.720135,13.5511206 152.720135,13.5511206 Z" id="path15" fill="#ED1B2D"></path>
                    <path d="M169.084524,17.5883054 C167.736777,16.2328817 165.856539,15.4107076 163.771272,15.4107076 C159.500653,15.4107076 156.094847,18.8787696 156.094847,23.0196957 C156.094847,23.7788493 156.424253,25.2079584 156.424253,25.8197412 C156.424253,29.0822597 153.777344,31.7213608 150.512434,31.7213608 L144.180841,31.7213608 C142.967188,31.7213608 141.986743,32.7044792 141.986743,33.9164103 L141.986743,42.4406487 C141.986743,43.6525797 142.967188,44.6347287 144.180841,44.6347287 L152.720135,44.6347287 C153.935731,44.6347287 154.920062,43.6525797 154.920062,42.4406487 C154.920062,39.2314552 154.920062,36.1192162 154.920062,36.1192162 C154.920062,32.8615455 157.568915,30.2185662 160.834797,30.2185662 C161.445024,30.2185662 162.880224,30.5472419 163.642036,30.5472419 C167.790221,30.5472419 171.262103,27.1518958 171.262103,22.8926853 C171.261131,20.8081639 170.421583,18.9505159 169.084524,17.5883054 Z" id="path17" fill="#ED1B2D"></path>
                </g>
            </g>
        </g>
    </g>
</svg>