<?xml version="1.0" encoding="UTF-8"?>
<svg width="147px" height="148px" viewBox="0 0 147 148" version="1.1" xmlns="http://www.w3.org/2000/svg" xmlns:xlink="http://www.w3.org/1999/xlink">
    <!-- Generator: Sketch 50.2 (55047) - http://www.bohemiancoding.com/sketch -->
    <title>Group 6</title>
    <desc>Created with Sketch.</desc>
    <defs></defs>
    <g id="PRO" stroke="none" stroke-width="1" fill="none" fill-rule="evenodd">
        <g id="Home-Pro-V2" transform="translate(-887.000000, -3162.000000)">
            <g id="4---ILS-INVENTENT" transform="translate(-0.500000, 2954.886719)">
                <g id="Group-6" transform="translate(887.539062, 207.807736)">
                    <rect id="Rectangle-4-Copy" stroke="#979797" fill="#FFFFFF" fill-rule="nonzero" x="1.30612245" y="0.5" width="145" height="145.674058"></rect>
                    <g id="6.-logos/logos--marianne" transform="translate(11.000000, 9.059945)">
                        <rect id="Rectangle-15" fill="#FFFFFF" x="0" y="0" width="130.612245" height="80"></rect>
                        <g id="Marianne" stroke-width="1" transform="translate(3.265306, 4.244898)">
                            <path d="M38.4256668,25.5680726 C37.3126184,25.8858957 36.1792536,25.9395918 35.1605314,26.4910658 C37.5854386,26.392381 40.011797,26.7827664 42.3467316,27.525805 C43.1826062,27.8029932 43.9212524,28.1730612 44.6773127,28.6302041 C45.0459102,28.9219048 45.2345624,29.2107029 45.6075135,29.3892063 C46.0805953,29.6692971 46.7278177,29.6692971 47.196546,29.4936961 L47.6580185,29.4936961 C49.0569476,29.1134694 50.5618122,28.7375964 51.4891107,27.7188209 C51.4891107,27.8029932 51.584888,27.8029932 51.6690559,27.8029932 C51.3976869,28.5503855 51.3976869,29.3892063 50.8389859,30.0509751 C50.8389859,30.1438549 50.7374039,30.3252608 50.9202515,30.4152381 L51.1176108,30.4152381 C51.0203823,30.4152381 50.9202515,30.4152381 50.9202515,30.5066667 C50.9202515,30.6895238 51.2003276,30.5066667 51.3048119,30.6895238 C50.8389859,30.7954649 50.3644529,30.8941497 50.0872792,31.2671202 C50.0872792,31.3585488 50.2744803,31.3585488 50.3673553,31.3585488 C50.1917635,31.5341497 49.9058828,31.4514286 49.8072031,31.6400907 C49.8072031,31.6400907 49.9058828,31.7271655 49.9973066,31.7271655 C49.9058828,31.7271655 49.8072031,31.7271655 49.8072031,31.8273016 L49.8072031,32.1015873 C49.5358341,32.1015873 49.4444103,32.2902494 49.2412463,32.3773243 C49.6214532,32.6646712 49.9058828,32.3773243 50.2744803,32.3773243 C49.2412463,32.7604535 48.4140787,33.3133787 47.3677842,33.5963719 C47.1979972,33.5963719 47.3677842,33.8648526 47.1979972,33.8648526 C47.4824267,34.0651247 47.6594696,33.7719728 47.9438992,33.7719728 C46.6349427,34.5280726 45.3317909,35.1854875 43.9227036,36.0257596 C43.9227036,36.0257596 43.7369537,36.2115193 43.7369537,36.3943764 L43.366905,36.3943764 C43.1855086,36.50322 43.27403,36.7658957 43.0940848,36.9531066 C43.5483014,37.237551 44.1113559,36.5946485 44.3957854,36.9531066 C44.4872092,36.9531066 44.2100355,37.0575964 44.0213832,37.0575964 C43.9227036,37.0575964 43.9227036,37.237551 43.8269263,37.237551 L43.5468502,37.237551 C43.3654538,37.4218594 43.1826062,37.5060317 43.1826062,37.7875737 C42.9954051,37.7875737 42.8067529,37.7875737 42.7182314,37.9747846 C44.77309,37.7048526 46.9179211,37.8935147 48.8711977,36.8631293 C50.3673553,36.1113832 51.7677355,35.0780952 52.9809147,33.7719728 C52.9809147,33.7719728 53.067985,33.8648526 53.067985,33.9693424 C52.7980672,34.8966893 52.2364639,35.5628118 51.492013,36.1128345 C50.9217027,36.3943764 50.5632634,36.8645805 50.0887304,37.0575964 C49.8086543,37.2390023 49.5387365,37.4233107 49.2426975,37.6148753 C45.8005192,38.8136054 41.689351,38.2722902 38.7042917,40.5942857 C38.7042917,40.4956009 38.605612,40.4956009 38.5156394,40.4956009 C38.3269871,40.7002268 38.0454599,40.7858503 37.9554873,40.9788662 C37.9554873,41.1515646 38.2399169,41.0702948 38.3269871,41.0702948 C38.8929439,40.7002268 39.4487425,40.4099773 40.1003184,40.2227664 C39.3529652,40.595737 38.6317331,41.347483 37.8626123,41.347483 L33.2058037,41.347483 C34.1243951,40.7887528 35.0676564,40.1269841 36.0878299,39.5711565 C35.8106561,39.3955556 35.5363848,39.3955556 35.2388947,39.3955556 C34.7861292,39.4811791 34.2230748,39.1967347 33.7528953,39.3955556 C32.3597708,40.0341043 30.4877599,39.8585034 29.7418578,41.3503855 L1.98675593,41.3503855 L1.95918367,0 L57.4476199,0 C56.3331204,0.5630839 55.3158493,0.927346939 54.4799747,1.95482993 C53.7326215,2.90394558 52.9809147,3.8153288 52.7080945,4.93569161 C51.492013,5.6830839 50.7388551,6.81795918 50.0872792,7.93251701 C49.2412463,9.51292517 48.0367742,10.9177324 48.2181706,12.6955102 C48.4140787,14.1844898 48.7797739,15.5849433 49.0554964,17.1769615 C49.1585296,17.7356916 49.2397952,18.2087982 49.4429591,18.7573696 C49.620002,19.3131973 49.4429591,19.974966 49.7186817,20.4437188 C49.9058828,20.7223583 49.8072031,21.0909751 50.1903124,21.2810884 L50.1903124,21.6497052 C50.2744803,21.7440363 50.2744803,21.8383673 50.4660349,21.8383673 L50.4660349,22.2185941 C51.2003276,23.1590023 52.1406866,23.9717007 52.6123172,25.0195011 C52.7951648,25.5782313 51.6690559,25.2966893 51.2003276,25.106576 C50.2744803,24.6392744 49.7186817,23.8991383 48.9626215,23.2373696 C48.9626215,23.2373696 48.8697465,23.3360544 48.8697465,23.4303855 C49.2397952,24.0805442 50.6503337,24.9251701 49.9044316,25.3794104 C49.5343829,25.5796825 49.0554964,25.106576 48.6912524,25.4853515 C48.5896704,25.6653061 48.6912524,25.8496145 48.6912524,26.0397279 C48.1325515,25.6653061 47.5709482,25.8496145 47.0049914,25.6653061 C46.6334915,25.5782313 46.5391654,24.8221315 46.0805953,24.8221315 C44.8587091,24.5492971 43.7355025,24.2677551 42.5237745,24.1777778 C40.8563787,23.9717007 39.2600903,23.7046712 37.5839874,23.9717007 C36.0849275,24.067483 34.9733303,25.1921995 34.0329713,26.3111111 L34.0329713,26.6057143 C34.6889007,26.6811791 34.9733303,26.1209977 35.5349336,25.9395918 C36.4578785,25.7451247 37.3068137,25.3678005 38.2399169,25.1921995 C39.6373948,24.9121088 40.943449,24.5376871 42.2393449,24.6276644 C42.5252257,24.6276644 42.8996278,24.5376871 43.1855086,24.6276644 C41.5006987,24.5376871 40.0132482,25.0964172 38.4256668,25.5680726 Z" id="Fill-5" fill="#004493"></path>
                            <path d="M84.4256565,35.4713832 C84.6485789,34.7980045 84.8903193,34.0709297 84.5211946,33.4019048 C83.9638887,32.5688889 85.0741579,32.281542 85.4519679,31.7344218 C85.7255545,31.2700227 85.2594441,30.9812245 85.1682485,30.5153741 C85.0756055,30.326712 84.7021381,30.4210431 84.5211946,30.1365986 C85.1682485,29.8623129 86.1902173,29.3006803 85.7255545,28.4633107 C85.4519679,28.0090703 84.9945428,27.2631293 85.544611,26.7885714 C86.1916649,26.4112472 87.2150812,26.509932 87.494458,25.8496145 C87.9576733,24.7263492 86.9328094,23.7960998 86.3726084,22.8643991 C86.1004694,22.3129252 85.7255545,21.9385034 85.3578773,21.3638095 C84.9945428,20.720907 84.5211946,20.1520181 84.3373561,19.4060771 C84.0478465,18.665941 84.4256565,18.0012698 84.4256565,17.2596825 C84.5211946,15.8693878 84.1448322,14.461678 83.7800501,13.075737 C83.4992258,12.412517 83.4022401,11.6448073 83.1214158,11.0019048 C83.0287728,10.633288 82.9317871,10.2661224 82.6553054,9.89024943 C82.5641099,9.7015873 82.5641099,9.42004535 82.6553054,9.23428571 C83.0287728,8.95274376 83.4036877,8.67555556 83.7814977,8.30403628 C84.049294,7.83238095 83.8697981,7.18222222 83.4036877,6.89487528 C82.7479485,6.62058957 82.839144,7.55809524 82.3773762,7.74240363 L82.0979995,7.74240363 C82.0096991,7.45795918 82.1993278,7.37814059 82.3773762,7.18222222 C82.3773762,7.09514739 82.3773762,6.89487528 82.2861807,6.89487528 C81.9185036,6.89487528 81.5435887,6.8121542 81.4466029,6.62058957 C80.5201723,5.31156463 79.2173792,4.66866213 77.819048,4.09977324 C78.1867251,4.19410431 78.5529547,4.28698413 78.9408976,4.28698413 C79.5807137,4.38131519 80.3218582,4.38131519 80.8936397,4.09977324 C81.3539599,3.91836735 81.4451554,3.16952381 81.6318891,2.69931973 C81.811385,2.3292517 81.5421411,1.75746032 81.3525123,1.49478458 C80.8921921,0.740136054 79.5314971,0 79.5314971,0 L123.350219,0 L123.356009,41.3489342 L71.1111111,41.3489342 C71.668417,39.4797279 72.6990711,37.6975964 74.3695414,36.5061224 C74.7386661,36.3014966 75.2120142,36.215873 75.6766771,36.1200907 C77.2573994,36.1200907 78.8410168,36.5757823 80.4145013,36.7644444 C80.6026825,36.7644444 80.7981015,36.8602268 80.9819401,36.9618141 C81.5435887,37.0474376 82.1993278,37.0474376 82.7479485,36.861678 C83.4036877,36.6759184 84.1448322,36.3029478 84.4256565,35.4713832" id="Fill-17" fill="#E1001A"></path>
                            <path d="M32.5543764,29.8618776 C32.2655782,29.9475011 31.9796825,30.146322 32.0798186,30.3277279 C32.3570068,30.7123084 32.9200907,30.2348481 33.3844898,30.2348481 C32.8243084,30.4249615 32.1712472,30.3277279 31.7053968,30.8066395 C32.0798186,31.0867302 32.4513379,30.8908118 32.8243084,30.8908118 C32.8243084,31.0867302 33.0187755,31.0867302 33.1014966,31.17961 C32.6385488,31.3610159 32.2655782,31.7296327 32.1712472,32.0184308 C31.9811338,32.4813787 31.5167347,32.6714921 31.236644,33.0459138 L31.236644,33.3143946 C30.3092971,34.1648254 29.2818141,34.7235556 28.5271655,35.7452336 C28.6316553,35.7452336 28.6316553,35.8395646 28.6316553,35.9382494 C28.4328345,36.2154376 28.0671202,36.3170249 27.9771429,36.5869569 C27.9771429,36.6783855 27.9771429,36.775619 28.0685714,36.775619 C29.181678,36.4215147 30.0277551,35.5725351 31.0566893,35.1908571 C31.7939229,35.0065488 32.358458,34.5450522 33.0202268,34.3549388 C33.4773696,34.2606077 34.0419048,34.0632381 34.5150113,33.9761633 C34.5150113,34.0632381 34.5150113,34.1648254 34.5904762,34.1648254 L35.3538322,34.1648254 C35.2493424,34.3549388 34.8865306,34.2591565 34.9721542,34.3549388 C35.2493424,34.6422857 35.8109751,34.5450522 36.1853968,34.3549388 C36.4712925,34.1648254 36.749932,34.1648254 37.1185488,34.1648254 C37.2143311,34.1648254 37.2143311,33.9761633 37.2143311,33.8905397 C37.495873,33.9761633 37.6801814,33.9761633 37.9559184,33.9761633 C40.2111565,33.5074104 42.3488435,33.0459138 44.395102,32.0184308 C41.964263,30.1477732 38.8905215,29.4990658 36.0025397,28.6529887 C36.2739229,28.6529887 36.5569161,28.9417868 36.8399093,28.6529887 C36.3755102,28.2945306 35.8095238,28.4570703 35.3509297,28.1987483 C35.4380045,28.1987483 35.6324717,28.2930794 35.722449,28.1058685 C34.9707029,27.7140317 34.2291156,27.7140317 33.4759184,27.5456871 C33.9446712,27.4470023 34.2291156,27.0682268 34.2291156,26.6067302 C34.2291156,26.5109478 34.0404535,26.5109478 33.9446712,26.5109478 C32.8257596,27.0682268 32.0812698,28.1058685 31.6197732,29.3220136 C32.2670295,29.6862766 33.0202268,29.4032834 33.6703855,29.4990658 C33.3844898,29.7719002 32.921542,29.7719002 32.5543764,29.8618776" id="Fill-7" fill="#FFFFFF"></path>
                            <path d="M28.7222132,26.2175057 C27.7614875,27.2449887 26.7688345,28.1970068 25.5396281,28.8413605 C24.7037098,30.5131973 23.7662041,32.0166893 22.5515102,33.5912925 C22.5515102,33.6856236 22.6530975,33.7857596 22.6530975,33.7857596 C24.8909206,31.275102 26.9487891,29.1301587 29.8353197,27.3509297 C30.0268844,27.2667574 29.5566803,27.6208617 29.936907,27.5439456 C31.1443447,27.2667574 31.5144127,26.0360998 32.0803991,25.1102041 C32.8234376,23.8897052 34.1353651,23.4267574 35.0757732,22.4065306 C35.0757732,22.4950567 35.0757732,22.5821315 34.9712834,22.6880726 C35.0757732,22.7707937 35.1657506,22.7707937 35.2484717,22.7707937 C35.6374059,22.4936054 36.0916463,22.5821315 36.3760907,22.220771 C35.6374059,21.9348753 34.6882902,21.8463492 33.9452517,22.1206349 C31.9817143,23.0421769 30.3084263,24.5413152 28.7222132,26.2175057" id="Fill-9" fill="#FFFFFF"></path>
                            <path d="M30.1188934,27.9996372 C30.2088707,27.8312925 30.3090068,27.8153288 30.4018866,27.6266667 C30.4018866,27.5439456 30.4018866,27.4452608 30.3090068,27.4452608 C29.9374875,27.5439456 29.6486893,27.9169161 29.5572608,28.2927891 C29.5572608,28.3726077 29.6486893,28.3726077 29.7531791,28.3726077 C29.9374875,28.2927891 30.0274649,28.1970068 30.1188934,27.9996372" id="Fill-11" fill="#FFFFFF"></path>
                            <path d="M37.5904943,35.092898 C37.2131701,35.2830113 36.5572063,35.2830113 36.4701315,35.7416054 C36.3787029,35.9346213 36.748771,35.8359365 36.9359819,35.8359365 C37.5904943,35.5674558 38.3393379,35.8359365 38.8908118,35.2830113 C38.7021497,35.092898 38.4206077,35.1886803 38.2421043,34.8955283 C38.0563447,34.8200635 37.776254,35.0072744 37.5904943,35.092898" id="Fill-13" fill="#FFFFFF"></path>
                            <path d="M47.6868209,40.0497778 C48.2542585,39.9293243 48.8057324,39.5911837 49.3630113,39.399619 L49.3630113,39.5911837 C50.7620136,39.0222948 51.7938503,37.8119546 53.1841451,37.3519093 C53.2813787,37.3519093 53.4656871,37.5275102 53.6514467,37.4404354 C54.4989751,36.6915918 55.4306757,35.8440635 56.6381134,36.0457868 C56.6381134,36.1256054 56.6381134,36.2242902 56.7324444,36.2242902 C56.8311293,36.2242902 56.9225578,36.2242902 56.9225578,36.1256054 C56.5408798,36.4085986 56.1795193,36.6915918 55.7992925,36.9702313 C55.7209252,37.0645624 55.7992925,37.1516372 55.8936236,37.1516372 C56.3594739,36.9702313 56.6366621,36.592907 57.1083175,36.4085986 C57.0081814,36.5072834 57.0081814,36.6901406 56.9211066,36.7917279 C55.150585,38.0963991 52.4367528,41.2586667 52.4367528,41.2586667 L39.7426939,41.2586667 C41.610449,40.9814785 43.4796553,40.3371247 45.3517642,40.1412063 C46.0948027,40.1412063 46.8450975,40.2355374 47.6868209,40.0497778" id="Fill-15" fill="#2C4390"></path>
                            <path d="M80.9968617,16.9920726 C80.4279728,16.8513016 79.9664762,16.9920726 79.4004898,16.9920726 C78.6516463,17.170576 78.0058413,17.2663583 77.3542313,17.5420952 C77.9144127,17.170576 78.4803991,16.8048617 79.1218503,16.6161995 C79.5862494,16.5160635 80.0579048,16.2417778 80.5179501,16.2417778 C81.086839,16.1329342 81.6470204,15.9616871 82.1172245,16.1329342 C82.5772698,16.3230476 83.3246621,16.3230476 83.4218957,16.6161995 C83.6149116,17.170576 83.1403537,17.7394649 82.5772698,18.1008254 C82.4872925,18.2894875 82.8573605,18.3925261 82.8573605,18.573932 C82.7731882,18.7640454 82.490195,18.8496689 82.3029841,18.8496689 C82.1186757,18.9454512 81.9242086,19.2327982 81.7413515,19.4200091 C81.9242086,19.4200091 81.7413515,19.7000998 81.9242086,19.7000998 C81.5512381,20.1674014 82.1186757,21.0874921 81.5512381,21.2747029 C80.9039819,21.4677188 80.1638458,21.4677188 79.4033923,21.2747029 C79.7763628,21.1803719 80.2451156,21.369034 80.5194014,21.0062222 L80.5194014,20.6303492 C80.5194014,20.5258594 80.4265215,20.5258594 80.3452517,20.5258594 C80.2465669,20.6303492 80.1652971,20.6303492 80.1652971,20.6303492 C80.1652971,20.4315283 79.9693787,20.2501224 79.8794014,20.2501224 C79.3206712,20.353161 78.8432109,20.0629116 78.4833016,19.7000998 C78.7546848,19.5941587 79.0420317,19.4998277 79.3206712,19.5941587 C79.5906032,19.5941587 79.4948209,19.1283084 79.7778141,18.9483537 L80.059356,18.9483537 C80.6253424,18.1995102 81.7428027,18.028263 81.9256599,17.2663583 C81.9227574,17.0646349 81.362576,17.0646349 80.9968617,16.9920726" id="Fill-19" fill="#9DA0A1"></path>
                            <path d="M4.43791383,62.6758821 C4.19555556,62.6758821 3.97641723,62.7194195 3.7137415,62.7673107 C3.7137415,63.4842268 3.70213152,64.7903492 3.70213152,65.7946122 C3.83274376,65.810576 4.07219955,65.8323447 4.22748299,65.8323447 C5.22739229,65.8323447 5.90947846,65.2155646 5.90947846,64.254839 C5.90802721,63.3289433 5.27963719,62.6758821 4.43791383,62.6758821 M7.56825397,70.2920272 C7.11256236,70.2920272 6.8585941,70.2209161 6.61623583,70.0641814 C6.1968254,69.7898957 5.77306122,69.0628209 5.54086168,68.6405079 C5.12145125,67.9293968 4.65414966,67.1587846 4.21877551,66.5086259 C4.14331066,66.5289433 4.08235828,66.5289433 4.03446712,66.5289433 C3.92272109,66.5289433 3.81823129,66.5086259 3.69922902,66.5086259 L3.69922902,67.1587846 C3.69922902,67.4896689 3.710839,67.8161995 3.710839,68.1441814 C3.71954649,68.8059501 3.73986395,69.0976508 3.83129252,69.3530703 C3.95464853,69.6578322 4.16653061,69.8160181 4.57433107,69.8552018 L4.57433107,70.1976961 L4.29278912,70.1759274 C3.97351474,70.1715737 3.53668934,70.1759274 2.96634921,70.1759274 C2.40907029,70.1759274 1.9693424,70.1715737 1.64426304,70.1759274 L1.35401361,70.1976961 L1.35401361,69.8537506 C1.65732426,69.8276281 1.81115646,69.7666757 1.94902494,69.621551 C2.08253968,69.4415964 2.178322,69.228263 2.19138322,68.9539773 C2.23056689,68.5897143 2.24507937,68.3618685 2.24507937,67.1587846 L2.24507937,65.1038186 C2.24507937,63.6220952 2.19138322,63.2694422 2.11011338,62.9211429 C2.02013605,62.5975147 1.78213152,62.4669025 1.35111111,62.4132063 L1.35111111,62.0779683 C1.59782313,62.0968345 1.8430839,62.0808707 2.08108844,62.0808707 C2.71673469,62.0808707 2.91410431,62.0808707 3.6614966,62.0532971 C4.32471655,62.0257234 4.70204082,62.0155646 5.00535147,62.0155646 C5.82095238,62.0155646 6.3230839,62.1360181 6.74104308,62.4219138 C7.18657596,62.7557007 7.51020408,63.3840907 7.51020408,64.013932 C7.51020408,65.024 6.84843537,65.8323447 5.72226757,66.2459501 C6.19247166,66.832254 6.55528345,67.4258141 6.98195011,68.0759728 C7.36943311,68.7029116 7.75836735,69.2485805 8.06603175,69.5446349 C8.23292517,69.7231383 8.34321995,69.7898957 8.57687075,69.8537506 L8.57687075,70.1962449 C8.26049887,70.2600998 7.94702948,70.2920272 7.56825397,70.2920272" id="Fill-21" fill="#000000"></path>
                            <path d="M13.8106485,70.0440091 C13.7235737,70.19639 13.6205351,70.2268662 13.0705125,70.2268662 C12.7280181,70.2268662 12.4014875,70.2065488 12.057542,70.19639 C11.5757279,70.1746213 11.0895601,70.1688163 10.6048435,70.1688163 C10.120127,70.1688163 9.63541043,70.1688163 9.15649887,70.19639 L9.15649887,69.9104943 C9.61073923,69.8698594 9.81391383,69.6231474 9.84874376,69.1674558 C9.87921995,68.8699501 9.87921995,68.5376145 9.87921995,68.023873 L9.87921995,65.1837823 C9.87921995,64.6453696 9.84874376,64.3986576 9.76747392,64.1809705 C9.67314286,63.9211973 9.49754195,63.7978413 9.15649887,63.7673651 L9.15649887,63.4872744 L13.8585397,63.4872744 C13.8585397,63.7818776 13.8556372,64.0808345 13.8556372,64.3667302 C13.8556372,64.6221497 13.842576,64.847093 13.8585397,65.0792925 L13.5015329,65.0792925 C13.431873,64.2970703 13.0951837,64.0967982 11.9008073,64.0967982 C11.6845714,64.0967982 11.3870658,64.1055057 11.1432562,64.1113107 C11.1258413,64.5191111 11.1171338,64.6453696 11.1171338,65.2302222 L11.1171338,66.3955737 C11.2782222,66.4028299 11.3870658,66.4028299 11.5742766,66.4028299 C12.6148209,66.4028299 12.926839,66.256254 12.9994014,65.7076825 L13.3622132,65.7076825 C13.337542,65.8644172 13.337542,66.2025578 13.337542,66.7017868 C13.337542,67.2111746 13.3447982,67.524644 13.3622132,67.6726712 L12.9994014,67.6726712 C12.9674739,67.1153923 12.697542,66.9688163 11.664254,66.9688163 C11.4755918,66.9688163 11.2970884,66.9818776 11.1171338,66.9818776 C11.1171338,67.5928526 11.1258413,68.2502676 11.1258413,68.8844626 C11.1258413,69.303873 11.1969524,69.4402902 11.4393107,69.4997914 C11.5873379,69.5389751 11.8238912,69.5549388 12.1359093,69.5549388 C13.2243447,69.5549388 13.5944127,69.309678 13.8382222,68.4752109 L14.2228027,68.5477732 C14.0849342,69.2690431 13.9194921,69.8538957 13.8106485,70.0440091 Z M11.5757279,62.8255057 L11.0968163,62.5541224 L12.0909206,61.0796553 L13.2432109,61.2871837 L11.5757279,62.8255057 Z" id="Fill-23" fill="#000000"></path>
                            <path d="M18.0028662,67.1975329 C17.9114376,67.1975329 17.8533878,67.1975329 17.725678,67.1830204 L17.4992834,66.6852426 C18.4469478,66.6315465 18.9664943,66.1613424 18.9664943,65.3892789 C18.9664943,64.5925442 18.4179229,64.0149478 17.6502132,64.0149478 C17.5225034,64.0149478 17.4325261,64.0265578 17.2728889,64.0541315 C17.2728889,64.6883265 17.2453152,65.2949478 17.2453152,65.9175329 L17.2453152,67.6807982 C17.2453152,69.0014331 17.2554739,69.2220227 17.3657687,69.4948571 C17.4542948,69.7531791 17.6284444,69.8721814 17.9651338,69.9099138 L17.9651338,70.1943583 L17.731483,70.1740408 C17.461551,70.1682358 17.108898,70.1682358 16.6227302,70.1682358 C16.1568798,70.1682358 15.7810068,70.1682358 15.5241361,70.1740408 L15.2846803,70.1943583 L15.2846803,69.9099138 C15.7418231,69.8692789 15.9391927,69.6211156 15.9856327,69.165424 C16.0161088,68.8693696 16.0161088,68.6879637 16.0161088,67.6807982 L16.0161088,65.1832018 C16.0161088,64.6447891 15.9856327,64.3980771 15.9043628,64.18039 C15.8085805,63.9206168 15.6315283,63.7958095 15.2861315,63.7667846 L15.2861315,63.4837914 C15.4022313,63.4866939 15.3282177,63.4866939 15.7476281,63.4866939 C15.9217778,63.4866939 16.1583311,63.4866939 16.4834104,63.4837914 C17.0058594,63.4533152 17.5108934,63.4300952 18.0231837,63.4300952 C19.4541134,63.4300952 20.3059955,64.1339501 20.3059955,65.2963991 C20.3059955,66.4095057 19.3264036,67.1975329 18.0028662,67.1975329" id="Fill-25" fill="#000000"></path>
                            <path d="M27.1397732,63.9875193 C27.0352834,64.1428027 26.9815873,64.3387211 26.9583673,64.743619 C26.9395011,65.1847982 26.9322449,65.5055238 26.9322449,66.1310113 C26.9322449,66.3559546 26.9395011,67.0467483 26.9395011,67.7520544 C26.9395011,68.454458 26.8321088,68.8854785 26.5418594,69.3048889 C26.0818141,69.9666576 25.3112018,70.3164082 24.3069388,70.3164082 C23.6770975,70.3164082 23.1880272,70.1974059 22.7410431,69.8969977 C22.0328345,69.4427574 21.76,68.8491973 21.76,67.7738231 C21.76,66.6969977 21.7846712,66.2267937 21.7846712,65.8668844 C21.7846712,65.3574966 21.8180499,64.8350476 21.7295238,64.3111474 C21.6671202,63.9570431 21.4726531,63.7959546 21.0619501,63.7698322 L21.0619501,63.4882902 L21.2839909,63.4882902 C21.5394104,63.5086077 21.9094785,63.5086077 22.3970975,63.5086077 C22.8760091,63.5086077 23.2489796,63.5086077 23.5116553,63.4882902 L23.7467574,63.4882902 L23.7467574,63.7698322 C23.4405442,63.7974059 23.2780045,63.8946395 23.1735147,64.0571791 C23.0907937,64.2037551 23.05161,64.4054785 23.0429025,64.8553651 C23.02839,65.4706939 23.0109751,66.1077914 23.0109751,66.7434376 C23.0109751,68.4689705 23.05161,68.8085624 23.3621769,69.1699229 C23.6059864,69.4442086 24.0210431,69.634322 24.4970522,69.634322 C25.1718821,69.634322 25.8249433,69.3063401 26.0281179,68.6257052 C26.1645351,68.2004898 26.1834014,67.8783129 26.1834014,66.7434376 L26.1834014,65.7551383 C26.1834014,64.6115556 26.1471202,64.2429388 26.0339229,64.0803991 C25.9265306,63.9033469 25.7697959,63.7974059 25.5071202,63.7698322 L25.5071202,63.4882902 C25.9163719,63.5086077 26.0527891,63.5086077 26.5520181,63.5086077 C27.0730159,63.5086077 27.2152381,63.5086077 27.6041723,63.4882902 L27.6041723,63.7698322 C27.396644,63.7945034 27.250068,63.862712 27.1397732,63.9875193" id="Fill-27" fill="#000000"></path>
                            <path d="M31.1711927,66.8170159 C30.9941406,66.8170159 30.8141859,66.8315283 30.5413515,66.8445896 C30.538449,67.1188753 30.538449,67.1653152 30.538449,67.6181043 L30.538449,68.2203719 C30.538449,68.790712 30.5558639,69.0983764 30.638585,69.289941 C30.7111474,69.5410068 30.9535057,69.6571066 31.3743673,69.6571066 C32.2364082,69.6571066 32.7037098,69.1825488 32.7037098,68.3335692 C32.7037098,67.3946122 32.1101497,66.8170159 31.1711927,66.8170159 M31.1305578,64.0030476 C30.9535057,64.0030476 30.7779048,64.0277188 30.5892426,64.0277188 C30.5834376,64.6909388 30.5558639,65.7967891 30.5413515,66.2336145 C30.6632562,66.248127 30.8054785,66.2568345 30.9941406,66.2568345 C31.9809887,66.2568345 32.5571338,65.8417778 32.5571338,65.1074467 C32.5542313,64.4195556 32.0201723,64.0030476 31.1305578,64.0030476 M33.3262948,69.7209615 C32.8604444,70.0750658 32.3205805,70.2071293 31.2974512,70.2071293 C30.7561361,70.2071293 30.1930522,70.1708481 29.6531882,70.1708481 C29.4296961,70.1708481 29.0262494,70.1708481 28.7432562,70.1766531 L28.6228027,70.1984218 L28.6228027,69.9125261 C29.0901043,69.8718912 29.270059,69.6309841 29.3179501,69.1694875 C29.3440726,68.8719819 29.3571338,68.6862222 29.3571338,67.6834104 L29.3571338,65.7822766 C29.3571338,64.856381 29.3426213,64.445678 29.241034,64.1844535 C29.1423492,63.9246803 28.9580408,63.8013243 28.6228027,63.7708481 L28.6228027,63.4893061 C29.0857506,63.5110748 29.3571338,63.5110748 30.0058413,63.5110748 C30.5848889,63.5110748 31.4570884,63.4747937 32.0288798,63.4747937 C32.9678367,63.4747937 33.8037551,63.9275828 33.8037551,64.9637732 C33.8037551,65.7518005 33.3262948,66.2611882 32.3728254,66.5093515 C33.4322358,66.7284898 33.9996735,67.3351111 33.9996735,68.3132517 C33.9996735,68.9358367 33.7834376,69.3770159 33.3262948,69.7209615" id="Fill-29" fill="#000000"></path>
                            <path d="M39.6737596,70.0589569 C39.5866848,70.1968254 39.4662313,70.2273016 38.959746,70.2273016 C38.7173878,70.2273016 38.4474558,70.2069841 38.202195,70.2069841 C37.5752562,70.1750567 37.0136236,70.1692517 36.3199274,70.1692517 C35.8134422,70.1692517 35.4636916,70.1692517 35.160381,70.1968254 L35.160381,69.9109297 C35.3969342,69.8964172 35.5275465,69.8470748 35.6523537,69.7121088 C35.8279546,69.5002268 35.883102,69.2477098 35.883102,68.4959637 L35.883102,67.0780952 L35.883102,65.9896599 C35.883102,64.645805 35.883102,64.4585941 35.7728073,64.1814059 C35.6784762,63.9216327 35.4912653,63.7982766 35.160381,63.7678005 L35.160381,63.4862585 L35.3969342,63.489161 C35.6770249,63.5080272 36.0383855,63.5080272 36.5535782,63.5080272 C37.0440998,63.5080272 37.4257778,63.5080272 37.6840998,63.489161 L37.9351655,63.4862585 L37.9351655,63.7678005 C37.4257778,63.7678005 37.1993832,64.0406349 37.1442358,64.5398639 C37.1195646,64.7053061 37.1152109,64.8547846 37.1152109,65.9925624 L37.1152109,67.6731066 C37.1152109,69.0779138 37.1195646,69.2506122 37.2530794,69.3986395 C37.3604717,69.501678 37.5752562,69.5553741 38.0077279,69.5553741 C38.5606531,69.5553741 38.8625125,69.495873 39.1150295,69.3594558 C39.3980227,69.1911111 39.6011973,68.9023129 39.7158458,68.46839 L40.0859138,68.5627211 C39.9799728,69.1591837 39.7971156,69.8731973 39.6737596,70.0589569" id="Fill-31" fill="#000000"></path>
                            <path d="M43.1750385,70.1752018 C42.9283265,70.1693968 42.5524535,70.1693968 42.0866032,70.1693968 C41.5931791,70.1693968 41.2419773,70.1693968 40.9720454,70.1752018 L40.7369433,70.1969705 L40.7369433,69.9110748 C41.2042449,69.8704399 41.3914558,69.6309841 41.427737,69.1680363 C41.4582132,68.8705306 41.4654694,68.684771 41.4654694,67.6819592 L41.4654694,65.989805 C41.4654694,65.7474467 41.4582132,65.455746 41.4582132,65.1843628 C41.4582132,64.6459501 41.4320907,64.3992381 41.3595283,64.181551 C41.2680998,63.9217778 41.0765351,63.7969705 40.7369433,63.7679456 L40.7369433,63.4878549 L40.9720454,63.5009161 C41.2419773,63.5067211 41.5931791,63.5067211 42.0866032,63.5067211 C42.5524535,63.5067211 42.9283265,63.5067211 43.1750385,63.5009161 L43.4173968,63.4878549 L43.4173968,63.7679456 C42.9863764,63.799873 42.7672381,64.0712562 42.7266032,64.5400091 C42.6859683,64.8244535 42.6859683,65.0943855 42.6859683,65.9927075 L42.6859683,67.6834104 C42.6859683,69.0040454 42.7062857,69.2246349 42.8064218,69.4974694 C42.8891429,69.7557914 43.077805,69.8747937 43.4173968,69.9125261 L43.4173968,70.1984218 L43.1750385,70.1752018 Z" id="Fill-33" fill="#000000"></path>
                            <path d="M47.8286077,64.0499229 C46.5950476,64.0499229 45.7242993,65.0774059 45.7242993,66.5141406 C45.7242993,68.2570884 46.7662948,69.6299683 48.0811247,69.6299683 C49.321941,69.6299683 50.1941406,68.5865215 50.1941406,67.1294694 C50.1941406,65.401034 49.1521451,64.0499229 47.8286077,64.0499229 M52.5785397,72.0056599 C51.7963175,72.0056599 50.9560454,71.7589478 50.1578594,71.3090612 C49.709424,71.0739592 49.069424,70.6400363 48.6108299,70.2540045 C48.2683356,70.3077007 48.1377234,70.3149569 47.8169977,70.3149569 C45.7852517,70.3149569 44.4486531,68.9798095 44.4486531,66.9843447 C44.4486531,64.8466576 45.898449,63.369288 48.0390385,63.369288 C50.096907,63.369288 51.4828481,64.7058866 51.4828481,66.686839 C51.4828481,68.0945488 50.7586757,69.3629388 49.5991293,69.9405351 C49.967746,70.1161361 50.3291066,70.3193107 50.6890159,70.538449 C51.7048889,71.1537778 52.410195,71.419356 53.0748662,71.419356 C53.4870204,71.419356 53.830966,71.3308299 54.2329615,71.1276553 L54.3577687,71.4832109 C53.8716009,71.8286077 53.2649796,72.0056599 52.5785397,72.0056599" id="Fill-35" fill="#000000"></path>
                            <path d="M58.4457868,63.9875193 C58.3383946,64.1428027 58.2788934,64.3387211 58.2629297,64.743619 C58.2440635,65.1847982 58.229551,65.5055238 58.229551,66.1310113 C58.229551,66.3559546 58.2455147,67.0467483 58.2455147,67.7520544 C58.2455147,68.454458 58.13522,68.8854785 57.8406168,69.3048889 C57.3762177,69.9666576 56.6172154,70.3164082 55.6071474,70.3164082 C54.9656961,70.3164082 54.5012971,70.1974059 54.0412517,69.8969977 C53.3461043,69.4427574 53.0703673,68.8491973 53.0703673,67.7738231 C53.0703673,66.6969977 53.0906848,66.2267937 53.0906848,65.8668844 C53.0906848,65.3574966 53.1139048,64.8350476 53.0282812,64.3111474 C52.9629751,63.9570431 52.7830204,63.7959546 52.3563537,63.7698322 L52.3563537,63.4882902 L52.5827483,63.4882902 C52.8439728,63.5086077 53.232907,63.5086077 53.6987574,63.5086077 C54.1921814,63.5086077 54.5549932,63.5086077 54.8234739,63.4882902 L55.0556735,63.4882902 L55.0556735,63.7698322 C54.7378503,63.7974059 54.5898231,63.8946395 54.4882358,64.0571791 C54.3924535,64.2037551 54.3634286,64.4054785 54.3576236,64.8553651 C54.3198912,65.4706939 54.3111837,66.1077914 54.3111837,66.7434376 C54.3111837,68.4689705 54.3634286,68.8085624 54.6696417,69.1699229 C54.9207075,69.4442086 55.3096417,69.634322 55.8030658,69.634322 C56.4778957,69.634322 57.1266032,69.3063401 57.342839,68.6257052 C57.4647438,68.2004898 57.4879637,67.8783129 57.4879637,66.7434376 L57.4879637,65.7551383 C57.4879637,64.6115556 57.4560363,64.2429388 57.342839,64.0803991 C57.2339955,63.9033469 57.0801633,63.7974059 56.814585,63.7698322 L56.814585,63.4882902 C57.2238367,63.5086077 57.3675102,63.5086077 57.8681905,63.5086077 C58.3717732,63.5086077 58.5154467,63.5086077 58.9145397,63.4882902 L58.9145397,63.7698322 C58.6983039,63.7945034 58.5546304,63.862712 58.4457868,63.9875193" id="Fill-37" fill="#000000"></path>
                            <path d="M64.5752744,70.0440091 C64.4867483,70.19639 64.379356,70.2268662 63.8206259,70.2268662 C63.4897415,70.2268662 63.1603084,70.2065488 62.8134603,70.19639 C62.3447075,70.1746213 61.8498322,70.1688163 61.3694694,70.1688163 C60.8905578,70.1688163 60.4058413,70.1688163 59.9254785,70.19639 L59.9254785,69.9104943 C60.3681088,69.8698594 60.5799909,69.6231474 60.6220771,69.1674558 C60.651102,68.8699501 60.651102,68.5376145 60.651102,68.023873 L60.651102,65.1837823 C60.651102,64.6453696 60.6220771,64.3986576 60.533551,64.1809705 C60.4508299,63.9211973 60.2563628,63.7978413 59.9269297,63.7673651 L59.9269297,63.4872744 L64.6217143,63.4872744 L64.6217143,64.3667302 C64.6217143,64.6221497 64.6130068,64.847093 64.6217143,65.0792925 L64.2632562,65.0792925 C64.1994014,64.2970703 63.8656145,64.0967982 62.6596281,64.0967982 C62.4448435,64.0967982 62.1545941,64.1055057 61.9194921,64.1113107 C61.9049796,64.5191111 61.8861134,64.6453696 61.8861134,65.2302222 L61.8861134,66.3955737 C62.0341406,66.4028299 62.1560454,66.4028299 62.3461587,66.4028299 C63.3896054,66.4028299 63.7001723,66.256254 63.768381,65.7076825 L64.1239365,65.7076825 C64.1007166,65.8644172 64.1007166,66.2025578 64.1007166,66.7017868 C64.1007166,67.2111746 64.1166803,67.524644 64.1239365,67.6726712 L63.768381,67.6726712 C63.7248435,67.1153923 63.4650703,66.9688163 62.4288798,66.9688163 C62.2431202,66.9688163 62.0675193,66.9818776 61.8875646,66.9818776 C61.8875646,67.5928526 61.9078821,68.2502676 61.9078821,68.8844626 C61.9078821,69.303873 61.9688345,69.4402902 62.2169977,69.4997914 C62.3606712,69.5389751 62.588517,69.5549388 62.9063401,69.5549388 C63.9933243,69.5549388 64.3662948,69.309678 64.5999456,68.4752109 L64.9990385,68.5477732 C64.8466576,69.2690431 64.6739592,69.8538957 64.5752744,70.0440091" id="Fill-39" fill="#000000"></path>
                            <path d="M73.8822676,64.0264127 C73.8706576,63.1571156 73.3583673,62.8204263 71.982585,62.8204263 C71.6981406,62.8204263 71.4412698,62.8262313 71.1292517,62.8625125 C71.0973243,63.6897234 71.0973243,64.2658685 71.0973243,65.6024671 C71.3890249,65.6024671 71.5414059,65.6140771 71.7445805,65.6140771 C72.8838095,65.6140771 73.2263039,65.4355737 73.2843537,64.7883175 L73.7255329,64.7883175 C73.7255329,65.1017868 73.6950567,65.4616961 73.6950567,65.7925805 C73.6950567,66.2540771 73.7255329,66.7228299 73.7255329,67.1785215 L73.2843537,67.1785215 C73.2103401,66.429678 72.9200907,66.2918095 71.635737,66.2918095 C71.4165986,66.2918095 71.3396825,66.2918095 71.0973243,66.300517 L71.0973243,67.6675918 C71.0973243,67.9288163 71.0973243,68.2335782 71.1103855,68.5455964 C71.1437642,69.2146213 71.1916553,69.8052789 71.9840363,69.8546213 L71.9840363,70.1956644 L71.6865306,70.1811519 C71.3875737,70.169542 70.9420408,70.169542 70.3717007,70.169542 C69.7868481,70.169542 69.3442177,70.169542 69.0234921,70.1811519 L68.7288889,70.1956644 L68.7288889,69.8546213 C69.2774603,69.8052789 69.5270748,69.494712 69.5735147,68.9533968 C69.6185034,68.5862313 69.6185034,68.3598367 69.6185034,67.1480454 L69.6185034,64.1091338 C69.6185034,63.4676825 69.5735147,63.1774331 69.4777324,62.9205624 C69.3703401,62.6085442 69.1468481,62.4648707 68.7274376,62.4024671 L68.7274376,62.078839 L74.3394104,62.078839 C74.3045805,62.2965261 74.3045805,62.7028753 74.3045805,63.212263 C74.3045805,63.6911746 74.3045805,63.7593832 74.3394104,64.0278639 L73.8822676,64.0278639 L73.8822676,64.0264127 Z" id="Fill-41" fill="#000000"></path>
                            <path d="M78.0277551,63.9754739 C77.8144218,63.9754739 77.6417234,64.0030476 77.4124263,64.0567438 L77.4124263,66.5644989 C77.5198186,66.5862676 77.7244444,66.5920726 77.8434467,66.5920726 C78.6692063,66.5920726 79.2293878,66.0913923 79.2293878,65.2888526 C79.2293878,64.5472653 78.7214512,63.9754739 78.0277551,63.9754739 M80.6037188,70.2840454 C80.235102,70.2840454 80.0333787,70.223093 79.8185941,70.0750658 C79.4790023,69.8689887 79.1365079,69.2638186 78.9318821,68.9285805 C78.5893878,68.3059955 78.203356,67.6805079 77.839093,67.1566077 C77.7897506,67.1638639 77.7418594,67.1638639 77.6910658,67.1638639 C77.5981859,67.1638639 77.5212698,67.1566077 77.4124263,67.1566077 L77.4124263,67.6805079 L77.4124263,68.4917551 C77.4269388,69.0475828 77.4429025,69.2696236 77.5198186,69.4873107 C77.6243084,69.7528889 77.798458,69.8718912 78.1409524,69.9096236 L78.1409524,70.1955193 L77.9043991,70.1795556 C77.6417234,70.1737506 77.2803628,70.1795556 76.8130612,70.1795556 C76.3544671,70.1795556 75.9873016,70.1737506 75.7275283,70.1795556 L75.4924263,70.1955193 L75.4924263,69.9096236 C75.7391383,69.8951111 75.8523356,69.8457687 75.9698866,69.7108027 C76.0801814,69.5801905 76.1556463,69.3958821 76.1846712,69.166585 C76.2151474,68.8690794 76.2238549,68.6833197 76.2238549,67.6805079 L76.2238549,65.9883537 C76.2238549,64.7794649 76.1846712,64.463093 76.1004989,64.1859048 C76.0337415,63.9203265 75.8204082,63.7955193 75.4924263,63.7664943 L75.4924263,63.4849524 C75.6839909,63.5067211 75.8828118,63.4878549 76.0816327,63.4878549 C76.6069841,63.4878549 76.7666213,63.4878549 77.3935601,63.4559274 C77.9319728,63.44722 78.2468934,63.4312562 78.4878005,63.4312562 C79.1669841,63.4312562 79.5776871,63.5328435 79.9317914,63.7810068 C80.3134694,64.0494875 80.5500227,64.5733878 80.5500227,65.091483 C80.5500227,65.9128889 80.0203175,66.5906213 79.0944218,66.9374694 C79.4702948,67.4265397 79.7736054,67.8996463 80.1248073,68.4525714 C80.4498866,68.9663129 80.7677098,69.4060408 81.0231293,69.6571066 C81.1609977,69.806585 81.2422676,69.8704399 81.4410884,69.9110748 L81.4410884,70.1969705 C81.1798639,70.2550204 80.9258957,70.2840454 80.6037188,70.2840454" id="Fill-43" fill="#000000"></path>
                            <path d="M84.6122086,65.254458 C84.3466304,65.9321905 83.9794649,66.8319637 83.8343401,67.321034 L85.3204172,67.321034 L84.6122086,65.254458 Z M87.8630023,70.1814422 C87.614839,70.1756372 87.2534785,70.1756372 86.7861769,70.1756372 C86.3188753,70.1756372 85.9560635,70.1756372 85.7079002,70.1814422 L85.4727982,70.1959546 L85.4727982,69.910059 C85.7920726,69.8955465 85.9821859,69.7213968 85.9821859,69.4427574 C85.9821859,69.35278 85.9560635,69.1916916 85.8428662,68.9043447 C85.7340227,68.5183129 85.6527528,68.2745034 85.5337506,67.9320091 L83.6006893,67.9320091 L83.398966,68.5081542 C83.2436825,68.9696508 83.1696689,69.3063401 83.1696689,69.4746848 C83.1696689,69.763483 83.2944762,69.8969977 83.6268118,69.9115102 L83.6268118,70.1974059 C83.2393288,70.1828934 83.0985578,70.1770884 82.6210975,70.1770884 C82.1407347,70.1770884 82.0028662,70.1828934 81.6182857,70.1974059 L81.6182857,69.9115102 C81.7735692,69.8969977 81.8200091,69.8723265 81.9274014,69.7779955 C82.1262222,69.6038458 82.3119819,69.2497415 82.6210975,68.477678 L83.5745669,66.0540952 C83.8343401,65.3923265 84.2290794,64.3387211 84.5019138,63.4853878 L85.184,63.4853878 C85.2681723,63.8003084 85.4815057,64.2777687 85.6208254,64.6594467 L87.0474014,68.2861134 C87.2825034,68.9043447 87.4566531,69.264254 87.5858141,69.4979048 C87.7135238,69.7257506 87.8630023,69.8578141 88.1097143,69.9115102 L88.1097143,70.1974059 L87.8630023,70.1814422 Z" id="Fill-45" fill="#000000"></path>
                            <path d="M95.0217143,64.0696599 C94.9157732,64.2496145 94.8940045,64.4179592 94.8751383,64.9462132 C94.8417596,65.8474376 94.8330522,67.2638549 94.8330522,67.9285261 L94.8330522,69.4726531 C94.8330522,69.6961451 94.8678821,70.0589569 94.8678821,70.1953741 L94.1756372,70.1953741 C93.5182222,69.3521995 92.1671111,67.6702041 92.1671111,67.6702041 C92.0045714,67.4742857 90.7579501,65.925805 90.1121451,65.1464853 C90.1121451,65.3641723 90.0990839,65.2422676 90.0990839,65.8880726 L90.0990839,66.542585 C90.0990839,67.2914286 90.1121451,68.0344671 90.1498776,68.7905669 C90.170195,69.2143311 90.2050249,69.4262132 90.2950023,69.6221315 C90.4081995,69.8165986 90.551873,69.9022222 90.8435737,69.9094785 L90.8435737,70.1953741 C90.4938231,70.1678005 90.1411701,70.1678005 89.7928707,70.1678005 C89.4213515,70.1678005 89.0657959,70.1678005 88.7044354,70.1953741 L88.7044354,69.9094785 C89.3705578,69.894966 89.3923265,69.3521995 89.4082902,68.8137868 C89.4228027,68.3856689 89.4344127,68.0359184 89.4344127,67.3944671 L89.4344127,65.2785488 C89.4344127,64.4310204 89.3937778,64.240907 89.2399456,64.0145125 C89.136907,63.8606803 89.0033923,63.7968254 88.7058866,63.7663492 L88.7058866,63.4848073 C89.042576,63.506576 89.1644807,63.506576 89.5838912,63.506576 C89.9902404,63.506576 90.1135964,63.506576 90.4502857,63.4848073 C90.563483,63.7039456 90.7666576,63.9071202 91.4589025,64.7531973 C92.4399456,65.9417687 93.3295601,66.9692517 94.1553197,68.0185034 L94.1553197,65.8097052 C94.1553197,64.8243084 94.1320998,64.5645351 94.0929161,64.2902494 C94.0247075,63.9753288 93.8258866,63.8069841 93.4587211,63.7663492 L93.4587211,63.4848073 C93.8679728,63.506576 94.0087438,63.506576 94.5224853,63.506576 C95.0333243,63.506576 95.1799002,63.506576 95.577542,63.4848073 L95.577542,63.7663492 C95.313415,63.7808617 95.172644,63.8214966 95.0217143,64.0696599" id="Fill-47" fill="#000000"></path>
                            <path d="M102.044154,69.9540317 C101.391093,70.208 100.813497,70.3153923 100.022567,70.3153923 L99.9253333,70.707229 L100.111093,70.707229 C100.497125,70.707229 100.752544,70.9815147 100.752544,71.3094966 C100.752544,71.8725805 100.314268,72.239746 99.6408889,72.239746 C99.442068,72.239746 99.2519546,72.2020136 99.0313651,72.1236463 L99.1735873,71.7318095 C99.3114558,71.7724444 99.4246531,71.8116281 99.5334966,71.8116281 C99.817941,71.8116281 100.008054,71.6708571 100.008054,71.4038277 C100.008054,71.2079093 99.9151746,71.0860045 99.7627937,71.0860045 C99.6670113,71.0860045 99.606059,71.1266395 99.5334966,71.1643719 L99.3158095,71.0976145 L99.5117279,70.2936236 C98.6337234,70.208 97.9850159,69.9235556 97.4407982,69.3633741 C96.8269206,68.7190204 96.4974875,67.8627846 96.4974875,66.8440091 C96.4974875,64.6758458 97.8848798,63.3697234 100.188009,63.3697234 C100.881705,63.3697234 101.555084,63.4553469 102.137034,63.661424 C102.115265,63.8892698 102.115265,64.1098594 102.115265,64.3348027 C102.115265,64.5176599 102.129778,64.8761179 102.137034,65.1039637 L101.7481,65.1039637 C101.582658,64.3972063 101.009415,64.0024671 100.098032,64.0024671 C98.6859683,64.0024671 97.8166712,64.947229 97.8166712,66.508771 C97.8166712,68.3286349 98.8398005,69.6449161 100.225741,69.6449161 C101.077624,69.6449161 101.64361,69.2255057 101.881615,68.422966 L102.257488,68.4955283 C102.17912,68.8467302 102.07463,69.415619 102.044154,69.9540317" id="Fill-49" fill="#000000"></path>
                            <path d="M105.762975,65.254458 C105.497397,65.9321905 105.133134,66.8319637 104.980753,67.321034 L106.469732,67.321034 L105.762975,65.254458 Z M109.013769,70.1814422 C108.765605,70.1756372 108.408599,70.1756372 107.941297,70.1756372 C107.469642,70.1756372 107.103927,70.1756372 106.852862,70.1814422 L106.626467,70.1959546 L106.626467,69.910059 C106.942839,69.8955465 107.13005,69.7213968 107.13005,69.4427574 C107.13005,69.35278 107.103927,69.1916916 106.999438,68.9043447 C106.884789,68.5183129 106.797714,68.2745034 106.672907,67.9320091 L104.748553,67.9320091 L104.549732,68.5081542 C104.3959,68.9696508 104.317533,69.3063401 104.317533,69.4746848 C104.317533,69.763483 104.452499,69.8969977 104.768871,69.9115102 L104.768871,70.1974059 C104.388644,70.1828934 104.240617,70.1770884 103.776218,70.1770884 C103.30166,70.1770884 103.155084,70.1828934 102.774857,70.1974059 L102.774857,69.9115102 C102.921433,69.8969977 102.973678,69.8723265 103.075265,69.7779955 C103.271184,69.6038458 103.472907,69.2497415 103.776218,68.477678 L104.713723,66.0540952 C104.980753,65.3923265 105.369687,64.3387211 105.649778,63.4853878 L106.336218,63.4853878 C106.417488,63.8003084 106.64098,64.2777687 106.774494,64.6594467 L108.186558,68.2861134 C108.43327,68.9043447 108.608871,69.264254 108.73658,69.4979048 C108.871546,69.7257506 109.013769,69.8578141 109.259029,69.9115102 L109.259029,70.1974059 L109.013769,70.1814422 Z" id="Fill-51" fill="#000000"></path>
                            <path d="M112.290685,70.1752018 C112.059937,70.1693968 111.681161,70.1693968 111.208054,70.1693968 C110.713179,70.1693968 110.357624,70.1693968 110.084789,70.1752018 L109.858395,70.1969705 L109.858395,69.9110748 C110.33005,69.8704399 110.511456,69.6309841 110.547737,69.1680363 C110.586921,68.8705306 110.592726,68.684771 110.592726,67.6819592 L110.592726,65.989805 C110.592726,65.7474467 110.586921,65.455746 110.586921,65.1843628 C110.586921,64.6459501 110.560798,64.3992381 110.485333,64.181551 C110.385197,63.9217778 110.203791,63.7969705 109.858395,63.7679456 L109.858395,63.4878549 L110.084789,63.5009161 C110.357624,63.5067211 110.713179,63.5067211 111.208054,63.5067211 C111.67971,63.5067211 112.058485,63.5067211 112.290685,63.5009161 L112.547556,63.4878549 L112.547556,63.7679456 C112.115084,63.799873 111.893043,64.0712562 111.855311,64.5400091 C111.816127,64.8244535 111.816127,65.0943855 111.816127,65.9927075 L111.816127,67.6834104 C111.816127,69.0040454 111.830639,69.2246349 111.935129,69.4974694 C112.019302,69.7557914 112.197805,69.8747937 112.547556,69.9125261 L112.547556,70.1984218 L112.290685,70.1752018 Z" id="Fill-53" fill="#000000"></path>
                            <path d="M115.429878,70.3153923 C114.847927,70.3153923 114.428517,70.2326712 113.736272,69.9656417 C113.708698,69.5955737 113.634685,69.0020136 113.562122,68.5172971 L113.937995,68.4621497 C114.174549,69.2690431 114.71151,69.697161 115.492281,69.697161 C116.213551,69.697161 116.68956,69.332898 116.68956,68.7625578 C116.68956,68.3068662 116.380444,67.9977506 115.920399,67.7133061 L114.866794,67.0384762 C114.138268,66.5842358 113.72176,66.1067755 113.72176,65.2157098 C113.72176,64.0808345 114.577995,63.3697234 115.89863,63.3697234 C116.548789,63.3697234 117.088653,63.4872744 117.548698,63.7252789 L117.548698,64.3623764 L117.548698,65.1039637 L117.180082,65.1039637 C117.030603,64.3841451 116.58507,63.9748934 115.882667,63.9748934 C115.24702,63.9748934 114.795683,64.3667302 114.795683,64.9341678 C114.795683,65.4000181 115.138177,65.7207438 115.672236,66.0821043 L116.528472,66.6335782 C117.338268,67.1516735 117.801215,67.6697687 117.801215,68.4679546 C117.801215,69.5752562 116.837587,70.3153923 115.429878,70.3153923" id="Fill-55" fill="#000000"></path>
                            <path d="M123.516662,70.0440091 C123.433941,70.19639 123.326549,70.2268662 122.76927,70.2268662 C122.428227,70.2268662 122.100245,70.2065488 121.751946,70.19639 C121.274485,70.1746213 120.789769,70.1688163 120.309406,70.1688163 C119.826141,70.1688163 119.347229,70.1688163 118.878476,70.19639 L118.878476,69.9104943 C119.309497,69.8698594 119.514122,69.6231474 119.559111,69.1674558 C119.589587,68.8699501 119.589587,68.5376145 119.589587,68.023873 L119.589587,65.1837823 C119.589587,64.6453696 119.559111,64.3986576 119.482195,64.1809705 C119.380608,63.9211973 119.213714,63.7978413 118.879927,63.7673651 L118.879927,63.4872744 L123.577615,63.4872744 C123.577615,63.7818776 123.563102,64.0808345 123.563102,64.3667302 C123.563102,64.6221497 123.542785,64.847093 123.577615,65.0792925 L123.210449,65.0792925 C123.136435,64.2970703 122.796844,64.0967982 121.60537,64.0967982 C121.387683,64.0967982 121.091628,64.1055057 120.852172,64.1113107 C120.830404,64.5191111 120.821696,64.6453696 120.821696,65.2302222 L120.821696,66.3955737 C120.974077,66.4028299 121.093079,66.4028299 121.275937,66.4028299 C122.323737,66.4028299 122.635755,66.256254 122.706866,65.7076825 L123.063873,65.7076825 C123.045007,65.8644172 123.045007,66.2025578 123.045007,66.7017868 C123.045007,67.2111746 123.058068,67.524644 123.063873,67.6726712 L122.706866,67.6726712 C122.680744,67.1153923 122.400653,66.9688163 121.364463,66.9688163 C121.188862,66.9688163 121.007456,66.9818776 120.823147,66.9818776 C120.823147,67.5928526 120.834757,68.2502676 120.834757,68.8844626 C120.834757,69.303873 120.90732,69.4402902 121.158385,69.4997914 C121.304961,69.5389751 121.534259,69.5549388 121.840472,69.5549388 C122.930358,69.5549388 123.309134,69.309678 123.541333,68.4752109 L123.931719,68.5477732 C123.789497,69.2690431 123.624054,69.8538957 123.516662,70.0440091" id="Fill-57" fill="#000000"></path>
                            <path d="M4.80769161,52.9847438 C4.71481179,53.0935873 4.56823583,53.144381 4.21993651,53.144381 C3.74102494,53.144381 3.26936961,53.1080998 2.79481179,53.0935873 C2.37830385,53.0935873 2.06628571,53.0761723 1.85004989,53.0761723 C1.5612517,53.0761723 0.842884354,53.0935873 0.631002268,53.0935873 L0.498938776,53.1080998 L0.535219955,52.9005714 C0.829823129,52.8671927 1.01122902,52.7786667 1.14909751,52.598712 C1.30292971,52.4042449 1.39726077,52.1227029 1.53222676,51.5799365 C1.65993651,51.0415238 1.72379138,50.7266032 1.93277098,49.7194376 L2.08224943,48.9314104 C2.24188662,48.1549932 2.29848526,47.7007528 2.29848526,47.4569433 C2.29848526,47.0288254 2.14755556,46.838712 1.72379138,46.7922721 L1.76297506,46.5847438 C1.82247619,46.6007075 1.87181859,46.6007075 1.89794104,46.6007075 L2.97912018,46.6007075 L4.08206803,46.6007075 C4.11254422,46.6007075 4.16914286,46.6007075 4.23444898,46.5847438 L4.19671655,46.7922721 C3.90066213,46.8169433 3.73376871,46.8851519 3.57993651,47.0883265 C3.33902948,47.4119546 3.20406349,47.8197551 2.83980045,49.7208889 L2.71063946,50.3797551 C2.55970975,51.1721361 2.50020862,51.4391655 2.45231746,51.8077823 C2.432,51.9282358 2.41893878,52.0530431 2.41893878,52.1038367 C2.41893878,52.4971247 2.60905215,52.6132245 3.24469841,52.6132245 C4.34474376,52.6132245 4.7641542,52.3824762 5.11970975,51.5813878 L5.38383673,51.6873288 C5.14147846,52.3200726 4.92814512,52.8193016 4.80769161,52.9847438" id="Fill-59" fill="#000000"></path>
                            <path d="M6.65092063,53.2130249 C6.45645351,53.2130249 6.32003628,53.1085351 6.32003628,52.931483 C6.32003628,52.8473107 6.35051247,52.6876735 6.40420862,52.4757914 C6.52756463,51.9475374 6.70316553,51.2451338 6.80765533,50.8794195 C6.94262132,50.3787392 6.99631746,50.0101224 6.99631746,49.866449 C6.99631746,49.7445442 6.94262132,49.6966531 6.83232653,49.6966531 C6.74670295,49.6966531 6.65237188,49.7213243 6.45790476,49.7837279 L6.3853424,49.7996916 L6.35196372,49.5283084 C6.89473016,49.3251338 7.42878912,49.1930703 7.68420862,49.1930703 C7.83804082,49.1930703 7.90044444,49.2482177 7.90044444,49.3643175 C7.90044444,49.4760635 7.8467483,49.7880816 7.66679365,50.4933878 L7.52166893,51.0506667 C7.27350567,51.9997823 7.21545578,52.3408254 7.21545578,52.5062676 C7.21545578,52.6310748 7.29527438,52.7181497 7.44039909,52.7181497 C7.53473016,52.7181497 7.70452608,52.6876735 7.98026304,52.5933424 L7.99622676,52.8603719 C7.48538776,53.066449 6.91795011,53.2130249 6.65092063,53.2130249 M7.72194104,48.2091247 C7.41863039,48.2091247 7.21255329,48.0190113 7.21255329,47.7447256 C7.21255329,47.3978776 7.46797279,47.1511655 7.82497959,47.1511655 C8.11958277,47.1511655 8.29663492,47.3253152 8.29663492,47.6170159 C8.29808617,47.9595102 8.05137415,48.2091247 7.72194104,48.2091247" id="Fill-61" fill="#000000"></path>
                            <path d="M12.028517,49.6161088 C11.8572698,49.6161088 11.6366803,49.681415 11.3696508,49.8279909 C11.0895601,49.9716644 10.8675193,50.1254966 10.7615782,50.2836825 C10.6382222,50.4650884 10.5380862,50.7567891 10.3915102,51.3967891 C10.2420317,52.0222766 10.1578594,52.4054059 10.1578594,52.5461769 C10.1578594,52.711619 10.3915102,52.8219138 10.777542,52.8219138 C11.1824399,52.8219138 11.5249342,52.6332517 11.776,52.2849524 C12.1663855,51.7102585 12.4624399,50.832254 12.4624399,50.1937052 C12.4609887,49.8221859 12.310059,49.6161088 12.028517,49.6161088 M12.034322,52.7551565 C11.6569977,53.1005533 11.2027574,53.2239093 10.5105125,53.2239093 C9.73699773,53.2239093 9.28565986,53.1005533 9.28565986,52.9002812 C9.28565986,52.8175601 9.29146485,52.7145215 9.39014966,52.3197823 L9.89518367,50.0906667 C10.0635283,49.3752018 10.1912381,48.8121179 10.3740952,48.0110295 C10.47278,47.5437279 10.5105125,47.2766984 10.5105125,47.1475374 C10.5105125,47.0401451 10.4495601,46.969034 10.3421678,46.969034 C10.2739592,46.969034 10.0591746,47.0256327 9.91695238,47.0662676 L9.89518367,46.7832744 L10.0214422,46.733932 C10.5496961,46.5830023 10.989424,46.4712562 11.1984036,46.4712562 C11.3203084,46.4712562 11.4015782,46.5293061 11.4015782,46.6279909 C11.4015782,46.7324807 11.3536871,46.9835465 11.1853424,47.7135238 L10.8878367,49.0022313 C10.7949569,49.4259955 10.7586757,49.5856327 10.731102,49.7162449 C11.3536871,49.3606893 11.8906485,49.1894422 12.3797188,49.1894422 C12.9790839,49.1894422 13.2722358,49.4898503 13.2722358,50.1153379 C13.2722358,51.0238186 12.7497868,52.1441814 12.034322,52.7551565" id="Fill-63" fill="#000000"></path>
                            <path d="M16.4176689,49.5862132 C15.9431111,49.5862132 15.4438821,50.2262132 15.2029751,51.1840363 L15.3045624,51.1840363 C16.2072381,51.1840363 16.8965805,50.6978685 16.8965805,50.0781859 C16.8965805,49.7980952 16.6803447,49.5862132 16.4176689,49.5862132 M15.4032472,51.5323356 C15.3408435,51.5323356 15.2479637,51.5323356 15.1159002,51.5250794 C15.091229,51.7064853 15.085424,51.8617687 15.085424,51.9981859 C15.085424,52.5104762 15.2523175,52.7629932 15.602068,52.7629932 C15.9155374,52.7629932 16.3073741,52.591746 16.8748118,52.2347392 L16.9880091,52.5656236 C16.2623855,53.0227664 15.7167166,53.2346485 15.214585,53.2346485 C14.61522,53.2346485 14.2756281,52.8587755 14.2756281,52.215873 C14.2756281,50.6078912 15.372771,49.1929252 16.6324535,49.1929252 C17.2535873,49.1929252 17.6251066,49.4788209 17.6251066,49.9562812 C17.6251066,50.8662132 16.6600272,51.5323356 15.4032472,51.5323356" id="Fill-65" fill="#000000"></path>
                            <path d="M21.5431837,50.4578322 L21.2239093,50.433161 C21.2355193,50.3112562 21.2485805,50.1617778 21.2485805,50.039873 C21.2485805,49.8657234 21.0932971,49.7322086 20.8451338,49.7322086 C20.7014603,49.7322086 20.5534331,49.8207347 20.4242721,49.9687619 C20.0483991,50.3968798 19.9003719,51.0630023 19.689941,52.1427302 L19.5085351,53.1005533 C19.1225034,53.1150658 19.0368798,53.1295782 18.6552018,53.1629569 C18.7524354,52.8103039 18.8249977,52.5084444 18.9033651,52.1746576 L19.1181497,51.2777868 C19.2603719,50.662458 19.3285805,50.2619138 19.3285805,50.0558367 C19.3285805,49.8207347 19.2661769,49.7176961 19.1573333,49.7176961 C19.096381,49.7176961 19.0107574,49.7322086 18.9106213,49.7539773 L18.6566531,49.8250884 L18.6406893,49.5449977 C19.1181497,49.3418231 19.6580136,49.1908934 19.9032744,49.1908934 C20.0135692,49.1908934 20.0643628,49.2300771 20.0875828,49.3287619 C20.1108027,49.4361542 20.1296689,49.5841814 20.1441814,49.7409161 C20.5839093,49.388263 20.9742948,49.1850884 21.2500317,49.1850884 C21.4401451,49.1850884 21.6737959,49.2692608 21.9016417,49.4361542 C21.7318458,49.7975147 21.6128435,50.1196916 21.5431837,50.4578322" id="Fill-67" fill="#000000"></path>
                            <path d="M24.8581224,49.7882268 L24.0425215,49.766458 L23.6463311,51.7793379 C23.52878,52.3017868 23.5215238,52.4440091 23.5215238,52.5194739 C23.5215238,52.6602449 23.5839274,52.7299048 23.7174422,52.7299048 C23.787102,52.7299048 23.9351293,52.6979773 24.1586213,52.63122 L24.2573061,52.5934875 L24.2921361,52.8750295 C23.7841995,53.1028753 23.2544943,53.22478 22.9685986,53.22478 C22.7668753,53.22478 22.6377143,53.1333515 22.6377143,52.9446893 C22.6377143,52.7705397 22.671093,52.5426939 22.759619,52.2335782 C22.8321814,51.8765714 22.9076463,51.5964807 22.9860136,51.2148027 L23.2907755,49.7650068 L22.765424,49.7809705 L22.8321814,49.4689524 C23.5055601,49.3426939 23.7334059,48.8347574 23.9191655,48.2557098 L24.3893696,48.1555737 L24.1455601,49.3049615 L24.9568073,49.3049615 L24.8581224,49.7882268 Z" id="Fill-69" fill="#000000"></path>
                            <path d="M27.7903673,49.5862132 C27.3172608,49.5862132 26.825288,50.2262132 26.5771247,51.1840363 L26.6700045,51.1840363 C27.5741315,51.1840363 28.2620227,50.6978685 28.2620227,50.0781859 C28.2620227,49.7980952 28.0472381,49.5862132 27.7903673,49.5862132 Z M26.7701406,51.5323356 C26.7164444,51.5323356 26.6148571,51.5323356 26.5002086,51.5250794 C26.4610249,51.7064853 26.4537687,51.8617687 26.4537687,51.9981859 C26.4537687,52.5104762 26.6279184,52.7629932 26.9805714,52.7629932 C27.2896871,52.7629932 27.6815238,52.591746 28.2620227,52.2347392 L28.3621587,52.5656236 C27.6452426,53.0227664 27.0923175,53.2346485 26.5901859,53.2346485 C25.9864671,53.2346485 25.6555828,52.8587755 25.6555828,52.215873 C25.6555828,50.6078912 26.7469206,49.1929252 28.0095057,49.1929252 C28.6378957,49.1929252 28.9890975,49.4788209 28.9890975,49.9562812 C28.992,50.8662132 28.0370794,51.5323356 26.7701406,51.5323356 Z M27.8672834,48.5921088 L27.5538141,48.3265306 L28.7409342,46.9797732 L29.626195,47.1945578 L27.8672834,48.5921088 Z" id="Fill-71" fill="#000000"></path>
                            <path d="M46.5403356,48.0132063 L46.2631474,48.0132063 C46.2776599,47.9058141 46.2805624,47.8666304 46.2805624,47.794068 C46.2805624,47.2498503 45.9351655,47.0698957 44.945415,47.0698957 C44.6275918,47.0698957 44.3199274,47.0698957 43.9890431,47.0989206 C43.7902222,47.9130703 43.6567075,48.6198277 43.4869116,49.4920272 L43.8439184,49.4920272 C44.4737596,49.4920272 44.7364354,49.4818685 44.9555737,49.4354286 C45.3299955,49.36722 45.5259138,49.1538866 45.6391111,48.7693061 L45.9104943,48.7693061 C45.7755283,49.344 45.6057324,50.1625034 45.5259138,50.6762449 L45.2719456,50.6762449 C45.2893605,50.6109388 45.292263,50.5514376 45.292263,50.512254 C45.292263,50.0841361 45.0295873,49.9477188 44.2314014,49.9477188 C43.7481361,49.9477188 43.5725351,49.9506213 43.395483,49.9506213 C43.3403356,50.2060408 43.395483,49.9883537 43.1763447,51.1101678 C43.0587937,51.663093 43.0239637,52.0113923 43.0239637,52.179737 C43.0239637,52.5222313 43.2010159,52.6165624 43.8511746,52.6165624 C45.0890884,52.6165624 45.4693152,52.4191927 45.849542,51.5803719 L46.0991565,51.6732517 C45.8814694,52.3263129 45.6405624,52.8284444 45.5084989,53.0040454 C45.4127166,53.1128889 45.2893605,53.1506213 44.8772063,53.1506213 C44.534712,53.1506213 44.1733515,53.1361088 43.8352109,53.1215964 C43.3824218,53.1128889 42.9310839,53.0983764 42.4724898,53.0983764 C42.0066395,53.0983764 41.5611066,53.1128889 41.1025125,53.1128889 L41.1475011,52.9068118 C41.4319456,52.8719819 41.610449,52.7834558 41.745415,52.6035011 C41.9050522,52.414839 42.0066395,52.1260408 42.1503129,51.5847256 C42.2693152,51.0405079 42.3157551,50.8257234 42.5319909,49.7242268 L42.6887256,48.9405533 C42.8498141,48.1684898 42.902059,47.7069932 42.902059,47.4617324 C42.902059,47.0336145 42.7482268,46.8435011 42.3346213,46.7970612 L42.3752562,46.5895329 L46.82478,46.5895329 C46.7115828,47.0278095 46.6158005,47.5575147 46.5403356,48.0132063 Z M44.687093,45.9234104 L44.3721723,45.6636372 L45.5694512,44.3110748 L46.466322,44.5374694 L44.687093,45.9234104 Z" id="Fill-73" fill="#000000"></path>
                            <path d="M49.658195,53.5311383 C49.3287619,53.4019773 48.9325714,53.2670113 48.5102585,53.1451066 C47.8441361,53.3090975 47.362322,53.8126803 47.362322,54.3815692 C47.362322,54.9098231 47.8180136,55.2595737 48.5204172,55.2595737 C49.3766531,55.2595737 50.157424,54.6906848 50.157424,54.0521361 C50.1588753,53.8199365 50.0108481,53.6719093 49.658195,53.5311383 Z M49.5101678,49.5692336 C48.9833651,49.5692336 48.5479909,50.1250612 48.5479909,50.7969887 C48.5479909,51.2439728 48.8150204,51.5501859 49.2054059,51.5501859 C49.7118912,51.5501859 50.1385578,51.0233832 50.1385578,50.3630658 C50.1414603,49.8667392 49.8976508,49.5692336 49.5101678,49.5692336 Z M51.3822766,49.7738594 L50.7190567,49.7666032 C50.8351565,49.9697778 50.8743401,50.1323175 50.8743401,50.3601633 C50.8743401,51.2657415 50.1153379,51.9463764 49.1444535,51.9463764 C48.9499864,51.9463764 48.8150204,51.9304127 48.6118458,51.8694603 C48.3709388,52.0189388 48.2882177,52.0798912 48.2882177,52.172771 C48.2882177,52.278712 48.39561,52.3382132 48.8266304,52.4731791 L49.6001451,52.7068299 C50.3896236,52.9564444 50.7814603,53.182839 50.7814603,53.7546304 C50.7814603,54.8009796 49.7423673,55.6122268 48.4391474,55.6122268 C47.3608707,55.6122268 46.6961995,55.1013878 46.6961995,54.2727256 C46.6961995,53.5006621 47.1983311,53.1407528 47.9979683,52.9390295 C47.5016417,52.7605261 47.3971519,52.68361 47.3971519,52.5167166 C47.3971519,52.3120907 47.6830476,52.0392562 48.2708027,51.7098231 C47.9660408,51.4877823 47.8209161,51.2105941 47.8209161,50.8274649 C47.8209161,49.8957642 48.5668571,49.1890068 49.5449977,49.1890068 C49.8018685,49.1890068 49.9832744,49.2223855 50.2024127,49.2993016 L51.4940227,49.2993016 L51.3822766,49.7738594 Z" id="Fill-75" fill="#000000"></path>
                            <path d="M54.6057868,49.6075465 C54.2241088,49.6075465 53.8308209,49.8992472 53.4999365,50.4521723 C53.121161,51.0413787 52.8584853,51.8395646 52.8584853,52.3605624 C52.8584853,52.658068 52.9949025,52.8191565 53.256127,52.8191565 C53.614585,52.8191565 54.2502313,52.5100408 54.4998458,52.2618776 C54.6348118,52.1211066 54.6957642,51.9266395 54.8104127,51.5449615 C54.9569887,50.9615601 55.1079184,50.3984762 55.2022494,49.745415 C54.9729524,49.6554376 54.7683265,49.6075465 54.6057868,49.6075465 M55.0614785,53.2342132 C54.8931338,53.2342132 54.8234739,53.1152109 54.7363991,52.6304943 C54.013678,53.0484535 53.4810703,53.2429206 52.9658776,53.2429206 C52.3824762,53.2429206 52.0356281,52.9309025 52.0356281,52.3968435 C52.0356281,51.8729433 52.2910476,51.142966 52.6843356,50.5494059 C53.2125896,49.7207438 53.8583946,49.1953923 54.8699138,49.1953923 C55.3023855,49.1953923 55.7029297,49.2737596 56.1339501,49.3811519 L56.0817052,49.5436916 C55.7290522,50.6742132 55.4808889,51.9048707 55.4808889,52.3228299 C55.4808889,52.5942132 55.5374875,52.7291791 55.6521361,52.7291791 C55.7290522,52.7291791 55.9380317,52.6798367 56.18039,52.5927619 L56.209415,52.8888163 C55.7014785,53.0760272 55.2269206,53.2342132 55.0614785,53.2342132" id="Fill-77" fill="#000000"></path>
                            <path d="M59.3967891,47.4675374 C59.0760635,48.7693061 58.7538866,50.2161995 58.4346122,51.6035918 C58.3402812,52.0520272 58.2851338,52.3393741 58.2851338,52.5048163 C58.2851338,52.6296236 58.3664036,52.7007347 58.5013696,52.7007347 C58.6029569,52.7007347 58.7756553,52.6688073 59.0455873,52.5918912 L59.0688073,52.8589206 C58.5652245,53.0620952 57.9600544,53.2347937 57.6959274,53.2347937 C57.5087166,53.2347937 57.4027755,53.1157914 57.4027755,52.931483 C57.4027755,52.7936145 57.4332517,52.6194649 57.5740227,51.9997823 C57.8860408,50.7052698 58.2140227,49.3309388 58.4752472,48.1089887 C58.5913469,47.5226848 58.6537506,47.2498503 58.6537506,47.154068 C58.6537506,47.0437732 58.5913469,46.9813696 58.4897596,46.9813696 C58.3939773,46.9813696 58.2140227,47.0278095 58.057288,47.0815057 L58.0369705,46.7869025 C58.5361995,46.6054966 59.0862222,46.4748844 59.3663129,46.4748844 C59.5012789,46.4748844 59.5694875,46.531483 59.5694875,46.631619 C59.5680363,46.7361088 59.5244989,46.9697596 59.3967891,47.4675374" id="Fill-79" fill="#000000"></path>
                            <path d="M60.7637188,53.2130249 C60.5605442,53.2130249 60.4371882,53.1085351 60.4371882,52.931483 C60.4371882,52.8473107 60.4662132,52.6876735 60.5199093,52.4757914 C60.6490703,51.9475374 60.8130612,51.2451338 60.917551,50.8794195 C61.0496145,50.3787392 61.1076644,50.0101224 61.1076644,49.866449 C61.1076644,49.7445442 61.0496145,49.6966531 60.9451247,49.6966531 C60.8536961,49.6966531 60.7709751,49.7213243 60.5619955,49.7837279 L60.4923356,49.7996916 L60.4662132,49.5283084 C61.0002721,49.3251338 61.5299773,49.1930703 61.7955556,49.1930703 C61.9435828,49.1930703 62.0001814,49.2482177 62.0001814,49.3643175 C62.0001814,49.4760635 61.9595465,49.7880816 61.7752381,50.4933878 L61.6373696,51.0506667 C61.3834014,51.9997823 61.3326077,52.3408254 61.3326077,52.5062676 C61.3326077,52.6310748 61.4051701,52.7181497 61.5531973,52.7181497 C61.6446259,52.7181497 61.810068,52.6876735 62.09161,52.5933424 L62.1061224,52.8603719 C61.5793197,53.066449 61.0205896,53.2130249 60.7637188,53.2130249 M61.821678,48.2091247 C61.5227211,48.2091247 61.3311565,48.0190113 61.3311565,47.7447256 C61.3311565,47.3978776 61.5793197,47.1511655 61.933424,47.1511655 C62.2309297,47.1511655 62.4152381,47.3253152 62.4152381,47.6170159 C62.4152381,47.9595102 62.1598186,48.2091247 61.821678,48.2091247" id="Fill-81" fill="#000000"></path>
                            <path d="M65.6835918,49.7882268 L64.8723447,49.766458 L64.4558367,51.7793379 C64.3426395,52.3017868 64.3426395,52.4440091 64.3426395,52.5194739 C64.3426395,52.6602449 64.4006893,52.7299048 64.5298503,52.7299048 C64.6053152,52.7299048 64.7504399,52.6979773 64.9898957,52.63122 L65.0784218,52.5934875 L65.108898,52.8750295 C64.6053152,53.1028753 64.0799637,53.22478 63.7853605,53.22478 C63.5923447,53.22478 63.4631837,53.1333515 63.4631837,52.9446893 C63.4631837,52.7705397 63.4907574,52.5426939 63.5792834,52.2335782 C63.659102,51.8765714 63.7229569,51.5964807 63.8013243,51.2148027 L64.1089887,49.7650068 L63.5966984,49.7809705 L63.6576508,49.4689524 C64.3237732,49.3426939 64.5487166,48.8347574 64.7475374,48.2557098 L65.2046803,48.1555737 L64.962322,49.3049615 L65.7779229,49.3049615 L65.6835918,49.7882268 Z" id="Fill-83" fill="#000000"></path>
                            <path d="M68.6130794,49.5862132 C68.1269116,49.5862132 67.63639,50.2262132 67.395483,51.1840363 L67.4985215,51.1840363 C68.3953923,51.1840363 69.0847347,50.6978685 69.0847347,50.0781859 C69.0847347,49.7980952 68.8714014,49.5862132 68.6130794,49.5862132 Z M67.5986576,51.5323356 C67.524644,51.5323356 67.4375692,51.5323356 67.3040544,51.5250794 C67.2735782,51.7064853 67.2735782,51.8617687 67.2735782,51.9981859 C67.2735782,52.5104762 67.4419229,52.7629932 67.794576,52.7629932 C68.1109478,52.7629932 68.4998821,52.591746 69.068771,52.2347392 L69.1834195,52.5656236 C68.4548934,53.0227664 67.9048707,53.2346485 67.4158005,53.2346485 C66.8004717,53.2346485 66.4710385,52.8587755 66.4710385,52.215873 C66.4710385,50.6078912 67.5594739,49.1929252 68.8235102,49.1929252 C69.4402902,49.1929252 69.8176145,49.4788209 69.8176145,49.9562812 C69.8190658,50.8662132 68.8452789,51.5323356 67.5986576,51.5323356 Z M68.6885442,48.5921088 L68.3721723,48.3265306 L69.568,46.9797732 L70.448907,47.1945578 L68.6885442,48.5921088 Z" id="Fill-85" fill="#000000"></path>
                            <path d="M87.2325805,47.9982585 L86.9394286,47.9982585 C86.9510385,47.9068299 86.965551,47.8197551 86.965551,47.7718639 C86.965551,47.5759456 86.8958912,47.4250159 86.7870476,47.3031111 C86.5969342,47.1275102 86.2486349,47.0607528 85.5012426,47.0607528 C85.3053243,47.0607528 85.0237823,47.0694603 84.7843265,47.0839728 C84.6101769,47.8807075 84.4621497,48.658576 84.2778413,49.4886893 C84.4621497,49.4886893 84.6450068,49.4959456 84.8322177,49.4959456 C85.9250068,49.4959456 86.1339864,49.4016145 86.3357098,48.7674195 L86.601288,48.7674195 C86.4460045,49.4016145 86.3211973,50.027102 86.2370249,50.6743583 L85.9525805,50.6743583 C85.967093,50.6090522 85.9801542,50.555356 85.9801542,50.5161723 C85.9801542,50.3420227 85.9192018,50.1765805 85.7929433,50.0953107 C85.6245986,49.9588934 85.4315828,49.9458322 84.8438277,49.9458322 C84.5303583,49.9458322 84.4476372,49.9487347 84.1791565,49.9487347 L84.0558005,50.6351746 C83.8801995,51.5465578 83.8076372,51.9978957 83.8076372,52.2692789 C83.8076372,52.6712744 83.9832381,52.8541315 84.3823311,52.9034739 L84.3518549,53.1110023 L84.1791565,53.0964898 L83.3084082,53.0964898 L82.0617868,53.0964898 L81.8934422,53.1110023 L81.9326259,52.9034739 C82.2344853,52.8700952 82.4100862,52.7815692 82.5406984,52.5943583 C82.7061406,52.4071474 82.8033741,52.1256054 82.9310839,51.582839 C83.0747574,51.0270113 83.1270023,50.7324082 83.3287256,49.7223401 L83.4854603,48.9343129 C83.6349388,48.1578957 83.7016961,47.7036553 83.7016961,47.4598458 C83.7016961,47.0317279 83.5449615,46.8416145 83.1270023,46.7951746 L83.1531247,46.5876463 L87.5083175,46.5876463 C87.4067302,47.0288254 87.3094966,47.5222494 87.2325805,47.9982585" id="Fill-87" fill="#000000"></path>
                            <path d="M90.5659501,50.4578322 L90.2350658,50.433161 C90.259737,50.3112562 90.2698957,50.1617778 90.2698957,50.039873 C90.2698957,49.8657234 90.1146122,49.7322086 89.866449,49.7322086 C89.725678,49.7322086 89.5834558,49.8207347 89.4484898,49.9687619 C89.079873,50.3968798 88.9332971,51.0630023 88.7185125,52.1427302 L88.5225941,53.1005533 C88.1554286,53.1150658 88.058195,53.1295782 87.6808707,53.1629569 C87.7795556,52.8103039 87.8492154,52.5084444 87.923229,52.1746576 L88.1380136,51.2777868 C88.2831383,50.662458 88.3498957,50.2619138 88.3498957,50.0558367 C88.3498957,49.8207347 88.2976508,49.7176961 88.1859048,49.7176961 C88.1249524,49.7176961 88.04078,49.7322086 87.9333878,49.7539773 L87.688127,49.8250884 L87.6532971,49.5449977 C88.1409161,49.3418231 88.6880363,49.1908934 88.9361995,49.1908934 C89.0305306,49.1908934 89.0842268,49.2300771 89.1045442,49.3287619 C89.1393741,49.4361542 89.1654966,49.5841814 89.1742041,49.7409161 C89.6153832,49.388263 89.9927075,49.1850884 90.2727982,49.1850884 C90.4629116,49.1850884 90.6893061,49.2692608 90.9244082,49.4361542 C90.7720272,49.7975147 90.6443175,50.1196916 90.5659501,50.4578322" id="Fill-89" fill="#000000"></path>
                            <path d="M93.9758005,49.6075465 C93.57961,49.6075465 93.1950295,49.8992472 92.8510839,50.4521723 C92.4868209,51.0413787 92.2212426,51.8395646 92.2212426,52.3605624 C92.2212426,52.658068 92.3707211,52.8191565 92.6159819,52.8191565 C92.9700862,52.8191565 93.6216961,52.5100408 93.8626032,52.2618776 C93.9975692,52.1211066 94.0657778,51.9266395 94.1775238,51.5449615 C94.337161,50.9615601 94.477932,50.3984762 94.5621043,49.745415 C94.342966,49.6554376 94.1470476,49.6075465 93.9758005,49.6075465 M94.4271383,53.2342132 C94.2515374,53.2342132 94.1934875,53.1152109 94.1035102,52.6304943 C93.3836916,53.0484535 92.8409252,53.2429206 92.3358912,53.2429206 C91.7423311,53.2429206 91.401288,52.9309025 91.401288,52.3968435 C91.401288,51.8729433 91.653805,51.142966 92.0485442,50.5494059 C92.5724444,49.7207438 93.2284082,49.1953923 94.2283175,49.1953923 C94.6665941,49.1953923 95.0671383,49.2737596 95.488,49.3811519 L95.4473651,49.5436916 C95.0932608,50.6742132 94.842195,51.9048707 94.842195,52.3228299 C94.842195,52.5942132 94.8973424,52.7291791 95.0221497,52.7291791 C95.0932608,52.7291791 95.2906304,52.6798367 95.5445986,52.5927619 L95.5721723,52.8888163 C95.0685896,53.0760272 94.5969342,53.2342132 94.4271383,53.2342132" id="Fill-91" fill="#000000"></path>
                            <path d="M99.090576,49.7882268 L98.2894875,49.766458 L97.8787846,51.7793379 C97.7626848,52.3017868 97.7568798,52.4440091 97.7568798,52.5194739 C97.7568798,52.6602449 97.8294422,52.7299048 97.9484444,52.7299048 C98.0195556,52.7299048 98.1617778,52.6979773 98.3968798,52.63122 L98.4999184,52.5934875 L98.5303946,52.8750295 C98.0181043,53.1028753 97.4927528,53.22478 97.2097596,53.22478 C96.9978776,53.22478 96.871619,53.1333515 96.871619,52.9446893 C96.871619,52.7705397 96.912254,52.5426939 96.9906213,52.2335782 C97.0718912,51.8765714 97.147356,51.5964807 97.2170159,51.2148027 L97.523229,49.7650068 L97.006585,49.7809705 L97.0704399,49.4689524 C97.7467211,49.3426939 97.9760181,48.8347574 98.151619,48.2557098 L98.6290794,48.1555737 L98.3809161,49.3049615 L99.1936145,49.3049615 L99.090576,49.7882268 Z" id="Fill-93" fill="#000000"></path>
                            <path d="M102.022821,49.5862132 C101.558422,49.5862132 101.063546,50.2262132 100.808127,51.1840363 L100.906812,51.1840363 C101.81239,51.1840363 102.504635,50.6978685 102.504635,50.0781859 C102.506086,49.7980952 102.292753,49.5862132 102.022821,49.5862132 M101.00985,51.5323356 C100.94019,51.5323356 100.860372,51.5323356 100.735565,51.5250794 C100.700735,51.7064853 100.692027,51.8617687 100.692027,51.9981859 C100.692027,52.5104762 100.876336,52.7629932 101.220281,52.7629932 C101.529397,52.7629932 101.924136,52.591746 102.506086,52.2347392 L102.597515,52.5656236 C101.874794,53.0227664 101.332027,53.2346485 100.831347,53.2346485 C100.218921,53.2346485 99.8851338,52.8587755 99.8851338,52.215873 C99.8851338,50.6078912 100.97502,49.1929252 102.246313,49.1929252 C102.8718,49.1929252 103.2201,49.4788209 103.2201,49.9562812 C103.221551,50.8662132 102.265179,51.5323356 101.00985,51.5323356" id="Fill-95" fill="#000000"></path>
                            <path d="M107.151819,50.4578322 L106.826739,50.433161 C106.842703,50.3112562 106.854313,50.1617778 106.854313,50.039873 C106.854313,49.8657234 106.704834,49.7322086 106.459574,49.7322086 C106.308644,49.7322086 106.166422,49.8207347 106.037261,49.9687619 C105.659937,50.3968798 105.509007,51.0630023 105.308735,52.1427302 L105.114268,53.1005533 C104.7442,53.1150658 104.648417,53.1295782 104.263837,53.1629569 C104.362522,52.8103039 104.429279,52.5084444 104.506195,52.1746576 L104.738395,51.2777868 C104.873361,50.662458 104.94302,50.2619138 104.94302,50.0558367 C104.94302,49.8207347 104.879166,49.7176961 104.764517,49.7176961 C104.715175,49.7176961 104.6281,49.7322086 104.520707,49.7539773 L104.276898,49.8250884 L104.240617,49.5449977 C104.739846,49.3418231 105.269551,49.1908934 105.513361,49.1908934 C105.622204,49.1908934 105.670095,49.2300771 105.696218,49.3287619 C105.731048,49.4361542 105.751365,49.5841814 105.760073,49.7409161 C106.204154,49.388263 106.585832,49.1850884 106.855764,49.1850884 C107.054585,49.1850884 107.278077,49.2692608 107.505923,49.4361542 C107.360798,49.7975147 107.23454,50.1196916 107.151819,50.4578322" id="Fill-97" fill="#000000"></path>
                            <path d="M111.054948,53.2250703 C110.856127,53.2250703 110.74293,53.1089705 110.74293,52.9304671 C110.74293,52.8114649 110.787918,52.5923265 110.902567,52.10761 L110.998349,51.6881995 C111.279891,50.4938231 111.37132,50.0569977 111.37132,49.900263 C111.37132,49.7449796 111.279891,49.682576 111.156535,49.682576 C110.98819,49.682576 110.711002,49.7681995 110.41785,49.9481542 C110.108735,50.1252063 109.87073,50.3370884 109.75463,50.5199456 C109.663202,50.6607166 109.600798,50.9030748 109.478893,51.4182676 C109.319256,52.1496961 109.227828,52.6315102 109.14946,53.0959093 C108.763429,53.117678 108.667646,53.1321905 108.283066,53.1655692 C108.48624,52.4457506 108.621206,51.8405805 108.769234,51.1599456 C108.924517,50.5083356 108.976762,50.1745488 108.976762,50.0163628 C108.976762,49.782712 108.911456,49.682576 108.763429,49.682576 C108.674902,49.682576 108.512363,49.7188571 108.283066,49.788517 L108.261297,49.5214875 C108.732952,49.3299229 109.246694,49.1920544 109.477442,49.1920544 C109.690776,49.1920544 109.758984,49.3241179 109.758984,49.7812608 L109.758984,49.8538231 C110.507828,49.4329615 111.26683,49.1935057 111.80234,49.1935057 C112.125968,49.1935057 112.244971,49.271873 112.244971,49.4721451 C112.244971,49.6840272 112.192726,49.9902404 111.980844,50.798585 C111.872,51.2397642 111.7559,51.714322 111.716717,51.9363628 C111.671728,52.2179048 111.636898,52.4065669 111.636898,52.5139592 C111.636898,52.6619864 111.708009,52.718585 111.851683,52.718585 C111.943111,52.718585 112.125968,52.6881088 112.358168,52.595229 L112.388644,52.8782222 C111.876354,53.0668844 111.281342,53.2250703 111.054948,53.2250703" id="Fill-99" fill="#000000"></path>
                            <path d="M114.111855,53.2130249 C113.926095,53.2130249 113.791129,53.1085351 113.791129,52.931483 C113.791129,52.8473107 113.818703,52.6876735 113.868045,52.4757914 C113.992853,51.9475374 114.167002,51.2451338 114.271492,50.8794195 C114.397751,50.3787392 114.464508,50.0101224 114.464508,49.866449 C114.464508,49.7445442 114.397751,49.6966531 114.307773,49.6966531 C114.217796,49.6966531 114.111855,49.7213243 113.926095,49.7837279 L113.840472,49.7996916 L113.817252,49.5283084 C114.349859,49.3251338 114.892626,49.1930703 115.152399,49.1930703 C115.301878,49.1930703 115.357025,49.2482177 115.357025,49.3643175 C115.357025,49.4760635 115.307683,49.7880816 115.127728,50.4933878 L114.984054,51.0506667 C114.743147,51.9997823 114.674939,52.3408254 114.674939,52.5062676 C114.674939,52.6310748 114.756209,52.7181497 114.911492,52.7181497 C114.998567,52.7181497 115.182875,52.6876735 115.449905,52.5933424 L115.476027,52.8603719 C114.94342,53.066449 114.383238,53.2130249 114.111855,53.2130249 M115.182875,48.2091247 C114.87376,48.2091247 114.674939,48.0190113 114.674939,47.7447256 C114.674939,47.3978776 114.934712,47.1511655 115.28156,47.1511655 C115.579066,47.1511655 115.761923,47.3253152 115.761923,47.6170159 C115.761923,47.9595102 115.523918,48.2091247 115.182875,48.2091247" id="Fill-101" fill="#000000"></path>
                            <path d="M119.042467,49.7882268 L118.223964,49.766458 L117.821968,51.7793379 C117.705868,52.3017868 117.700063,52.4440091 117.700063,52.5194739 C117.700063,52.6602449 117.763918,52.7299048 117.895982,52.7299048 C117.969995,52.7299048 118.109315,52.6979773 118.350222,52.63122 L118.438748,52.5934875 L118.476481,52.8750295 C117.969995,53.1028753 117.437388,53.22478 117.14859,53.22478 C116.95122,53.22478 116.807546,53.1333515 116.807546,52.9446893 C116.807546,52.7705397 116.851084,52.5426939 116.945415,52.2335782 C117.023782,51.8765714 117.087637,51.5964807 117.168907,51.2148027 L117.466413,49.7650068 L116.949769,49.7809705 L117.022331,49.4689524 C117.687002,49.3426939 117.916299,48.8347574 118.102059,48.2557098 L118.567909,48.1555737 L118.325551,49.3049615 L119.148408,49.3049615 L119.042467,49.7882268 Z" id="Fill-103" fill="#000000"></path>
                            <path d="M121.957732,49.5862132 C121.499138,49.5862132 120.997007,50.2262132 120.753197,51.1840363 L120.850431,51.1840363 C121.751655,51.1840363 122.448254,50.6978685 122.448254,50.0781859 C122.449705,49.7980952 122.232018,49.5862132 121.957732,49.5862132 Z M120.949116,51.5323356 C120.886712,51.5323356 120.811247,51.5323356 120.673379,51.5250794 C120.653061,51.7064853 120.642902,51.8617687 120.642902,51.9981859 C120.642902,52.5104762 120.811247,52.7629932 121.155193,52.7629932 C121.470113,52.7629932 121.86195,52.591746 122.4439,52.2347392 L122.541134,52.5656236 C121.819864,53.0227664 121.272744,53.2346485 120.786576,53.2346485 C120.166893,53.2346485 119.838912,52.8587755 119.838912,52.215873 C119.838912,50.6078912 120.924444,49.1929252 122.191383,49.1929252 C122.80381,49.1929252 123.170975,49.4788209 123.170975,49.9562812 C123.172426,50.8662132 122.201542,51.5323356 120.949116,51.5323356 Z M122.04771,48.5921088 L121.738594,48.3265306 L122.938776,46.9797732 L123.802268,47.1945578 L122.04771,48.5921088 Z" id="Fill-105" fill="#000000"></path>
                            <path d="M76.1370703,51.389678 C76.7973878,51.389678 77.3285442,50.8657778 77.3285442,50.2112653 C77.3285442,49.5669116 76.798839,49.0299501 76.1370703,49.0299501 C75.4927166,49.0299501 74.9412426,49.5669116 74.9412426,50.2112653 C74.9412426,50.867229 75.4927166,51.389678 76.1370703,51.389678" id="Fill-107" fill="#000000"></path>
                            <path d="M35.3497687,51.389678 C35.9970249,51.389678 36.5368889,50.8657778 36.5368889,50.2112653 C36.5368889,49.5669116 35.9970249,49.0299501 35.3497687,49.0299501 C34.6865488,49.0299501 34.1611973,49.5669116 34.1611973,50.2112653 C34.1626485,50.867229 34.6865488,51.389678 35.3497687,51.389678" id="Fill-109" fill="#000000"></path>
                            <polygon id="Fill-111" fill="#000000" points="0.725623583 58.3590023 123.356009 58.3590023 123.356009 57.324263 0.725623583 57.324263"></polygon>
                        </g>
                    </g>
                    <text id="PREFECTURE-DE-LA-RG" font-family="TimesNewRomanPSMT, Times New Roman" font-size="10" font-weight="normal" line-spacing="14" fill="#222222">
                        <tspan x="42.029267" y="115.447486">PREFECTURE</tspan>
                        <tspan x="10.791474" y="134.447486">DE LA RGION BRETAGNE</tspan>
                    </text>
                    <path d="M1.30612245,99.0304878 L146.306122,99.0304878" id="Line-Copy" stroke="#979797" stroke-linecap="square" fill-rule="nonzero"></path>
                </g>
            </g>
        </g>
    </g>
</svg>