<?xml version="1.0" encoding="UTF-8"?>
<svg width="133px" height="59px" viewBox="0 0 133 59" version="1.1" xmlns="http://www.w3.org/2000/svg" xmlns:xlink="http://www.w3.org/1999/xlink">
    <!-- Generator: sketchtool 53 (72520) - https://sketchapp.com -->
    <title>40E428B7-533F-4702-9ECF-CF1D3B29BDA5</title>
    <desc>Created with sketchtool.</desc>
    <g id="QUI-SOMMES-NOUS" stroke="none" stroke-width="1" fill="none" fill-rule="evenodd">
        <g id="Qui-sommes-nous" transform="translate(-578.000000, -2172.000000)" fill-rule="nonzero">
            <g id="SERVICE-PUBLIC" transform="translate(0.000000, 1840.000000)">
                <g id="Group-2" transform="translate(203.000000, 332.000000)">
                    <g id="6.-logos/logos--cnam-copy" transform="translate(370.500000, 0.000000)">
                        <g id="UOH-logo" transform="translate(5.301648, 0.000000)">
                            <g id="g22" transform="translate(2.764361, 56.664912) scale(-1, 1) rotate(-180.000000) translate(-2.764361, -56.664912) translate(0.084300, 54.228493)" fill="#BF2535">
                                <path d="M4.38555408,0.974567609 L4.38555408,4.65258575 L3.79301699,4.65258575 L3.79301699,2.55190528 C3.79301699,1.60218915 3.17416658,0.721667315 2.18059494,0.721667315 C1.33515757,0.721667315 1.22210774,1.33174664 1.22210774,2.02027865 L1.22210774,4.13801406 C1.22210774,4.49568037 1.06520236,4.65258575 0.690481125,4.65258575 L0.071630717,4.65258575 L0.071630717,4.13801406 L0.43758084,4.13801406 C0.559401787,4.13801406 0.629570652,4.06833247 0.629570652,3.94651152 L0.629570652,1.86386055 C0.629570652,0.721667315 1.06520236,0.163727361 2.10214225,0.163727361 C3.06111675,0.163727361 3.63611161,0.843488266 3.81055921,1.27083616 L3.82761414,1.27083616 C3.82761414,1.27083616 3.81055921,1.13098571 3.81055921,0.957025392 L3.81055921,0.756751749 C3.81055921,0.425398763 3.9762357,0.268493378 4.34218582,0.268493378 L4.94349401,0.268493378 L4.94349401,0.782577791 L4.57754389,0.782577791 C4.45572294,0.782577791 4.38555408,0.843488266 4.38555408,0.974567609" id="path24"></path>
                            </g>
                            <g id="g26" transform="translate(8.079068, 56.664912) scale(-1, 1) rotate(-180.000000) translate(-8.079068, -56.664912) translate(5.399007, 54.228493)" fill="#BF2535">
                                <path d="M4.38555433,0.974567566 L4.38555433,3.05721846 C4.38555433,4.13801389 4.00206197,4.75686429 2.91249536,4.75686429 C1.88432651,4.75686429 1.32638654,4.05079009 1.16948115,3.65024282 L1.15193894,3.65024282 C1.15193894,3.65024282 1.16948115,3.78960598 1.16948115,3.96405358 L1.16948115,4.16432721 C1.16948115,4.49568018 1.00429194,4.65258556 0.638341796,4.65258556 L0.0282624602,4.65258556 L0.0282624602,4.13801389 L0.394212605,4.13801389 C0.516033559,4.13801389 0.585715144,4.06833231 0.585715144,3.94651136 L0.585715144,0.268493364 L1.17825226,0.268493364 L1.17825226,2.36868647 C1.17825226,2.5782185 1.19579448,2.77849213 1.24842113,2.96171083 C1.44869478,3.68532725 2.09337127,4.19892436 2.84281377,4.19892436 C3.68825119,4.19892436 3.79301721,3.58933235 3.79301721,2.90080036 L3.79301721,0.800607256 C3.79301721,0.425398743 3.9499226,0.268493364 4.32464385,0.268493364 L4.9434943,0.268493364 L4.9434943,0.782577756 L4.57754415,0.782577756 C4.4557232,0.782577756 4.38555433,0.843488229 4.38555433,0.974567566" id="path28"></path>
                            </g>
                            <g id="g30" transform="translate(11.674443, 56.664912) scale(-1, 1) rotate(-180.000000) translate(-11.674443, -56.664912) translate(10.456233, 54.228493)" fill="#BF2535">
                                <path d="M1.46185141,0.974567563 L1.46185141,4.12095894 C1.46185141,4.49568016 1.30494602,4.65258554 0.930224781,4.65258554 L0.311374353,4.65258554 L0.311374353,4.13801387 L0.677324488,4.13801387 C0.799145438,4.13801387 0.869314306,4.06833229 0.869314306,3.94651134 L0.869314306,0.800607253 C0.869314306,0.425398742 1.02573241,0.268493364 1.40094093,0.268493364 L2.01979136,0.268493364 L2.01979136,0.782577753 L1.65335394,0.782577753 C1.53153299,0.782577753 1.46185141,0.843488226 1.46185141,0.974567563" id="path32"></path>
                            </g>
                            <polygon id="path34" fill="#BF2535" points="11.8831485 52.7059793 11.3076664 52.7059793 11.3076664 53.4559091 11.8831485 53.4559091"></polygon>
                            <g id="g36" transform="translate(14.925990, 56.877372) scale(-1, 1) rotate(-180.000000) translate(-14.925990, -56.877372) translate(12.733213, 54.440953)" fill="#BF2535">
                                <path d="M3.41098641,4.38555402 L2.35650433,1.64896831 C2.27805164,1.43115246 2.20837006,1.13488392 2.20837006,1.13488392 L2.19082785,1.13488392 C2.19082785,1.13488392 2.12114627,1.43115246 2.04269358,1.64896831 L0.988211494,4.38555402 C0.840077227,4.77781746 0.709485176,4.86504126 0.290908415,4.86504126 L0.0555503529,4.86504126 L0.0555503529,4.35046959 L0.13400304,4.35046959 C0.290908415,4.35046959 0.378132211,4.30710133 0.439042682,4.15019595 L1.86824599,0.480949083 L2.5134097,0.480949083 L3.94261301,4.15019595 C3.99475237,4.30710133 4.09123456,4.35046959 4.24765265,4.35046959 L4.32610534,4.35046959 L4.32610534,4.86504126 L4.09951838,4.86504126 C3.68971273,4.86504126 3.55912068,4.77781746 3.41098641,4.38555402" id="path38"></path>
                            </g>
                            <g id="g40" transform="translate(19.304429, 56.679141) scale(-1, 1) rotate(-180.000000) translate(-19.304429, -56.679141) translate(17.111652, 54.242722)" fill="#BF2535">
                                <path d="M0.974567553,2.92370264 C1.12270182,3.80373717 1.75909443,4.27445331 2.48222355,4.27445331 C3.12738726,4.27445331 3.68532718,3.83005049 3.71992433,2.92370264 L0.974567553,2.92370264 Z M2.49099473,4.77099554 C1.31469167,4.77099554 0.329891127,3.90850324 0.329891127,2.47004151 C0.329891127,1.11929085 1.32346277,0.178345865 2.62158679,0.178345865 C3.61515844,0.178345865 4.25155106,0.805480097 4.25155106,0.805480097 L3.96405363,1.24988291 C3.96405363,1.24988291 3.44948195,0.709972475 2.64790011,0.709972475 C1.74155227,0.709972475 0.965796472,1.3463651 0.948254256,2.45298658 L4.31246154,2.45298658 C4.31246154,2.45298658 4.33000375,2.64497639 4.33000375,2.74925512 C4.33000375,3.83833438 3.70238223,4.77099554 2.49099473,4.77099554 L2.49099473,4.77099554 Z" id="path42"></path>
                            </g>
                            <g id="g44" transform="translate(23.452775, 56.547820) scale(-1, 1) rotate(-180.000000) translate(-23.452775, -56.547820) translate(21.747282, 54.111401)" fill="#BF2535">
                                <path d="M1.46185137,3.41098655 L1.44430915,3.41098655 C1.44430915,3.41098655 1.46185137,3.55912082 1.46185137,3.74233953 L1.46185137,4.03860807 C1.46185137,4.38701599 1.29617488,4.53563754 0.930224748,4.53563754 L0.320632722,4.53563754 L0.320632722,4.02106586 L0.686095568,4.02106586 C0.8084038,4.02106586 0.878085382,3.95138428 0.878085382,3.82907604 L0.878085382,0.151545262 L1.47062248,0.151545262 L1.47062248,1.9993254 C1.47062248,2.27805173 1.50521963,2.57432028 1.59244342,2.85304661 C1.78443324,3.49821035 2.24637828,3.98598142 2.86474141,3.98598142 C2.97827853,3.98598142 3.08304455,3.96892649 3.08304455,3.96892649 L3.08304455,4.55269248 C3.08304455,4.55269248 2.96950743,4.57851852 2.84768648,4.57851852 C2.15915448,4.57851852 1.67089612,4.07320522 1.46185137,3.41098655" id="path46"></path>
                            </g>
                            <g id="g48" transform="translate(27.006487, 56.713208) scale(-1, 1) rotate(-180.000000) translate(-27.006487, -56.713208) translate(25.057352, 54.033147)" fill="#BF2535">
                                <path d="M0.974567568,3.89827029 C0.974567568,4.32513089 1.34051769,4.53466292 1.95059698,4.53466292 C2.23858169,4.53466292 2.70881054,4.41284197 2.70881054,4.09026011 L2.70881054,3.88121536 L3.26675047,3.88121536 L3.26675047,4.25593659 C3.26675047,4.87429972 2.37745757,5.04874731 1.93305476,5.04874731 C1.05302026,5.04874731 0.373259384,4.65697115 0.373259384,3.86367315 C0.373259384,2.45152474 2.83063148,2.62597233 2.83063148,1.66748512 C2.83063148,1.2055401 2.39548707,0.970182027 1.90722872,0.970182027 C1.04424915,0.970182027 0.556478085,1.63240069 0.556478085,1.63240069 L0.216354007,1.22308231 C0.216354007,1.22308231 0.756751718,0.456097634 1.89845761,0.456097634 C2.76972101,0.456097634 3.43193967,0.952639811 3.43193967,1.68502734 C3.43193967,3.14054401 0.974567568,2.91346976 0.974567568,3.89827029" id="path50"></path>
                            </g>
                            <g id="g52" transform="translate(30.005134, 56.664912) scale(-1, 1) rotate(-180.000000) translate(-30.005134, -56.664912) translate(28.786925, 54.228493)" fill="#BF2535">
                                <path d="M1.46185141,0.974567563 L1.46185141,4.12095894 C1.46185141,4.49568016 1.30494602,4.65258554 0.930224781,4.65258554 L0.311374353,4.65258554 L0.311374353,4.13801387 L0.677811772,4.13801387 C0.799632722,4.13801387 0.869314306,4.06833229 0.869314306,3.94651134 L0.869314306,0.800607253 C0.869314306,0.425398742 1.02621969,0.268493364 1.40094093,0.268493364 L2.01979136,0.268493364 L2.01979136,0.782577753 L1.65384123,0.782577753 C1.53202028,0.782577753 1.46185141,0.843488226 1.46185141,0.974567563" id="path54"></path>
                            </g>
                            <polygon id="path56" fill="#BF2535" points="30.2142763 52.7059793 29.6392815 52.7059793 29.6392815 53.4559091 30.2142763 53.4559091"></polygon>
                            <g id="g58" transform="translate(32.444425, 55.958449) scale(-1, 1) rotate(-180.000000) translate(-32.444425, -55.958449) translate(30.982574, 52.791104)" fill="#BF2535">
                                <path d="M1.46185137,1.94913514 L1.46185137,4.17992032 L2.55970176,4.17992032 L2.55970176,4.67694978 L1.46185137,4.67694978 L1.46185137,5.88784999 L0.878085387,5.88784999 L0.878085387,4.67694978 L0.29383212,4.67694978 L0.29383212,4.17992032 L0.869314279,4.17992032 L0.869314279,1.88822467 C0.869314279,0.423936888 1.88871197,0.258260401 2.39451255,0.258260401 C2.54264682,0.258260401 2.64692555,0.275802617 2.64692555,0.275802617 L2.64692555,0.806941945 C2.64692555,0.806941945 2.56847286,0.789887012 2.44665192,0.789887012 C2.11529894,0.789887012 1.46185137,0.920479067 1.46185137,1.94913514" id="path60"></path>
                            </g>
                            <g id="g62" transform="translate(36.084536, 56.679141) scale(-1, 1) rotate(-180.000000) translate(-36.084536, -56.679141) translate(33.891759, 54.242722)" fill="#BF2535">
                                <path d="M0.974567588,2.92370264 C1.12270186,3.80373717 1.75909446,4.27445331 2.48222358,4.27445331 C3.12690001,4.27445331 3.68483993,3.83005049 3.71992436,2.92370264 L0.974567588,2.92370264 Z M2.49099467,4.77099554 C1.31420435,4.77099554 0.329403839,3.90850324 0.329403839,2.47004151 C0.329403839,1.11929085 1.32297546,0.178345865 2.62158673,0.178345865 C3.61515835,0.178345865 4.25155096,0.805480097 4.25155096,0.805480097 L3.96356625,1.24988291 C3.96356625,1.24988291 3.44996915,0.709972475 2.64790005,0.709972475 C1.74155222,0.709972475 0.965796451,1.3463651 0.948741519,2.45298658 L4.31246143,2.45298658 C4.31246143,2.45298658 4.33000365,2.64497639 4.33000365,2.74925512 C4.33000365,3.83833438 3.70286943,4.77099554 2.49099467,4.77099554 L2.49099467,4.77099554 Z" id="path64"></path>
                            </g>
                            <g id="g66" transform="translate(36.645590, 53.436855) scale(-1, 1) rotate(-180.000000) translate(-36.645590, -53.436855) translate(35.914664, 52.705929)" fill="#BF2535">
                                <polygon id="path68" points="1.46185138 1.46185138 0.799632708 1.46185138 0.189066116 0.424911473 0.703150517 0.424911473"></polygon>
                            </g>
                            <g id="g70" transform="translate(43.683579, 56.700098) scale(-1, 1) rotate(-180.000000) translate(-43.683579, -56.700098) translate(41.247160, 54.020037)" fill="#BF2535">
                                <path d="M2.43641895,0.974567588 C1.49498666,0.974567588 0.728001962,1.74106501 0.728001962,2.7614373 C0.728001962,3.75452169 1.49498666,4.49568036 2.43641895,4.49568036 C3.36908013,4.49568036 4.13557754,3.75452169 4.13557754,2.7614373 C4.13557754,1.74106501 3.36908013,0.974567588 2.43641895,0.974567588 M2.42764784,5.03559064 C1.15534987,5.03559064 0.117922678,4.05956122 0.117922678,2.76143721 C0.117922678,1.4365126 1.15534987,0.442940959 2.43641895,0.442940959 C3.70871692,0.442940959 4.74565682,1.4365126 4.74565682,2.76143721 C4.74565682,4.05956122 3.70871692,5.03559064 2.42764784,5.03559064" id="path72"></path>
                            </g>
                            <g id="g74" transform="translate(49.131509, 56.664912) scale(-1, 1) rotate(-180.000000) translate(-49.131509, -56.664912) translate(46.451449, 54.228493)" fill="#BF2535">
                                <path d="M4.38555408,0.974567609 L4.38555408,4.65258575 L3.79301699,4.65258575 L3.79301699,2.55190528 C3.79301699,1.60218915 3.17416658,0.721667315 2.18059494,0.721667315 C1.33515757,0.721667315 1.22210774,1.33174664 1.22210774,2.02027865 L1.22210774,4.13801406 C1.22210774,4.49568037 1.06520236,4.65258575 0.690481125,4.65258575 L0.071630717,4.65258575 L0.071630717,4.13801406 L0.43758084,4.13801406 C0.559401787,4.13801406 0.629570652,4.06833247 0.629570652,3.94651152 L0.629570652,1.86386055 C0.629570652,0.721667315 1.06520236,0.163727361 2.10214225,0.163727361 C3.06111675,0.163727361 3.63611161,0.843488266 3.81007192,1.27083616 L3.82761414,1.27083616 C3.82761414,1.27083616 3.81007192,1.13098571 3.81007192,0.957025392 L3.81007192,0.756751749 C3.81007192,0.425398763 3.97574841,0.268493378 4.34218582,0.268493378 L4.94349401,0.268493378 L4.94349401,0.782577791 L4.57754389,0.782577791 C4.45523566,0.782577791 4.38555408,0.843488266 4.38555408,0.974567609" id="path76"></path>
                            </g>
                            <g id="g78" transform="translate(53.852801, 56.877372) scale(-1, 1) rotate(-180.000000) translate(-53.852801, -56.877372) translate(51.660024, 54.440953)" fill="#BF2535">
                                <path d="M3.41098649,4.38555402 L2.35650438,1.64896831 C2.27756441,1.43115246 2.20837011,1.13488392 2.20837011,1.13488392 L2.1908279,1.13488392 C2.1908279,1.13488392 2.12114632,1.43115246 2.04269363,1.64896831 L0.988211516,4.38555402 C0.840077246,4.77781746 0.709485192,4.86504126 0.290908421,4.86504126 L0.0555503529,4.86504126 L0.0555503529,4.35046959 L0.134003042,4.35046959 C0.290908421,4.35046959 0.378132218,4.30710133 0.439042691,4.15019595 L1.86824603,0.480949083 L2.51340976,0.480949083 L3.9426131,4.15019595 C3.99475247,4.30710133 4.09074737,4.35046959 4.24765275,4.35046959 L4.32561816,4.35046959 L4.32561816,4.86504126 L4.09951848,4.86504126 C3.68971282,4.86504126 3.55912076,4.77781746 3.41098649,4.38555402" id="path80"></path>
                            </g>
                            <g id="g82" transform="translate(58.231194, 56.679141) scale(-1, 1) rotate(-180.000000) translate(-58.231194, -56.679141) translate(56.038417, 54.242722)" fill="#BF2535">
                                <path d="M0.974567588,2.92370264 C1.12270186,3.80373717 1.75909446,4.27445331 2.48222358,4.27445331 C3.12690001,4.27445331 3.68483993,3.83005049 3.71992436,2.92370264 L0.974567588,2.92370264 Z M2.49099467,4.77099554 C1.31420435,4.77099554 0.329403839,3.90850324 0.329403839,2.47004151 C0.329403839,1.11929085 1.32297546,0.178345865 2.62158673,0.178345865 C3.61515835,0.178345865 4.25155096,0.805480097 4.25155096,0.805480097 L3.96356625,1.24988291 C3.96356625,1.24988291 3.44996915,0.709972475 2.64790005,0.709972475 C1.74155222,0.709972475 0.965796451,1.3463651 0.948741519,2.45298658 L4.31246143,2.45298658 C4.31246143,2.45298658 4.33000365,2.64497639 4.33000365,2.74925512 C4.33000365,3.83833438 3.70286943,4.77099554 2.49099467,4.77099554 L2.49099467,4.77099554 Z" id="path84"></path>
                            </g>
                            <g id="g86" transform="translate(62.379781, 56.547820) scale(-1, 1) rotate(-180.000000) translate(-62.379781, -56.547820) translate(60.674288, 54.111401)" fill="#BF2535">
                                <path d="M1.46185136,3.41098655 L1.44430915,3.41098655 C1.44430915,3.41098655 1.46185136,3.55912082 1.46185136,3.74233953 L1.46185136,4.03860807 C1.46185136,4.38701599 1.29617487,4.53563754 0.930224744,4.53563754 L0.320145434,4.53563754 L0.320145434,4.02106586 L0.686095563,4.02106586 C0.807916512,4.02106586 0.877598094,3.95138428 0.877598094,3.82907604 L0.877598094,0.151545262 L1.47013519,0.151545262 L1.47013519,1.9993254 C1.47013519,2.27805173 1.50521962,2.57432028 1.59244342,2.85304661 C1.78394595,3.49821035 2.24589099,3.98598142 2.86474141,3.98598142 C2.97827853,3.98598142 3.08255726,3.96892649 3.08255726,3.96892649 L3.08255726,4.55269248 C3.08255726,4.55269248 2.96950742,4.57851852 2.84719919,4.57851852 C2.15915447,4.57851852 1.67089611,4.07320522 1.46185136,3.41098655" id="path88"></path>
                            </g>
                            <g id="g90" transform="translate(65.350848, 55.958449) scale(-1, 1) rotate(-180.000000) translate(-65.350848, -55.958449) translate(63.888997, 52.791104)" fill="#BF2535">
                                <path d="M1.46185139,1.94913514 L1.46185139,4.17992032 L2.55970179,4.17992032 L2.55970179,4.67694978 L1.46185139,4.67694978 L1.46185139,5.88784999 L0.878085397,5.88784999 L0.878085397,4.67694978 L0.29383212,4.67694978 L0.29383212,4.17992032 L0.869314289,4.17992032 L0.869314289,1.88822467 C0.869314289,0.423936888 1.888712,0.258260401 2.39451259,0.258260401 C2.54264686,0.258260401 2.64741288,0.275802617 2.64741288,0.275802617 L2.64741288,0.806941945 C2.64741288,0.806941945 2.5684729,0.789887012 2.44665195,0.789887012 C2.11578625,0.789887012 1.46185139,0.920479067 1.46185139,1.94913514" id="path92"></path>
                            </g>
                            <g id="g94" transform="translate(68.990711, 56.679141) scale(-1, 1) rotate(-180.000000) translate(-68.990711, -56.679141) translate(66.797934, 54.242722)" fill="#BF2535">
                                <path d="M0.974567588,2.92370264 C1.12318915,3.80373717 1.7595818,4.27445331 2.48319825,4.27445331 C3.12738744,4.27445331 3.6853274,3.83005049 3.72041183,2.92370264 L0.974567588,2.92370264 Z M2.49148202,4.77099554 C1.31517895,4.77099554 0.330378415,3.90850324 0.330378415,2.47004151 C0.330378415,1.11929085 1.32395006,0.178345865 2.62207408,0.178345865 C3.61564572,0.178345865 4.25203835,0.805480097 4.25203835,0.805480097 L3.96405363,1.24988291 C3.96405363,1.24988291 3.44996924,0.709972475 2.64887469,0.709972475 C1.74155227,0.709972475 0.965796477,1.3463651 0.948741544,2.45298658 L4.31343611,2.45298658 C4.31343611,2.45298658 4.33049104,2.64497639 4.33049104,2.74925512 C4.33049104,3.83833438 3.70335681,4.77099554 2.49148202,4.77099554 L2.49148202,4.77099554 Z" id="path96"></path>
                            </g>
                            <g id="g98" transform="translate(76.529330, 55.969172) scale(-1, 1) rotate(-180.000000) translate(-76.529330, -55.969172) translate(73.849270, 52.558186)" fill="#BF2535">
                                <path d="M2.43641889,0.974567588 C1.61680758,0.974567588 1.05009655,1.66309958 1.05009655,2.74389501 C1.05009655,3.85051649 1.68648916,4.50445133 2.46224493,4.50445133 C3.40318991,4.50445133 3.85636382,3.63270064 3.85636382,2.74389501 C3.85636382,1.49742309 3.16831912,0.974567588 2.43641889,0.974567588 M4.43184603,1.25329386 L4.43184603,6.14221188 C4.43184603,6.51742038 4.27445337,6.67432575 3.90021942,6.67432575 L3.28136902,6.67432575 L3.28136902,6.16024138 L3.64731914,6.16024138 C3.76962737,6.16024138 3.83930895,6.0905598 3.83930895,5.96825158 L3.83930895,4.5478194 C3.83930895,4.3646007 3.85636388,4.21646644 3.85636388,4.21646644 L3.83930895,4.21646644 C3.83930895,4.21646644 3.47287154,5.03559045 2.40961833,5.03559045 C1.25962859,5.03559045 0.440017265,4.12924265 0.440017265,2.7438949 C0.440017265,1.38388591 1.17240479,0.442940959 2.34870785,0.442940959 C3.49918487,0.442940959 3.85636388,1.31420433 3.85636388,1.31420433 L3.8739061,1.31420433 C3.8739061,1.31420433 3.85636388,1.2011545 3.85636388,1.03547802 C3.85636388,0.712896165 4.01326926,0.547706968 4.37921939,0.547706968 L4.98929868,0.547706968 L4.98929868,1.06130406 L4.62334856,1.06130406 C4.50152762,1.06130406 4.43184603,1.12270181 4.43184603,1.25329386" id="path100"></path>
                            </g>
                            <g id="g102" transform="translate(81.257985, 56.679141) scale(-1, 1) rotate(-180.000000) translate(-81.257985, -56.679141) translate(79.065208, 54.242722)" fill="#BF2535">
                                <path d="M0.974567553,2.92370264 C1.12270182,3.80373717 1.75909443,4.27445331 2.48222355,4.27445331 C3.12689998,4.27445331 3.6848399,3.83005049 3.71992433,2.92370264 L0.974567553,2.92370264 Z M2.49099473,4.77099554 C1.31420438,4.77099554 0.329891127,3.90850324 0.329891127,2.47004151 C0.329891127,1.11929085 1.32346277,0.178345865 2.62158679,0.178345865 C3.61515844,0.178345865 4.25155106,0.805480097 4.25155106,0.805480097 L3.96356635,1.24988291 C3.96356635,1.24988291 3.44948195,0.709972475 2.64790011,0.709972475 C1.74106498,0.709972475 0.965309188,1.3463651 0.948254256,2.45298658 L4.31294882,2.45298658 C4.31294882,2.45298658 4.33000375,2.64497639 4.33000375,2.74925512 C4.33000375,3.83833438 3.70286952,4.77099554 2.49099473,4.77099554 L2.49099473,4.77099554 Z" id="path104"></path>
                            </g>
                            <g id="g106" transform="translate(85.805802, 56.713208) scale(-1, 1) rotate(-180.000000) translate(-85.805802, -56.713208) translate(83.856667, 54.033147)" fill="#BF2535">
                                <path d="M0.974567586,3.89827029 C0.974567586,4.32513089 1.341005,4.53466292 1.9510843,4.53466292 C2.23858174,4.53466292 2.70929788,4.41284197 2.70929788,4.09026011 L2.70929788,3.88121536 L3.26723783,3.88121536 L3.26723783,4.25593659 C3.26723783,4.87429972 2.37794491,5.04874731 1.93354209,5.04874731 C1.05350756,5.04874731 0.373746671,4.65697115 0.373746671,3.86367315 C0.373746671,2.45152474 2.83160612,2.62597233 2.83160612,1.66748512 C2.83160612,1.2055401 2.39548712,0.970182027 1.90722876,0.970182027 C1.04473645,0.970182027 0.556965377,1.63240069 0.556965377,1.63240069 L0.216354007,1.22308231 C0.216354007,1.22308231 0.756751732,0.456097634 1.89845766,0.456097634 C2.77069564,0.456097634 3.43291432,0.952639811 3.43291432,1.68502734 C3.43291432,3.14054401 0.974567586,2.91346976 0.974567586,3.89827029" id="path108"></path>
                            </g>
                            <g id="g110" transform="translate(92.850464, 55.690348) scale(-1, 1) rotate(-180.000000) translate(-92.850464, -55.690348) translate(90.170403, 52.279362)" fill="#BF2535">
                                <path d="M4.38555399,0.974567571 L4.38555399,3.05721847 C4.38555399,4.13801391 4.00206166,4.75686432 2.91249513,4.75686432 C1.92720734,4.75686432 1.34392866,4.08587455 1.17825217,3.66729777 L1.16070996,3.66729777 C1.16070996,3.66729777 1.17825217,3.82420315 1.17825217,4.02496407 L1.17825217,5.8815153 C1.17825217,6.23820703 1.0213468,6.39559969 0.646138289,6.39559969 L0.0277751765,6.39559969 L0.0277751765,5.8815153 L0.394212576,5.8815153 C0.51603352,5.8815153 0.585227817,5.81134643 0.585227817,5.68952549 L0.585227817,0.268493364 L1.17825217,0.268493364 L1.17825217,2.36868648 C1.17825217,2.57821851 1.1953071,2.77849215 1.24793375,2.95293974 C1.44869467,3.68532727 2.0933711,4.19892438 2.83404244,4.19892438 C3.68776362,4.19892438 3.79252963,3.58933237 3.79252963,2.90080038 L3.79252963,0.800607259 C3.79252963,0.425398744 3.94943501,0.268493364 4.32415623,0.268493364 L4.94349391,0.268493364 L4.94349391,0.782577759 L4.57705651,0.782577759 C4.45523557,0.782577759 4.38555399,0.843488232 4.38555399,0.974567571" id="path112"></path>
                            </g>
                            <g id="g114" transform="translate(98.086420, 56.664912) scale(-1, 1) rotate(-180.000000) translate(-98.086420, -56.664912) translate(95.406359, 54.228493)" fill="#BF2535">
                                <path d="M4.38555424,0.974567609 L4.38555424,4.65258575 L3.79301713,4.65258575 L3.79301713,2.55190528 C3.79301713,1.60218915 3.1741667,0.721667315 2.18059502,0.721667315 C1.33467034,0.721667315 1.2216205,1.33174664 1.2216205,2.02027865 L1.2216205,4.13801406 C1.2216205,4.49568037 1.06471511,4.65258575 0.689993865,4.65258575 L0.0711434332,4.65258575 L0.0711434332,4.13801406 L0.43709357,4.13801406 C0.558914521,4.13801406 0.629083389,4.06833247 0.629083389,3.94651152 L0.629083389,1.86386055 C0.629083389,0.721667315 1.06471511,0.163727361 2.10165505,0.163727361 C3.06062957,0.163727361 3.63611175,0.843488266 3.81007206,1.27083616 L3.827127,1.27083616 C3.827127,1.27083616 3.81007206,1.13098571 3.81007206,0.957025392 L3.81007206,0.756751749 C3.81007206,0.425398763 3.97574856,0.268493378 4.3416987,0.268493378 L4.94349419,0.268493378 L4.94349419,0.782577791 L4.57754406,0.782577791 C4.45572311,0.782577791 4.38555424,0.843488266 4.38555424,0.974567609" id="path116"></path>
                            </g>
                            <g id="g118" transform="translate(104.753729, 56.664912) scale(-1, 1) rotate(-180.000000) translate(-104.753729, -56.664912) translate(100.611817, 54.228493)" fill="#BF2535">
                                <path d="M7.30925678,0.974567566 L7.30925678,3.05721846 C7.30925678,4.13801389 6.91699334,4.75686429 5.8542274,4.75686429 C5.11306876,4.75686429 4.47667614,4.25155101 4.24131807,3.65901393 L4.22426314,3.65901393 C4.0931838,4.38214306 3.67509431,4.75686429 2.86522866,4.75686429 C2.18498049,4.75686429 1.49693579,4.2427799 1.27863265,3.65024282 L1.26109043,3.65024282 C1.26109043,3.65024282 1.27863265,3.78960598 1.27863265,3.96405358 L1.27863265,4.16432721 C1.27863265,4.49568018 1.11295616,4.65258556 0.74700604,4.65258556 L0.136926741,4.65258556 L0.136926741,4.13801389 L0.502876864,4.13801389 C0.625185094,4.13801389 0.694866675,4.06833231 0.694866675,3.94651136 L0.694866675,0.268493364 L1.28691648,0.268493364 L1.28691648,2.34286043 C1.28691648,2.54313406 1.30494598,2.74389498 1.35708534,2.9266264 C1.53981676,3.59761617 2.07193065,4.21646658 2.78628868,4.21646658 C3.61369655,4.21646658 3.70969146,3.57179013 3.70969146,2.90957147 L3.70969146,0.268493364 L4.30271583,0.268493364 L4.30271583,2.34286043 C4.30271583,2.5782185 4.32025804,2.78726324 4.38068123,2.97925305 C4.55610339,3.62441678 5.10478494,4.21646658 5.7670036,4.21646658 C6.56809815,4.21646658 6.7167197,3.62441678 6.7167197,2.90957147 L6.7167197,0.800607256 C6.7167197,0.425398743 6.87362508,0.268493364 7.24834631,0.268493364 L7.867684,0.268493364 L7.867684,0.782577756 L7.50173388,0.782577756 C7.37942565,0.782577756 7.30925678,0.843488229 7.30925678,0.974567566" id="path120"></path>
                            </g>
                            <g id="g122" transform="translate(110.961825, 56.558543) scale(-1, 1) rotate(-180.000000) translate(-110.961825, -56.558543) translate(108.525407, 53.878482)" fill="#BF2535">
                                <path d="M3.41098652,2.43641888 C3.41098652,1.67820533 2.90567323,0.80694194 2.06900695,0.80694194 C1.4150721,0.80694194 1.09249023,1.2255187 1.09249023,1.63434979 C1.09249023,2.61963757 2.46955423,2.63717979 3.15759895,2.63717979 L3.41098652,2.63717979 L3.41098652,2.43641888 Z M4.00401092,1.11198159 L4.00401092,3.21217471 C4.00401092,4.1531197 3.67265795,4.89379105 2.28633555,4.89379105 C1.90333049,4.89379105 0.857619469,4.763199 0.857619469,4.1531197 L0.857619469,3.73503021 L1.42384324,3.73503021 L1.42384324,4.01424382 C1.42384324,4.3363384 2.06072316,4.39724887 2.27805173,4.39724887 C3.07963357,4.39724887 3.41098655,4.07515429 3.41098655,3.16003534 L3.41098655,3.10740869 L3.16685737,3.10740869 C2.40864378,3.10740869 0.482410948,3.05526933 0.482410948,1.59975266 C0.482410948,0.728489252 1.24111181,0.301141372 1.97301207,0.301141372 C3.07086246,0.301141372 3.43729987,1.25134475 3.42852876,1.25134475 L3.4455837,1.25134475 C3.4455837,1.25134475 3.43729987,1.1207527 3.43729987,0.928762887 C3.43729987,0.571583873 3.58494686,0.405907386 3.96015538,0.405907386 L4.5609763,0.405907386 L4.5609763,0.919991779 L4.19551346,0.919991779 C4.07320522,0.919991779 4.00401092,0.980902253 4.00401092,1.11198159 L4.00401092,1.11198159 Z" id="path124"></path>
                            </g>
                            <g id="g126" transform="translate(116.121145, 56.664912) scale(-1, 1) rotate(-180.000000) translate(-116.121145, -56.664912) translate(113.441084, 54.228493)" fill="#BF2535">
                                <path d="M4.38555433,0.974567566 L4.38555433,3.05721846 C4.38555433,4.13801389 4.00157468,4.75686429 2.91298264,4.75686429 C1.88383923,4.75686429 1.32638654,4.05079009 1.16899387,3.65024282 L1.15242622,3.65024282 C1.15242622,3.65024282 1.16899387,3.78960598 1.16899387,3.96405358 L1.16899387,4.16432721 C1.16899387,4.49568018 1.00429194,4.65258556 0.637854512,4.65258556 L0.0282624602,4.65258556 L0.0282624602,4.13801389 L0.394212605,4.13801389 C0.516520842,4.13801389 0.58522786,4.06833231 0.58522786,3.94651136 L0.58522786,0.268493364 L1.17776498,0.268493364 L1.17776498,2.36868647 C1.17776498,2.5782185 1.19579448,2.77849213 1.24793385,2.96171083 C1.44869478,3.68532725 2.09288398,4.19892436 2.84330106,4.19892436 C3.68825119,4.19892436 3.79252993,3.58933235 3.79252993,2.90080036 L3.79252993,0.800607256 C3.79252993,0.425398743 3.94943532,0.268493364 4.32415657,0.268493364 L4.9434943,0.268493364 L4.9434943,0.782577756 L4.57754415,0.782577756 C4.4557232,0.782577756 4.38555433,0.843488229 4.38555433,0.974567566" id="path128"></path>
                            </g>
                            <polygon id="path130" fill="#BF2535" points="119.925167 52.7059793 119.349685 52.7059793 119.349685 53.4559091 119.925167 53.4559091"></polygon>
                            <g id="g132" transform="translate(119.716271, 56.664912) scale(-1, 1) rotate(-180.000000) translate(-119.716271, -56.664912) translate(118.498061, 54.228493)" fill="#BF2535">
                                <path d="M1.46185139,0.974567563 L1.46185139,4.12095894 C1.46185139,4.49568016 1.30494601,4.65258554 0.930224771,4.65258554 L0.311861641,4.65258554 L0.311861641,4.13801387 L0.677324484,4.13801387 C0.799632715,4.13801387 0.868827013,4.06833229 0.868827013,3.94651134 L0.868827013,0.800607253 C0.868827013,0.425398742 1.02573239,0.268493364 1.40045363,0.268493364 L2.01979133,0.268493364 L2.01979133,0.782577753 L1.6538412,0.782577753 C1.53202025,0.782577753 1.46185139,0.843488226 1.46185139,0.974567563" id="path134"></path>
                            </g>
                            <g id="g136" transform="translate(122.155082, 55.958449) scale(-1, 1) rotate(-180.000000) translate(-122.155082, -55.958449) translate(120.693230, 52.791104)" fill="#BF2535">
                                <path d="M1.4618514,1.94913514 L1.4618514,4.17992032 L2.56067637,4.17992032 L2.56067637,4.67694978 L1.4618514,4.67694978 L1.4618514,5.88784999 L0.878572685,5.88784999 L0.878572685,4.67694978 L0.294319408,4.67694978 L0.294319408,4.17992032 L0.869801577,4.17992032 L0.869801577,1.88822467 C0.869801577,0.423936888 1.88919929,0.258260401 2.39499987,0.258260401 C2.54313415,0.258260401 2.64790017,0.275802617 2.64790017,0.275802617 L2.64790017,0.806941945 C2.64790017,0.806941945 2.56896019,0.789887012 2.44665196,0.789887012 C2.11627354,0.789887012 1.4618514,0.920479067 1.4618514,1.94913514" id="path138"></path>
                            </g>
                            <g id="g140" transform="translate(126.356488, 53.436855) scale(-1, 1) rotate(-180.000000) translate(-126.356488, -53.436855) translate(125.625562, 52.705929)" fill="#BF2535">
                                <polygon id="path142" points="1.46185138 1.46185138 0.799632708 1.46185138 0.189066116 0.424911473 0.703150517 0.424911473"></polygon>
                            </g>
                            <g id="g144" transform="translate(125.795422, 56.679141) scale(-1, 1) rotate(-180.000000) translate(-125.795422, -56.679141) translate(123.602645, 54.242722)" fill="#BF2535">
                                <path d="M0.974567553,2.92370264 C1.1231891,3.80373717 1.75860714,4.27445331 2.48271083,4.27445331 C3.12689998,4.27445331 3.68532718,3.83005049 3.71992433,2.92370264 L0.974567553,2.92370264 Z M2.49050745,4.77099554 C1.31420438,4.77099554 0.329891127,3.90850324 0.329891127,2.47004151 C0.329891127,1.11929085 1.32297549,0.178345865 2.62207407,0.178345865 C3.61515844,0.178345865 4.25155106,0.805480097 4.25155106,0.805480097 L3.96405363,1.24988291 C3.96405363,1.24988291 3.44996923,0.709972475 2.64790011,0.709972475 C1.74155227,0.709972475 0.965796472,1.3463651 0.948254256,2.45298658 L4.31343611,2.45298658 C4.31343611,2.45298658 4.33000375,2.64497639 4.33000375,2.74925512 C4.33000375,3.83833438 3.70238223,4.77099554 2.49050745,4.77099554 L2.49050745,4.77099554 Z" id="path146"></path>
                            </g>
                            <g id="g148" transform="translate(130.343731, 56.713208) scale(-1, 1) rotate(-180.000000) translate(-130.343731, -56.713208) translate(128.394596, 54.033147)" fill="#BF2535">
                                <path d="M0.974567611,3.89827029 C0.974567611,4.32513089 1.34100503,4.53466292 1.95059708,4.53466292 C2.23809452,4.53466292 2.70881068,4.41284197 2.70881068,4.09026011 L2.70881068,3.88121536 L3.26626336,3.88121536 L3.26626336,4.25593659 C3.26626336,4.87429972 2.37745769,5.04874731 1.93305486,5.04874731 C1.0530203,5.04874731 0.373259393,4.65697115 0.373259393,3.86367315 C0.373259393,2.45152474 2.83111892,2.62597233 2.83111892,1.66748512 C2.83111892,1.2055401 2.39548719,0.970182027 1.90674153,0.970182027 C1.04424919,0.970182027 0.556478104,1.63240069 0.556478104,1.63240069 L0.216354007,1.22308231 C0.216354007,1.22308231 0.756751749,0.456097634 1.89845771,0.456097634 C2.76972116,0.456097634 3.43242713,0.952639811 3.43242713,1.68502734 C3.43242713,3.14054401 0.974567611,2.91346976 0.974567611,3.89827029" id="path150"></path>
                            </g>
                            <g id="g152" transform="translate(114.149149, 30.061752) scale(-1, 1) rotate(-180.000000) translate(-114.149149, -30.061752) translate(96.119649, 13.250462)" fill="#BF2535">
                                <path d="M27.7751757,30.6988777 L27.7751757,27.1548628 L27.6104738,27.1548628 L18.2024858,27.1548628 L12.0914598,27.1548628 C10.3825556,26.8376411 8.65074902,26.533576 6.89555283,26.2470531 C4.64430175,25.8791539 2.35114426,25.5502373 0.0414191239,25.2427613 L0.0414191239,0.426373302 L8.17613462,0.426373302 L8.17613462,19.6784679 L22.6898821,19.6784679 L27.6104738,19.6784679 L27.8126966,19.6784679 L27.8126966,0.426373302 L35.744702,0.426373302 L35.744702,33.1713556 C33.2883044,32.3054523 30.6189639,31.4795063 27.7751757,30.6988777" id="path154"></path>
                            </g>
                            <g id="g156" transform="translate(17.924882, 30.028715) scale(-1, 1) rotate(-180.000000) translate(-17.924882, -30.028715) translate(0.382666, 13.217425)" fill="#BF2535">
                                <path d="M26.8006086,17.0549322 C26.8006086,11.2435859 23.121616,7.90666657 17.5724281,7.90666657 C12.0222657,7.90666657 8.34376039,11.2435859 8.34376039,16.9920726 L8.28236263,31.0316928 C5.50630686,31.7986774 2.79749626,32.6489876 0.175422171,33.5913944 L0.175422171,16.7450197 C0.175422171,7.04027601 7.09680116,0.364975557 17.6343132,0.364975557 C28.0475678,0.364975557 34.9689468,7.04027601 34.9689468,16.7450197 L34.9689468,25.8226292 C32.1388026,26.1344908 29.4894406,26.6013087 26.878574,26.9930848 L26.8006086,17.0549322 Z" id="path158"></path>
                            </g>
                            <g id="g160" transform="translate(65.422673, 34.232952) scale(-1, 1) rotate(-180.000000) translate(-65.422673, -34.232952) translate(42.276692, 21.807215)" fill="#BF2535">
                                <path d="M37.520851,23.3896212 C37.5266984,23.2317413 37.5310839,23.0738613 37.5310839,22.9145195 C37.5310839,14.2043221 31.1354843,7.58018641 23.186424,7.58018641 C15.237851,7.58018641 8.84127688,14.2043221 8.84127688,22.9145195 C8.84127688,23.1947077 8.85248441,23.4709976 8.86807749,23.7468002 C6.1100513,24.0016496 3.32181352,24.313024 0.467792425,24.6663047 C0.424424168,24.0883861 0.395187142,23.5046202 0.395187142,22.9145195 C0.395187142,10.0945707 10.2076206,0.0969694724 23.186424,0.0969694724 C36.1657148,0.0969694724 45.9776609,10.0945707 45.9776609,22.9145195 C45.9776609,23.303372 45.9620679,23.6868643 45.9411147,24.0693821 C43.1460549,23.7935795 40.3358894,23.5630942 37.520851,23.3896212" id="path162"></path>
                            </g>
                            <g id="g164" transform="translate(127.879733, 7.869633) scale(-1, 1) rotate(-180.000000) translate(-127.879733, -7.869633) translate(123.737821, 1.291302)" fill="#E85830">
                                <path d="M4.38555415,13.1566618 C1.46331323,13.1566618 0.156905379,11.8522032 0.156905379,8.93386067 L0.156905379,0.0316734465 C3.03041792,0.876136223 5.68757645,1.75909442 8.12691912,2.6634931 L8.12691912,13.1566618 L4.38555415,13.1566618 Z" id="path166"></path>
                            </g>
                            <g id="g168" transform="translate(65.605402, 11.036978) scale(-1, 1) rotate(-180.000000) translate(-65.605402, -11.036978) translate(26.622701, 0.316734)" fill="#E85830">
                                <path d="M73.5798547,20.4659182 L68.4823788,20.4659182 L65.6200737,20.4659182 L44.8549616,20.4659182 C42.9545548,20.949791 40.9469455,21.2114624 38.8540615,21.2114624 C36.7606903,21.2114624 34.753081,20.949791 32.8526742,20.4659182 L4.63553083,20.4659182 C1.65481579,20.4659182 0.412242086,19.1614596 0.412242086,16.2431171 L0.661731395,4.02934948 C3.28331827,3.58056113 5.91757453,3.17465375 8.54793251,2.80139439 L8.54793251,12.2064584 C8.54793251,13.0762599 9.04447471,13.572802 9.9142763,13.572802 L21.5408679,13.572802 C18.7146218,10.3406488 16.8449139,6.26988024 16.2660207,1.73716664 C19.1005506,1.35757259 21.8824539,1.00624099 24.6351201,0.707536043 C25.4898159,7.70541821 30.8221626,12.9544389 37.5232895,13.572802 L40.1843463,13.572802 C47.0384804,12.940795 52.463411,7.46421275 53.1251424,0.226099682 C55.9143549,0.40444554 58.7401137,0.632007059 61.5385846,0.896602144 C61.0941817,5.76700339 59.166487,10.141837 56.1662806,13.572802 L65.6200737,13.572802 L67.2032588,13.572802 L68.2928254,13.572802 C69.1636016,13.572802 69.6616056,13.0762599 69.6616056,12.2064584 L69.6616056,1.78492045 C72.5151396,2.14209945 75.2531873,2.53728659 77.807529,2.95878704 L77.807529,16.2431171 C77.807529,19.1614596 76.5649553,20.4659182 73.5798547,20.4659182" id="path170"></path>
                            </g>
                            <g id="g172" transform="translate(4.673297, 7.625991) scale(-1, 1) rotate(-180.000000) translate(-4.673297, -7.625991) translate(0.531385, 1.291302)" fill="#E85830">
                                <path d="M3.89827026,12.669378 L0.0604231916,12.669378 L0.0394699889,2.98704953 C2.58309133,2.03197334 5.21686018,1.1714302 7.9144632,0.388852466 L8.12155881,8.44657689 C8.12155881,11.3649194 6.87898516,12.669378 3.89827026,12.669378" id="path174"></path>
                            </g>
                        </g>
                    </g>
                </g>
            </g>
        </g>
    </g>
</svg>