<?xml version="1.0" encoding="UTF-8"?>
<svg width="129px" height="60px" viewBox="0 0 129 60" version="1.1" xmlns="http://www.w3.org/2000/svg" xmlns:xlink="http://www.w3.org/1999/xlink">
    <!-- Generator: sketchtool 53 (72520) - https://sketchapp.com -->
    <title>7B587B46-06F6-43D6-AA85-718415B8EF7B</title>
    <desc>Created with sketchtool.</desc>
    <g id="QUI-SOMMES-NOUS" stroke="none" stroke-width="1" fill="none" fill-rule="evenodd">
        <g id="Qui-sommes-nous" transform="translate(-927.000000, -2172.000000)" fill-rule="nonzero">
            <g id="SERVICE-PUBLIC" transform="translate(0.000000, 1840.000000)">
                <g id="Group-2" transform="translate(203.000000, 332.000000)">
                    <g id="6.-logos/logos--cnam-copy-3" transform="translate(716.788976, 0.000000)">
                        <g id="UniversiteÌ_de_Strasbourg" transform="translate(7.510667, 0.000000)">
                            <g id="g2536" transform="translate(77.968141, 9.974119) scale(-1, 1) rotate(-180.000000) translate(-77.968141, -9.974119) translate(61.006024, 0.112423)" fill="#1B62B7">
                                <path d="M0,0 L10.1784537,0 C10.1784537,0 14.6410684,8.12682657 33.7905097,10.5149349 C33.4390389,15.5968642 33.1136029,19.5202414 33.1136029,19.5202414 C33.1136029,19.5202414 6.50004108,17.6985889 0,0" id="path2538"></path>
                            </g>
                            <g id="g2540" transform="translate(50.028382, 47.430413) scale(-1, 1) rotate(-180.000000) translate(-50.028382, -47.430413) translate(32.277329, 35.399145)" fill="#1B62B7">
                                <path d="M26.0348771,24.0625382 L35.2784419,24.0625382 C35.2784419,24.0625382 34.093066,4.1691306 1.00589298,0.304134708 C0.602352386,5.43813363 0.314785335,9.29918484 0.314785335,9.29918484 C0.314785335,9.29918484 22.4744104,11.3606738 26.0348771,24.0625382" id="path2542"></path>
                            </g>
                            <g id="g2544" transform="translate(32.543596, 26.864446) scale(-1, 1) rotate(-180.000000) translate(-32.543596, -26.864446) translate(0.000000, 23.314235)" fill="#231F20">
                                <path d="M0,5.12808178 C0.306895963,5.09770776 0.351865294,5.07522309 0.351865294,4.74584246 L0.351865294,2.01967528 C0.351865294,0.858361988 1.0260108,0.319124464 2.17193981,0.319124464 C3.32536371,0.319124464 3.99950921,0.858361988 3.99950921,2.01967528 L3.99950921,4.74584246 C3.99950921,5.07522309 4.04447854,5.09770776 4.35176897,5.12808178 L4.35176897,5.23261576 C4.11942743,5.23261576 3.88708588,5.18804089 3.68511836,5.18804089 C3.30287905,5.18804089 3.06343708,5.23261576 2.83109553,5.23261576 L2.83109553,5.12808178 C2.99598308,5.12019243 3.26579907,5.07522309 3.26579907,4.80580157 L3.26579907,1.87727239 C3.26579907,1.08320865 2.78652067,0.693868903 2.17193981,0.693868903 C1.56564277,0.693868903 1.0859699,1.08320865 1.0859699,1.87727239 L1.0859699,4.80580157 C1.0859699,5.07522309 1.35578589,5.12019243 1.52067344,5.12808178 L1.52067344,5.23261576 C1.2883319,5.23261576 1.04849546,5.18804089 0.666650613,5.18804089 C0.464288622,5.18804089 0.232341545,5.23261576 0,5.23261576 L0,5.12808178 Z M6.50871912,0.813787097 C6.50871912,0.603930224 6.41878045,0.543971117 6.12687426,0.499001787 L6.12687426,0.39407335 C6.37381112,0.39407335 6.62114245,0.43904268 6.86847379,0.43904268 C7.07793621,0.43904268 7.2877931,0.39407335 7.49725552,0.39407335 L7.49725552,0.499001787 C7.09292599,0.566455782 6.97300776,0.678879107 6.97300776,1.18064216 L6.97300776,4.40896669 L6.98799754,4.40896669 L9.90193144,0.39407335 L10.3437354,0.39407335 L10.3437354,4.8132962 C10.3437354,5.02315307 10.4332796,5.08271771 10.7255803,5.12808151 L10.7255803,5.23261547 C10.478249,5.23261547 10.2313121,5.18804061 9.98398075,5.18804061 C9.77412387,5.18804061 9.56466145,5.23261547 9.35480456,5.23261547 L9.35480456,5.12808151 C9.75952856,5.06023304 9.87905231,4.94820419 9.87905231,4.44644113 L9.87905231,1.73486943 L9.864457,1.73486943 L7.31737818,5.23261547 C7.13040043,5.23261547 6.96551287,5.18804061 6.76354534,5.18804061 C6.55368845,5.18804061 6.33633668,5.23261547 6.12687426,5.23261547 L6.12687426,5.12808151 C6.41878045,5.08271771 6.50871912,5.02315307 6.50871912,4.8132962 L6.50871912,0.813787097 Z M12.4707056,0.39407335 C12.6280982,0.39407335 12.9349942,0.43904268 13.2194055,0.43904268 C13.5042112,0.43904268 13.8111072,0.39407335 13.9684999,0.39407335 L13.9684999,0.499001787 C13.6765937,0.543971117 13.586655,0.603930224 13.586655,0.813787097 L13.586655,4.8132962 C13.586655,5.02315307 13.6765937,5.08271771 13.9684999,5.12808151 L13.9684999,5.23261547 C13.8111072,5.23261547 13.5042112,5.18804061 13.2194055,5.18804061 C12.9349942,5.18804061 12.6280982,5.23261547 12.4707056,5.23261547 L12.4707056,5.12808151 C12.7626117,5.08271771 12.8525504,5.02315307 12.8525504,4.8132962 L12.8525504,0.813787097 C12.8525504,0.603930224 12.7626117,0.543971117 12.4707056,0.499001787 L12.4707056,0.39407335 Z M15.3317815,5.12808151 C15.6690515,5.09770748 15.7286161,4.95569907 15.7960701,4.79081153 L17.4437622,0.39407335 L17.9455253,0.39407335 L19.4137346,4.72335754 C19.4886835,4.94820419 19.6235915,5.09770748 19.8630335,5.12808151 L19.8630335,5.23261547 C19.6756612,5.23261547 19.4886835,5.18804061 19.3013113,5.18804061 C19.0764646,5.18804061 18.8445175,5.23261547 18.6200653,5.23261547 L18.6200653,5.12808151 C18.7695686,5.09770748 18.9719306,5.05313262 18.9719306,4.90323486 C18.9719306,4.8132962 18.9344562,4.67089332 18.8744971,4.48391558 L17.8035169,1.26308593 L17.7885271,1.26308593 L16.5901339,4.58844954 C16.5601543,4.67089332 16.5076901,4.82828597 16.5076901,4.91072974 C16.5076901,5.05313262 16.6051236,5.12019215 16.8895349,5.12808151 L16.8895349,5.23261547 C16.6650827,5.23261547 16.4552259,5.18804061 16.2378741,5.18804061 C15.938473,5.18804061 15.6311825,5.23261547 15.3317815,5.23261547 L15.3317815,5.12808151 Z M21.7205811,0.858361989 C21.7205811,0.648899568 21.6306424,0.588940457 21.3387362,0.543971124 L21.3387362,0.43904268 L25.1433784,0.43904268 C25.1512678,0.851261568 25.1808529,1.2555911 25.2183273,1.66741552 L25.0759244,1.66741552 C24.9410164,0.986169567 24.6715949,0.858361989 24.0424187,0.858361989 L22.4546857,0.858361989 L22.4546857,2.74589058 L23.518171,2.74589058 C23.787987,2.74589058 23.9374903,2.72340591 23.9899545,2.31158149 L24.1398523,2.31158149 C24.1173676,2.52893327 24.094883,2.7309008 24.094883,2.96324236 C24.094883,3.18059413 24.1173676,3.38256167 24.1398523,3.59991344 L23.9899545,3.59991344 C23.9374903,3.18769456 23.787987,3.16560436 23.518171,3.16560436 L22.4546857,3.16560436 L22.4546857,4.76832717 L24.1698318,4.76832717 C24.4992125,4.76832717 24.7540387,4.67838851 24.8439774,4.07919186 L24.9938751,4.07919186 C24.9635011,4.44644142 24.9489058,4.82079139 24.9489058,5.18804095 L21.3387362,5.18804095 L21.3387362,5.08271804 C21.6306424,5.0377487 21.7205811,4.97778959 21.7205811,4.76832717 L21.7205811,0.858361989 Z M27.3456933,0.813787137 C27.3456933,0.603930243 27.2557547,0.543971131 26.963454,0.499001797 L26.963454,0.39407335 C27.1208467,0.39407335 27.4277427,0.439042684 27.7125484,0.439042684 C27.9969597,0.439042684 28.3042502,0.39407335 28.4616428,0.39407335 L28.4616428,0.499001797 C28.1693422,0.543971131 28.0794035,0.603930243 28.0794035,0.813787137 L28.0794035,4.76832728 L28.4841275,4.76832728 C29.1133037,4.76832728 29.7499748,4.66339883 29.7499748,3.95177884 C29.7499748,3.29262307 29.2028479,2.97073731 28.4241684,2.97073731 C28.3642093,2.97073731 28.2817655,2.94075775 28.2817655,2.89578842 C28.2817655,2.86580886 28.3417246,2.79835486 28.4316633,2.67883111 L29.397715,1.38300424 C30.0044065,0.536476242 30.0793554,0.416558017 30.1617992,0.39407335 C30.348777,0.39407335 30.5436441,0.439042684 30.7385112,0.439042684 C30.8655298,0.439042684 30.9929429,0.39407335 31.1278509,0.39407335 L31.1278509,0.499001797 C30.9104991,0.521486464 30.7235214,0.70885869 30.4986747,0.993270006 L29.1204041,2.77626466 C29.839519,2.83622378 30.483685,3.28512818 30.483685,4.0492124 C30.483685,4.67089372 30.1318196,5.18804106 29.1353939,5.18804106 L26.963454,5.18804106 L26.963454,5.08271815 C27.2557547,5.03774882 27.3456933,4.9777897 27.3456933,4.76832728 L27.3456933,0.813787137 Z M32.5885663,1.83230297 C32.6181513,1.44256878 32.6331411,1.06072394 32.6331411,0.671384217 C33.0603498,0.409063124 33.5321333,0.319124464 33.9964219,0.319124464 C35.3896823,0.319124464 36.0188585,1.0232495 36.0188585,1.85478764 C36.0188585,2.85081885 35.3072385,3.03819106 34.3711664,3.22556327 C33.4496895,3.41254101 33.1573889,3.49498478 33.1573889,4.03422228 C33.1573889,4.50640024 33.5696077,4.88824508 34.3786613,4.88824508 C34.902909,4.88824508 35.5170954,4.67089332 35.6220239,4.0192325 L35.7715272,4.0192325 C35.7490425,4.36399736 35.7340527,4.71586265 35.7419421,5.06023304 C35.4717316,5.22512059 34.8129703,5.30756436 34.498185,5.30756436 C33.2922969,5.30756436 32.5136174,4.66339843 32.5136174,3.92219342 C32.5136174,3.00821151 33.2102476,2.77626444 34.498185,2.52143823 C35.0153323,2.4165098 35.3746925,2.29659158 35.3746925,1.69739498 C35.3746925,1.03074439 34.7530112,0.738838212 34.2062788,0.738838212 C33.4721742,0.738838212 32.9179469,1.11318816 32.7380696,1.83230297 L32.5885663,1.83230297 Z M37.6890337,0.39407335 C37.8464264,0.39407335 38.1533224,0.43904268 38.4381281,0.43904268 C38.7225394,0.43904268 39.0294354,0.39407335 39.1868281,0.39407335 L39.1868281,0.499001787 C38.8949219,0.543971117 38.8049832,0.603930224 38.8049832,0.813787097 L38.8049832,4.8132962 C38.8049832,5.02315307 38.8949219,5.08271771 39.1868281,5.12808151 L39.1868281,5.23261547 C39.0294354,5.23261547 38.7225394,5.18804061 38.4381281,5.18804061 C38.1533224,5.18804061 37.8464264,5.23261547 37.6890337,5.23261547 L37.6890337,5.12808151 C37.9809399,5.08271771 38.0712731,5.02315307 38.0712731,4.8132962 L38.0712731,0.813787097 C38.0712731,0.603930224 37.9809399,0.543971117 37.6890337,0.499001787 L37.6890337,0.39407335 Z M42.2427719,0.933310894 C42.2427719,0.678879134 42.1532277,0.543971131 41.7709884,0.499001797 L41.7709884,0.39407335 C42.0628946,0.39407335 42.3851748,0.439042684 42.6100215,0.439042684 C42.8348681,0.439042684 43.1567539,0.39407335 43.4486601,0.39407335 L43.4486601,0.499001797 C43.0668152,0.543971131 42.9768765,0.678879134 42.9768765,0.933310894 L42.9768765,4.76832728 L43.6660118,4.76832728 C44.0853312,4.76832728 44.295188,4.63341927 44.430096,3.95927373 L44.5795993,3.95927373 C44.5275296,4.37149263 44.4825603,4.77582217 44.4600756,5.18804106 L40.7599673,5.18804106 C40.7374827,4.77582217 40.6925133,4.37149263 40.6400491,3.95927373 L40.7899469,3.95927373 C40.9248549,4.63341927 41.1343173,4.76832728 41.5540311,4.76832728 L42.2427719,4.76832728 L42.2427719,0.933310894 Z M47.4560586,5.70439919 L47.800429,5.70439919 L48.8639143,6.37104979 C49.013812,6.46098845 49.1712047,6.59589644 49.1712047,6.73080444 C49.1712047,6.83573287 49.0587814,7.02271062 48.8639143,7.02271062 C48.7739756,7.02271062 48.6844314,6.97813575 48.4221103,6.70831977 L47.4560586,5.70439919 Z M46.5270853,0.858361989 C46.5270853,0.648899568 46.4371466,0.588940457 46.1452404,0.543971124 L46.1452404,0.43904268 L49.9502771,0.43904268 C49.9573775,0.851261568 49.9873571,1.2555911 50.0248315,1.66741552 L49.8824286,1.66741552 C49.7479151,0.986169567 49.4780991,0.858361989 48.8489229,0.858361989 L47.2611899,0.858361989 L47.2611899,2.74589058 L48.3246752,2.74589058 C48.5944912,2.74589058 48.744389,2.72340591 48.7964587,2.31158149 L48.9463565,2.31158149 C48.9238718,2.52893327 48.9013872,2.7309008 48.9013872,2.96324236 C48.9013872,3.18059413 48.9238718,3.38256167 48.9463565,3.59991344 L48.7964587,3.59991344 C48.744389,3.18769456 48.5944912,3.16560436 48.3246752,3.16560436 L47.2611899,3.16560436 L47.2611899,4.76832717 L48.976336,4.76832717 C49.3061111,4.76832717 49.5605429,4.67838851 49.6504816,4.07919186 L49.8003793,4.07919186 C49.7703998,4.44644142 49.75541,4.82079139 49.75541,5.18804095 L46.1452404,5.18804095 L46.1452404,5.08271804 C46.4371466,5.0377487 46.5270853,4.97778959 46.5270853,4.76832717 L46.5270853,0.858361989 Z M54.5975019,5.18804095 L54.5975019,5.08271804 C54.8898026,5.0377487 54.9793468,4.97778959 54.9793468,4.76832717 L54.9793468,0.858361989 C54.9793468,0.648899568 54.8898026,0.588940457 54.5975019,0.543971124 L54.5975019,0.43904268 L56.5820696,0.43904268 C58.0652686,0.43904268 59.2861466,1.41298377 59.2861466,2.84332414 C59.2861466,4.2590692 58.2751255,5.18804095 56.3726072,5.18804095 L54.5975019,5.18804095 Z M55.713452,4.76832698 L56.0881964,4.76832698 C58.1402181,4.76832698 58.5520425,3.55494398 58.5520425,2.70092116 C58.5520425,1.54789173 57.5260316,0.85836199 56.7619475,0.85836199 L55.713452,0.85836199 L55.713452,4.76832698 Z M61.435603,0.858361989 C61.435603,0.648899568 61.3456643,0.588940457 61.0537581,0.543971124 L61.0537581,0.43904268 L64.8584003,0.43904268 C64.8658952,0.851261568 64.8958748,1.2555911 64.9337437,1.66741552 L64.7913408,1.66741552 C64.6564328,0.986169567 64.3866168,0.858361989 63.7574406,0.858361989 L62.1697076,0.858361989 L62.1697076,2.74589058 L63.2331929,2.74589058 C63.5030089,2.74589058 63.6525122,2.72340591 63.7053709,2.31158149 L63.8548742,2.31158149 C63.8323895,2.52893327 63.8099048,2.7309008 63.8099048,2.96324236 C63.8099048,3.18059413 63.8323895,3.38256167 63.8548742,3.59991344 L63.7053709,3.59991344 C63.6525122,3.18769456 63.5030089,3.16560436 63.2331929,3.16560436 L62.1697076,3.16560436 L62.1697076,4.76832717 L63.8848537,4.76832717 C64.2142344,4.76832717 64.4690606,4.67838851 64.5589992,4.07919186 L64.708897,4.07919186 C64.6789175,4.44644142 64.6635332,4.82079139 64.6635332,5.18804095 L61.0537581,5.18804095 L61.0537581,5.08271804 C61.3456643,5.0377487 61.435603,4.97778959 61.435603,4.76832717 L61.435603,0.858361989 Z" id="path2546"></path>
                            </g>
                            <g id="g2548" transform="translate(98.691511, 27.538590) scale(-1, 1) rotate(-180.000000) translate(-98.691511, -27.538590) translate(69.303657, 24.777315)" fill="#1B62B7">
                                <path d="M0.394467828,1.97233912 C0.431942272,1.53803005 0.454426939,1.0212772 0.454426939,0.429575458 C0.956190018,0.250092597 1.53290198,0.159759465 2.0796344,0.159759465 C3.30051233,0.159759465 4.29693807,0.684007205 4.29693807,1.67293804 C4.29693807,2.64648464 3.59281299,2.92379552 2.83622369,3.14114729 L2.04965484,3.36559948 C1.74275887,3.45553815 1.38339868,3.57545637 1.38339868,3.98728078 C1.38339868,4.50403363 2.0121804,4.62395185 2.38692484,4.62395185 C3.06067589,4.62395185 3.66776188,4.30167163 3.82476007,3.61293081 L3.96716296,3.61293081 C3.93718341,4.00227055 3.90720385,4.4590643 3.90720385,4.99830181 C3.47289477,5.15569448 2.98612147,5.23813825 2.51394348,5.23813825 C1.39838845,5.23813825 0.274944076,4.88587848 0.274944076,3.72535414 C0.274944076,2.84135174 1.03863379,2.519466 1.80271798,2.29461934 L2.33446061,2.13722667 C2.67883103,2.03229823 3.14311967,1.91277448 3.14311967,1.46308116 C3.14311967,0.901358977 2.50684306,0.774340338 2.06503909,0.774340338 C1.26348046,0.774340338 0.686374022,1.15618519 0.536870715,1.97233912 L0.394467828,1.97233912 Z M8.4684355,4.41409516 L9.21792439,4.41409516 C9.60686968,4.41409516 9.77175723,4.14467362 9.84670612,3.60543608 L9.98910901,3.60543608 C9.97411923,3.91982695 9.94413968,4.23461229 9.94413968,4.54900316 L9.94413968,5.07364539 L5.88467116,5.07364539 L5.88467116,4.54900316 C5.88467116,4.23461229 5.85469161,3.91982695 5.83970183,3.60543608 L5.98210472,3.60543608 C6.05665914,4.14467362 6.2215467,4.41409516 6.61088645,4.41409516 L7.35998088,4.41409516 L7.35998088,0.878874337 C7.35998088,0.51951413 7.09765976,0.422080573 6.86571268,0.422080573 L6.86571268,0.279677681 C7.22546734,0.302162348 7.58482754,0.324647015 7.91420819,0.324647015 C8.2439833,0.324647015 8.6033435,0.302162348 8.96309817,0.279677681 L8.96309817,0.422080573 C8.73075661,0.422080573 8.4684355,0.51951413 8.4684355,0.878874337 L8.4684355,4.41409516 Z M13.052546,4.41409516 L13.5468142,4.41409516 C14.2209597,4.41409516 14.6702586,4.17465318 14.6702586,3.57545652 C14.6702586,2.90131098 14.2434444,2.75141319 13.1495851,2.6090103 L13.1495851,2.59402052 C13.6442478,1.91277456 14.2209597,1.10372101 14.6627637,0.279677681 C14.9250848,0.302162348 15.1795166,0.324647015 15.4343428,0.324647015 C15.689169,0.324647015 15.9510957,0.302162348 16.2055274,0.279677681 L16.2055274,0.44456524 C16.0110548,0.429575462 15.8761468,0.527009019 15.726249,0.736865913 L14.5057655,2.42203254 C15.5317763,2.69145408 15.7787132,3.21570185 15.7787132,3.79990873 C15.7787132,4.66892139 15.1195575,5.07364539 14.2584342,5.07364539 L11.5993265,5.07364539 L11.5993265,4.9312425 C11.8541527,4.92335315 11.9436969,4.82631406 11.9436969,4.61645716 L11.9436969,0.953823227 C11.9436969,0.60195791 11.8916272,0.474544796 11.5993265,0.422080573 L11.5993265,0.279677681 C11.9291016,0.302162348 12.2210078,0.324647015 12.4983187,0.324647015 C12.7756296,0.324647015 13.0675358,0.302162348 13.5393193,0.279677681 L13.5393193,0.422080573 C13.1050102,0.504524352 13.052546,0.60195791 13.052546,0.871773915 L13.052546,4.41409516 Z M17.1344996,0.279677681 C17.3968207,0.302162346 17.6512524,0.324647011 17.913179,0.324647011 C18.1680052,0.324647011 18.4299319,0.302162346 18.6847581,0.279677681 L18.6847581,0.422080559 C18.4378212,0.437070336 18.3328928,0.527008996 18.3328928,0.661522518 C18.3328928,0.73686587 18.3553775,0.818915173 18.3924574,0.92384361 L18.7222325,1.80784597 L20.1825523,1.80784597 L20.4223888,1.08123627 C20.4598632,0.983802717 20.4973377,0.811814753 20.4973377,0.706886316 C20.4973377,0.534503884 20.3999041,0.474544778 20.1229877,0.422080559 L20.1229877,0.279677681 C20.4448734,0.302162346 20.7671536,0.324647011 21.0890394,0.324647011 C21.4034302,0.324647011 21.7257104,0.302162346 22.0404957,0.279677681 L22.0404957,0.422080559 C21.8156491,0.482039666 21.7032258,0.579473214 21.5908024,0.908853833 L20.2129264,5.1182198 C19.9805848,5.09573514 19.7407484,5.07364494 19.5088013,5.07364494 C19.2764598,5.07364494 19.0445127,5.09573514 18.8046763,5.1182198 L18.8046763,4.97621139 C19.0070383,4.97621139 19.089482,4.85629318 19.089482,4.7813443 C19.089482,4.70639541 19.0366234,4.60146698 18.9920485,4.48904365 L17.5238393,0.766450955 C17.4488904,0.571978326 17.3514569,0.452060113 17.1344996,0.422080559 L17.1344996,0.279677681 Z M18.9470789,2.37706306 C19.1415515,2.90880568 19.381388,3.50050741 19.5537704,4.09970403 L19.5687602,4.09970403 C19.7182635,3.34311475 19.8456766,2.86383635 20.0030693,2.37706306 L18.9470789,2.37706306 Z M23.320937,1.97233912 C23.3584114,1.53803005 23.3808961,1.0212772 23.3808961,0.429575458 C23.8826592,0.250092597 24.4593712,0.159759465 25.0061036,0.159759465 C26.2269815,0.159759465 27.2234072,0.684007205 27.2234072,1.67293804 C27.2234072,2.64648464 26.5192822,2.92379552 25.7626929,3.14114729 L24.9765185,3.36559948 C24.669228,3.45553815 24.3098678,3.57545637 24.3098678,3.98728078 C24.3098678,4.50403363 24.9386496,4.62395185 25.313394,4.62395185 C25.9875395,4.62395185 26.5942311,4.30167163 26.7512292,3.61293081 L26.8936321,3.61293081 C26.8636526,4.00227055 26.833673,4.4590643 26.833673,4.99830181 C26.3993639,5.15569448 25.9125906,5.23813825 25.4408071,5.23813825 C24.3248576,5.23813825 23.2014132,4.88587848 23.2014132,3.72535414 C23.2014132,2.84135174 23.965103,2.519466 24.7291872,2.29461934 L25.2609298,2.13722667 C25.6053002,2.03229823 26.0695888,1.91277448 26.0695888,1.46308116 C26.0695888,0.901358977 25.4333122,0.774340338 24.9915083,0.774340338 C24.1899496,0.774340338 23.6132377,1.15618519 23.4633399,1.97233912 L23.320937,1.97233912 Z M30.3464105,2.45950695 L31.0505356,2.45950695 C31.9045584,2.45950695 32.1739799,2.07766208 32.1739799,1.7254023 C32.1739799,1.34316297 31.9870022,0.93883344 30.9980713,0.93883344 L30.3464105,0.93883344 L30.3464105,2.45950695 Z M30.3464105,4.45906428 L30.9609914,4.45906428 C31.5597935,4.45906428 31.8745789,4.2271172 31.8745789,3.83738299 C31.8745789,3.48551769 31.664722,3.07329882 30.8706582,3.07329882 L30.3464105,3.07329882 L30.3464105,4.45906428 Z M29.2379549,0.781440764 C29.2379549,0.571978343 29.1480162,0.474544788 28.8935845,0.467049899 L28.8935845,0.324647011 L31.6047619,0.324647011 C32.069445,0.324647011 33.2824336,0.59446301 33.2824336,1.69542274 C33.2824336,2.46700182 32.6311672,2.79638247 31.9341425,2.81886713 L31.9341425,2.83385691 C32.4812694,2.96876491 32.9380632,3.35060977 32.9380632,3.92732175 C32.9380632,4.81881906 32.0844348,5.07364528 31.6047619,5.07364528 L28.8935845,5.07364528 L28.8935845,4.93124239 C29.1480162,4.92335303 29.2379549,4.82631395 29.2379549,4.61645706 L29.2379549,0.781440764 Z M38.6302354,2.37706318 C38.6302354,1.56051476 38.1884314,0.878874346 37.4243472,0.878874346 C36.3533671,0.878874346 35.9640273,2.1597114 35.9640273,3.03582446 C35.9640273,3.63541557 36.2409437,4.51902351 37.1699155,4.51902351 C38.2933599,4.51902351 38.6302354,3.24607581 38.6302354,2.37706318 L38.6302354,2.37706318 Z M39.7390837,2.69145397 C39.7390837,4.02475522 38.8176068,5.23813825 37.2898328,5.23813825 C35.9115622,5.23813825 34.8555718,4.20463255 34.8555718,2.78139263 C34.8555718,1.41061694 35.7616644,0.159759465 37.2523584,0.159759465 C38.5927601,0.159759465 39.7390837,1.11121586 39.7390837,2.69145397 L39.7390837,2.69145397 Z M41.6861767,1.88279489 C41.6861767,0.601957888 42.4052916,0.159759465 43.7531882,0.159759465 C45.1014792,0.159759465 45.8205941,0.601957888 45.8205941,1.98732886 L45.8205941,4.66142619 C45.8205941,4.87128307 45.9105328,4.96832215 46.1649645,4.97621151 L46.1649645,5.11821992 C45.9255226,5.09573525 45.6182321,5.07364506 45.3038412,5.07364506 C44.914107,5.07364506 44.607211,5.09573525 44.3074155,5.11821992 L44.3074155,4.97621151 C44.6296957,4.96082726 44.7121395,4.90086815 44.7121395,4.60896197 L44.7121395,1.83033067 C44.7121395,0.998792511 44.3602742,0.818915187 43.7531882,0.818915187 C43.1464967,0.818915187 42.7946313,0.983802734 42.7946313,1.83033067 L42.7946313,4.60896197 C42.7946313,4.90086815 42.8770751,4.96082726 43.1989609,4.97621151 L43.1989609,5.11821992 C42.8995598,5.09573525 42.5926638,5.07364506 42.2029296,5.07364506 C41.8885387,5.07364506 41.5812483,5.09573525 41.3418063,5.11821992 L41.3418063,4.97621151 C41.5962381,4.96832215 41.6861767,4.87128307 41.6861767,4.66142619 L41.6861767,1.88279489 Z M49.3033527,4.41409516 L49.7976209,4.41409516 C50.4717664,4.41409516 50.9210653,4.17465318 50.9210653,3.57545652 C50.9210653,2.90131098 50.4942511,2.75141319 49.4007862,2.6090103 L49.4007862,2.59402052 C49.8950544,1.91277456 50.4717664,1.10372101 50.9135704,0.279677681 C51.1758915,0.302162348 51.4303233,0.324647015 51.6851495,0.324647015 C51.9395812,0.324647015 52.2019023,0.302162348 52.4567286,0.279677681 L52.4567286,0.44456524 C52.2618614,0.429575462 52.1269534,0.527009019 51.9774501,0.736865913 L50.7561777,2.42203254 C51.782583,2.69145408 52.0295199,3.21570185 52.0295199,3.79990873 C52.0295199,4.66892139 51.3707586,5.07364539 50.5092409,5.07364539 L47.8501332,5.07364539 L47.8501332,4.9312425 C48.1049594,4.92335315 48.1948981,4.82631406 48.1948981,4.61645716 L48.1948981,0.953823227 C48.1948981,0.60195791 48.1424339,0.474544796 47.8501332,0.422080573 L47.8501332,0.279677681 C48.1799083,0.302162348 48.4718145,0.324647015 48.7491254,0.324647015 C49.0260418,0.324647015 49.3183425,0.302162348 49.790126,0.279677681 L49.790126,0.422080573 C49.3558169,0.504524352 49.3033527,0.60195791 49.3033527,0.871773915 L49.3033527,4.41409516 Z M57.234914,1.47057605 C57.234914,1.12620564 56.9430078,0.878874311 56.4112651,0.878874311 C55.5422524,0.878874311 55.0180047,1.86741068 55.0180047,2.79638241 C55.0180047,3.76243412 55.5272627,4.57898252 56.5682633,4.57898252 C57.1899446,4.57898252 57.8191208,4.24960188 57.9165544,3.58295126 L58.1039266,3.58295126 C58.0739471,4.09970411 58.0589573,4.54900296 58.0589573,4.91625251 C57.6471329,5.14819959 57.1299855,5.23813825 56.6136271,5.23813825 C54.99552,5.23813825 53.90955,4.2346121 53.90955,2.60901019 C53.90955,1.26111363 54.8085422,0.159759465 56.216398,0.159759465 C56.725656,0.159759465 57.2203187,0.317152128 57.6917077,0.758956092 L57.8644846,0.279677684 L58.2983993,0.279677684 L58.2983993,1.96484424 C58.2983993,2.30211423 58.4333073,2.36956822 58.6956284,2.37706311 L58.6956284,2.54905108 C58.3583584,2.52696089 58.0289777,2.50447622 57.6917077,2.50447622 C57.3773169,2.50447622 57.0700264,2.52696089 56.7631304,2.54905108 L56.7631304,2.36207334 C57.1004004,2.35457845 57.234914,2.33958867 57.234914,2.04018759 L57.234914,1.47057605 Z" id="path2550"></path>
                            </g>
                        </g>
                    </g>
                </g>
            </g>
        </g>
    </g>
</svg>