<?xml version="1.0" encoding="UTF-8"?>
<svg width="146px" height="81px" viewBox="0 0 146 81" version="1.1" xmlns="http://www.w3.org/2000/svg" xmlns:xlink="http://www.w3.org/1999/xlink">
    <!-- Generator: Sketch 50.2 (55047) - http://www.bohemiancoding.com/sketch -->
    <title>Home Sco V2</title>
    <desc>Created with Sketch.</desc>
    <defs></defs>
    <g id="SCO" stroke="none" stroke-width="1" fill="none" fill-rule="evenodd">
        <g id="Home-Sco-V2" transform="translate(-260.000000, -686.000000)">
            <g id="6.-logos/logos--marianne" transform="translate(275.000000, 692.000000)">
                <rect id="Rectangle-15" fill="#FFFFFF" x="0" y="0" width="120" height="73.5"></rect>
                <g id="Marianne" stroke-width="1" transform="translate(3.000000, 3.900000)">
                    <path d="M35.3035814,23.4906667 C34.2809682,23.7826667 33.2396893,23.832 32.3037382,24.3386667 C34.5316217,24.248 36.7608385,24.6066667 38.9060596,25.2893333 C39.6740195,25.544 40.3526507,25.884 41.047281,26.304 C41.38593,26.572 41.5592542,26.8373333 41.901903,27.0013333 C42.3365469,27.2586667 42.9311825,27.2586667 43.3618266,27.0973333 L43.7858045,27.0973333 C45.0710706,26.748 46.453665,26.4026667 47.3056204,25.4666667 C47.3056204,25.544 47.3936158,25.544 47.4709451,25.544 C47.2216248,26.2306667 47.2216248,27.0013333 46.7083183,27.6093333 C46.7083183,27.6946667 46.6149899,27.8613333 46.7829811,27.944 L46.9643049,27.944 C46.8749763,27.944 46.7829811,27.944 46.7829811,28.028 C46.7829811,28.196 47.040301,28.028 47.1362959,28.196 C46.7083183,28.2933333 46.2723411,28.384 46.0176878,28.7266667 C46.0176878,28.8106667 46.1896788,28.8106667 46.2750076,28.8106667 C46.1136827,28.972 45.8510298,28.896 45.7603679,29.0693333 C45.7603679,29.0693333 45.8510298,29.1493333 45.9350254,29.1493333 C45.8510298,29.1493333 45.7603679,29.1493333 45.7603679,29.2413333 L45.7603679,29.4933333 C45.5110476,29.4933333 45.427052,29.6666667 45.2403951,29.7466667 C45.5897101,30.0106667 45.8510298,29.7466667 46.1896788,29.7466667 C45.2403951,30.0986667 44.4804348,30.6066667 43.5191517,30.8666667 C43.3631599,30.8666667 43.5191517,31.1133333 43.3631599,31.1133333 C43.6244796,31.2973333 43.7871377,31.028 44.0484574,31.028 C42.8458536,31.7226667 41.6485829,32.3266667 40.3539839,33.0986667 C40.3539839,33.0986667 40.1833262,33.2693333 40.1833262,33.4373333 L39.843344,33.4373333 C39.676686,33.5373333 39.7580151,33.7786667 39.5926904,33.9506667 C40.0100019,34.212 40.5273082,33.6213333 40.7886279,33.9506667 C40.8726235,33.9506667 40.6179701,34.0466667 40.4446459,34.0466667 C40.3539839,34.0466667 40.3539839,34.212 40.2659885,34.212 L40.0086687,34.212 C39.8420107,34.3813333 39.6740195,34.4586667 39.6740195,34.7173333 C39.5020285,34.7173333 39.3287042,34.7173333 39.2473751,34.8893333 C41.1352764,34.6413333 43.10584,34.8146667 44.9004129,33.868 C46.2750076,33.1773333 47.561607,32.228 48.6762154,31.028 C48.6762154,31.028 48.7562112,31.1133333 48.7562112,31.2093333 C48.5082242,32.0613333 47.9922512,32.6733333 47.3082869,33.1786667 C46.7843143,33.4373333 46.4549982,33.8693333 46.019021,34.0466667 C45.7617011,34.2133333 45.5137141,34.3826667 45.2417283,34.5586667 C42.079227,35.66 38.3020912,35.1626667 35.559568,37.296 C35.559568,37.2053333 35.468906,37.2053333 35.3862437,37.2053333 C35.2129194,37.3933333 34.9542663,37.472 34.8716039,37.6493333 C34.8716039,37.808 35.1329236,37.7333333 35.2129194,37.7333333 C35.7328922,37.3933333 36.2435322,37.1266667 36.8421676,36.9546667 C36.1555368,37.2973333 35.4929048,37.988 34.7862751,37.988 L30.5078321,37.988 C31.351788,37.4746667 32.2184094,36.8666667 33.1556937,36.356 C32.9010403,36.1946667 32.6490535,36.1946667 32.3757345,36.1946667 C31.9597562,36.2733333 31.4424499,36.012 31.0104725,36.1946667 C29.7305395,36.7813333 28.0106294,36.62 27.3253319,37.9906667 L1.82533201,37.9906667 L1.8,0 L52.7800008,0 C51.7560544,0.517333333 50.8214366,0.852 50.0534767,1.796 C49.366846,2.668 48.6762154,3.50533333 48.4255619,4.53466667 C47.3082869,5.22133333 46.6163231,6.264 46.0176878,7.288 C45.2403951,8.74 44.1337863,10.0306667 44.3004442,11.664 C44.4804348,13.032 44.8164172,14.3186667 45.0697373,15.7813333 C45.164399,16.2946667 45.2390618,16.7293333 45.4257187,17.2333333 C45.5883769,17.744 45.4257187,18.352 45.6790388,18.7826667 C45.8510298,19.0386667 45.7603679,19.3773333 46.1123495,19.552 L46.1123495,19.8906667 C46.1896788,19.9773333 46.1896788,20.064 46.3656696,20.064 L46.3656696,20.4133333 C47.040301,21.2773333 47.9042558,22.024 48.3375665,22.9866667 C48.5055577,23.5 47.4709451,23.2413333 47.040301,23.0666667 C46.1896788,22.6373333 45.6790388,21.9573333 44.9844085,21.3493333 C44.9844085,21.3493333 44.8990796,21.44 44.8990796,21.5266667 C45.2390618,22.124 46.534994,22.9 45.8496965,23.3173333 C45.5097143,23.5013333 45.0697373,23.0666667 44.7350882,23.4146667 C44.6417597,23.58 44.7350882,23.7493333 44.7350882,23.924 C44.2217817,23.58 43.7058087,23.7493333 43.1858358,23.58 C42.8445204,23.5 42.7578582,22.8053333 42.3365469,22.8053333 C41.213939,22.5546667 40.1819929,22.296 39.0687178,22.2133333 C37.5367979,22.024 36.0702079,21.7786667 34.5302885,22.024 C33.1530272,22.112 32.1317472,23.1453333 31.2677924,24.1733333 L31.2677924,24.444 C31.8704276,24.5133333 32.1317472,23.9986667 32.6477202,23.832 C33.4956759,23.6533333 34.2756351,23.3066667 35.1329236,23.1453333 C36.4168565,22.888 37.6167937,22.544 38.8073981,22.6266667 C39.0700511,22.6266667 39.4140331,22.544 39.676686,22.6266667 C38.128767,22.544 36.7621718,23.0573333 35.3035814,23.4906667 Z" id="Fill-5" fill="#004493"></path>
                    <path d="M77.5660719,32.5893333 C77.7708818,31.9706667 77.9929809,31.3026667 77.6538476,30.688 C77.1418227,29.9226667 78.1618826,29.6586667 78.5089955,29.156 C78.7603532,28.7293333 78.3321142,28.464 78.2483283,28.036 C78.1632125,27.8626667 77.8200894,27.9493333 77.6538476,27.688 C78.2483283,27.436 79.1872622,26.92 78.7603532,26.1506667 C78.5089955,25.7333333 78.0887362,25.048 78.5941113,24.612 C79.1885921,24.2653333 80.1288559,24.356 80.3855333,23.7493333 C80.8111123,22.7173333 79.8695186,21.8626667 79.3548339,21.0066667 C79.1048062,20.5 78.7603532,20.156 78.4225498,19.628 C78.0887362,19.0373333 77.6538476,18.5146667 77.4849459,17.8293333 C77.218959,17.1493333 77.5660719,16.5386667 77.5660719,15.8573333 C77.6538476,14.58 77.3080646,13.2866667 76.9729211,12.0133333 C76.7149137,11.404 76.6258081,10.6986667 76.3678008,10.108 C76.282685,9.76933333 76.1935794,9.432 75.9395619,9.08666667 C75.855776,8.91333333 75.855776,8.65466667 75.9395619,8.484 C76.282685,8.22533333 76.6271381,7.97066667 76.974251,7.62933333 C77.2202889,7.196 77.055377,6.59866667 76.6271381,6.33466667 C76.0246777,6.08266667 76.1084636,6.944 75.6842144,7.11333333 L75.427537,7.11333333 C75.346411,6.852 75.5206325,6.77866667 75.6842144,6.59866667 C75.6842144,6.51866667 75.6842144,6.33466667 75.6004285,6.33466667 C75.2626251,6.33466667 74.9181721,6.25866667 74.8290665,6.08266667 C73.9779083,4.88 72.7809672,4.28933333 71.4962503,3.76666667 C71.8340537,3.85333333 72.1705272,3.93866667 72.5269496,3.93866667 C73.1147807,4.02533333 73.7957073,4.02533333 74.3210314,3.76666667 C74.7439506,3.6 74.8277365,2.912 74.9992981,2.48 C75.16421,2.14 74.9168421,1.61466667 74.7426207,1.37333333 C74.3197015,0.68 73.069563,0 73.069563,0 L113.328014,0 L113.333333,37.9893333 L65.3333333,37.9893333 C65.8453582,36.272 66.7922716,34.6346667 68.3270161,33.54 C68.6661495,33.352 69.1010381,33.2733333 69.5279471,33.1853333 C70.9802357,33.1853333 72.4351842,33.604 73.8808231,33.7773333 C74.0537146,33.7773333 74.2332558,33.8653333 74.4021574,33.9586667 C74.9181721,34.0373333 75.5206325,34.0373333 76.0246777,33.8666667 C76.6271381,33.696 77.3080646,33.3533333 77.5660719,32.5893333" id="Fill-17" fill="#E1001A"></path>
                    <path d="M29.9093333,27.4356 C29.644,27.5142667 29.3813333,27.6969333 29.4733333,27.8636 C29.728,28.2169333 30.2453333,27.7782667 30.672,27.7782667 C30.1573333,27.9529333 29.5573333,27.8636 29.1293333,28.3036 C29.4733333,28.5609333 29.8146667,28.3809333 30.1573333,28.3809333 C30.1573333,28.5609333 30.336,28.5609333 30.412,28.6462667 C29.9866667,28.8129333 29.644,29.1516 29.5573333,29.4169333 C29.3826667,29.8422667 28.956,30.0169333 28.6986667,30.3609333 L28.6986667,30.6076 C27.8466667,31.3889333 26.9026667,31.9022667 26.2093333,32.8409333 C26.3053333,32.8409333 26.3053333,32.9276 26.3053333,33.0182667 C26.1226667,33.2729333 25.7866667,33.3662667 25.704,33.6142667 C25.704,33.6982667 25.704,33.7876 25.788,33.7876 C26.8106667,33.4622667 27.588,32.6822667 28.5333333,32.3316 C29.2106667,32.1622667 29.7293333,31.7382667 30.3373333,31.5636 C30.7573333,31.4769333 31.276,31.2956 31.7106667,31.2156 C31.7106667,31.2956 31.7106667,31.3889333 31.78,31.3889333 L32.4813333,31.3889333 C32.3853333,31.5636 32.052,31.4756 32.1306667,31.5636 C32.3853333,31.8276 32.9013333,31.7382667 33.2453333,31.5636 C33.508,31.3889333 33.764,31.3889333 34.1026667,31.3889333 C34.1906667,31.3889333 34.1906667,31.2156 34.1906667,31.1369333 C34.4493333,31.2156 34.6186667,31.2156 34.872,31.2156 C36.944,30.7849333 38.908,30.3609333 40.788,29.4169333 C38.5546667,27.6982667 35.7306667,27.1022667 33.0773333,26.3249333 C33.3266667,26.3249333 33.5866667,26.5902667 33.8466667,26.3249333 C33.42,25.9956 32.9,26.1449333 32.4786667,25.9076 C32.5586667,25.9076 32.7373333,25.9942667 32.82,25.8222667 C32.1293333,25.4622667 31.448,25.4622667 30.756,25.3076 C31.1866667,25.2169333 31.448,24.8689333 31.448,24.4449333 C31.448,24.3569333 31.2746667,24.3569333 31.1866667,24.3569333 C30.1586667,24.8689333 29.4746667,25.8222667 29.0506667,26.9396 C29.6453333,27.2742667 30.3373333,27.0142667 30.9346667,27.1022667 C30.672,27.3529333 30.2466667,27.3529333 29.9093333,27.4356" id="Fill-7" fill="#FFFFFF"></path>
                    <path d="M26.3885333,24.0873333 C25.5058667,25.0313333 24.5938667,25.906 23.4645333,26.498 C22.6965333,28.034 21.8352,29.4153333 20.7192,30.862 C20.7192,30.9486667 20.8125333,31.0406667 20.8125333,31.0406667 C22.8685333,28.734 24.7592,26.7633333 27.4112,25.1286667 C27.5872,25.0513333 27.1552,25.3766667 27.5045333,25.306 C28.6138667,25.0513333 28.9538667,23.9206667 29.4738667,23.07 C30.1565333,21.9486667 31.3618667,21.5233333 32.2258667,20.586 C32.2258667,20.6673333 32.2258667,20.7473333 32.1298667,20.8446667 C32.2258667,20.9206667 32.3085333,20.9206667 32.3845333,20.9206667 C32.7418667,20.666 33.1592,20.7473333 33.4205333,20.4153333 C32.7418667,20.1526667 31.8698667,20.0713333 31.1872,20.3233333 C29.3832,21.17 27.8458667,22.5473333 26.3885333,24.0873333" id="Fill-9" fill="#FFFFFF"></path>
                    <path d="M27.6717333,25.7246667 C27.7544,25.57 27.8464,25.5553333 27.9317333,25.382 C27.9317333,25.306 27.9317333,25.2153333 27.8464,25.2153333 C27.5050667,25.306 27.2397333,25.6486667 27.1557333,25.994 C27.1557333,26.0673333 27.2397333,26.0673333 27.3357333,26.0673333 C27.5050667,25.994 27.5877333,25.906 27.6717333,25.7246667" id="Fill-11" fill="#FFFFFF"></path>
                    <path d="M34.5362667,32.2416 C34.1896,32.4162667 33.5869333,32.4162667 33.5069333,32.8376 C33.4229333,33.0149333 33.7629333,32.9242667 33.9349333,32.9242667 C34.5362667,32.6776 35.2242667,32.9242667 35.7309333,32.4162667 C35.5576,32.2416 35.2989333,32.3296 35.1349333,32.0602667 C34.9642667,31.9909333 34.7069333,32.1629333 34.5362667,32.2416" id="Fill-13" fill="#FFFFFF"></path>
                    <path d="M43.8122667,36.7957333 C44.3336,36.6850667 44.8402667,36.3744 45.3522667,36.1984 L45.3522667,36.3744 C46.6376,35.8517333 47.5856,34.7397333 48.8629333,34.3170667 C48.9522667,34.3170667 49.1216,34.4784 49.2922667,34.3984 C50.0709333,33.7104 50.9269333,32.9317333 52.0362667,33.1170667 C52.0362667,33.1904 52.0362667,33.2810667 52.1229333,33.2810667 C52.2136,33.2810667 52.2976,33.2810667 52.2976,33.1904 C51.9469333,33.4504 51.6149333,33.7104 51.2656,33.9664 C51.1936,34.0530667 51.2656,34.1330667 51.3522667,34.1330667 C51.7802667,33.9664 52.0349333,33.6197333 52.4682667,33.4504 C52.3762667,33.5410667 52.3762667,33.7090667 52.2962667,33.8024 C50.6696,35.0010667 48.1762667,37.9064 48.1762667,37.9064 L36.5136,37.9064 C38.2296,37.6517333 39.9469333,37.0597333 41.6669333,36.8797333 C42.3496,36.8797333 43.0389333,36.9664 43.8122667,36.7957333" id="Fill-15" fill="#2C4390"></path>
                    <path d="M74.4158667,15.6114667 C73.8932,15.4821333 73.4692,15.6114667 72.9492,15.6114667 C72.2612,15.7754667 71.6678667,15.8634667 71.0692,16.1168 C71.5838667,15.7754667 72.1038667,15.4394667 72.6932,15.2661333 C73.1198667,15.1741333 73.5532,14.9221333 73.9758667,14.9221333 C74.4985333,14.8221333 75.0132,14.6648 75.4452,14.8221333 C75.8678667,14.9968 76.5545333,14.9968 76.6438667,15.2661333 C76.8212,15.7754667 76.3852,16.2981333 75.8678667,16.6301333 C75.7852,16.8034667 76.1252,16.8981333 76.1252,17.0648 C76.0478667,17.2394667 75.7878667,17.3181333 75.6158667,17.3181333 C75.4465333,17.4061333 75.2678667,17.6701333 75.0998667,17.8421333 C75.2678667,17.8421333 75.0998667,18.0994667 75.2678667,18.0994667 C74.9252,18.5288 75.4465333,19.3741333 74.9252,19.5461333 C74.3305333,19.7234667 73.6505333,19.7234667 72.9518667,19.5461333 C73.2945333,19.4594667 73.7252,19.6328 73.9772,19.2994667 L73.9772,18.9541333 C73.9772,18.8581333 73.8918667,18.8581333 73.8172,18.8581333 C73.7265333,18.9541333 73.6518667,18.9541333 73.6518667,18.9541333 C73.6518667,18.7714667 73.4718667,18.6048 73.3892,18.6048 C72.8758667,18.6994667 72.4372,18.4328 72.1065333,18.0994667 C72.3558667,18.0021333 72.6198667,17.9154667 72.8758667,18.0021333 C73.1238667,18.0021333 73.0358667,17.5741333 73.2958667,17.4088 L73.5545333,17.4088 C74.0745333,16.7208 75.1012,16.5634667 75.2692,15.8634667 C75.2665333,15.6781333 74.7518667,15.6781333 74.4158667,15.6114667" id="Fill-19" fill="#9DA0A1"></path>
                    <path d="M4.07733333,57.5834667 C3.85466667,57.5834667 3.65333333,57.6234667 3.412,57.6674667 C3.412,58.3261333 3.40133333,59.5261333 3.40133333,60.4488 C3.52133333,60.4634667 3.74133333,60.4834667 3.884,60.4834667 C4.80266667,60.4834667 5.42933333,59.9168 5.42933333,59.0341333 C5.428,58.1834667 4.85066667,57.5834667 4.07733333,57.5834667 M6.95333333,64.5808 C6.53466667,64.5808 6.30133333,64.5154667 6.07866667,64.3714667 C5.69333333,64.1194667 5.304,63.4514667 5.09066667,63.0634667 C4.70533333,62.4101333 4.276,61.7021333 3.876,61.1048 C3.80666667,61.1234667 3.75066667,61.1234667 3.70666667,61.1234667 C3.604,61.1234667 3.508,61.1048 3.39866667,61.1048 L3.39866667,61.7021333 C3.39866667,62.0061333 3.40933333,62.3061333 3.40933333,62.6074667 C3.41733333,63.2154667 3.436,63.4834667 3.52,63.7181333 C3.63333333,63.9981333 3.828,64.1434667 4.20266667,64.1794667 L4.20266667,64.4941333 L3.944,64.4741333 C3.65066667,64.4701333 3.24933333,64.4741333 2.72533333,64.4741333 C2.21333333,64.4741333 1.80933333,64.4701333 1.51066667,64.4741333 L1.244,64.4941333 L1.244,64.1781333 C1.52266667,64.1541333 1.664,64.0981333 1.79066667,63.9648 C1.91333333,63.7994667 2.00133333,63.6034667 2.01333333,63.3514667 C2.04933333,63.0168 2.06266667,62.8074667 2.06266667,61.7021333 L2.06266667,59.8141333 C2.06266667,58.4528 2.01333333,58.1288 1.93866667,57.8088 C1.856,57.5114667 1.63733333,57.3914667 1.24133333,57.3421333 L1.24133333,57.0341333 C1.468,57.0514667 1.69333333,57.0368 1.912,57.0368 C2.496,57.0368 2.67733333,57.0368 3.364,57.0114667 C3.97333333,56.9861333 4.32,56.9768 4.59866667,56.9768 C5.348,56.9768 5.80933333,57.0874667 6.19333333,57.3501333 C6.60266667,57.6568 6.9,58.2341333 6.9,58.8128 C6.9,59.7408 6.292,60.4834667 5.25733333,60.8634667 C5.68933333,61.4021333 6.02266667,61.9474667 6.41466667,62.5448 C6.77066667,63.1208 7.128,63.6221333 7.41066667,63.8941333 C7.564,64.0581333 7.66533333,64.1194667 7.88,64.1781333 L7.88,64.4928 C7.58933333,64.5514667 7.30133333,64.5808 6.95333333,64.5808" id="Fill-21" fill="#000000"></path>
                    <path d="M12.6885333,64.3529333 C12.6085333,64.4929333 12.5138667,64.5209333 12.0085333,64.5209333 C11.6938667,64.5209333 11.3938667,64.5022667 11.0778667,64.4929333 C10.6352,64.4729333 10.1885333,64.4676 9.7432,64.4676 C9.29786667,64.4676 8.85253333,64.4676 8.41253333,64.4929333 L8.41253333,64.2302667 C8.82986667,64.1929333 9.01653333,63.9662667 9.04853333,63.5476 C9.07653333,63.2742667 9.07653333,62.9689333 9.07653333,62.4969333 L9.07653333,59.8876 C9.07653333,59.3929333 9.04853333,59.1662667 8.97386667,58.9662667 C8.8872,58.7276 8.72586667,58.6142667 8.41253333,58.5862667 L8.41253333,58.3289333 L12.7325333,58.3289333 C12.7325333,58.5996 12.7298667,58.8742667 12.7298667,59.1369333 C12.7298667,59.3716 12.7178667,59.5782667 12.7325333,59.7916 L12.4045333,59.7916 C12.3405333,59.0729333 12.0312,58.8889333 10.9338667,58.8889333 C10.7352,58.8889333 10.4618667,58.8969333 10.2378667,58.9022667 C10.2218667,59.2769333 10.2138667,59.3929333 10.2138667,59.9302667 L10.2138667,61.0009333 C10.3618667,61.0076 10.4618667,61.0076 10.6338667,61.0076 C11.5898667,61.0076 11.8765333,60.8729333 11.9432,60.3689333 L12.2765333,60.3689333 C12.2538667,60.5129333 12.2538667,60.8236 12.2538667,61.2822667 C12.2538667,61.7502667 12.2605333,62.0382667 12.2765333,62.1742667 L11.9432,62.1742667 C11.9138667,61.6622667 11.6658667,61.5276 10.7165333,61.5276 C10.5432,61.5276 10.3792,61.5396 10.2138667,61.5396 C10.2138667,62.1009333 10.2218667,62.7049333 10.2218667,63.2876 C10.2218667,63.6729333 10.2872,63.7982667 10.5098667,63.8529333 C10.6458667,63.8889333 10.8632,63.9036 11.1498667,63.9036 C12.1498667,63.9036 12.4898667,63.6782667 12.7138667,62.9116 L13.0672,62.9782667 C12.9405333,63.6409333 12.7885333,64.1782667 12.6885333,64.3529333 Z M10.6352,57.7209333 L10.1952,57.4716 L11.1085333,56.1169333 L12.1672,56.3076 L10.6352,57.7209333 Z" id="Fill-23" fill="#000000"></path>
                    <path d="M16.5401333,61.7377333 C16.4561333,61.7377333 16.4028,61.7377333 16.2854667,61.7244 L16.0774667,61.2670667 C16.9481333,61.2177333 17.4254667,60.7857333 17.4254667,60.0764 C17.4254667,59.3444 16.9214667,58.8137333 16.2161333,58.8137333 C16.0988,58.8137333 16.0161333,58.8244 15.8694667,58.8497333 C15.8694667,59.4324 15.8441333,59.9897333 15.8441333,60.5617333 L15.8441333,62.1817333 C15.8441333,63.3950667 15.8534667,63.5977333 15.9548,63.8484 C16.0361333,64.0857333 16.1961333,64.1950667 16.5054667,64.2297333 L16.5054667,64.4910667 L16.2908,64.4724 C16.0428,64.4670667 15.7188,64.4670667 15.2721333,64.4670667 C14.8441333,64.4670667 14.4988,64.4670667 14.2628,64.4724 L14.0428,64.4910667 L14.0428,64.2297333 C14.4628,64.1924 14.6441333,63.9644 14.6868,63.5457333 C14.7148,63.2737333 14.7148,63.1070667 14.7148,62.1817333 L14.7148,59.8870667 C14.7148,59.3924 14.6868,59.1657333 14.6121333,58.9657333 C14.5241333,58.7270667 14.3614667,58.6124 14.0441333,58.5857333 L14.0441333,58.3257333 C14.1508,58.3284 14.0828,58.3284 14.4681333,58.3284 C14.6281333,58.3284 14.8454667,58.3284 15.1441333,58.3257333 C15.6241333,58.2977333 16.0881333,58.2764 16.5588,58.2764 C17.8734667,58.2764 18.6561333,58.9230667 18.6561333,59.9910667 C18.6561333,61.0137333 17.7561333,61.7377333 16.5401333,61.7377333" id="Fill-25" fill="#000000"></path>
                    <path d="M24.9346667,58.7885333 C24.8386667,58.9312 24.7893333,59.1112 24.768,59.4832 C24.7506667,59.8885333 24.744,60.1832 24.744,60.7578667 C24.744,60.9645333 24.7506667,61.5992 24.7506667,62.2472 C24.7506667,62.8925333 24.652,63.2885333 24.3853333,63.6738667 C23.9626667,64.2818667 23.2546667,64.6032 22.332,64.6032 C21.7533333,64.6032 21.304,64.4938667 20.8933333,64.2178667 C20.2426667,63.8005333 19.992,63.2552 19.992,62.2672 C19.992,61.2778667 20.0146667,60.8458667 20.0146667,60.5152 C20.0146667,60.0472 20.0453333,59.5672 19.964,59.0858667 C19.9066667,58.7605333 19.728,58.6125333 19.3506667,58.5885333 L19.3506667,58.3298667 L19.5546667,58.3298667 C19.7893333,58.3485333 20.1293333,58.3485333 20.5773333,58.3485333 C21.0173333,58.3485333 21.36,58.3485333 21.6013333,58.3298667 L21.8173333,58.3298667 L21.8173333,58.5885333 C21.536,58.6138667 21.3866667,58.7032 21.2906667,58.8525333 C21.2146667,58.9872 21.1786667,59.1725333 21.1706667,59.5858667 C21.1573333,60.1512 21.1413333,60.7365333 21.1413333,61.3205333 C21.1413333,62.9058667 21.1786667,63.2178667 21.464,63.5498667 C21.688,63.8018667 22.0693333,63.9765333 22.5066667,63.9765333 C23.1266667,63.9765333 23.7266667,63.6752 23.9133333,63.0498667 C24.0386667,62.6592 24.056,62.3632 24.056,61.3205333 L24.056,60.4125333 C24.056,59.3618667 24.0226667,59.0232 23.9186667,58.8738667 C23.82,58.7112 23.676,58.6138667 23.4346667,58.5885333 L23.4346667,58.3298667 C23.8106667,58.3485333 23.936,58.3485333 24.3946667,58.3485333 C24.8733333,58.3485333 25.004,58.3485333 25.3613333,58.3298667 L25.3613333,58.5885333 C25.1706667,58.6112 25.036,58.6738667 24.9346667,58.7885333" id="Fill-27" fill="#000000"></path>
                    <path d="M28.6385333,61.3881333 C28.4758667,61.3881333 28.3105333,61.4014667 28.0598667,61.4134667 C28.0572,61.6654667 28.0572,61.7081333 28.0572,62.1241333 L28.0572,62.6774667 C28.0572,63.2014667 28.0732,63.4841333 28.1492,63.6601333 C28.2158667,63.8908 28.4385333,63.9974667 28.8252,63.9974667 C29.6172,63.9974667 30.0465333,63.5614667 30.0465333,62.7814667 C30.0465333,61.9188 29.5012,61.3881333 28.6385333,61.3881333 M28.6012,58.8028 C28.4385333,58.8028 28.2772,58.8254667 28.1038667,58.8254667 C28.0985333,59.4348 28.0732,60.4508 28.0598667,60.8521333 C28.1718667,60.8654667 28.3025333,60.8734667 28.4758667,60.8734667 C29.3825333,60.8734667 29.9118667,60.4921333 29.9118667,59.8174667 C29.9092,59.1854667 29.4185333,58.8028 28.6012,58.8028 M30.6185333,64.0561333 C30.1905333,64.3814667 29.6945333,64.5028 28.7545333,64.5028 C28.2572,64.5028 27.7398667,64.4694667 27.2438667,64.4694667 C27.0385333,64.4694667 26.6678667,64.4694667 26.4078667,64.4748 L26.2972,64.4948 L26.2972,64.2321333 C26.7265333,64.1948 26.8918667,63.9734667 26.9358667,63.5494667 C26.9598667,63.2761333 26.9718667,63.1054667 26.9718667,62.1841333 L26.9718667,60.4374667 C26.9718667,59.5868 26.9585333,59.2094667 26.8652,58.9694667 C26.7745333,58.7308 26.6052,58.6174667 26.2972,58.5894667 L26.2972,58.3308 C26.7225333,58.3508 26.9718667,58.3508 27.5678667,58.3508 C28.0998667,58.3508 28.9012,58.3174667 29.4265333,58.3174667 C30.2892,58.3174667 31.0572,58.7334667 31.0572,59.6854667 C31.0572,60.4094667 30.6185333,60.8774667 29.7425333,61.1054667 C30.7158667,61.3068 31.2372,61.8641333 31.2372,62.7628 C31.2372,63.3348 31.0385333,63.7401333 30.6185333,64.0561333" id="Fill-29" fill="#000000"></path>
                    <path d="M36.4502667,64.3666667 C36.3702667,64.4933333 36.2596,64.5213333 35.7942667,64.5213333 C35.5716,64.5213333 35.3236,64.5026667 35.0982667,64.5026667 C34.5222667,64.4733333 34.0062667,64.468 33.3689333,64.468 C32.9036,64.468 32.5822667,64.468 32.3036,64.4933333 L32.3036,64.2306667 C32.5209333,64.2173333 32.6409333,64.172 32.7556,64.048 C32.9169333,63.8533333 32.9676,63.6213333 32.9676,62.9306667 L32.9676,61.628 L32.9676,60.628 C32.9676,59.3933333 32.9676,59.2213333 32.8662667,58.9666667 C32.7796,58.728 32.6076,58.6146667 32.3036,58.5866667 L32.3036,58.328 L32.5209333,58.3306667 C32.7782667,58.348 33.1102667,58.348 33.5836,58.348 C34.0342667,58.348 34.3849333,58.348 34.6222667,58.3306667 L34.8529333,58.328 L34.8529333,58.5866667 C34.3849333,58.5866667 34.1769333,58.8373333 34.1262667,59.296 C34.1036,59.448 34.0996,59.5853333 34.0996,60.6306667 L34.0996,62.1746667 C34.0996,63.4653333 34.1036,63.624 34.2262667,63.76 C34.3249333,63.8546667 34.5222667,63.904 34.9196,63.904 C35.4276,63.904 35.7049333,63.8493333 35.9369333,63.724 C36.1969333,63.5693333 36.3836,63.304 36.4889333,62.9053333 L36.8289333,62.992 C36.7316,63.54 36.5636,64.196 36.4502667,64.3666667" id="Fill-31" fill="#000000"></path>
                    <path d="M39.6670667,64.4734667 C39.4404,64.4681333 39.0950667,64.4681333 38.6670667,64.4681333 C38.2137333,64.4681333 37.8910667,64.4681333 37.6430667,64.4734667 L37.4270667,64.4934667 L37.4270667,64.2308 C37.8564,64.1934667 38.0284,63.9734667 38.0617333,63.5481333 C38.0897333,63.2748 38.0964,63.1041333 38.0964,62.1828 L38.0964,60.6281333 C38.0964,60.4054667 38.0897333,60.1374667 38.0897333,59.8881333 C38.0897333,59.3934667 38.0657333,59.1668 37.9990667,58.9668 C37.9150667,58.7281333 37.7390667,58.6134667 37.4270667,58.5868 L37.4270667,58.3294667 L37.6430667,58.3414667 C37.8910667,58.3468 38.2137333,58.3468 38.6670667,58.3468 C39.0950667,58.3468 39.4404,58.3468 39.6670667,58.3414667 L39.8897333,58.3294667 L39.8897333,58.5868 C39.4937333,58.6161333 39.2924,58.8654667 39.2550667,59.2961333 C39.2177333,59.5574667 39.2177333,59.8054667 39.2177333,60.6308 L39.2177333,62.1841333 C39.2177333,63.3974667 39.2364,63.6001333 39.3284,63.8508 C39.4044,64.0881333 39.5777333,64.1974667 39.8897333,64.2321333 L39.8897333,64.4948 L39.6670667,64.4734667 Z" id="Fill-33" fill="#000000"></path>
                    <path d="M43.9425333,58.8458667 C42.8092,58.8458667 42.0092,59.7898667 42.0092,61.1098667 C42.0092,62.7112 42.9665333,63.9725333 44.1745333,63.9725333 C45.3145333,63.9725333 46.1158667,63.0138667 46.1158667,61.6752 C46.1158667,60.0872 45.1585333,58.8458667 43.9425333,58.8458667 M48.3065333,66.1552 C47.5878667,66.1552 46.8158667,65.9285333 46.0825333,65.5152 C45.6705333,65.2992 45.0825333,64.9005333 44.6612,64.5458667 C44.3465333,64.5952 44.2265333,64.6018667 43.9318667,64.6018667 C42.0652,64.6018667 40.8372,63.3752 40.8372,61.5418667 C40.8372,59.5778667 42.1692,58.2205333 44.1358667,58.2205333 C46.0265333,58.2205333 47.2998667,59.4485333 47.2998667,61.2685333 C47.2998667,62.5618667 46.6345333,63.7272 45.5692,64.2578667 C45.9078667,64.4192 46.2398667,64.6058667 46.5705333,64.8072 C47.5038667,65.3725333 48.1518667,65.6165333 48.7625333,65.6165333 C49.1412,65.6165333 49.4572,65.5352 49.8265333,65.3485333 L49.9412,65.6752 C49.4945333,65.9925333 48.9372,66.1552 48.3065333,66.1552" id="Fill-35" fill="#000000"></path>
                    <path d="M53.6970667,58.7885333 C53.5984,58.9312 53.5437333,59.1112 53.5290667,59.4832 C53.5117333,59.8885333 53.4984,60.1832 53.4984,60.7578667 C53.4984,60.9645333 53.5130667,61.5992 53.5130667,62.2472 C53.5130667,62.8925333 53.4117333,63.2885333 53.1410667,63.6738667 C52.7144,64.2818667 52.0170667,64.6032 51.0890667,64.6032 C50.4997333,64.6032 50.0730667,64.4938667 49.6504,64.2178667 C49.0117333,63.8005333 48.7584,63.2552 48.7584,62.2672 C48.7584,61.2778667 48.7770667,60.8458667 48.7770667,60.5152 C48.7770667,60.0472 48.7984,59.5672 48.7197333,59.0858667 C48.6597333,58.7605333 48.4944,58.6125333 48.1024,58.5885333 L48.1024,58.3298667 L48.3104,58.3298667 C48.5504,58.3485333 48.9077333,58.3485333 49.3357333,58.3485333 C49.7890667,58.3485333 50.1224,58.3485333 50.3690667,58.3298667 L50.5824,58.3298667 L50.5824,58.5885333 C50.2904,58.6138667 50.1544,58.7032 50.0610667,58.8525333 C49.9730667,58.9872 49.9464,59.1725333 49.9410667,59.5858667 C49.9064,60.1512 49.8984,60.7365333 49.8984,61.3205333 C49.8984,62.9058667 49.9464,63.2178667 50.2277333,63.5498667 C50.4584,63.8018667 50.8157333,63.9765333 51.2690667,63.9765333 C51.8890667,63.9765333 52.4850667,63.6752 52.6837333,63.0498667 C52.7957333,62.6592 52.8170667,62.3632 52.8170667,61.3205333 L52.8170667,60.4125333 C52.8170667,59.3618667 52.7877333,59.0232 52.6837333,58.8738667 C52.5837333,58.7112 52.4424,58.6138667 52.1984,58.5885333 L52.1984,58.3298667 C52.5744,58.3485333 52.7064,58.3485333 53.1664,58.3485333 C53.6290667,58.3485333 53.7610667,58.3485333 54.1277333,58.3298667 L54.1277333,58.5885333 C53.9290667,58.6112 53.7970667,58.6738667 53.6970667,58.7885333" id="Fill-37" fill="#000000"></path>
                    <path d="M59.3285333,64.3529333 C59.2472,64.4929333 59.1485333,64.5209333 58.6352,64.5209333 C58.3312,64.5209333 58.0285333,64.5022667 57.7098667,64.4929333 C57.2792,64.4729333 56.8245333,64.4676 56.3832,64.4676 C55.9432,64.4676 55.4978667,64.4676 55.0565333,64.4929333 L55.0565333,64.2302667 C55.4632,64.1929333 55.6578667,63.9662667 55.6965333,63.5476 C55.7232,63.2742667 55.7232,62.9689333 55.7232,62.4969333 L55.7232,59.8876 C55.7232,59.3929333 55.6965333,59.1662667 55.6152,58.9662667 C55.5392,58.7276 55.3605333,58.6142667 55.0578667,58.5862667 L55.0578667,58.3289333 L59.3712,58.3289333 L59.3712,59.1369333 C59.3712,59.3716 59.3632,59.5782667 59.3712,59.7916 L59.0418667,59.7916 C58.9832,59.0729333 58.6765333,58.8889333 57.5685333,58.8889333 C57.3712,58.8889333 57.1045333,58.8969333 56.8885333,58.9022667 C56.8752,59.2769333 56.8578667,59.3929333 56.8578667,59.9302667 L56.8578667,61.0009333 C56.9938667,61.0076 57.1058667,61.0076 57.2805333,61.0076 C58.2392,61.0076 58.5245333,60.8729333 58.5872,60.3689333 L58.9138667,60.3689333 C58.8925333,60.5129333 58.8925333,60.8236 58.8925333,61.2822667 C58.8925333,61.7502667 58.9072,62.0382667 58.9138667,62.1742667 L58.5872,62.1742667 C58.5472,61.6622667 58.3085333,61.5276 57.3565333,61.5276 C57.1858667,61.5276 57.0245333,61.5396 56.8592,61.5396 C56.8592,62.1009333 56.8778667,62.7049333 56.8778667,63.2876 C56.8778667,63.6729333 56.9338667,63.7982667 57.1618667,63.8529333 C57.2938667,63.8889333 57.5032,63.9036 57.7952,63.9036 C58.7938667,63.9036 59.1365333,63.6782667 59.3512,62.9116 L59.7178667,62.9782667 C59.5778667,63.6409333 59.4192,64.1782667 59.3285333,64.3529333" id="Fill-39" fill="#000000"></path>
                    <path d="M67.8793333,58.8242667 C67.8686667,58.0256 67.398,57.7162667 66.134,57.7162667 C65.8726667,57.7162667 65.6366667,57.7216 65.35,57.7549333 C65.3206667,58.5149333 65.3206667,59.0442667 65.3206667,60.2722667 C65.5886667,60.2722667 65.7286667,60.2829333 65.9153333,60.2829333 C66.962,60.2829333 67.2766667,60.1189333 67.33,59.5242667 L67.7353333,59.5242667 C67.7353333,59.8122667 67.7073333,60.1429333 67.7073333,60.4469333 C67.7073333,60.8709333 67.7353333,61.3016 67.7353333,61.7202667 L67.33,61.7202667 C67.262,61.0322667 66.9953333,60.9056 65.8153333,60.9056 C65.614,60.9056 65.5433333,60.9056 65.3206667,60.9136 L65.3206667,62.1696 C65.3206667,62.4096 65.3206667,62.6896 65.3326667,62.9762667 C65.3633333,63.5909333 65.4073333,64.1336 66.1353333,64.1789333 L66.1353333,64.4922667 L65.862,64.4789333 C65.5873333,64.4682667 65.178,64.4682667 64.654,64.4682667 C64.1166667,64.4682667 63.71,64.4682667 63.4153333,64.4789333 L63.1446667,64.4922667 L63.1446667,64.1789333 C63.6486667,64.1336 63.878,63.8482667 63.9206667,63.3509333 C63.962,63.0136 63.962,62.8056 63.962,61.6922667 L63.962,58.9002667 C63.962,58.3109333 63.9206667,58.0442667 63.8326667,57.8082667 C63.734,57.5216 63.5286667,57.3896 63.1433333,57.3322667 L63.1433333,57.0349333 L68.2993333,57.0349333 C68.2673333,57.2349333 68.2673333,57.6082667 68.2673333,58.0762667 C68.2673333,58.5162667 68.2673333,58.5789333 68.2993333,58.8256 L67.8793333,58.8256 L67.8793333,58.8242667 Z" id="Fill-41" fill="#000000"></path>
                    <path d="M71.688,58.7774667 C71.492,58.7774667 71.3333333,58.8028 71.1226667,58.8521333 L71.1226667,61.1561333 C71.2213333,61.1761333 71.4093333,61.1814667 71.5186667,61.1814667 C72.2773333,61.1814667 72.792,60.7214667 72.792,59.9841333 C72.792,59.3028 72.3253333,58.7774667 71.688,58.7774667 M74.0546667,64.5734667 C73.716,64.5734667 73.5306667,64.5174667 73.3333333,64.3814667 C73.0213333,64.1921333 72.7066667,63.6361333 72.5186667,63.3281333 C72.204,62.7561333 71.8493333,62.1814667 71.5146667,61.7001333 C71.4693333,61.7068 71.4253333,61.7068 71.3786667,61.7068 C71.2933333,61.7068 71.2226667,61.7001333 71.1226667,61.7001333 L71.1226667,62.1814667 L71.1226667,62.9268 C71.136,63.4374667 71.1506667,63.6414667 71.2213333,63.8414667 C71.3173333,64.0854667 71.4773333,64.1948 71.792,64.2294667 L71.792,64.4921333 L71.5746667,64.4774667 C71.3333333,64.4721333 71.0013333,64.4774667 70.572,64.4774667 C70.1506667,64.4774667 69.8133333,64.4721333 69.5746667,64.4774667 L69.3586667,64.4921333 L69.3586667,64.2294667 C69.5853333,64.2161333 69.6893333,64.1708 69.7973333,64.0468 C69.8986667,63.9268 69.968,63.7574667 69.9946667,63.5468 C70.0226667,63.2734667 70.0306667,63.1028 70.0306667,62.1814667 L70.0306667,60.6268 C70.0306667,59.5161333 69.9946667,59.2254667 69.9173333,58.9708 C69.856,58.7268 69.66,58.6121333 69.3586667,58.5854667 L69.3586667,58.3268 C69.5346667,58.3468 69.7173333,58.3294667 69.9,58.3294667 C70.3826667,58.3294667 70.5293333,58.3294667 71.1053333,58.3001333 C71.6,58.2921333 71.8893333,58.2774667 72.1106667,58.2774667 C72.7346667,58.2774667 73.112,58.3708 73.4373333,58.5988 C73.788,58.8454667 74.0053333,59.3268 74.0053333,59.8028 C74.0053333,60.5574667 73.5186667,61.1801333 72.668,61.4988 C73.0133333,61.9481333 73.292,62.3828 73.6146667,62.8908 C73.9133333,63.3628 74.2053333,63.7668 74.44,63.9974667 C74.5666667,64.1348 74.6413333,64.1934667 74.824,64.2308 L74.824,64.4934667 C74.584,64.5468 74.3506667,64.5734667 74.0546667,64.5734667" id="Fill-43" fill="#000000"></path>
                    <path d="M77.7374667,59.9525333 C77.4934667,60.5752 77.1561333,61.4018667 77.0228,61.8512 L78.3881333,61.8512 L77.7374667,59.9525333 Z M80.7241333,64.4792 C80.4961333,64.4738667 80.1641333,64.4738667 79.7348,64.4738667 C79.3054667,64.4738667 78.9721333,64.4738667 78.7441333,64.4792 L78.5281333,64.4925333 L78.5281333,64.2298667 C78.8214667,64.2165333 78.9961333,64.0565333 78.9961333,63.8005333 C78.9961333,63.7178667 78.9721333,63.5698667 78.8681333,63.3058667 C78.7681333,62.9512 78.6934667,62.7272 78.5841333,62.4125333 L76.8081333,62.4125333 L76.6228,62.9418667 C76.4801333,63.3658667 76.4121333,63.6752 76.4121333,63.8298667 C76.4121333,64.0952 76.5268,64.2178667 76.8321333,64.2312 L76.8321333,64.4938667 C76.4761333,64.4805333 76.3468,64.4752 75.9081333,64.4752 C75.4668,64.4752 75.3401333,64.4805333 74.9868,64.4938667 L74.9868,64.2312 C75.1294667,64.2178667 75.1721333,64.1952 75.2708,64.1085333 C75.4534667,63.9485333 75.6241333,63.6232 75.9081333,62.9138667 L76.7841333,60.6872 C77.0228,60.0792 77.3854667,59.1112 77.6361333,58.3272 L78.2628,58.3272 C78.3401333,58.6165333 78.5361333,59.0552 78.6641333,59.4058667 L79.9748,62.7378667 C80.1908,63.3058667 80.3508,63.6365333 80.4694667,63.8512 C80.5868,64.0605333 80.7241333,64.1818667 80.9508,64.2312 L80.9508,64.4938667 L80.7241333,64.4792 Z" id="Fill-45" fill="#000000"></path>
                    <path d="M87.3012,58.864 C87.2038667,59.0293333 87.1838667,59.184 87.1665333,59.6693333 C87.1358667,60.4973333 87.1278667,61.7986667 87.1278667,62.4093333 L87.1278667,63.828 C87.1278667,64.0333333 87.1598667,64.3666667 87.1598667,64.492 L86.5238667,64.492 C85.9198667,63.7173333 84.6785333,62.172 84.6785333,62.172 C84.5292,61.992 83.3838667,60.5693333 82.7905333,59.8533333 C82.7905333,60.0533333 82.7785333,59.9413333 82.7785333,60.5346667 L82.7785333,61.136 C82.7785333,61.824 82.7905333,62.5066667 82.8252,63.2013333 C82.8438667,63.5906667 82.8758667,63.7853333 82.9585333,63.9653333 C83.0625333,64.144 83.1945333,64.2226667 83.4625333,64.2293333 L83.4625333,64.492 C83.1412,64.4666667 82.8172,64.4666667 82.4972,64.4666667 C82.1558667,64.4666667 81.8292,64.4666667 81.4972,64.492 L81.4972,64.2293333 C82.1092,64.216 82.1292,63.7173333 82.1438667,63.2226667 C82.1572,62.8293333 82.1678667,62.508 82.1678667,61.9186667 L82.1678667,59.9746667 C82.1678667,59.196 82.1305333,59.0213333 81.9892,58.8133333 C81.8945333,58.672 81.7718667,58.6133333 81.4985333,58.5853333 L81.4985333,58.3266667 C81.8078667,58.3466667 81.9198667,58.3466667 82.3052,58.3466667 C82.6785333,58.3466667 82.7918667,58.3466667 83.1012,58.3266667 C83.2052,58.528 83.3918667,58.7146667 84.0278667,59.492 C84.9292,60.584 85.7465333,61.528 86.5052,62.492 L86.5052,60.4626667 C86.5052,59.5573333 86.4838667,59.3186667 86.4478667,59.0666667 C86.3852,58.7773333 86.2025333,58.6226667 85.8652,58.5853333 L85.8652,58.3266667 C86.2412,58.3466667 86.3705333,58.3466667 86.8425333,58.3466667 C87.3118667,58.3466667 87.4465333,58.3466667 87.8118667,58.3266667 L87.8118667,58.5853333 C87.5692,58.5986667 87.4398667,58.636 87.3012,58.864" id="Fill-47" fill="#000000"></path>
                    <path d="M93.7530667,64.2702667 C93.1530667,64.5036 92.6224,64.6022667 91.8957333,64.6022667 L91.8064,64.9622667 L91.9770667,64.9622667 C92.3317333,64.9622667 92.5664,65.2142667 92.5664,65.5156 C92.5664,66.0329333 92.1637333,66.3702667 91.5450667,66.3702667 C91.3624,66.3702667 91.1877333,66.3356 90.9850667,66.2636 L91.1157333,65.9036 C91.2424,65.9409333 91.3464,65.9769333 91.4464,65.9769333 C91.7077333,65.9769333 91.8824,65.8476 91.8824,65.6022667 C91.8824,65.4222667 91.7970667,65.3102667 91.6570667,65.3102667 C91.5690667,65.3102667 91.5130667,65.3476 91.4464,65.3822667 L91.2464,65.3209333 L91.4264,64.5822667 C90.6197333,64.5036 90.0237333,64.2422667 89.5237333,63.7276 C88.9597333,63.1356 88.6570667,62.3489333 88.6570667,61.4129333 C88.6570667,59.4209333 89.9317333,58.2209333 92.0477333,58.2209333 C92.6850667,58.2209333 93.3037333,58.2996 93.8384,58.4889333 C93.8184,58.6982667 93.8184,58.9009333 93.8184,59.1076 C93.8184,59.2756 93.8317333,59.6049333 93.8384,59.8142667 L93.4810667,59.8142667 C93.3290667,59.1649333 92.8024,58.8022667 91.9650667,58.8022667 C90.6677333,58.8022667 89.8690667,59.6702667 89.8690667,61.1049333 C89.8690667,62.7769333 90.8090667,63.9862667 92.0824,63.9862667 C92.8650667,63.9862667 93.3850667,63.6009333 93.6037333,62.8636 L93.9490667,62.9302667 C93.8770667,63.2529333 93.7810667,63.7756 93.7530667,64.2702667" id="Fill-49" fill="#000000"></path>
                    <path d="M97.1697333,59.9525333 C96.9257333,60.5752 96.5910667,61.4018667 96.4510667,61.8512 L97.8190667,61.8512 L97.1697333,59.9525333 Z M100.1564,64.4792 C99.9284,64.4738667 99.6004,64.4738667 99.1710667,64.4738667 C98.7377333,64.4738667 98.4017333,64.4738667 98.1710667,64.4792 L97.9630667,64.4925333 L97.9630667,64.2298667 C98.2537333,64.2165333 98.4257333,64.0565333 98.4257333,63.8005333 C98.4257333,63.7178667 98.4017333,63.5698667 98.3057333,63.3058667 C98.2004,62.9512 98.1204,62.7272 98.0057333,62.4125333 L96.2377333,62.4125333 L96.0550667,62.9418667 C95.9137333,63.3658667 95.8417333,63.6752 95.8417333,63.8298667 C95.8417333,64.0952 95.9657333,64.2178667 96.2564,64.2312 L96.2564,64.4938667 C95.9070667,64.4805333 95.7710667,64.4752 95.3444,64.4752 C94.9084,64.4752 94.7737333,64.4805333 94.4244,64.4938667 L94.4244,64.2312 C94.5590667,64.2178667 94.6070667,64.1952 94.7004,64.1085333 C94.8804,63.9485333 95.0657333,63.6232 95.3444,62.9138667 L96.2057333,60.6872 C96.4510667,60.0792 96.8084,59.1112 97.0657333,58.3272 L97.6964,58.3272 C97.7710667,58.6165333 97.9764,59.0552 98.0990667,59.4058667 L99.3964,62.7378667 C99.6230667,63.3058667 99.7844,63.6365333 99.9017333,63.8512 C100.025733,64.0605333 100.1564,64.1818667 100.381733,64.2312 L100.381733,64.4938667 L100.1564,64.4792 Z" id="Fill-51" fill="#000000"></path>
                    <path d="M103.167067,64.4734667 C102.955067,64.4681333 102.607067,64.4681333 102.1724,64.4681333 C101.717733,64.4681333 101.391067,64.4681333 101.1404,64.4734667 L100.9324,64.4934667 L100.9324,64.2308 C101.365733,64.1934667 101.5324,63.9734667 101.565733,63.5481333 C101.601733,63.2748 101.607067,63.1041333 101.607067,62.1828 L101.607067,60.6281333 C101.607067,60.4054667 101.601733,60.1374667 101.601733,59.8881333 C101.601733,59.3934667 101.577733,59.1668 101.5084,58.9668 C101.4164,58.7281333 101.249733,58.6134667 100.9324,58.5868 L100.9324,58.3294667 L101.1404,58.3414667 C101.391067,58.3468 101.717733,58.3468 102.1724,58.3468 C102.605733,58.3468 102.953733,58.3468 103.167067,58.3414667 L103.403067,58.3294667 L103.403067,58.5868 C103.005733,58.6161333 102.801733,58.8654667 102.767067,59.2961333 C102.731067,59.5574667 102.731067,59.8054667 102.731067,60.6308 L102.731067,62.1841333 C102.731067,63.3974667 102.7444,63.6001333 102.8404,63.8508 C102.917733,64.0881333 103.081733,64.1974667 103.403067,64.2321333 L103.403067,64.4948 L103.167067,64.4734667 Z" id="Fill-53" fill="#000000"></path>
                    <path d="M106.0512,64.6022667 C105.516533,64.6022667 105.1312,64.5262667 104.4952,64.2809333 C104.469867,63.9409333 104.401867,63.3956 104.3352,62.9502667 L104.680533,62.8996 C104.897867,63.6409333 105.3912,64.0342667 106.108533,64.0342667 C106.7712,64.0342667 107.208533,63.6996 107.208533,63.1756 C107.208533,62.7569333 106.924533,62.4729333 106.501867,62.2116 L105.533867,61.5916 C104.864533,61.1742667 104.481867,60.7356 104.481867,59.9169333 C104.481867,58.8742667 105.268533,58.2209333 106.481867,58.2209333 C107.0792,58.2209333 107.5752,58.3289333 107.997867,58.5476 L107.997867,59.1329333 L107.997867,59.8142667 L107.6592,59.8142667 C107.521867,59.1529333 107.112533,58.7769333 106.4672,58.7769333 C105.8832,58.7769333 105.468533,59.1369333 105.468533,59.6582667 C105.468533,60.0862667 105.7832,60.3809333 106.273867,60.7129333 L107.060533,61.2196 C107.804533,61.6956 108.229867,62.1716 108.229867,62.9049333 C108.229867,63.9222667 107.344533,64.6022667 106.0512,64.6022667" id="Fill-55" fill="#000000"></path>
                    <path d="M113.480933,64.3529333 C113.404933,64.4929333 113.306267,64.5209333 112.794267,64.5209333 C112.480933,64.5209333 112.1796,64.5022667 111.8596,64.4929333 C111.420933,64.4729333 110.9756,64.4676 110.534267,64.4676 C110.090267,64.4676 109.650267,64.4676 109.2196,64.4929333 L109.2196,64.2302667 C109.6156,64.1929333 109.8036,63.9662667 109.844933,63.5476 C109.872933,63.2742667 109.872933,62.9689333 109.872933,62.4969333 L109.872933,59.8876 C109.872933,59.3929333 109.844933,59.1662667 109.774267,58.9662667 C109.680933,58.7276 109.5276,58.6142667 109.220933,58.5862667 L109.220933,58.3289333 L113.536933,58.3289333 C113.536933,58.5996 113.5236,58.8742667 113.5236,59.1369333 C113.5236,59.3716 113.504933,59.5782667 113.536933,59.7916 L113.1996,59.7916 C113.1316,59.0729333 112.8196,58.8889333 111.724933,58.8889333 C111.524933,58.8889333 111.252933,58.8969333 111.032933,58.9022667 C111.012933,59.2769333 111.004933,59.3929333 111.004933,59.9302667 L111.004933,61.0009333 C111.144933,61.0076 111.254267,61.0076 111.422267,61.0076 C112.384933,61.0076 112.6716,60.8729333 112.736933,60.3689333 L113.064933,60.3689333 C113.0476,60.5129333 113.0476,60.8236 113.0476,61.2822667 C113.0476,61.7502667 113.0596,62.0382667 113.064933,62.1742667 L112.736933,62.1742667 C112.712933,61.6622667 112.4556,61.5276 111.5036,61.5276 C111.342267,61.5276 111.1756,61.5396 111.006267,61.5396 C111.006267,62.1009333 111.016933,62.7049333 111.016933,63.2876 C111.016933,63.6729333 111.0836,63.7982667 111.314267,63.8529333 C111.448933,63.8889333 111.6596,63.9036 111.940933,63.9036 C112.942267,63.9036 113.290267,63.6782667 113.5036,62.9116 L113.862267,62.9782667 C113.7316,63.6409333 113.5796,64.1782667 113.480933,64.3529333" id="Fill-57" fill="#000000"></path>
                    <path d="M4.41706667,48.6797333 C4.33173333,48.7797333 4.19706667,48.8264 3.87706667,48.8264 C3.43706667,48.8264 3.00373333,48.7930667 2.56773333,48.7797333 C2.18506667,48.7797333 1.8984,48.7637333 1.69973333,48.7637333 C1.4344,48.7637333 0.7744,48.7797333 0.579733333,48.7797333 L0.4584,48.7930667 L0.491733333,48.6024 C0.7624,48.5717333 0.929066667,48.4904 1.05573333,48.3250667 C1.19706667,48.1464 1.28373333,47.8877333 1.40773333,47.3890667 C1.52506667,46.8944 1.58373333,46.6050667 1.77573333,45.6797333 L1.91306667,44.9557333 C2.05973333,44.2424 2.11173333,43.8250667 2.11173333,43.6010667 C2.11173333,43.2077333 1.97306667,43.0330667 1.58373333,42.9904 L1.61973333,42.7997333 C1.6744,42.8144 1.71973333,42.8144 1.74373333,42.8144 L2.73706667,42.8144 L3.7504,42.8144 C3.7784,42.8144 3.8304,42.8144 3.8904,42.7997333 L3.85573333,42.9904 C3.58373333,43.0130667 3.4304,43.0757333 3.28906667,43.2624 C3.06773333,43.5597333 2.94373333,43.9344 2.60906667,45.6810667 L2.4904,46.2864 C2.35173333,47.0144 2.29706667,47.2597333 2.25306667,47.5984 C2.2344,47.7090667 2.2224,47.8237333 2.2224,47.8704 C2.2224,48.2317333 2.39706667,48.3384 2.98106667,48.3384 C3.99173333,48.3384 4.37706667,48.1264 4.70373333,47.3904 L4.9464,47.4877333 C4.72373333,48.0690667 4.52773333,48.5277333 4.41706667,48.6797333" id="Fill-59" fill="#000000"></path>
                    <path d="M6.11053333,48.8894667 C5.93186667,48.8894667 5.80653333,48.7934667 5.80653333,48.6308 C5.80653333,48.5534667 5.83453333,48.4068 5.88386667,48.2121333 C5.9972,47.7268 6.15853333,47.0814667 6.25453333,46.7454667 C6.37853333,46.2854667 6.42786667,45.9468 6.42786667,45.8148 C6.42786667,45.7028 6.37853333,45.6588 6.2772,45.6588 C6.19853333,45.6588 6.11186667,45.6814667 5.9332,45.7388 L5.86653333,45.7534667 L5.83586667,45.5041333 C6.33453333,45.3174667 6.8252,45.1961333 7.05986667,45.1961333 C7.2012,45.1961333 7.25853333,45.2468 7.25853333,45.3534667 C7.25853333,45.4561333 7.2092,45.7428 7.04386667,46.3908 L6.91053333,46.9028 C6.68253333,47.7748 6.6292,48.0881333 6.6292,48.2401333 C6.6292,48.3548 6.70253333,48.4348 6.83586667,48.4348 C6.92253333,48.4348 7.07853333,48.4068 7.33186667,48.3201333 L7.34653333,48.5654667 C6.8772,48.7548 6.35586667,48.8894667 6.11053333,48.8894667 M7.09453333,44.2921333 C6.81586667,44.2921333 6.62653333,44.1174667 6.62653333,43.8654667 C6.62653333,43.5468 6.8612,43.3201333 7.1892,43.3201333 C7.45986667,43.3201333 7.62253333,43.4801333 7.62253333,43.7481333 C7.62386667,44.0628 7.3972,44.2921333 7.09453333,44.2921333" id="Fill-61" fill="#000000"></path>
                    <path d="M11.0512,45.5848 C10.8938667,45.5848 10.6912,45.6448 10.4458667,45.7794667 C10.1885333,45.9114667 9.98453333,46.0528 9.8872,46.1981333 C9.77386667,46.3648 9.68186667,46.6328 9.5472,47.2208 C9.40986667,47.7954667 9.33253333,48.1474667 9.33253333,48.2768 C9.33253333,48.4288 9.5472,48.5301333 9.90186667,48.5301333 C10.2738667,48.5301333 10.5885333,48.3568 10.8192,48.0368 C11.1778667,47.5088 11.4498667,46.7021333 11.4498667,46.1154667 C11.4485333,45.7741333 11.3098667,45.5848 11.0512,45.5848 M11.0565333,48.4688 C10.7098667,48.7861333 10.2925333,48.8994667 9.65653333,48.8994667 C8.94586667,48.8994667 8.5312,48.7861333 8.5312,48.6021333 C8.5312,48.5261333 8.53653333,48.4314667 8.6272,48.0688 L9.0912,46.0208 C9.24586667,45.3634667 9.3632,44.8461333 9.5312,44.1101333 C9.62186667,43.6808 9.65653333,43.4354667 9.65653333,43.3168 C9.65653333,43.2181333 9.60053333,43.1528 9.50186667,43.1528 C9.4392,43.1528 9.24186667,43.2048 9.1112,43.2421333 L9.0912,42.9821333 L9.2072,42.9368 C9.69253333,42.7981333 10.0965333,42.6954667 10.2885333,42.6954667 C10.4005333,42.6954667 10.4752,42.7488 10.4752,42.8394667 C10.4752,42.9354667 10.4312,43.1661333 10.2765333,43.8368 L10.0032,45.0208 C9.91786667,45.4101333 9.88453333,45.5568 9.8592,45.6768 C10.4312,45.3501333 10.9245333,45.1928 11.3738667,45.1928 C11.9245333,45.1928 12.1938667,45.4688 12.1938667,46.0434667 C12.1938667,46.8781333 11.7138667,47.9074667 11.0565333,48.4688" id="Fill-63" fill="#000000"></path>
                    <path d="M15.0837333,45.5573333 C14.6477333,45.5573333 14.1890667,46.1453333 13.9677333,47.0253333 L14.0610667,47.0253333 C14.8904,47.0253333 15.5237333,46.5786667 15.5237333,46.0093333 C15.5237333,45.752 15.3250667,45.5573333 15.0837333,45.5573333 M14.1517333,47.3453333 C14.0944,47.3453333 14.0090667,47.3453333 13.8877333,47.3386667 C13.8650667,47.5053333 13.8597333,47.648 13.8597333,47.7733333 C13.8597333,48.244 14.0130667,48.476 14.3344,48.476 C14.6224,48.476 14.9824,48.3186667 15.5037333,47.9906667 L15.6077333,48.2946667 C14.9410667,48.7146667 14.4397333,48.9093333 13.9784,48.9093333 C13.4277333,48.9093333 13.1157333,48.564 13.1157333,47.9733333 C13.1157333,46.496 14.1237333,45.196 15.2810667,45.196 C15.8517333,45.196 16.1930667,45.4586667 16.1930667,45.8973333 C16.1930667,46.7333333 15.3064,47.3453333 14.1517333,47.3453333" id="Fill-65" fill="#000000"></path>
                    <path d="M19.7928,46.3581333 L19.4994667,46.3354667 C19.5101333,46.2234667 19.5221333,46.0861333 19.5221333,45.9741333 C19.5221333,45.8141333 19.3794667,45.6914667 19.1514667,45.6914667 C19.0194667,45.6914667 18.8834667,45.7728 18.7648,45.9088 C18.4194667,46.3021333 18.2834667,46.9141333 18.0901333,47.9061333 L17.9234667,48.7861333 C17.5688,48.7994667 17.4901333,48.8128 17.1394667,48.8434667 C17.2288,48.5194667 17.2954667,48.2421333 17.3674667,47.9354667 L17.5648,47.1114667 C17.6954667,46.5461333 17.7581333,46.1781333 17.7581333,45.9888 C17.7581333,45.7728 17.7008,45.6781333 17.6008,45.6781333 C17.5448,45.6781333 17.4661333,45.6914667 17.3741333,45.7114667 L17.1408,45.7768 L17.1261333,45.5194667 C17.5648,45.3328 18.0608,45.1941333 18.2861333,45.1941333 C18.3874667,45.1941333 18.4341333,45.2301333 18.4554667,45.3208 C18.4768,45.4194667 18.4941333,45.5554667 18.5074667,45.6994667 C18.9114667,45.3754667 19.2701333,45.1888 19.5234667,45.1888 C19.6981333,45.1888 19.9128,45.2661333 20.1221333,45.4194667 C19.9661333,45.7514667 19.8568,46.0474667 19.7928,46.3581333" id="Fill-67" fill="#000000"></path>
                    <path d="M22.8384,45.7429333 L22.0890667,45.7229333 L21.7250667,47.5722667 C21.6170667,48.0522667 21.6104,48.1829333 21.6104,48.2522667 C21.6104,48.3816 21.6677333,48.4456 21.7904,48.4456 C21.8544,48.4456 21.9904,48.4162667 22.1957333,48.3549333 L22.2864,48.3202667 L22.3184,48.5789333 C21.8517333,48.7882667 21.3650667,48.9002667 21.1024,48.9002667 C20.9170667,48.9002667 20.7984,48.8162667 20.7984,48.6429333 C20.7984,48.4829333 20.8290667,48.2736 20.9104,47.9896 C20.9770667,47.6616 21.0464,47.4042667 21.1184,47.0536 L21.3984,45.7216 L20.9157333,45.7362667 L20.9770667,45.4496 C21.5957333,45.3336 21.8050667,44.8669333 21.9757333,44.3349333 L22.4077333,44.2429333 L22.1837333,45.2989333 L22.9290667,45.2989333 L22.8384,45.7429333 Z" id="Fill-69" fill="#000000"></path>
                    <path d="M25.5324,45.5573333 C25.0977333,45.5573333 24.6457333,46.1453333 24.4177333,47.0253333 L24.5030667,47.0253333 C25.3337333,47.0253333 25.9657333,46.5786667 25.9657333,46.0093333 C25.9657333,45.752 25.7684,45.5573333 25.5324,45.5573333 Z M24.5950667,47.3453333 C24.5457333,47.3453333 24.4524,47.3453333 24.3470667,47.3386667 C24.3110667,47.5053333 24.3044,47.648 24.3044,47.7733333 C24.3044,48.244 24.4644,48.476 24.7884,48.476 C25.0724,48.476 25.4324,48.3186667 25.9657333,47.9906667 L26.0577333,48.2946667 C25.3990667,48.7146667 24.8910667,48.9093333 24.4297333,48.9093333 C23.8750667,48.9093333 23.5710667,48.564 23.5710667,47.9733333 C23.5710667,46.496 24.5737333,45.196 25.7337333,45.196 C26.3110667,45.196 26.6337333,45.4586667 26.6337333,45.8973333 C26.6364,46.7333333 25.7590667,47.3453333 24.5950667,47.3453333 Z M25.6030667,44.644 L25.3150667,44.4 L26.4057333,43.1626667 L27.2190667,43.36 L25.6030667,44.644 Z" id="Fill-71" fill="#000000"></path>
                    <path d="M42.7589333,44.1121333 L42.5042667,44.1121333 C42.5176,44.0134667 42.5202667,43.9774667 42.5202667,43.9108 C42.5202667,43.4108 42.2029333,43.2454667 41.2936,43.2454667 C41.0016,43.2454667 40.7189333,43.2454667 40.4149333,43.2721333 C40.2322667,44.0201333 40.1096,44.6694667 39.9536,45.4708 L40.2816,45.4708 C40.8602667,45.4708 41.1016,45.4614667 41.3029333,45.4188 C41.6469333,45.3561333 41.8269333,45.1601333 41.9309333,44.8068 L42.1802667,44.8068 C42.0562667,45.3348 41.9002667,46.0868 41.8269333,46.5588 L41.5936,46.5588 C41.6096,46.4988 41.6122667,46.4441333 41.6122667,46.4081333 C41.6122667,46.0148 41.3709333,45.8894667 40.6376,45.8894667 C40.1936,45.8894667 40.0322667,45.8921333 39.8696,45.8921333 C39.8189333,46.1268 39.8696,45.9268 39.6682667,46.9574667 C39.5602667,47.4654667 39.5282667,47.7854667 39.5282667,47.9401333 C39.5282667,48.2548 39.6909333,48.3414667 40.2882667,48.3414667 C41.4256,48.3414667 41.7749333,48.1601333 42.1242667,47.3894667 L42.3536,47.4748 C42.1536,48.0748 41.9322667,48.5361333 41.8109333,48.6974667 C41.7229333,48.7974667 41.6096,48.8321333 41.2309333,48.8321333 C40.9162667,48.8321333 40.5842667,48.8188 40.2736,48.8054667 C39.8576,48.7974667 39.4429333,48.7841333 39.0216,48.7841333 C38.5936,48.7841333 38.1842667,48.7974667 37.7629333,48.7974667 L37.8042667,48.6081333 C38.0656,48.5761333 38.2296,48.4948 38.3536,48.3294667 C38.5002667,48.1561333 38.5936,47.8908 38.7256,47.3934667 C38.8349333,46.8934667 38.8776,46.6961333 39.0762667,45.6841333 L39.2202667,44.9641333 C39.3682667,44.2548 39.4162667,43.8308 39.4162667,43.6054667 C39.4162667,43.2121333 39.2749333,43.0374667 38.8949333,42.9948 L38.9322667,42.8041333 L43.0202667,42.8041333 C42.9162667,43.2068 42.8282667,43.6934667 42.7589333,44.1121333 Z M41.0562667,42.1921333 L40.7669333,41.9534667 L41.8669333,40.7108 L42.6909333,40.9188 L41.0562667,42.1921333 Z" id="Fill-73" fill="#000000"></path>
                    <path d="M45.6234667,49.1817333 C45.3208,49.0630667 44.9568,48.9390667 44.5688,48.8270667 C43.9568,48.9777333 43.5141333,49.4404 43.5141333,49.9630667 C43.5141333,50.4484 43.9328,50.7697333 44.5781333,50.7697333 C45.3648,50.7697333 46.0821333,50.2470667 46.0821333,49.6604 C46.0834667,49.4470667 45.9474667,49.3110667 45.6234667,49.1817333 Z M45.4874667,45.5417333 C45.0034667,45.5417333 44.6034667,46.0524 44.6034667,46.6697333 C44.6034667,47.0804 44.8488,47.3617333 45.2074667,47.3617333 C45.6728,47.3617333 46.0648,46.8777333 46.0648,46.2710667 C46.0674667,45.8150667 45.8434667,45.5417333 45.4874667,45.5417333 Z M47.2074667,45.7297333 L46.5981333,45.7230667 C46.7048,45.9097333 46.7408,46.0590667 46.7408,46.2684 C46.7408,47.1004 46.0434667,47.7257333 45.1514667,47.7257333 C44.9728,47.7257333 44.8488,47.7110667 44.6621333,47.6550667 C44.4408,47.7924 44.3648,47.8484 44.3648,47.9337333 C44.3648,48.0310667 44.4634667,48.0857333 44.8594667,48.2097333 L45.5701333,48.4244 C46.2954667,48.6537333 46.6554667,48.8617333 46.6554667,49.3870667 C46.6554667,50.3484 45.7008,51.0937333 44.5034667,51.0937333 C43.5128,51.0937333 42.9021333,50.6244 42.9021333,49.8630667 C42.9021333,49.1537333 43.3634667,48.8230667 44.0981333,48.6377333 C43.6421333,48.4737333 43.5461333,48.4030667 43.5461333,48.2497333 C43.5461333,48.0617333 43.8088,47.8110667 44.3488,47.5084 C44.0688,47.3044 43.9354667,47.0497333 43.9354667,46.6977333 C43.9354667,45.8417333 44.6208,45.1924 45.5194667,45.1924 C45.7554667,45.1924 45.9221333,45.2230667 46.1234667,45.2937333 L47.3101333,45.2937333 L47.2074667,45.7297333 Z" id="Fill-75" fill="#000000"></path>
                    <path d="M50.1690667,45.5769333 C49.8184,45.5769333 49.4570667,45.8449333 49.1530667,46.3529333 C48.8050667,46.8942667 48.5637333,47.6276 48.5637333,48.1062667 C48.5637333,48.3796 48.6890667,48.5276 48.9290667,48.5276 C49.2584,48.5276 49.8424,48.2436 50.0717333,48.0156 C50.1957333,47.8862667 50.2517333,47.7076 50.3570667,47.3569333 C50.4917333,46.8209333 50.6304,46.3036 50.7170667,45.7036 C50.5064,45.6209333 50.3184,45.5769333 50.1690667,45.5769333 M50.5877333,48.9089333 C50.4330667,48.9089333 50.3690667,48.7996 50.2890667,48.3542667 C49.6250667,48.7382667 49.1357333,48.9169333 48.6624,48.9169333 C48.1264,48.9169333 47.8077333,48.6302667 47.8077333,48.1396 C47.8077333,47.6582667 48.0424,46.9876 48.4037333,46.4422667 C48.8890667,45.6809333 49.4824,45.1982667 50.4117333,45.1982667 C50.8090667,45.1982667 51.1770667,45.2702667 51.5730667,45.3689333 L51.5250667,45.5182667 C51.2010667,46.5569333 50.9730667,47.6876 50.9730667,48.0716 C50.9730667,48.3209333 51.0250667,48.4449333 51.1304,48.4449333 C51.2010667,48.4449333 51.3930667,48.3996 51.6157333,48.3196 L51.6424,48.5916 C51.1757333,48.7636 50.7397333,48.9089333 50.5877333,48.9089333" id="Fill-77" fill="#000000"></path>
                    <path d="M54.5708,43.6108 C54.2761333,44.8068 53.9801333,46.1361333 53.6868,47.4108 C53.6001333,47.8228 53.5494667,48.0868 53.5494667,48.2388 C53.5494667,48.3534667 53.6241333,48.4188 53.7481333,48.4188 C53.8414667,48.4188 54.0001333,48.3894667 54.2481333,48.3188 L54.2694667,48.5641333 C53.8068,48.7508 53.2508,48.9094667 53.0081333,48.9094667 C52.8361333,48.9094667 52.7388,48.8001333 52.7388,48.6308 C52.7388,48.5041333 52.7668,48.3441333 52.8961333,47.7748 C53.1828,46.5854667 53.4841333,45.3228 53.7241333,44.2001333 C53.8308,43.6614667 53.8881333,43.4108 53.8881333,43.3228 C53.8881333,43.2214667 53.8308,43.1641333 53.7374667,43.1641333 C53.6494667,43.1641333 53.4841333,43.2068 53.3401333,43.2561333 L53.3214667,42.9854667 C53.7801333,42.8188 54.2854667,42.6988 54.5428,42.6988 C54.6668,42.6988 54.7294667,42.7508 54.7294667,42.8428 C54.7281333,42.9388 54.6881333,43.1534667 54.5708,43.6108" id="Fill-79" fill="#000000"></path>
                    <path d="M55.8266667,48.8894667 C55.64,48.8894667 55.5266667,48.7934667 55.5266667,48.6308 C55.5266667,48.5534667 55.5533333,48.4068 55.6026667,48.2121333 C55.7213333,47.7268 55.872,47.0814667 55.968,46.7454667 C56.0893333,46.2854667 56.1426667,45.9468 56.1426667,45.8148 C56.1426667,45.7028 56.0893333,45.6588 55.9933333,45.6588 C55.9093333,45.6588 55.8333333,45.6814667 55.6413333,45.7388 L55.5773333,45.7534667 L55.5533333,45.5041333 C56.044,45.3174667 56.5306667,45.1961333 56.7746667,45.1961333 C56.9106667,45.1961333 56.9626667,45.2468 56.9626667,45.3534667 C56.9626667,45.4561333 56.9253333,45.7428 56.756,46.3908 L56.6293333,46.9028 C56.396,47.7748 56.3493333,48.0881333 56.3493333,48.2401333 C56.3493333,48.3548 56.416,48.4348 56.552,48.4348 C56.636,48.4348 56.788,48.4068 57.0466667,48.3201333 L57.06,48.5654667 C56.576,48.7548 56.0626667,48.8894667 55.8266667,48.8894667 M56.7986667,44.2921333 C56.524,44.2921333 56.348,44.1174667 56.348,43.8654667 C56.348,43.5468 56.576,43.3201333 56.9013333,43.3201333 C57.1746667,43.3201333 57.344,43.4801333 57.344,43.7481333 C57.344,44.0628 57.1093333,44.2921333 56.7986667,44.2921333" id="Fill-81" fill="#000000"></path>
                    <path d="M60.3468,45.7429333 L59.6014667,45.7229333 L59.2188,47.5722667 C59.1148,48.0522667 59.1148,48.1829333 59.1148,48.2522667 C59.1148,48.3816 59.1681333,48.4456 59.2868,48.4456 C59.3561333,48.4456 59.4894667,48.4162667 59.7094667,48.3549333 L59.7908,48.3202667 L59.8188,48.5789333 C59.3561333,48.7882667 58.8734667,48.9002667 58.6028,48.9002667 C58.4254667,48.9002667 58.3068,48.8162667 58.3068,48.6429333 C58.3068,48.4829333 58.3321333,48.2736 58.4134667,47.9896 C58.4868,47.6616 58.5454667,47.4042667 58.6174667,47.0536 L58.9001333,45.7216 L58.4294667,45.7362667 L58.4854667,45.4496 C59.0974667,45.3336 59.3041333,44.8669333 59.4868,44.3349333 L59.9068,44.2429333 L59.6841333,45.2989333 L60.4334667,45.2989333 L60.3468,45.7429333 Z" id="Fill-83" fill="#000000"></path>
                    <path d="M63.0382667,45.5573333 C62.5916,45.5573333 62.1409333,46.1453333 61.9196,47.0253333 L62.0142667,47.0253333 C62.8382667,47.0253333 63.4716,46.5786667 63.4716,46.0093333 C63.4716,45.752 63.2756,45.5573333 63.0382667,45.5573333 Z M62.1062667,47.3453333 C62.0382667,47.3453333 61.9582667,47.3453333 61.8356,47.3386667 C61.8076,47.5053333 61.8076,47.648 61.8076,47.7733333 C61.8076,48.244 61.9622667,48.476 62.2862667,48.476 C62.5769333,48.476 62.9342667,48.3186667 63.4569333,47.9906667 L63.5622667,48.2946667 C62.8929333,48.7146667 62.3876,48.9093333 61.9382667,48.9093333 C61.3729333,48.9093333 61.0702667,48.564 61.0702667,47.9733333 C61.0702667,46.496 62.0702667,45.196 63.2316,45.196 C63.7982667,45.196 64.1449333,45.4586667 64.1449333,45.8973333 C64.1462667,46.7333333 63.2516,47.3453333 62.1062667,47.3453333 Z M63.1076,44.644 L62.8169333,44.4 L63.9156,43.1626667 L64.7249333,43.36 L63.1076,44.644 Z" id="Fill-85" fill="#000000"></path>
                    <path d="M80.1449333,44.0984 L79.8756,44.0984 C79.8862667,44.0144 79.8996,43.9344 79.8996,43.8904 C79.8996,43.7104 79.8356,43.5717333 79.7356,43.4597333 C79.5609333,43.2984 79.2409333,43.2370667 78.5542667,43.2370667 C78.3742667,43.2370667 78.1156,43.2450667 77.8956,43.2584 C77.7356,43.9904 77.5996,44.7050667 77.4302667,45.4677333 C77.5996,45.4677333 77.7676,45.4744 77.9396,45.4744 C78.9436,45.4744 79.1356,45.3877333 79.3209333,44.8050667 L79.5649333,44.8050667 C79.4222667,45.3877333 79.3076,45.9624 79.2302667,46.5570667 L78.9689333,46.5570667 C78.9822667,46.4970667 78.9942667,46.4477333 78.9942667,46.4117333 C78.9942667,46.2517333 78.9382667,46.0997333 78.8222667,46.0250667 C78.6676,45.8997333 78.4902667,45.8877333 77.9502667,45.8877333 C77.6622667,45.8877333 77.5862667,45.8904 77.3396,45.8904 L77.2262667,46.5210667 C77.0649333,47.3584 76.9982667,47.7730667 76.9982667,48.0224 C76.9982667,48.3917333 77.1596,48.5597333 77.5262667,48.6050667 L77.4982667,48.7957333 L77.3396,48.7824 L76.5396,48.7824 L75.3942667,48.7824 L75.2396,48.7957333 L75.2756,48.6050667 C75.5529333,48.5744 75.7142667,48.4930667 75.8342667,48.3210667 C75.9862667,48.1490667 76.0756,47.8904 76.1929333,47.3917333 C76.3249333,46.8810667 76.3729333,46.6104 76.5582667,45.6824 L76.7022667,44.9584 C76.8396,44.2450667 76.9009333,43.8277333 76.9009333,43.6037333 C76.9009333,43.2104 76.7569333,43.0357333 76.3729333,42.9930667 L76.3969333,42.8024 L80.3982667,42.8024 C80.3049333,43.2077333 80.2156,43.6610667 80.1449333,44.0984" id="Fill-87" fill="#000000"></path>
                    <path d="M83.2074667,46.3581333 L82.9034667,46.3354667 C82.9261333,46.2234667 82.9354667,46.0861333 82.9354667,45.9741333 C82.9354667,45.8141333 82.7928,45.6914667 82.5648,45.6914667 C82.4354667,45.6914667 82.3048,45.7728 82.1808,45.9088 C81.8421333,46.3021333 81.7074667,46.9141333 81.5101333,47.9061333 L81.3301333,48.7861333 C80.9928,48.7994667 80.9034667,48.8128 80.5568,48.8434667 C80.6474667,48.5194667 80.7114667,48.2421333 80.7794667,47.9354667 L80.9768,47.1114667 C81.1101333,46.5461333 81.1714667,46.1781333 81.1714667,45.9888 C81.1714667,45.7728 81.1234667,45.6781333 81.0208,45.6781333 C80.9648,45.6781333 80.8874667,45.6914667 80.7888,45.7114667 L80.5634667,45.7768 L80.5314667,45.5194667 C80.9794667,45.3328 81.4821333,45.1941333 81.7101333,45.1941333 C81.7968,45.1941333 81.8461333,45.2301333 81.8648,45.3208 C81.8968,45.4194667 81.9208,45.5554667 81.9288,45.6994667 C82.3341333,45.3754667 82.6808,45.1888 82.9381333,45.1888 C83.1128,45.1888 83.3208,45.2661333 83.5368,45.4194667 C83.3968,45.7514667 83.2794667,46.0474667 83.2074667,46.3581333" id="Fill-89" fill="#000000"></path>
                    <path d="M86.3402667,45.5769333 C85.9762667,45.5769333 85.6229333,45.8449333 85.3069333,46.3529333 C84.9722667,46.8942667 84.7282667,47.6276 84.7282667,48.1062667 C84.7282667,48.3796 84.8656,48.5276 85.0909333,48.5276 C85.4162667,48.5276 86.0149333,48.2436 86.2362667,48.0156 C86.3602667,47.8862667 86.4229333,47.7076 86.5256,47.3569333 C86.6722667,46.8209333 86.8016,46.3036 86.8789333,45.7036 C86.6776,45.6209333 86.4976,45.5769333 86.3402667,45.5769333 M86.7549333,48.9089333 C86.5936,48.9089333 86.5402667,48.7996 86.4576,48.3542667 C85.7962667,48.7382667 85.2976,48.9169333 84.8336,48.9169333 C84.2882667,48.9169333 83.9749333,48.6302667 83.9749333,48.1396 C83.9749333,47.6582667 84.2069333,46.9876 84.5696,46.4422667 C85.0509333,45.6809333 85.6536,45.1982667 86.5722667,45.1982667 C86.9749333,45.1982667 87.3429333,45.2702667 87.7296,45.3689333 L87.6922667,45.5182667 C87.3669333,46.5569333 87.1362667,47.6876 87.1362667,48.0716 C87.1362667,48.3209333 87.1869333,48.4449333 87.3016,48.4449333 C87.3669333,48.4449333 87.5482667,48.3996 87.7816,48.3196 L87.8069333,48.5916 C87.3442667,48.7636 86.9109333,48.9089333 86.7549333,48.9089333" id="Fill-91" fill="#000000"></path>
                    <path d="M91.0394667,45.7429333 L90.3034667,45.7229333 L89.9261333,47.5722667 C89.8194667,48.0522667 89.8141333,48.1829333 89.8141333,48.2522667 C89.8141333,48.3816 89.8808,48.4456 89.9901333,48.4456 C90.0554667,48.4456 90.1861333,48.4162667 90.4021333,48.3549333 L90.4968,48.3202667 L90.5248,48.5789333 C90.0541333,48.7882667 89.5714667,48.9002667 89.3114667,48.9002667 C89.1168,48.9002667 89.0008,48.8162667 89.0008,48.6429333 C89.0008,48.4829333 89.0381333,48.2736 89.1101333,47.9896 C89.1848,47.6616 89.2541333,47.4042667 89.3181333,47.0536 L89.5994667,45.7216 L89.1248,45.7362667 L89.1834667,45.4496 C89.8048,45.3336 90.0154667,44.8669333 90.1768,44.3349333 L90.6154667,44.2429333 L90.3874667,45.2989333 L91.1341333,45.2989333 L91.0394667,45.7429333 Z" id="Fill-93" fill="#000000"></path>
                    <path d="M93.7334667,45.5573333 C93.3068,45.5573333 92.8521333,46.1453333 92.6174667,47.0253333 L92.7081333,47.0253333 C93.5401333,47.0253333 94.1761333,46.5786667 94.1761333,46.0093333 C94.1774667,45.752 93.9814667,45.5573333 93.7334667,45.5573333 M92.8028,47.3453333 C92.7388,47.3453333 92.6654667,47.3453333 92.5508,47.3386667 C92.5188,47.5053333 92.5108,47.648 92.5108,47.7733333 C92.5108,48.244 92.6801333,48.476 92.9961333,48.476 C93.2801333,48.476 93.6428,48.3186667 94.1774667,47.9906667 L94.2614667,48.2946667 C93.5974667,48.7146667 93.0988,48.9093333 92.6388,48.9093333 C92.0761333,48.9093333 91.7694667,48.564 91.7694667,47.9733333 C91.7694667,46.496 92.7708,45.196 93.9388,45.196 C94.5134667,45.196 94.8334667,45.4586667 94.8334667,45.8973333 C94.8348,46.7333333 93.9561333,47.3453333 92.8028,47.3453333" id="Fill-95" fill="#000000"></path>
                    <path d="M98.4457333,46.3581333 L98.1470667,46.3354667 C98.1617333,46.2234667 98.1724,46.0861333 98.1724,45.9741333 C98.1724,45.8141333 98.0350667,45.6914667 97.8097333,45.6914667 C97.6710667,45.6914667 97.5404,45.7728 97.4217333,45.9088 C97.0750667,46.3021333 96.9364,46.9141333 96.7524,47.9061333 L96.5737333,48.7861333 C96.2337333,48.7994667 96.1457333,48.8128 95.7924,48.8434667 C95.8830667,48.5194667 95.9444,48.2421333 96.0150667,47.9354667 L96.2284,47.1114667 C96.3524,46.5461333 96.4164,46.1781333 96.4164,45.9888 C96.4164,45.7728 96.3577333,45.6781333 96.2524,45.6781333 C96.2070667,45.6781333 96.1270667,45.6914667 96.0284,45.7114667 L95.8044,45.7768 L95.7710667,45.5194667 C96.2297333,45.3328 96.7164,45.1941333 96.9404,45.1941333 C97.0404,45.1941333 97.0844,45.2301333 97.1084,45.3208 C97.1404,45.4194667 97.1590667,45.5554667 97.1670667,45.6994667 C97.5750667,45.3754667 97.9257333,45.1888 98.1737333,45.1888 C98.3564,45.1888 98.5617333,45.2661333 98.7710667,45.4194667 C98.6377333,45.7514667 98.5217333,46.0474667 98.4457333,46.3581333" id="Fill-97" fill="#000000"></path>
                    <path d="M102.031733,48.9005333 C101.849067,48.9005333 101.745067,48.7938667 101.745067,48.6298667 C101.745067,48.5205333 101.7864,48.3192 101.891733,47.8738667 L101.979733,47.4885333 C102.2384,46.3912 102.3224,45.9898667 102.3224,45.8458667 C102.3224,45.7032 102.2384,45.6458667 102.125067,45.6458667 C101.9704,45.6458667 101.715733,45.7245333 101.4464,45.8898667 C101.1624,46.0525333 100.943733,46.2472 100.837067,46.4152 C100.753067,46.5445333 100.695733,46.7672 100.583733,47.2405333 C100.437067,47.9125333 100.353067,48.3552 100.281067,48.7818667 C99.9264,48.8018667 99.8384,48.8152 99.4850667,48.8458667 C99.6717333,48.1845333 99.7957333,47.6285333 99.9317333,47.0032 C100.0744,46.4045333 100.1224,46.0978667 100.1224,45.9525333 C100.1224,45.7378667 100.0624,45.6458667 99.9264,45.6458667 C99.8450667,45.6458667 99.6957333,45.6792 99.4850667,45.7432 L99.4650667,45.4978667 C99.8984,45.3218667 100.3704,45.1952 100.5824,45.1952 C100.7784,45.1952 100.841067,45.3165333 100.841067,45.7365333 L100.841067,45.8032 C101.529067,45.4165333 102.2264,45.1965333 102.7184,45.1965333 C103.015733,45.1965333 103.125067,45.2685333 103.125067,45.4525333 C103.125067,45.6472 103.077067,45.9285333 102.8824,46.6712 C102.7824,47.0765333 102.675733,47.5125333 102.639733,47.7165333 C102.5984,47.9752 102.5664,48.1485333 102.5664,48.2472 C102.5664,48.3832 102.631733,48.4352 102.763733,48.4352 C102.847733,48.4352 103.015733,48.4072 103.229067,48.3218667 L103.257067,48.5818667 C102.7864,48.7552 102.239733,48.9005333 102.031733,48.9005333" id="Fill-99" fill="#000000"></path>
                    <path d="M104.840267,48.8894667 C104.6696,48.8894667 104.5456,48.7934667 104.5456,48.6308 C104.5456,48.5534667 104.570933,48.4068 104.616267,48.2121333 C104.730933,47.7268 104.890933,47.0814667 104.986933,46.7454667 C105.102933,46.2854667 105.164267,45.9468 105.164267,45.8148 C105.164267,45.7028 105.102933,45.6588 105.020267,45.6588 C104.9376,45.6588 104.840267,45.6814667 104.6696,45.7388 L104.590933,45.7534667 L104.5696,45.5041333 C105.058933,45.3174667 105.5576,45.1961333 105.796267,45.1961333 C105.9336,45.1961333 105.984267,45.2468 105.984267,45.3534667 C105.984267,45.4561333 105.938933,45.7428 105.7736,46.3908 L105.6416,46.9028 C105.420267,47.7748 105.3576,48.0881333 105.3576,48.2401333 C105.3576,48.3548 105.432267,48.4348 105.574933,48.4348 C105.654933,48.4348 105.824267,48.4068 106.0696,48.3201333 L106.0936,48.5654667 C105.604267,48.7548 105.0896,48.8894667 104.840267,48.8894667 M105.824267,44.2921333 C105.540267,44.2921333 105.3576,44.1174667 105.3576,43.8654667 C105.3576,43.5468 105.596267,43.3201333 105.914933,43.3201333 C106.188267,43.3201333 106.356267,43.4801333 106.356267,43.7481333 C106.356267,44.0628 106.1376,44.2921333 105.824267,44.2921333" id="Fill-101" fill="#000000"></path>
                    <path d="M109.370267,45.7429333 L108.618267,45.7229333 L108.248933,47.5722667 C108.142267,48.0522667 108.136933,48.1829333 108.136933,48.2522667 C108.136933,48.3816 108.1956,48.4456 108.316933,48.4456 C108.384933,48.4456 108.512933,48.4162667 108.734267,48.3549333 L108.8156,48.3202667 L108.850267,48.5789333 C108.384933,48.7882667 107.8956,48.9002667 107.630267,48.9002667 C107.448933,48.9002667 107.316933,48.8162667 107.316933,48.6429333 C107.316933,48.4829333 107.356933,48.2736 107.4436,47.9896 C107.5156,47.6616 107.574267,47.4042667 107.648933,47.0536 L107.922267,45.7216 L107.4476,45.7362667 L107.514267,45.4496 C108.124933,45.3336 108.3356,44.8669333 108.506267,44.3349333 L108.934267,44.2429333 L108.7116,45.2989333 L109.4676,45.2989333 L109.370267,45.7429333 Z" id="Fill-103" fill="#000000"></path>
                    <path d="M112.048667,45.5573333 C111.627333,45.5573333 111.166,46.1453333 110.942,47.0253333 L111.031333,47.0253333 C111.859333,47.0253333 112.499333,46.5786667 112.499333,46.0093333 C112.500667,45.752 112.300667,45.5573333 112.048667,45.5573333 Z M111.122,47.3453333 C111.064667,47.3453333 110.995333,47.3453333 110.868667,47.3386667 C110.85,47.5053333 110.840667,47.648 110.840667,47.7733333 C110.840667,48.244 110.995333,48.476 111.311333,48.476 C111.600667,48.476 111.960667,48.3186667 112.495333,47.9906667 L112.584667,48.2946667 C111.922,48.7146667 111.419333,48.9093333 110.972667,48.9093333 C110.403333,48.9093333 110.102,48.564 110.102,47.9733333 C110.102,46.496 111.099333,45.196 112.263333,45.196 C112.826,45.196 113.163333,45.4586667 113.163333,45.8973333 C113.164667,46.7333333 112.272667,47.3453333 111.122,47.3453333 Z M112.131333,44.644 L111.847333,44.4 L112.95,43.1626667 L113.743333,43.36 L112.131333,44.644 Z" id="Fill-105" fill="#000000"></path>
                    <path d="M69.9509333,47.2142667 C70.5576,47.2142667 71.0456,46.7329333 71.0456,46.1316 C71.0456,45.5396 70.5589333,45.0462667 69.9509333,45.0462667 C69.3589333,45.0462667 68.8522667,45.5396 68.8522667,46.1316 C68.8522667,46.7342667 69.3589333,47.2142667 69.9509333,47.2142667" id="Fill-107" fill="#000000"></path>
                    <path d="M32.4776,47.2142667 C33.0722667,47.2142667 33.5682667,46.7329333 33.5682667,46.1316 C33.5682667,45.5396 33.0722667,45.0462667 32.4776,45.0462667 C31.8682667,45.0462667 31.3856,45.5396 31.3856,46.1316 C31.3869333,46.7342667 31.8682667,47.2142667 32.4776,47.2142667" id="Fill-109" fill="#000000"></path>
                    <polygon id="Fill-111" fill="#000000" points="0.666666667 53.6173333 113.333333 53.6173333 113.333333 52.6666667 0.666666667 52.6666667"></polygon>
                </g>
            </g>
        </g>
    </g>
</svg>