<?xml version="1.0" encoding="UTF-8"?>
<svg width="81px" height="50px" viewBox="0 0 81 50" version="1.1" xmlns="http://www.w3.org/2000/svg" xmlns:xlink="http://www.w3.org/1999/xlink">
    <!-- Generator: Sketch 50.2 (55047) - http://www.bohemiancoding.com/sketch -->
    <title>logos--marianne</title>
    <desc>Created with Sketch.</desc>
    <defs></defs>
    <g id="Symbols" stroke="none" stroke-width="1" fill="none" fill-rule="evenodd">
        <g id="HEADER" transform="translate(-286.000000, -52.000000)">
            <g id="6.-logos/logos--marianne" transform="translate(286.631251, 52.453125)">
                <rect id="Rectangle-15" fill="#FFFFFF" x="0" y="0" width="80.465274" height="48.6689181"></rect>
                <g id="Marianne" stroke-width="1" transform="translate(2.011632, 2.582432)">
                    <path d="M23.6726029,15.5546304 C22.9868958,15.7479817 22.2886726,15.7806484 21.6610762,16.1161439 C23.15497,16.0561078 24.6497579,16.2936033 26.0882229,16.7456394 C26.6031737,16.91427 27.0582258,17.1394051 27.524006,17.4175132 C27.751085,17.5949727 27.8673065,17.7706664 28.0970676,17.879261 C28.3885154,18.0496574 28.7872447,18.0496574 29.0760105,17.9428285 L29.3603063,17.9428285 C30.2221337,17.7115132 31.149224,17.4828465 31.7204976,16.8630628 C31.7204976,16.91427 31.7795024,16.91427 31.8313551,16.91427 C31.6641748,17.3689547 31.6641748,17.879261 31.3199803,18.2818555 C31.3199803,18.33836 31.2573994,18.4487204 31.3700449,18.5034591 L31.4916305,18.5034591 C31.4317318,18.5034591 31.3700449,18.5034591 31.3700449,18.5590808 C31.3700449,18.670324 31.5425892,18.5590808 31.6069581,18.670324 C31.3199803,18.7347745 31.0276384,18.7948105 30.8568821,19.0217114 C30.8568821,19.077333 30.9722097,19.077333 31.0294264,19.077333 C30.921251,19.1841618 30.7451307,19.1338375 30.6843378,19.2486123 C30.6843378,19.2486123 30.7451307,19.3015853 30.8014534,19.3015853 C30.7451307,19.3015853 30.6843378,19.3015853 30.6843378,19.3625042 L30.6843378,19.529369 C30.5171576,19.529369 30.4608349,19.6441438 30.3356732,19.6971168 C30.5699043,19.8719276 30.7451307,19.6971168 30.9722097,19.6971168 C30.3356732,19.9301979 29.8260865,20.2665762 29.1815039,20.4387384 C29.0769045,20.4387384 29.1815039,20.6020717 29.0769045,20.6020717 C29.2521309,20.7239096 29.3612003,20.5455672 29.5364266,20.5455672 C28.7300279,21.0055492 27.9272053,21.4054951 27.0591198,21.9166843 C27.0591198,21.9166843 26.9446863,22.0296933 26.9446863,22.1409366 L26.7167133,22.1409366 C26.6049618,22.2071528 26.6594965,22.3669546 26.548639,22.4808465 C26.8284647,22.6538915 27.1753413,22.2627744 27.3505677,22.4808465 C27.4068904,22.4808465 27.2361341,22.544414 27.1199126,22.544414 C27.0591198,22.544414 27.0591198,22.6538915 27.000115,22.6538915 L26.8275707,22.6538915 C26.7158192,22.7660176 26.6031737,22.8172248 26.6031737,22.9885041 C26.4878462,22.9885041 26.3716247,22.9885041 26.31709,23.102396 C27.5830107,22.9381798 28.9043603,23.0529546 30.1077002,22.4261077 C31.0294264,21.9687744 31.8921479,21.3401618 32.6395418,20.5455672 C32.6395418,20.5455672 32.6931825,20.6020717 32.6931825,20.6656393 C32.5268963,21.2298014 32.1809137,21.6350447 31.7222856,21.9696573 C31.3709389,22.1409366 31.150118,22.4269906 30.8577761,22.544414 C30.6852319,22.6547744 30.5189457,22.7669005 30.3365672,22.8834411 C28.2159711,23.6127023 25.6832356,23.283387 23.8442532,24.6959996 C23.8442532,24.6359635 23.7834604,24.6359635 23.7280316,24.6359635 C23.6118101,24.76045 23.4383718,24.8125401 23.3829431,24.9299635 C23.3829431,25.0350266 23.5581694,24.9855852 23.6118101,24.9855852 C23.9604747,24.76045 24.3028813,24.5838735 24.7042926,24.4699816 C24.2438765,24.6968825 23.7995526,25.1542158 23.3257263,25.1542158 L20.4568423,25.1542158 C21.0227518,24.8143059 21.6038595,24.4117113 22.2323498,24.0735672 C22.0615935,23.9667383 21.8926253,23.9667383 21.7093529,23.9667383 C21.4304212,24.0188284 21.0835446,23.8457834 20.7938847,23.9667383 C19.9356334,24.3552068 18.7823581,24.248378 18.322836,25.1559816 L1.22396534,25.1559816 L1.20697911,0 L35.3913102,0 C34.7047091,0.342558553 34.0780068,0.564162153 33.563056,1.18924322 C33.1026399,1.76664862 32.6395418,2.32109906 32.4714675,3.00268463 C31.7222856,3.45736931 31.2582935,4.14778371 30.8568821,4.82583776 C30.3356732,5.7872972 29.5936434,6.64192781 29.7053949,7.72345933 C29.8260865,8.62929715 30.0513775,9.48127912 30.2212397,10.4498016 C30.2847146,10.7897115 30.3347792,11.0775313 30.4599409,11.4112611 C30.5690103,11.7494052 30.4599409,12.1519998 30.6298031,12.437171 C30.7451307,12.6066845 30.6843378,12.8309367 30.920357,12.9465944 L30.920357,13.1708466 C30.9722097,13.228234 30.9722097,13.2856214 31.0902192,13.2856214 L31.0902192,13.5169367 C31.5425892,14.0890448 32.1219089,14.5834592 32.4124628,15.2209006 C32.5251082,15.5608105 31.8313551,15.3895313 31.5425892,15.2738736 C30.9722097,14.9895853 30.6298031,14.5393151 30.164023,14.1367205 C30.164023,14.1367205 30.1068062,14.1967565 30.1068062,14.2541439 C30.3347792,14.6496754 31.2037587,15.1635133 30.7442366,15.4398556 C30.5162636,15.5616934 30.2212397,15.2738736 29.9968427,15.504306 C29.9342619,15.6137835 29.9968427,15.7259096 29.9968427,15.8415673 C29.6526482,15.6137835 29.3066656,15.7259096 28.958001,15.6137835 C28.7291339,15.5608105 28.6710232,15.1008286 28.3885154,15.1008286 C27.6357574,14.9348466 26.9437923,14.7635673 26.1972924,14.7088286 C25.1700728,14.5834592 24.1866597,14.4210088 23.154076,14.5834592 C22.2305618,14.6417295 21.5457487,15.3259637 20.966429,16.0066664 L20.966429,16.1858916 C21.3705224,16.2318015 21.5457487,15.8910087 21.8917313,15.7806484 C22.4603228,15.6623421 22.9833198,15.4327925 23.5581694,15.3259637 C24.4191028,15.1555673 25.2237135,14.9277835 26.022066,14.9825223 C26.1981864,14.9825223 26.4288414,14.9277835 26.6049618,14.9825223 C25.567014,14.9277835 24.6506519,15.2676934 23.6726029,15.5546304 Z" id="Fill-5" fill="#004493"></path>
                    <path d="M52.0114603,21.5794231 C52.1487943,21.1697654 52.2977215,20.7274411 52.0703177,20.3204321 C51.7269826,19.8136573 52.4109775,19.6388465 52.643732,19.3059997 C52.8122783,19.0234772 52.5251253,18.8477835 52.4689432,18.5643781 C52.4118693,18.4496033 52.1817902,18.5069907 52.0703177,18.3339456 C52.4689432,18.1670808 53.0985396,17.8254051 52.8122783,17.3159817 C52.643732,17.0396393 52.3619296,16.5858376 52.7008059,16.2971349 C53.0994314,16.0675853 53.7299196,16.1276213 53.902033,15.7259096 C54.1874025,15.0425583 53.5560225,14.4766304 53.2109038,13.9098196 C53.0432493,13.5743241 52.8122783,13.3465403 52.5857663,12.9969187 C52.3619296,12.6058016 52.0703177,12.2597115 51.9570617,11.8059097 C51.7787058,11.3556394 52.0114603,10.9512791 52.0114603,10.5001259 C52.0703177,9.65432416 51.838455,8.79792778 51.6137265,7.95477464 C51.4407213,7.55129717 51.3809721,7.08425213 51.2079668,6.69313502 C51.1508929,6.46888277 51.0911437,6.24551341 50.9208138,6.01684674 C50.8646317,5.90207197 50.8646317,5.7307927 50.9208138,5.61778369 C51.1508929,5.44650441 51.3818638,5.27787378 51.6146183,5.05185577 C51.7795976,4.76491884 51.6690169,4.36938731 51.3818638,4.19457651 C50.9778877,4.02771164 51.0340698,4.59805398 50.7495921,4.7101801 L50.5774786,4.7101801 C50.5230801,4.53713506 50.6399032,4.4885765 50.7495921,4.36938731 C50.7495921,4.31641434 50.7495921,4.19457651 50.69341,4.19457651 C50.466898,4.19457651 50.2359271,4.14425218 50.1761778,4.02771164 C49.6054389,3.2313513 48.8028372,2.84023419 47.9413781,2.4941441 C48.1678901,2.55153149 48.3935104,2.60803599 48.6325073,2.60803599 C49.0266739,2.66542338 49.4832651,2.66542338 49.835518,2.4941441 C50.1191039,2.38378374 50.175286,1.92821618 50.2903256,1.64216213 C50.4009063,1.417027 50.2350353,1.06917115 50.1182121,0.909369354 C49.8346262,0.450270263 48.9963534,0 48.9963534,0 L75.9914139,0 L75.994981,25.1550987 L43.8088714,25.1550987 C44.1522066,24.0179455 44.7871536,22.9337654 45.8162673,22.2089185 C46.0436711,22.0844321 46.335283,22.032342 46.6215443,21.9740717 C47.5953676,21.9740717 48.5709745,22.2512969 49.540339,22.3660717 C49.6562703,22.3660717 49.7766606,22.424342 49.8899166,22.4861438 C50.2359271,22.5382339 50.6399032,22.5382339 50.9778877,22.4252248 C51.3818638,22.3122158 51.838455,22.0853149 52.0114603,21.5794231" id="Fill-17" fill="#E1001A"></path>
                    <path d="M20.0555225,18.1668159 C19.8776049,18.218906 19.7014753,18.3398609 19.7631654,18.4502213 C19.9339306,18.6841853 20.2808253,18.3937168 20.566924,18.3937168 C20.2218174,18.5093745 19.8194911,18.4502213 19.5324982,18.7415727 C19.7631654,18.911969 19.9920444,18.7927799 20.2218174,18.7927799 C20.2218174,18.911969 20.3416213,18.911969 20.3925826,18.9684736 C20.1073779,19.0788339 19.8776049,19.3030862 19.8194911,19.4787798 C19.7023694,19.7604195 19.4162706,19.8760771 19.2437173,20.1038609 L19.2437173,20.2671942 C18.6724139,20.7845636 18.0394204,21.1244735 17.5745099,21.7460231 C17.6388821,21.7460231 17.6388821,21.8034104 17.6388821,21.8634465 C17.5163961,22.0320771 17.2910933,22.0938789 17.2356617,22.2580951 C17.2356617,22.3137167 17.2356617,22.3728699 17.2919874,22.3728699 C17.9777303,22.1574465 18.4989665,21.64096 19.132854,21.4087618 C19.5870358,21.2966357 19.9348246,21.0158789 20.3425153,20.9002213 C20.6241438,20.8428339 20.9719326,20.7227618 21.2633957,20.6697888 C21.2633957,20.7227618 21.2633957,20.7845636 21.3098867,20.7845636 L21.7801616,20.7845636 C21.7157893,20.9002213 21.4922747,20.841951 21.5450242,20.9002213 C21.7157893,21.0750321 22.06179,21.0158789 22.2924571,20.9002213 C22.4685867,20.7845636 22.6402459,20.7845636 22.8673368,20.7845636 C22.9263447,20.7845636 22.9263447,20.6697888 22.9263447,20.6176987 C23.0997921,20.6697888 23.2133375,20.6697888 23.3832086,20.6697888 C24.7725757,20.3846177 26.089524,20.1038609 27.3501466,19.4787798 C25.8525985,18.3407438 23.9589824,17.9460952 22.1798058,17.4313745 C22.3469947,17.4313745 22.5213361,17.6070682 22.6956776,17.4313745 C22.4095788,17.2133024 22.060896,17.3121853 21.7783734,17.1550321 C21.832017,17.1550321 21.9518208,17.2124195 22.0072524,17.0985276 C21.5441301,16.8601493 21.0872661,16.8601493 20.6232497,16.7577348 C20.9120307,16.6976988 21.0872661,16.4672664 21.0872661,16.1865096 C21.0872661,16.1282394 20.9710385,16.1282394 20.9120307,16.1282394 C20.2227115,16.4672664 19.7640594,17.0985276 19.4797488,17.8383835 C19.8784989,18.0599871 20.3425153,17.8878249 20.7430536,17.9460952 C20.566924,18.1120772 20.2817193,18.1120772 20.0555225,18.1668159" id="Fill-7" fill="#FFFFFF"></path>
                    <path d="M17.6946714,15.9497204 C17.1028046,16.5748015 16.4912685,17.1539727 15.7340009,17.5459727 C15.2190231,18.5630537 14.6414613,19.4777204 13.8931342,20.4356483 C13.8931342,20.4930357 13.9557183,20.5539546 13.9557183,20.5539546 C15.3343567,19.0265672 16.6021318,17.7216664 18.3804143,16.639252 C18.4984301,16.5880448 18.2087551,16.8034682 18.4429984,16.7566754 C19.1868552,16.5880448 19.4148401,15.8393601 19.763523,15.2760808 C20.221281,14.5335763 21.02951,14.2519367 21.6088599,13.63127 C21.6088599,13.6851259 21.6088599,13.7380989 21.5444877,13.8025493 C21.6088599,13.8528736 21.6642916,13.8528736 21.7152529,13.8528736 C21.9548606,13.684243 22.234701,13.7380989 22.4099364,13.518261 C21.9548606,13.3443331 21.3701463,13.2904773 20.9123883,13.4573421 C19.702727,14.0179727 18.6718774,14.9299907 17.6946714,15.9497204" id="Fill-9" fill="#FFFFFF"></path>
                    <path d="M18.5551134,17.0339006 C18.610545,16.9314862 18.6722351,16.9217745 18.7294548,16.8069997 C18.7294548,16.7566754 18.7294548,16.6966394 18.6722351,16.6966394 C18.4433561,16.7566754 18.2654384,16.9835763 18.2091127,17.212243 C18.2091127,17.2608015 18.2654384,17.2608015 18.3298106,17.2608015 C18.4433561,17.212243 18.4987877,17.1539727 18.5551134,17.0339006" id="Fill-11" fill="#FFFFFF"></path>
                    <path d="M23.1580847,21.3491672 C22.9256294,21.4648249 22.521515,21.4648249 22.4678714,21.7438158 C22.4115457,21.8612393 22.6395307,21.8012032 22.7548642,21.8012032 C23.1580847,21.6378699 23.6194189,21.8012032 23.9591612,21.4648249 C23.8429336,21.3491672 23.6694862,21.4074375 23.559517,21.2290951 C23.4450775,21.1831852 23.2725242,21.2970771 23.1580847,21.3491672" id="Fill-13" fill="#FFFFFF"></path>
                    <path d="M29.3780504,24.3647419 C29.7276273,24.2914626 30.0673695,24.0857509 30.410688,23.9692104 L30.410688,24.0857509 C31.2725605,23.7396609 31.9082362,23.0033365 32.7647443,22.7234627 C32.8246463,22.7234627 32.9381917,22.8302915 33.0526312,22.7773185 C33.5747614,22.321751 34.1487471,21.8061474 34.8926038,21.9288681 C34.8926038,21.9774267 34.8926038,22.0374627 34.9507176,22.0374627 C35.0115136,22.0374627 35.0678393,22.0374627 35.0678393,21.9774267 C34.8327019,22.1495888 34.6100813,22.321751 34.3758379,22.4912645 C34.3275588,22.5486519 34.3758379,22.6016248 34.4339517,22.6016248 C34.7209446,22.4912645 34.8917097,22.2617149 35.1822788,22.1495888 C35.1205888,22.2096248 35.1205888,22.3208681 35.0669452,22.3826699 C33.9761937,23.1763816 32.3043042,25.1001834 32.3043042,25.1001834 L24.4839736,25.1001834 C25.634627,24.9315527 26.7861745,24.5395527 27.9395101,24.4203635 C28.3972681,24.4203635 28.8594964,24.4777509 29.3780504,24.3647419" id="Fill-15" fill="#2C4390"></path>
                    <path d="M49.8991092,10.3373223 C49.5486382,10.2516827 49.2643276,10.3373223 48.9156447,10.3373223 C48.4543105,10.4459169 48.0564544,10.5041872 47.6550221,10.671935 C48.0001287,10.4459169 48.3488116,10.2234305 48.7439855,10.1086557 C49.0300842,10.0477368 49.3206533,9.8808719 49.6040699,9.8808719 C49.9545408,9.81465569 50.2996474,9.71047551 50.5893224,9.81465569 C50.872739,9.93031334 51.3331792,9.93031334 51.3930811,10.1086557 C51.5119909,10.4459169 51.2196337,10.792007 50.872739,11.0118449 C50.8173074,11.1266196 51.0452923,11.1893043 51.0452923,11.2996647 C50.9934369,11.4153223 50.8190955,11.4674124 50.7037619,11.4674124 C50.5902165,11.5256827 50.4704126,11.7004935 50.3577613,11.8143854 C50.4704126,11.8143854 50.3577613,11.9847818 50.4704126,11.9847818 C50.2406396,12.2690701 50.5902165,12.8288178 50.2406396,12.9427097 C49.8418894,13.0601331 49.3859196,13.0601331 48.9174329,12.9427097 C49.1472059,12.8853223 49.4359868,13.0000971 49.6049639,12.7793764 L49.6049639,12.5507097 C49.6049639,12.4871421 49.5477442,12.4871421 49.4976769,12.4871421 C49.4368809,12.5507097 49.3868136,12.5507097 49.3868136,12.5507097 C49.3868136,12.4297547 49.2661157,12.3193944 49.2106841,12.3193944 C48.8664715,12.3820791 48.5723262,12.2055025 48.3505997,11.9847818 C48.5177887,11.9203313 48.6948123,11.8629439 48.8664715,11.9203313 C49.0327664,11.9203313 48.9737585,11.6369259 49.1481,11.5274485 L49.3215473,11.5274485 C49.6702302,11.0718809 50.3586553,10.9677007 50.4713067,10.5041872 C50.4695186,10.3814665 50.124412,10.3814665 49.8991092,10.3373223" id="Fill-19" fill="#9DA0A1"></path>
                    <path d="M2.7340312,38.1295921 C2.58472341,38.1295921 2.44972056,38.1560786 2.28789596,38.1852138 C2.28789596,38.6213579 2.28074349,39.4159525 2.28074349,40.0269074 C2.36120876,40.0366191 2.50872843,40.0498624 2.6043927,40.0498624 C3.22039908,40.0498624 3.64060662,39.6746372 3.64060662,39.0901687 C3.63971256,38.5268894 3.25258519,38.1295921 2.7340312,38.1295921 M4.6625156,42.7629614 C4.3817812,42.7629614 4.22532095,42.7197002 4.07601316,42.6243488 C3.81763022,42.457484 3.55656511,42.0151596 3.41351574,41.7582407 C3.1551328,41.3256281 2.86724593,40.8568173 2.59902835,40.4612858 C2.5525373,40.4736462 2.51498684,40.4736462 2.48548291,40.4736462 C2.4166404,40.4736462 2.35226818,40.4612858 2.27895537,40.4612858 L2.27895537,40.8568173 C2.27895537,41.0581146 2.28610784,41.2567633 2.28610784,41.4562948 C2.29147219,41.8588894 2.30398901,42.0363488 2.3603147,42.1917362 C2.43630969,42.3771416 2.56684224,42.4733759 2.81807271,42.4972137 L2.81807271,42.705574 L2.64462534,42.6923308 C2.44793245,42.6896822 2.17882081,42.6923308 1.82745578,42.6923308 C1.48413728,42.6923308 1.21323752,42.6896822 1.01296839,42.6923308 L0.834156674,42.705574 L0.834156674,42.4963308 C1.02101492,42.4804389 1.11578513,42.4433578 1.2007207,42.3550695 C1.28297409,42.2455921 1.34198196,42.1158083 1.35002849,41.9489434 C1.37416807,41.7273398 1.38310865,41.5887272 1.38310865,40.8568173 L1.38310865,39.6066552 C1.38310865,38.7052318 1.35002849,38.4906912 1.2999612,38.2787993 C1.24452957,38.0819165 1.09790396,38.002457 0.832368557,37.9697903 L0.832368557,37.7658444 C0.984358519,37.7773219 1.13545442,37.7676102 1.28208003,37.7676102 C1.6736777,37.7676102 1.79526967,37.7676102 2.25570985,37.7508354 C2.66429463,37.7340606 2.89674987,37.7278804 3.08360811,37.7278804 C3.58606905,37.7278804 3.89541332,37.8011597 4.1529022,37.9750876 C4.42737819,38.1781507 4.62675326,38.560439 4.62675326,38.9436101 C4.62675326,39.5580966 4.21906254,40.0498624 3.52527306,40.301484 C3.81494805,40.6581687 4.0384627,41.0192678 4.30131593,41.4147993 C4.54002957,41.7962047 4.77963728,42.1281687 4.9691777,42.3082768 C5.07199444,42.4168713 5.13994289,42.457484 5.28388633,42.4963308 L5.28388633,42.7046912 C5.08898155,42.743538 4.8958649,42.7629614 4.6625156,42.7629614" id="Fill-21" fill="#000000"></path>
                    <path d="M8.50821926,42.6120768 C8.45457575,42.7047795 8.39109759,42.72332 8.05224938,42.72332 C7.84125155,42.72332 7.64008836,42.7109596 7.42819648,42.7047795 C7.13136902,42.6915362 6.83185939,42.6880047 6.53324382,42.6880047 C6.23462824,42.6880047 5.93601267,42.6880047 5.64097333,42.7047795 L5.64097333,42.5308515 C5.92081367,42.5061308 6.04598188,42.3560407 6.06743929,42.0788155 C6.08621452,41.8978245 6.08621452,41.6956443 6.08621452,41.3831038 L6.08621452,39.655302 C6.08621452,39.3277525 6.06743929,39.1776624 6.017372,39.04523 C5.95925819,38.8871939 5.8510771,38.8121489 5.64097333,38.7936083 L5.64097333,38.623212 L8.5377232,38.623212 C8.5377232,38.8024372 8.53593508,38.984311 8.53593508,39.158239 C8.53593508,39.3136264 8.52788855,39.4504732 8.5377232,39.5917345 L8.31778478,39.5917345 C8.27486997,39.1158606 8.06744837,38.9940228 7.33163815,38.9940228 C7.19842341,38.9940228 7.0151414,38.9993201 6.86493956,39.0028516 C6.85421085,39.2509417 6.8488465,39.3277525 6.8488465,39.6835543 L6.8488465,40.3925092 C6.94808701,40.3969236 7.0151414,40.3969236 7.13047496,40.3969236 C7.77151498,40.3969236 7.96373758,40.3077525 8.00844051,39.9740227 L8.23195516,39.9740227 C8.21675616,40.0693741 8.21675616,40.2750858 8.21675616,40.5787975 C8.21675616,40.8886894 8.22122645,41.0793921 8.23195516,41.1694461 L8.00844051,41.1694461 C7.98877122,40.8304191 7.82247632,40.741248 7.18590659,40.741248 C7.06967898,40.741248 6.95970977,40.7491939 6.8488465,40.7491939 C6.8488465,41.1208876 6.85421085,41.5208335 6.85421085,41.9066533 C6.85421085,42.1618065 6.89801973,42.2447975 7.04732751,42.2809957 C7.13852149,42.3048335 7.28425304,42.3145452 7.47647564,42.3145452 C8.14701959,42.3145452 8.37500453,42.165338 8.52520638,41.6576804 L8.76213191,41.7018245 C8.67719634,42.1406173 8.57527366,42.4964191 8.50821926,42.6120768 Z M7.13136902,38.2206174 L6.83632968,38.0555183 L7.44875982,37.1585093 L8.15864235,37.2847615 L7.13136902,38.2206174 Z" id="Fill-23" fill="#000000"></path>
                    <path d="M11.0908863,40.8803903 C11.0345607,40.8803903 10.9987983,40.8803903 10.9201212,40.8715615 L10.780648,40.5687326 C11.3644683,40.536066 11.6845413,40.2500119 11.6845413,39.7803182 C11.6845413,39.2956155 11.3465871,38.9442282 10.8736301,38.9442282 C10.7949529,38.9442282 10.7395213,38.9512912 10.6411749,38.968066 C10.6411749,39.3538858 10.6241878,39.7229309 10.6241878,40.1016876 L10.6241878,41.1743903 C10.6241878,41.9778137 10.6304462,42.1120119 10.6983946,42.2779939 C10.7529322,42.435147 10.8602192,42.5075434 11.0676408,42.5304984 L11.0676408,42.7035434 L10.9236974,42.6911831 C10.7574025,42.6876515 10.5401462,42.6876515 10.2406366,42.6876515 C9.9536438,42.6876515 9.72208263,42.6876515 9.56383425,42.6911831 L9.41631458,42.7035434 L9.41631458,42.5304984 C9.69794304,42.5057777 9.81953501,42.3548047 9.84814489,42.0775795 C9.86692012,41.8974714 9.86692012,41.787111 9.86692012,41.1743903 L9.86692012,39.6549489 C9.86692012,39.3273993 9.84814489,39.1773092 9.79807761,39.0448768 C9.73906974,38.8868408 9.62999459,38.8109129 9.41720864,38.7932552 L9.41720864,38.621093 C9.48873333,38.6228588 9.44313634,38.6228588 9.70151928,38.6228588 C9.80880631,38.6228588 9.95453786,38.6228588 10.154807,38.621093 C10.4766681,38.6025525 10.7878005,38.5884264 11.1034032,38.5884264 C11.9849449,38.5884264 12.5097573,39.0166246 12.5097573,39.7238137 C12.5097573,40.4009849 11.9062678,40.8803903 11.0908863,40.8803903" id="Fill-25" fill="#000000"></path>
                    <path d="M16.7197899,38.9275417 C16.6554177,39.0220101 16.6223375,39.1411993 16.6080326,39.3875237 C16.5964098,39.65592 16.5919395,39.8510372 16.5919395,40.2315597 C16.5919395,40.3684065 16.5964098,40.7886588 16.5964098,41.2177398 C16.5964098,41.6450551 16.5302495,41.9072714 16.3514377,42.1624245 C16.0680212,42.5650191 15.593276,42.7777939 14.9745875,42.7777939 C14.5865661,42.7777939 14.2852683,42.7053975 14.0098983,42.5226407 C13.5735977,42.2462984 13.4055147,41.8851993 13.4055147,41.2309831 C13.4055147,40.575884 13.4207136,40.2898299 13.4207136,40.070875 C13.4207136,39.7609831 13.441277,39.4431453 13.3867394,39.1244246 C13.3482949,38.9090011 13.2284911,38.8110011 12.9754725,38.7951092 L12.9754725,38.62383 L13.1122634,38.62383 C13.2696177,38.6361903 13.4976027,38.6361903 13.7980064,38.6361903 C14.0930457,38.6361903 14.3228188,38.6361903 14.4846434,38.62383 L14.6294809,38.62383 L14.6294809,38.7951092 C14.4408345,38.811884 14.3406999,38.8710372 14.2763277,38.9699201 C14.2253664,39.0590912 14.2012268,39.1818119 14.1958625,39.4555056 C14.1869219,39.829848 14.1761932,40.2174335 14.1761932,40.6041362 C14.1761932,41.653884 14.2012268,41.8604786 14.3925553,42.0803164 C14.5427572,42.2471813 14.798458,42.3628389 15.0917092,42.3628389 C15.5074464,42.3628389 15.9097728,42.1633074 16.034941,41.7492353 C16.1189825,41.4905506 16.1306053,41.2945506 16.1306053,40.6041362 L16.1306053,40.002893 C16.1306053,39.3071813 16.1082538,39.0829291 16.0385172,38.9840462 C15.9723569,38.8763345 15.8757986,38.811884 15.713974,38.7951092 L15.713974,38.62383 C15.9660985,38.6361903 16.05014,38.6361903 16.3576962,38.6361903 C16.6786632,38.6361903 16.7662809,38.6361903 17.0058886,38.62383 L17.0058886,38.7951092 C16.8780383,38.8101183 16.7877383,38.8516138 16.7197899,38.9275417" id="Fill-27" fill="#000000"></path>
                    <path d="M19.2033953,40.6488984 C19.0943201,40.6488984 18.9834569,40.6577272 18.8153738,40.6656732 C18.8135857,40.832538 18.8135857,40.8607903 18.8135857,41.1362497 L18.8135857,41.5026461 C18.8135857,41.8496191 18.8243144,42.0367903 18.8752758,42.1533308 C18.9199787,42.3060695 19.0692865,42.3767002 19.3285635,42.3767002 C19.8596343,42.3767002 20.1475212,42.0879975 20.1475212,41.571511 C20.1475212,41.0002858 19.7818512,40.6488984 19.2033953,40.6488984 M19.1783616,38.9369885 C19.0692865,38.9369885 18.9611054,38.9519975 18.8448778,38.9519975 C18.8413015,39.355475 18.8243144,40.0282318 18.8153738,40.2939795 C18.8904748,40.3028083 18.9780925,40.3081056 19.0943201,40.3081056 C19.70228,40.3081056 20.0572212,40.0556011 20.0572212,39.6088624 C20.0554331,39.1903759 19.7264196,38.9369885 19.1783616,38.9369885 M20.5310723,42.415547 C20.2440795,42.6309704 19.9114897,42.7113128 19.2811784,42.7113128 C18.9476945,42.7113128 18.6007998,42.6892407 18.26821,42.6892407 C18.130525,42.6892407 17.8819767,42.6892407 17.7076352,42.6927722 L17.6334284,42.7060155 L17.6334284,42.5320876 C17.9213152,42.5073668 18.0321785,42.3608083 18.0616824,42.0800515 C18.0777755,41.8990605 18.085822,41.7860515 18.085822,41.1759795 L18.085822,40.0194029 C18.085822,39.4561237 18.0768814,39.2062678 18.0142973,39.0473489 C17.9535013,38.8893129 17.8399559,38.8142678 17.6334284,38.7957273 L17.6334284,38.624448 C17.9186331,38.6376912 18.085822,38.6376912 18.4854662,38.6376912 C18.8421956,38.6376912 19.3795248,38.6156192 19.7317839,38.6156192 C20.3102398,38.6156192 20.8252176,38.8910786 20.8252176,39.521457 C20.8252176,40.0008624 20.5310723,40.3107543 19.9436758,40.4617272 C20.5963386,40.5950426 20.9459155,40.9640876 20.9459155,41.5591506 C20.9459155,41.9379074 20.8127008,42.2063038 20.5310723,42.415547" id="Fill-29" fill="#000000"></path>
                    <path d="M24.4415058,42.6211704 C24.3878623,42.7050443 24.3136554,42.7235849 24.001629,42.7235849 C23.8523212,42.7235849 23.6860263,42.7112245 23.5349304,42.7112245 C23.1486971,42.6918011 22.8026964,42.6882695 22.3753364,42.6882695 C22.0633099,42.6882695 21.8478418,42.6882695 21.6609836,42.7050443 L21.6609836,42.5311164 C21.8067151,42.5222876 21.8871804,42.4922695 21.9640694,42.4101614 C22.0722505,42.2812605 22.1062247,42.1276389 22.1062247,41.6703056 L22.1062247,40.807729 L22.1062247,40.1455669 C22.1062247,39.3280173 22.1062247,39.2141255 22.0382763,39.0454948 C21.9801625,38.8874588 21.8648289,38.8124138 21.6609836,38.7938732 L21.6609836,38.6225939 L21.8067151,38.6243597 C21.9792684,38.6358372 22.201889,38.6358372 22.5192798,38.6358372 C22.8214716,38.6358372 23.056609,38.6358372 23.2157515,38.6243597 L23.3704236,38.6225939 L23.3704236,38.7938732 C23.056609,38.7938732 22.9171359,38.9598552 22.8831617,39.2635669 C22.8679627,39.3642155 22.8652805,39.4551525 22.8652805,40.1473326 L22.8652805,41.169711 C22.8652805,42.0243416 22.8679627,42.1294047 22.9502161,42.2194587 C23.0163764,42.2821434 23.1486971,42.3148101 23.4151265,42.3148101 C23.7557629,42.3148101 23.941727,42.2786119 24.0972932,42.1956209 C24.2716347,42.0932065 24.3968029,41.9175128 24.4674335,41.6535308 L24.6954184,41.7109182 C24.6301522,42.0737831 24.5175008,42.5081614 24.4415058,42.6211704" id="Fill-31" fill="#000000"></path>
                    <path d="M26.5985116,42.6918894 C26.4465216,42.6883578 26.2149604,42.6883578 25.9279676,42.6883578 C25.6239877,42.6883578 25.4076255,42.6883578 25.2413306,42.6918894 L25.0964931,42.7051326 L25.0964931,42.5312047 C25.38438,42.506484 25.4997136,42.3608083 25.522065,42.0791687 C25.5408403,41.8981777 25.5453105,41.7851687 25.5453105,41.1750966 L25.5453105,40.1456552 C25.5453105,39.9982137 25.5408403,39.8207543 25.5408403,39.6556552 C25.5408403,39.3281056 25.5247472,39.1780155 25.4800443,39.0455831 C25.4237186,38.8875471 25.3057028,38.8116192 25.0964931,38.7939615 L25.0964931,38.6235651 L25.2413306,38.6315111 C25.4076255,38.6350426 25.6239877,38.6350426 25.9279676,38.6350426 C26.2149604,38.6350426 26.4465216,38.6350426 26.5985116,38.6315111 L26.7478194,38.6235651 L26.7478194,38.7939615 C26.482284,38.8133849 26.3472811,38.978484 26.3222475,39.2636552 C26.2972138,39.4367002 26.2972138,39.6009164 26.2972138,40.1474209 L26.2972138,41.1759795 C26.2972138,41.9794029 26.3097307,42.1136011 26.3714207,42.2795831 C26.422382,42.4367362 26.5386097,42.5091326 26.7478194,42.5320876 L26.7478194,42.7060155 L26.5985116,42.6918894 Z" id="Fill-33" fill="#000000"></path>
                    <path d="M29.4653999,38.9655056 C28.7054501,38.9655056 28.1690149,39.5905867 28.1690149,40.4646408 C28.1690149,41.5249831 28.810949,42.3601903 29.6209661,42.3601903 C30.3853862,42.3601903 30.9227154,41.7253975 30.9227154,40.8389831 C30.9227154,39.7874696 30.2807813,38.9655056 29.4653999,38.9655056 M32.3916537,43.8054695 C31.9097561,43.8054695 31.3920962,43.6553794 30.9003639,43.3816857 C30.6240998,43.2386587 30.22982,42.9746767 29.9472975,42.7398299 C29.7362996,42.7724966 29.6558344,42.776911 29.4582474,42.776911 C28.2065654,42.776911 27.3831374,41.9646587 27.3831374,40.7506948 C27.3831374,39.4502083 28.2763019,38.5514336 29.5950384,38.5514336 C30.8628135,38.5514336 31.7166394,39.3645687 31.7166394,40.5697038 C31.7166394,41.4261002 31.2705042,42.1977398 30.5561514,42.5491272 C30.7832423,42.655956 31.0058629,42.7795596 31.2275894,42.9128749 C31.8534304,43.2872173 32.2879429,43.4487848 32.6974217,43.4487848 C32.9513344,43.4487848 33.1632263,43.394929 33.4108805,43.2713254 L33.4877695,43.4876317 C33.1882599,43.6977578 32.8145434,43.8054695 32.3916537,43.8054695" id="Fill-35" fill="#000000"></path>
                    <path d="M36.0062432,38.9275417 C35.9400829,39.0220101 35.9034265,39.1411993 35.8935918,39.3875237 C35.8819691,39.65592 35.8730285,39.8510372 35.8730285,40.2315597 C35.8730285,40.3684065 35.8828631,40.7886588 35.8828631,41.2177398 C35.8828631,41.6450551 35.8149147,41.9072714 35.6334208,42.1624245 C35.347322,42.5650191 34.8797294,42.7777939 34.2574646,42.7777939 C33.8622907,42.7777939 33.5761919,42.7053975 33.2927753,42.5226407 C32.8645213,42.2462984 32.6946501,41.8851993 32.6946501,41.2309831 C32.6946501,40.575884 32.707167,40.2898299 32.707167,40.070875 C32.707167,39.7609831 32.7214719,39.4431453 32.6687224,39.1244246 C32.6284898,38.9090011 32.5176265,38.8110011 32.2547733,38.7951092 L32.2547733,38.62383 L32.3942465,38.62383 C32.555177,38.6361903 32.7947847,38.6361903 33.0817775,38.6361903 C33.3857574,38.6361903 33.6092721,38.6361903 33.7746729,38.62383 L33.9177223,38.62383 L33.9177223,38.7951092 C33.7219235,38.811884 33.6307295,38.8710372 33.5681454,38.9699201 C33.5091375,39.0590912 33.4912564,39.1818119 33.4876801,39.4555056 C33.4644346,39.829848 33.4590702,40.2174335 33.4590702,40.6041362 C33.4590702,41.653884 33.4912564,41.8604786 33.6799027,42.0803164 C33.8345749,42.2471813 34.0741826,42.3628389 34.3781625,42.3628389 C34.7938997,42.3628389 35.1935439,42.1633074 35.3267587,41.7492353 C35.4018596,41.4905506 35.4161645,41.2945506 35.4161645,40.6041362 L35.4161645,40.002893 C35.4161645,39.3071813 35.3964952,39.0829291 35.3267587,38.9840462 C35.2597043,38.8763345 35.1649341,38.811884 35.0013213,38.7951092 L35.0013213,38.62383 C35.2534459,38.6361903 35.3419577,38.6361903 35.6504079,38.6361903 C35.9606462,38.6361903 36.049158,38.6361903 36.2950241,38.62383 L36.2950241,38.7951092 C36.1618094,38.8101183 36.0732976,38.8516138 36.0062432,38.9275417" id="Fill-37" fill="#000000"></path>
                    <path d="M39.7823891,42.6120768 C39.7278515,42.7047795 39.6616912,42.72332 39.3174786,42.72332 C39.1136333,42.72332 38.910682,42.7109596 38.697002,42.7047795 C38.408221,42.6915362 38.1033471,42.6880047 37.8074137,42.6880047 C37.5123743,42.6880047 37.2137587,42.6880047 36.9178253,42.7047795 L36.9178253,42.5308515 C37.1905132,42.5061308 37.3210458,42.3560407 37.3469735,42.0788155 C37.3648546,41.8978245 37.3648546,41.6956443 37.3648546,41.3831038 L37.3648546,39.655302 C37.3648546,39.3277525 37.3469735,39.1776624 37.2924359,39.04523 C37.2414746,38.8871939 37.1216707,38.8121489 36.9187194,38.7936083 L36.9187194,38.623212 L39.810999,38.623212 L39.810999,39.158239 C39.810999,39.3136264 39.8056346,39.4504732 39.810999,39.5917345 L39.5901665,39.5917345 C39.5508279,39.1158606 39.3451944,38.9940228 38.6022318,38.9940228 C38.4699111,38.9940228 38.2910994,38.9993201 38.1462619,39.0028516 C38.1373213,39.2509417 38.1256985,39.3277525 38.1256985,39.6835543 L38.1256985,40.3925092 C38.2168925,40.3969236 38.2919934,40.3969236 38.4091151,40.3969236 C39.0519432,40.3969236 39.2432718,40.3077525 39.2852925,39.9740227 L39.5043369,39.9740227 C39.4900319,40.0693741 39.4900319,40.2750858 39.4900319,40.5787975 C39.4900319,40.8886894 39.4998666,41.0793921 39.5043369,41.1694461 L39.2852925,41.1694461 C39.2584708,40.8304191 39.0984343,40.741248 38.4600764,40.741248 C38.3456369,40.741248 38.2374558,40.7491939 38.1265926,40.7491939 C38.1265926,41.1208876 38.1391094,41.5208335 38.1391094,41.9066533 C38.1391094,42.1618065 38.1766599,42.2447975 38.3295439,42.2809957 C38.4180557,42.3048335 38.5584229,42.3145452 38.7542217,42.3145452 C39.4238716,42.3145452 39.6536447,42.165338 39.7975881,41.6576804 L40.0434542,41.7018245 C39.9495781,42.1406173 39.8431851,42.4964191 39.7823891,42.6120768" id="Fill-39" fill="#000000"></path>
                    <path d="M45.5160763,38.9512029 C45.5089238,38.4223561 45.1933212,38.2175273 44.3457536,38.2175273 C44.1705181,38.2175273 44.0122697,38.2210588 43.8200471,38.2431309 C43.8003779,38.7463741 43.8003779,39.0968786 43.8003779,39.9100137 C43.9800836,39.9100137 44.0739598,39.9170768 44.199128,39.9170768 C44.900964,39.9170768 45.1119618,39.8084822 45.1477242,39.4147164 L45.419518,39.4147164 C45.419518,39.6054191 45.4007428,39.8243741 45.4007428,40.0256714 C45.4007428,40.3064281 45.419518,40.5915993 45.419518,40.8688245 L45.1477242,40.8688245 C45.1021272,40.413257 44.9233155,40.3293831 44.1320736,40.3293831 C43.9970708,40.3293831 43.9496856,40.3293831 43.8003779,40.3346804 L43.8003779,41.1663561 C43.8003779,41.325275 43.8003779,41.5106804 43.8084244,41.7005002 C43.8289877,42.1075092 43.8584917,42.4668425 44.3466477,42.4968605 L44.3466477,42.704338 L44.1633657,42.6955092 C43.9791896,42.6884461 43.7047136,42.6884461 43.3533486,42.6884461 C42.9930429,42.6884461 42.7203551,42.6884461 42.5227681,42.6955092 L42.3412742,42.704338 L42.3412742,42.4968605 C42.6792284,42.4668425 42.8330065,42.2779056 42.8616163,41.9485903 C42.8893321,41.7252209 42.8893321,41.5874912 42.8893321,40.850284 L42.8893321,39.0015273 C42.8893321,38.611293 42.8616163,38.4347165 42.8026085,38.2784462 C42.7364481,38.0886264 42.5987631,38.001221 42.3403802,37.963257 L42.3403802,37.7663741 L45.7977048,37.7663741 C45.7762474,37.8988066 45.7762474,38.1460138 45.7762474,38.4559057 C45.7762474,38.747257 45.7762474,38.7887525 45.7977048,38.9520858 L45.5160763,38.9520858 L45.5160763,38.9512029 Z" id="Fill-41" fill="#000000"></path>
                    <path d="M48.0699547,38.9202138 C47.9385281,38.9202138 47.8321351,38.9369885 47.6908739,38.9696552 L47.6908739,40.4952768 C47.7570342,40.50852 47.8830965,40.5120516 47.9564093,40.5120516 C48.4651286,40.5120516 48.8102352,40.207457 48.8102352,39.7192227 C48.8102352,39.2680696 48.4973147,38.9202138 48.0699547,38.9202138 M49.6569087,42.7581056 C49.4298178,42.7581056 49.3055437,42.7210245 49.173223,42.6309704 C48.9640133,42.5056011 48.7530155,42.1374389 48.6269532,41.933493 C48.4159554,41.5547362 48.1781358,41.1742137 47.9537271,40.855493 C47.9233291,40.8599074 47.8938252,40.8599074 47.8625331,40.8599074 C47.8053134,40.8599074 47.7579283,40.855493 47.6908739,40.855493 L47.6908739,41.1742137 L47.6908739,41.6677452 C47.6998144,42.0058894 47.7096491,42.1409705 47.7570342,42.2734029 C47.8214064,42.4349704 47.9286934,42.5073668 48.1396913,42.5303218 L48.1396913,42.7042497 L47.9939597,42.694538 C47.8321351,42.6910065 47.6095145,42.694538 47.3216277,42.694538 C47.0391051,42.694538 46.8129083,42.6910065 46.6528718,42.694538 L46.5080343,42.7042497 L46.5080343,42.5303218 C46.6600243,42.521493 46.7297609,42.491475 46.8021796,42.4093668 C46.8701281,42.3299074 46.9166191,42.2177813 46.9345003,42.0782858 C46.9532755,41.8972948 46.9586399,41.7842858 46.9586399,41.1742137 L46.9586399,40.1447723 C46.9586399,39.4093309 46.9345003,39.2168624 46.8826449,39.0482318 C46.8415182,38.8866642 46.7100916,38.8107363 46.5080343,38.7930786 L46.5080343,38.6217993 C46.6260501,38.6350426 46.7485361,38.6235651 46.8710221,38.6235651 C47.1946713,38.6235651 47.2930178,38.6235651 47.6792511,38.6041417 C48.0109468,38.5988444 48.2049576,38.5891327 48.3533713,38.5891327 C48.7717907,38.5891327 49.0248093,38.6509345 49.2429596,38.8019074 C49.478097,38.9652408 49.6238286,39.2839615 49.6238286,39.5991507 C49.6238286,40.0988624 49.2974972,40.5111687 48.7270878,40.7221777 C48.958649,41.0197092 49.1455072,41.307529 49.3618694,41.6439074 C49.5621385,41.9564479 49.7579373,42.2239614 49.9152917,42.3767002 C50.0002272,42.4676371 50.0502945,42.506484 50.1727805,42.5312047 L50.1727805,42.7051326 C50.01185,42.7404479 49.8553897,42.7581056 49.6569087,42.7581056" id="Fill-43" fill="#000000"></path>
                    <path d="M52.126388,39.6982984 C51.9627753,40.1106047 51.7365784,40.6579921 51.6471726,40.9555236 L52.5626886,40.9555236 L52.126388,39.6982984 Z M54.1290792,42.6956858 C53.9761952,42.6921542 53.7535746,42.6921542 53.4656878,42.6921542 C53.1778009,42.6921542 52.9542862,42.6921542 52.8014022,42.6956858 L52.6565647,42.7045146 L52.6565647,42.5305867 C52.8532576,42.5217578 52.9703793,42.4158119 52.9703793,42.2462984 C52.9703793,42.1915596 52.9542862,42.0935596 52.8845497,41.9187488 C52.8174953,41.683902 52.767428,41.5355777 52.6941152,41.3272173 L51.5032291,41.3272173 L51.378955,41.6777218 C51.2832907,41.9584786 51.2376937,42.1633074 51.2376937,42.2657218 C51.2376937,42.4414155 51.3145828,42.5226407 51.5193222,42.5314695 L51.5193222,42.7053975 C51.2806085,42.6965686 51.1938849,42.6930371 50.8997396,42.6930371 C50.6038062,42.6930371 50.5188706,42.6965686 50.2819451,42.7053975 L50.2819451,42.5314695 C50.3776094,42.5226407 50.4062192,42.5076317 50.4723796,42.4502443 C50.5948656,42.3442984 50.7093051,42.128875 50.8997396,41.6591813 L51.4871361,40.1847669 C51.6471726,39.7821723 51.8903565,39.1411993 52.0584395,38.6220642 L52.4786471,38.6220642 C52.5305025,38.8136498 52.6619291,39.1041183 52.7477587,39.3363164 L53.6266183,41.5426407 C53.7714558,41.9187488 53.8787428,42.1377038 53.9583141,42.2798479 C54.0369912,42.4184605 54.1290792,42.4988029 54.2810692,42.5314695 L54.2810692,42.7053975 L54.1290792,42.6956858 Z" id="Fill-45" fill="#000000"></path>
                    <path d="M58.5392915,38.9775128 C58.4740252,39.0869903 58.4606144,39.1894047 58.4489916,39.5107741 C58.4284282,40.0590444 58.4230639,40.920738 58.4230639,41.3250984 L58.4230639,42.2644858 C58.4230639,42.4004497 58.4445213,42.6211704 58.4445213,42.7041614 L58.0180553,42.7041614 C57.6130468,42.1912065 56.7806782,41.1679452 56.7806782,41.1679452 C56.6805437,41.0487561 55.9125473,40.10672 55.5146913,39.6326119 C55.5146913,39.7650444 55.5066447,39.6908822 55.5066447,40.0837651 L55.5066447,40.4819453 C55.5066447,40.9375128 55.5146913,41.3895488 55.5379368,41.8495308 C55.5504536,42.1073326 55.571911,42.2362335 55.6273426,42.3554227 C55.6970792,42.473729 55.785591,42.5258191 55.9652968,42.5302335 L55.9652968,42.7041614 C55.7498287,42.6873867 55.5325724,42.6873867 55.3179984,42.6873867 C55.0891194,42.6873867 54.870075,42.6873867 54.6474544,42.7041614 L54.6474544,42.5302335 C55.0578273,42.5214047 55.0712382,42.1912065 55.0810728,41.8636569 C55.0900134,41.6032065 55.0971659,41.3904317 55.0971659,41.0001975 L55.0971659,39.7129543 C55.0971659,39.1973507 55.0721323,39.081693 54.977362,38.9439633 C54.9138839,38.8503777 54.8316305,38.8115309 54.6483485,38.7929903 L54.6483485,38.6217111 C54.8557701,38.6349543 54.930871,38.6349543 55.1892539,38.6349543 C55.4395903,38.6349543 55.5155853,38.6349543 55.7230069,38.6217111 C55.7927435,38.7550264 55.9179117,38.87863 56.3443776,39.3933507 C56.9487613,40.1164317 57.4968192,40.7415128 58.0055385,41.3798371 L58.0055385,40.0360894 C58.0055385,39.4366119 57.9912336,39.2785759 57.967094,39.111711 C57.9250733,38.9201255 57.8025872,38.8177111 57.5763904,38.7929903 L57.5763904,38.6217111 C57.8285149,38.6349543 57.9152386,38.6349543 58.2317354,38.6349543 C58.546444,38.6349543 58.6367439,38.6349543 58.881716,38.6217111 L58.881716,38.7929903 C58.7189973,38.8018192 58.6322736,38.8265399 58.5392915,38.9775128" id="Fill-47" fill="#000000"></path>
                    <path d="M62.8655517,42.557338 C62.4632253,42.7118425 62.10739,42.7771758 61.620128,42.7771758 L61.5602261,43.0155542 L61.6746656,43.0155542 C61.9124852,43.0155542 62.0698395,43.1824191 62.0698395,43.3819506 C62.0698395,43.7245092 61.7998338,43.9478785 61.3849906,43.9478785 C61.2625046,43.9478785 61.1453829,43.9249236 61.009486,43.8772479 L61.0971038,43.6388695 C61.1820393,43.6635902 61.2517759,43.6874281 61.3188303,43.6874281 C61.4940658,43.6874281 61.6111875,43.6017884 61.6111875,43.439338 C61.6111875,43.3201488 61.5539677,43.2459867 61.4600916,43.2459867 C61.4010837,43.2459867 61.3635332,43.2707074 61.3188303,43.2936623 L61.1847215,43.2530497 L61.3054194,42.7639326 C60.764514,42.7118425 60.3648698,42.5387975 60.0295978,42.1980047 C59.651411,41.8060047 59.4484597,41.2851038 59.4484597,40.66532 C59.4484597,39.346293 60.3031797,38.5516984 61.7220507,38.5516984 C62.1494107,38.5516984 62.5642539,38.6037885 62.9227714,38.7291579 C62.9093605,38.8677705 62.9093605,39.0019687 62.9093605,39.1388155 C62.9093605,39.2500588 62.9183011,39.4681309 62.9227714,39.6067435 L62.6831637,39.6067435 C62.581241,39.1767795 62.2280879,38.9366354 61.6666191,38.9366354 C60.7967001,38.9366354 60.261159,39.5113921 60.261159,40.4613741 C60.261159,41.5685092 60.8914703,42.369284 61.7452962,42.369284 C62.2701086,42.369284 62.6187915,42.1141308 62.7654171,41.6258966 L62.9969783,41.6700407 C62.9486991,41.8836984 62.8843269,42.2297885 62.8655517,42.557338" id="Fill-49" fill="#000000"></path>
                    <path d="M65.1565768,39.6982984 C64.9929641,40.1106047 64.7685554,40.6579921 64.6746792,40.9555236 L65.5919834,40.9555236 L65.1565768,39.6982984 Z M67.1592681,42.6956858 C67.0063841,42.6921542 66.7864457,42.6921542 66.4985588,42.6921542 C66.2079897,42.6921542 65.982687,42.6921542 65.8280148,42.6956858 L65.6885417,42.7045146 L65.6885417,42.5305867 C65.8834465,42.5217578 65.99878,42.4158119 65.99878,42.2462984 C65.99878,42.1915596 65.982687,42.0935596 65.9183148,41.9187488 C65.8476841,41.683902 65.7940406,41.5355777 65.7171516,41.3272173 L64.5316299,41.3272173 L64.4091438,41.6777218 C64.3143736,41.9584786 64.2660945,42.1633074 64.2660945,42.2657218 C64.2660945,42.4414155 64.3492419,42.5226407 64.5441467,42.5314695 L64.5441467,42.7053975 C64.3099033,42.6965686 64.2187094,42.6930371 63.9326106,42.6930371 C63.6402534,42.6930371 63.5499535,42.6965686 63.3157102,42.7053975 L63.3157102,42.5314695 C63.4060101,42.5226407 63.4381962,42.5076317 63.5007803,42.4502443 C63.6214782,42.3442984 63.7457524,42.128875 63.9326106,41.6591813 L64.5101725,40.1847669 C64.6746792,39.7821723 64.914287,39.1411993 65.0868403,38.6220642 L65.50973,38.6220642 C65.5597973,38.8136498 65.6974823,39.1041183 65.7797357,39.3363164 L66.6496547,41.5426407 C66.8016447,41.9187488 66.9098258,42.1377038 66.9885029,42.2798479 C67.0716504,42.4184605 67.1592681,42.4988029 67.310364,42.5314695 L67.310364,42.7053975 L67.1592681,42.6956858 Z" id="Fill-51" fill="#000000"></path>
                    <path d="M69.1780524,42.6918894 C69.0358971,42.6883578 68.8025478,42.6883578 68.5110847,42.6883578 C68.2062107,42.6883578 67.9871664,42.6883578 67.8190833,42.6918894 L67.6796102,42.7051326 L67.6796102,42.5312047 C67.9701793,42.506484 68.0819366,42.3608083 68.104288,42.0791687 C68.1284276,41.8981777 68.1320039,41.7851687 68.1320039,41.1750966 L68.1320039,40.1456552 C68.1320039,39.9982137 68.1284276,39.8207543 68.1284276,39.6556552 C68.1284276,39.3281056 68.1123346,39.1780155 68.0658435,39.0455831 C68.0041535,38.8875471 67.8923962,38.8116192 67.6796102,38.7939615 L67.6796102,38.6235651 L67.8190833,38.6315111 C67.9871664,38.6350426 68.2062107,38.6350426 68.5110847,38.6350426 C68.8016537,38.6350426 69.035003,38.6350426 69.1780524,38.6315111 L69.3363008,38.6235651 L69.3363008,38.7939615 C69.0698713,38.8133849 68.9330804,38.978484 68.9098348,39.2636552 C68.8856953,39.4367002 68.8856953,39.6009164 68.8856953,40.1474209 L68.8856953,41.1759795 C68.8856953,41.9794029 68.8946358,42.1136011 68.9590081,42.2795831 C69.0108635,42.4367362 69.1208327,42.5091326 69.3363008,42.5320876 L69.3363008,42.7060155 L69.1780524,42.6918894 Z" id="Fill-53" fill="#000000"></path>
                    <path d="M71.1119906,42.7771758 C70.7534731,42.7771758 70.4950901,42.7268515 70.0686242,42.5644011 C70.0516371,42.3392659 70.0060401,41.9781669 69.9613372,41.683284 L70.1928983,41.6497344 C70.3386299,42.1406173 70.6694316,42.4010677 71.1504351,42.4010677 C71.5947822,42.4010677 71.8880334,42.1794641 71.8880334,41.8324912 C71.8880334,41.555266 71.697599,41.3672119 71.4141824,41.1941669 L70.7650958,40.7836263 C70.3162784,40.507284 70.0596836,40.2168155 70.0596836,39.6747255 C70.0596836,38.984311 70.5871782,38.5516984 71.4007715,38.5516984 C71.8013098,38.5516984 72.1338996,38.623212 72.4173161,38.7680047 L72.4173161,39.1555903 L72.4173161,39.6067435 L72.1902253,39.6067435 C72.0981372,39.1688336 71.8236612,38.9198606 71.3909369,38.9198606 C70.9993392,38.9198606 70.721287,39.158239 70.721287,39.5034462 C70.721287,39.7868516 70.9322848,39.9819687 71.2612984,40.2018065 L71.7887929,40.537302 C72.2876776,40.8524912 72.5728823,41.1676804 72.5728823,41.653266 C72.5728823,42.3269056 71.9792274,42.7771758 71.1119906,42.7771758" id="Fill-55" fill="#000000"></path>
                    <path d="M76.0939533,42.6120768 C76.042992,42.7047795 75.9768316,42.72332 75.6335131,42.72332 C75.4234094,42.72332 75.2213521,42.7109596 75.0067781,42.7047795 C74.7126328,42.6915362 74.4140172,42.6880047 74.1180838,42.6880047 C73.8203623,42.6880047 73.525323,42.6880047 73.236542,42.7047795 L73.236542,42.5308515 C73.5020774,42.5061308 73.6281397,42.3560407 73.6558555,42.0788155 C73.6746307,41.8978245 73.6746307,41.6956443 73.6746307,41.3831038 L73.6746307,39.655302 C73.6746307,39.3277525 73.6558555,39.1776624 73.6084704,39.04523 C73.5458863,38.8871939 73.4430696,38.8121489 73.2374361,38.7936083 L73.2374361,38.623212 L76.1315038,38.623212 C76.1315038,38.8024372 76.1225632,38.984311 76.1225632,39.158239 C76.1225632,39.3136264 76.1100464,39.4504732 76.1315038,39.5917345 L75.905307,39.5917345 C75.85971,39.1158606 75.6505003,38.9940228 74.9164781,38.9940228 C74.7823694,38.9940228 74.5999814,38.9993201 74.4524617,39.0028516 C74.4390508,39.2509417 74.4336865,39.3277525 74.4336865,39.6835543 L74.4336865,40.3925092 C74.5275626,40.3969236 74.6008755,40.3969236 74.7135268,40.3969236 C75.3590371,40.3969236 75.5512597,40.3077525 75.5950686,39.9740227 L75.815007,39.9740227 C75.8033843,40.0693741 75.8033843,40.2750858 75.8033843,40.5787975 C75.8033843,40.8886894 75.8114308,41.0793921 75.815007,41.1694461 L75.5950686,41.1694461 C75.5789756,40.8304191 75.4064223,40.741248 74.7680644,40.741248 C74.6598833,40.741248 74.548126,40.7491939 74.4345806,40.7491939 C74.4345806,41.1208876 74.441733,41.5208335 74.441733,41.9066533 C74.441733,42.1618065 74.486436,42.2447975 74.6411081,42.2809957 C74.731408,42.3048335 74.8726693,42.3145452 75.0613156,42.3145452 C75.7327536,42.3145452 75.9661029,42.165338 76.1091523,41.6576804 L76.3496541,41.7018245 C76.2620363,42.1406173 76.1601137,42.4964191 76.0939533,42.6120768" id="Fill-57" fill="#000000"></path>
                    <path d="M2.96183733,32.2338769 C2.90461758,32.3000931 2.81431766,32.330994 2.5997436,32.330994 C2.30470426,32.330994 2.01413521,32.308922 1.72177805,32.3000931 C1.46518323,32.3000931 1.27296064,32.2894985 1.1397459,32.2894985 C0.961828242,32.2894985 0.519269235,32.3000931 0.388736679,32.3000931 L0.307377347,32.308922 L0.329728812,32.1826697 C0.511222708,32.1623634 0.622980033,32.1085076 0.7079156,31.9990301 C0.802685811,31.8807238 0.86079962,31.7094445 0.94394707,31.3792463 C1.02262423,31.0516968 1.06196281,30.8601112 1.19070724,30.2473905 L1.28279528,29.7679851 C1.38114173,29.2956427 1.41601001,29.0193004 1.41601001,28.8709761 C1.41601001,28.6105256 1.32302792,28.494868 1.06196281,28.4666157 L1.08610239,28.3403635 C1.12275879,28.3500752 1.15315678,28.3500752 1.16924984,28.3500752 L1.83532349,28.3500752 L2.51480803,28.3500752 C2.53358326,28.3500752 2.56845155,28.3500752 2.60868418,28.3403635 L2.58543866,28.4666157 C2.40305071,28.4816247 2.30023397,28.5231202 2.20546376,28.6467238 C2.05705003,28.8436067 1.97390258,29.0916968 1.74949387,30.2482734 L1.66992265,30.6491022 C1.57694056,31.1311562 1.54028416,31.2936067 1.51078022,31.5178589 C1.4982634,31.5911382 1.49021688,31.6670661 1.49021688,31.697967 C1.49021688,31.9372283 1.60733855,32.0078589 1.99893622,32.0078589 C2.67663264,32.0078589 2.93501557,31.8674805 3.15405993,31.3801292 L3.3167786,31.4445796 C3.16747081,31.8295166 3.0360442,32.1332283 2.96183733,32.2338769" id="Fill-59" fill="#000000"></path>
                    <path d="M4.09738116,32.3727544 C3.97757731,32.3727544 3.8935358,32.3091868 3.8935358,32.2014751 C3.8935358,32.1502679 3.91231103,32.0531508 3.9453912,31.9242499 C4.02138618,31.6028805 4.12956727,31.1755652 4.19393949,30.9530788 C4.27708694,30.6484842 4.31016711,30.4242319 4.31016711,30.3368265 C4.31016711,30.2626643 4.27708694,30.2335292 4.20913848,30.2335292 C4.15638903,30.2335292 4.09827522,30.2485382 3.97847137,30.2865022 L3.93376844,30.2962139 L3.91320509,30.1311148 C4.247583,30.0075112 4.57659657,29.9271689 4.73395088,29.9271689 C4.82872109,29.9271689 4.86716561,29.9607184 4.86716561,30.031349 C4.86716561,30.099331 4.83408545,30.2891508 4.72322218,30.7182319 L4.63381632,31.0572589 C4.4809323,31.6346643 4.44516996,31.8421418 4.44516996,31.9427904 C4.44516996,32.0187184 4.49434318,32.0716913 4.58374904,32.0716913 C4.64186285,32.0716913 4.7464677,32.0531508 4.91633884,31.9957634 L4.92617348,32.1582139 C4.61146485,32.2835832 4.26188794,32.3727544 4.09738116,32.3727544 M4.75719641,29.3285743 C4.57033816,29.3285743 4.44338184,29.2129166 4.44338184,29.0460518 C4.44338184,28.8350428 4.60073615,28.6849527 4.82067457,28.6849527 C5.00216846,28.6849527 5.11124361,28.7908986 5.11124361,28.9683581 C5.11213767,29.1767184 4.96014771,29.3285743 4.75719641,29.3285743" id="Fill-61" fill="#000000"></path>
                    <path d="M7.4103153,30.1845292 C7.30481639,30.1845292 7.16891948,30.2242589 7.0044127,30.3134301 C6.83185939,30.4008355 6.69506842,30.4944211 6.62980215,30.5906553 C6.55380716,30.7010157 6.49211712,30.8784751 6.4018172,31.2678265 C6.30972917,31.648349 6.25787377,31.8814301 6.25787377,31.9670697 C6.25787377,32.0677184 6.4018172,32.1348175 6.63963679,32.1348175 C6.88907914,32.1348175 7.10007697,32.0200427 7.25474911,31.8081508 C7.49525087,31.4585292 7.67763882,30.9243851 7.67763882,30.5359166 C7.67674477,30.3098986 7.58376267,30.1845292 7.4103153,30.1845292 M7.41389154,32.0942049 C7.1814363,32.304331 6.90159596,32.379376 6.47513001,32.379376 C5.99859677,32.379376 5.72054455,32.304331 5.72054455,32.1824931 C5.72054455,32.1321688 5.72412078,32.0694841 5.78491677,31.82934 L6.09604916,30.4732319 C6.19975996,30.0379707 6.27843712,29.6954121 6.3910885,29.2080608 C6.45188448,28.9237725 6.47513001,28.761322 6.47513001,28.6827455 C6.47513001,28.6174121 6.43757955,28.5741509 6.37141921,28.5741509 C6.32939846,28.5741509 6.19707778,28.6085833 6.10946004,28.633304 L6.09604916,28.4611419 L6.17383226,28.4311238 C6.49926959,28.339304 6.77016935,28.271322 6.89891378,28.271322 C6.97401471,28.271322 7.02408199,28.3066374 7.02408199,28.3666734 C7.02408199,28.430241 6.99457805,28.5829797 6.89086726,29.0270698 L6.70758524,29.8110698 C6.65036549,30.0688716 6.62801403,30.1659887 6.61102691,30.2454481 C6.99457805,30.0291418 7.32537974,29.9249617 7.62667748,29.9249617 C7.99592369,29.9249617 8.17652352,30.1077184 8.17652352,30.4882409 C8.17652352,31.0409256 7.85466243,31.7225112 7.41389154,32.0942049" id="Fill-63" fill="#000000"></path>
                    <path d="M10.1143061,30.1663418 C9.82194897,30.1663418 9.51439281,30.5556932 9.36597909,31.1383959 L9.42856319,31.1383959 C9.98466764,31.1383959 10.4093455,30.8426301 10.4093455,30.4656391 C10.4093455,30.2952427 10.2761307,30.1663418 10.1143061,30.1663418 M9.48935917,31.3502878 C9.45091465,31.3502878 9.3936949,31.3502878 9.31233557,31.3458733 C9.29713657,31.4562337 9.29356034,31.5507022 9.29356034,31.6336932 C9.29356034,31.9453508 9.39637708,32.0989724 9.6118452,32.0989724 C9.80496186,32.0989724 10.0463577,31.9947922 10.3959346,31.7776031 L10.4656712,31.9789004 C10.0186419,32.2570085 9.68247583,32.3859094 9.37313155,32.3859094 C9.00388535,32.3859094 8.79467564,32.1572427 8.79467564,31.7661256 C8.79467564,30.7878914 9.47058394,29.9270806 10.2466268,29.9270806 C10.6292839,29.9270806 10.8581629,30.1010085 10.8581629,30.391477 C10.8581629,30.9450445 10.2636139,31.3502878 9.48935917,31.3502878" id="Fill-65" fill="#000000"></path>
                    <path d="M13.2719423,30.6966013 L13.0752494,30.6815923 C13.0824019,30.6074301 13.0904484,30.5164932 13.0904484,30.442331 C13.0904484,30.3363851 12.9947841,30.2551598 12.8419001,30.2551598 C12.7533883,30.2551598 12.6621943,30.3090157 12.5826231,30.3990698 C12.3510619,30.6595202 12.259868,31.0647634 12.1302295,31.7216283 L12.0184721,32.304331 C11.7806526,32.3131598 11.7279031,32.3219886 11.4927657,32.3422949 C11.5526676,32.1277544 11.5973705,31.9441148 11.6456497,31.7410517 L11.7779704,31.1954301 C11.8655881,30.8210878 11.9076089,30.5774121 11.9076089,30.4520427 C11.9076089,30.3090157 11.8691644,30.246331 11.80211,30.246331 C11.7645595,30.246331 11.71181,30.2551598 11.65012,30.2684031 L11.4936597,30.3116643 L11.4838251,30.141268 C11.7779704,30.0176644 12.1105602,29.9258445 12.2616561,29.9258445 C12.3296045,29.9258445 12.3608966,29.9496824 12.3752015,30.0097184 C12.3895065,30.0750517 12.4011292,30.1651058 12.4100698,30.2604571 C12.6809696,30.0459166 12.9214713,29.922313 13.0913425,29.922313 C13.2084641,29.922313 13.3524076,29.9735202 13.4927748,30.0750517 C13.3881699,30.2948896 13.3148571,30.4908896 13.2719423,30.6966013" id="Fill-67" fill="#000000"></path>
                    <path d="M15.314151,30.2892391 L14.81169,30.2759959 L14.567612,31.5005544 C14.4951933,31.8183923 14.490723,31.9049148 14.490723,31.9508247 C14.490723,32.0364643 14.5291675,32.0788427 14.6114209,32.0788427 C14.6543357,32.0788427 14.7455297,32.0594193 14.8832147,32.0188067 L14.9440107,31.9958517 L14.9654681,32.167131 C14.6525476,32.3057436 14.3262162,32.3799058 14.1500867,32.3799058 C14.0258125,32.3799058 13.9462413,32.3242841 13.9462413,32.2095094 C13.9462413,32.1035634 13.9668046,31.9649508 14.0213422,31.7768968 C14.0660451,31.5597076 14.1125362,31.3893112 14.1608154,31.157113 L14.3485677,30.275113 L14.0249185,30.2848247 L14.0660451,30.0950049 C14.4808883,30.0181941 14.6212555,29.7091851 14.735695,29.3569148 L15.02537,29.2959959 L14.8751682,29.9952391 L15.3749469,29.9952391 L15.314151,30.2892391 Z" id="Fill-69" fill="#000000"></path>
                    <path d="M17.1205964,30.1663418 C16.8291333,30.1663418 16.5260474,30.5556932 16.3731634,31.1383959 L16.4303831,31.1383959 C16.9873816,31.1383959 17.4111654,30.8426301 17.4111654,30.4656391 C17.4111654,30.2952427 17.2788447,30.1663418 17.1205964,30.1663418 Z M16.4920732,31.3502878 C16.458993,31.3502878 16.3964089,31.3502878 16.3257783,31.3458733 C16.3016387,31.4562337 16.2971684,31.5507022 16.2971684,31.6336932 C16.2971684,31.9453508 16.4044554,32.0989724 16.6217117,32.0989724 C16.8121461,32.0989724 17.053542,31.9947922 17.4111654,31.7776031 L17.4728554,31.9789004 C17.0311905,32.2570085 16.6905542,32.3859094 16.3812099,32.3859094 C16.0092815,32.3859094 15.8054362,32.1572427 15.8054362,31.7661256 C15.8054362,30.7878914 16.4777682,29.9270806 17.2555992,29.9270806 C17.6427266,29.9270806 17.8590888,30.1010085 17.8590888,30.391477 C17.8608769,30.9450445 17.2725863,31.3502878 16.4920732,31.3502878 Z M17.1679815,29.5615671 L16.9748648,29.3999995 L17.7062047,28.5806842 L18.2515805,28.7113509 L17.1679815,29.5615671 Z" id="Fill-71" fill="#000000"></path>
                    <path d="M28.6717441,29.2093851 L28.5009789,29.2093851 C28.5099195,29.1440518 28.5117076,29.1202139 28.5117076,29.0760698 C28.5117076,28.7449887 28.2989216,28.6355112 27.6891737,28.6355112 C27.4933748,28.6355112 27.3038344,28.6355112 27.099989,28.6531689 C26.977503,29.1484662 26.8952496,29.5784301 26.7906448,30.1090427 L27.0105832,30.1090427 C27.3986046,30.1090427 27.5604292,30.1028626 27.6954321,30.0746103 C27.9260992,30.0331148 28.0467971,29.903331 28.1165337,29.6693671 L28.2837226,29.6693671 C28.2005752,30.0189887 28.0959703,30.5169346 28.0467971,30.8294752 L27.8903368,30.8294752 C27.9010656,30.7897454 27.9028537,30.7535472 27.9028537,30.7297094 C27.9028537,30.4692589 27.7410291,30.386268 27.2492968,30.386268 C26.9515753,30.386268 26.8433942,30.3880337 26.7343191,30.3880337 C26.7003449,30.5434211 26.7343191,30.4109887 26.5993162,31.0934571 C26.5268975,31.4298355 26.5054401,31.6417274 26.5054401,31.7441418 C26.5054401,31.9525022 26.6145152,32.0098895 27.0150535,32.0098895 C27.7776855,32.0098895 28.0119288,31.8898175 28.2461722,31.3795112 L28.3999503,31.4360157 C28.2658415,31.833313 28.1174277,32.1387904 28.0360684,32.2456193 C27.9770605,32.3118355 27.9010656,32.3347904 27.6471529,32.3347904 C27.4361551,32.3347904 27.2135345,32.3259616 27.0052188,32.3171328 C26.7262726,32.3118355 26.4482203,32.3030067 26.1656978,32.3030067 C25.878705,32.3030067 25.604229,32.3118355 25.3217065,32.3118355 L25.3494223,32.1864661 C25.5246578,32.1652769 25.634627,32.1114211 25.7177745,32.0019436 C25.8161209,31.8871688 25.878705,31.7114751 25.9672168,31.3821598 C26.0405296,31.0510788 26.0691395,30.9204121 26.2023542,30.250304 L26.2989125,29.7735472 C26.398153,29.3038536 26.4303392,29.0230968 26.4303392,28.8738896 C26.4303392,28.6134392 26.3355689,28.4977815 26.0807622,28.4695292 L26.1057959,28.343277 L28.8469796,28.343277 C28.777243,28.6099076 28.7182351,28.9321599 28.6717441,29.2093851 Z M27.5300312,27.9380338 L27.3360205,27.7799977 L28.0736189,26.9571509 L28.6261471,27.0948806 L27.5300312,27.9380338 Z" id="Fill-73" fill="#000000"></path>
                    <path d="M30.5925396,32.5662823 C30.3895883,32.4877058 30.1455103,32.4055976 29.8853392,32.3314355 C29.4749663,32.4312012 29.1781389,32.7375616 29.1781389,33.0836517 C29.1781389,33.4050211 29.4588733,33.6177958 29.8915976,33.6177958 C30.4190922,33.6177958 30.9000957,33.2717057 30.9000957,32.8832373 C30.9009898,32.741976 30.8097958,32.651922 30.5925396,32.5662823 Z M30.5013456,30.1560121 C30.1768023,30.1560121 29.9085847,30.4941562 29.9085847,30.902931 C29.9085847,31.1748589 30.0730915,31.3611472 30.3135933,31.3611472 C30.6256197,31.3611472 30.888473,31.0406607 30.888473,30.638949 C30.8902611,30.3370031 30.7400592,30.1560121 30.5013456,30.1560121 Z M31.6546812,30.2804986 L31.2460964,30.2760842 C31.3176211,30.3996878 31.3417607,30.4985707 31.3417607,30.6371833 C31.3417607,31.1881022 30.874168,31.6021742 30.2760428,31.6021742 C30.156239,31.6021742 30.0730915,31.5924625 29.9479233,31.5553814 C29.7995096,31.6463184 29.7485482,31.6833995 29.7485482,31.739904 C29.7485482,31.8043544 29.8147086,31.8405526 30.080244,31.9226607 L30.5567772,32.0648049 C31.0431451,32.2166607 31.2845409,32.3543904 31.2845409,32.7022463 C31.2845409,33.3388048 30.644395,33.8323364 29.8415303,33.8323364 C29.1772448,33.8323364 28.767766,33.5215616 28.767766,33.0174355 C28.767766,32.5477418 29.0771102,32.3287868 29.5697365,32.2060661 C29.2639685,32.0974715 29.1995963,32.0506787 29.1995963,31.9491472 C29.1995963,31.8246607 29.3757258,31.6586787 29.7378195,31.4582643 C29.5500672,31.3231833 29.4606614,31.1545526 29.4606614,30.9214715 C29.4606614,30.3546607 29.9202075,29.9246968 30.522803,29.9246968 C30.6810514,29.9246968 30.7928087,29.9450031 30.9278115,29.9917959 L31.7235237,29.9917959 L31.6546812,30.2804986 Z" id="Fill-75" fill="#000000"></path>
                    <path d="M33.6405641,30.1793202 C33.4054267,30.1793202 33.1631369,30.3567797 32.9592915,30.693158 C32.7259422,31.0516085 32.5641176,31.5371941 32.5641176,31.854149 C32.5641176,32.03514 32.6481591,32.13314 32.8090896,32.13314 C33.0299221,32.13314 33.4215198,31.9450859 33.5752979,31.794113 C33.6584453,31.7084733 33.6959958,31.590167 33.7666264,31.3579688 C33.8569263,31.0030499 33.9499084,30.6604914 34.0080222,30.2631941 C33.866761,30.2084553 33.7406987,30.1793202 33.6405641,30.1793202 M33.9212985,32.3856445 C33.8175877,32.3856445 33.7746729,32.3132481 33.7210294,32.0183652 C33.2757882,32.2726355 32.9476687,32.3909418 32.6302779,32.3909418 C32.2708664,32.3909418 32.0571864,32.201122 32.0571864,31.8762211 C32.0571864,31.5575004 32.2145407,31.1134103 32.4568306,30.7523112 C32.7822679,30.2481851 33.180124,29.9285815 33.8032828,29.9285815 C34.0697123,29.9285815 34.3164724,29.9762571 34.5820078,30.0415905 L34.5498217,30.1404734 C34.3325655,30.8282391 34.1796815,31.5769238 34.1796815,31.8311941 C34.1796815,31.9962931 34.2145498,32.0784013 34.2851804,32.0784013 C34.3325655,32.0784013 34.4613099,32.0483832 34.6106177,31.9954103 L34.6284989,32.1755184 C34.3155784,32.2894103 34.0232212,32.3856445 33.9212985,32.3856445" id="Fill-77" fill="#000000"></path>
                    <path d="M36.5921198,28.8774211 C36.3945329,29.6693671 36.1960518,30.5496013 35.9993589,31.3936373 C35.9412451,31.6664481 35.9072709,31.8412589 35.9072709,31.9419076 C35.9072709,32.0178355 35.9573382,32.0610968 36.0404856,32.0610968 C36.1030697,32.0610968 36.2094627,32.0416733 36.3757576,31.9948805 L36.3900626,32.157331 C36.0798242,32.2809346 35.7070018,32.3859976 35.5442831,32.3859976 C35.4289496,32.3859976 35.3636833,32.3136013 35.3636833,32.2014751 C35.3636833,32.1176013 35.3824585,32.0116553 35.4691822,31.6346643 C35.6614048,30.8471328 35.863462,30.0110427 36.0243926,29.2676554 C36.0959173,28.9109707 36.1343618,28.7449887 36.1343618,28.6867184 C36.1343618,28.6196193 36.0959173,28.5816554 36.0333332,28.5816554 C35.9743253,28.5816554 35.863462,28.6099076 35.7669037,28.6425743 L35.7543869,28.4633491 C36.0619431,28.3529887 36.4007913,28.2735292 36.5733446,28.2735292 C36.656492,28.2735292 36.6985128,28.3079617 36.6985128,28.3688806 C36.6976187,28.4324482 36.670797,28.5745923 36.5921198,28.8774211" id="Fill-79" fill="#000000"></path>
                    <path d="M37.4342336,32.3727544 C37.3090654,32.3727544 37.2330704,32.3091868 37.2330704,32.2014751 C37.2330704,32.1502679 37.2509516,32.0531508 37.2840318,31.9242499 C37.363603,31.6028805 37.4646316,31.1755652 37.5290038,30.9530788 C37.6103631,30.6484842 37.6461255,30.4242319 37.6461255,30.3368265 C37.6461255,30.2626643 37.6103631,30.2335292 37.5459909,30.2335292 C37.4896652,30.2335292 37.4387039,30.2485382 37.3099595,30.2865022 L37.2670446,30.2962139 L37.2509516,30.1311148 C37.5799651,30.0075112 37.9062965,29.9271689 38.0699093,29.9271689 C38.1611032,29.9271689 38.1959715,29.9607184 38.1959715,30.031349 C38.1959715,30.099331 38.1709379,30.2891508 38.0573924,30.7182319 L37.9724569,31.0572589 C37.8159966,31.6346643 37.7847046,31.8421418 37.7847046,31.9427904 C37.7847046,32.0187184 37.8294075,32.0716913 37.9206015,32.0716913 C37.9769272,32.0716913 38.0788498,32.0531508 38.2522972,31.9957634 L38.2612378,32.1582139 C37.9366945,32.2835832 37.592482,32.3727544 37.4342336,32.3727544 M38.0860023,29.3285743 C37.9018262,29.3285743 37.7838105,29.2129166 37.7838105,29.0460518 C37.7838105,28.8350428 37.9366945,28.6849527 38.1548448,28.6849527 C38.3381268,28.6849527 38.4516723,28.7908986 38.4516723,28.9683581 C38.4516723,29.1767184 38.294318,29.3285743 38.0860023,29.3285743" id="Fill-81" fill="#000000"></path>
                    <path d="M40.4651817,30.2892391 L39.9654029,30.2759959 L39.7088081,31.5005544 C39.6390715,31.8183923 39.6390715,31.9049148 39.6390715,31.9508247 C39.6390715,32.0364643 39.6748339,32.0788427 39.7544051,32.0788427 C39.8008961,32.0788427 39.890302,32.0594193 40.0378216,32.0188067 L40.0923592,31.9958517 L40.1111345,32.167131 C39.8008961,32.3057436 39.4772469,32.3799058 39.295753,32.3799058 C39.1768432,32.3799058 39.097272,32.3242841 39.097272,32.2095094 C39.097272,32.1035634 39.1142591,31.9649508 39.1687967,31.7768968 C39.2179699,31.5597076 39.2573085,31.3893112 39.3055877,31.157113 L39.4951281,30.275113 L39.1795254,30.2848247 L39.2170759,30.0950049 C39.6274487,30.0181941 39.7660278,29.7091851 39.8885139,29.3569148 L40.1701423,29.2959959 L40.0208345,29.9952391 L40.5232955,29.9952391 L40.4651817,30.2892391 Z" id="Fill-83" fill="#000000"></path>
                    <path d="M42.2699283,30.1663418 C41.9704187,30.1663418 41.6682269,30.5556932 41.5198132,31.1383959 L41.5832913,31.1383959 C42.1358196,31.1383959 42.5604974,30.8426301 42.5604974,30.4656391 C42.5604974,30.2952427 42.4290708,30.1663418 42.2699283,30.1663418 Z M41.6449814,31.3502878 C41.5993844,31.3502878 41.5457409,31.3502878 41.4634875,31.3458733 C41.4447123,31.4562337 41.4447123,31.5507022 41.4447123,31.6336932 C41.4447123,31.9453508 41.5484231,32.0989724 41.7656793,32.0989724 C41.9605841,32.0989724 42.2001918,31.9947922 42.5506627,31.7776031 L42.6212934,31.9789004 C42.172476,32.2570085 41.8336278,32.3859094 41.53233,32.3859094 C41.1532492,32.3859094 40.9502979,32.1572427 40.9502979,31.7661256 C40.9502979,30.7878914 41.6208418,29.9270806 42.3995668,29.9270806 C42.7795418,29.9270806 43.011997,30.1010085 43.011997,30.391477 C43.012891,30.9450445 42.4129777,31.3502878 41.6449814,31.3502878 Z M42.3164194,29.5615671 L42.1215146,29.3999995 L42.8582189,28.5806842 L43.4009125,28.7113509 L42.3164194,29.5615671 Z" id="Fill-85" fill="#000000"></path>
                    <path d="M53.7407002,29.2002914 L53.5601004,29.2002914 C53.5672528,29.1446698 53.5761934,29.0916968 53.5761934,29.0625617 C53.5761934,28.9433725 53.5332786,28.8515527 53.4662242,28.7773905 C53.3491025,28.6705617 53.1345285,28.6299491 52.6740883,28.6299491 C52.5533904,28.6299491 52.379943,28.6352464 52.2324233,28.6440752 C52.1251363,29.1287779 52.0339423,29.6020031 51.9203969,30.1070121 C52.0339423,30.1070121 52.1465937,30.1114265 52.2619273,30.1114265 C52.9351534,30.1114265 53.0638978,30.0540391 53.188172,29.6682193 L53.3517847,29.6682193 C53.2561204,30.0540391 53.1792314,30.4345616 53.127376,30.8283274 L52.9521405,30.8283274 C52.9610811,30.7885977 52.9691276,30.755931 52.9691276,30.7320932 C52.9691276,30.6261472 52.9315772,30.5254986 52.8537941,30.4760571 C52.7500833,30.3930661 52.6311735,30.3851202 52.2690797,30.3851202 C52.0759631,30.3851202 52.0250017,30.386886 51.8596009,30.386886 L51.7836059,30.8044896 C51.6754248,31.35894 51.6307219,31.6335166 51.6307219,31.7986157 C51.6307219,32.0431742 51.738903,32.1544175 51.9847691,32.1844355 L51.9659939,32.3106877 L51.8596009,32.3018589 L51.3231657,32.3018589 L50.5551694,32.3018589 L50.4514586,32.3106877 L50.4755982,32.1844355 C50.6615624,32.1641292 50.7697435,32.1102733 50.8502087,31.9963814 C50.9521314,31.8824895 51.0120333,31.7112103 51.0907105,31.3810121 C51.1792223,31.0428679 51.2114084,30.8636427 51.3356826,30.2491562 L51.4322409,29.7697508 C51.5243289,29.2974085 51.5654556,29.0210662 51.5654556,28.8727419 C51.5654556,28.6122914 51.4688973,28.4966337 51.2114084,28.4683815 L51.2275015,28.3421292 L53.9105713,28.3421292 C53.8479872,28.6105256 53.7880853,28.9107058 53.7407002,29.2002914" id="Fill-87" fill="#000000"></path>
                    <path d="M55.7942634,30.6966013 L55.590418,30.6815923 C55.605617,30.6074301 55.6118754,30.5164932 55.6118754,30.442331 C55.6118754,30.3363851 55.5162112,30.2551598 55.3633271,30.2551598 C55.2766035,30.2551598 55.1889857,30.3090157 55.1058383,30.3990698 C54.8787474,30.6595202 54.7884475,31.0647634 54.6561268,31.7216283 L54.5354289,32.304331 C54.3092321,32.3131598 54.2493301,32.3219886 54.0168749,32.3422949 C54.0776709,32.1277544 54.1205857,31.9441148 54.1661827,31.7410517 L54.2985034,31.1954301 C54.3879092,30.8210878 54.4290359,30.5774121 54.4290359,30.4520427 C54.4290359,30.3090157 54.3968498,30.246331 54.3280073,30.246331 C54.2904568,30.246331 54.2386014,30.2551598 54.1724411,30.2684031 L54.0213452,30.3116643 L53.9998878,30.141268 C54.3002915,30.0176644 54.6373516,29.9258445 54.7902356,29.9258445 C54.8483494,29.9258445 54.8814296,29.9496824 54.8939464,30.0097184 C54.9154038,30.0750517 54.9314968,30.1651058 54.9368612,30.2604571 C55.208655,30.0459166 55.4411102,29.922313 55.6136636,29.922313 C55.7307852,29.922313 55.8702584,29.9735202 56.0150959,30.0750517 C55.9212197,30.2948896 55.8425426,30.4908896 55.7942634,30.6966013" id="Fill-89" fill="#000000"></path>
                    <path d="M57.8949435,30.1793202 C57.6508655,30.1793202 57.41394,30.3567797 57.2020481,30.693158 C56.9776394,31.0516085 56.8140266,31.5371941 56.8140266,31.854149 C56.8140266,32.03514 56.9061147,32.13314 57.0572106,32.13314 C57.2753609,32.13314 57.6767932,31.9450859 57.8252069,31.794113 C57.9083544,31.7084733 57.9503751,31.590167 58.0192176,31.3579688 C58.1175641,31.0030499 58.2042878,30.6604914 58.2561432,30.2631941 C58.1211403,30.2084553 58.0004424,30.1793202 57.8949435,30.1793202 M58.1729957,32.3856445 C58.0648146,32.3856445 58.0290523,32.3132481 57.9736206,32.0183652 C57.5301676,32.2726355 57.1957897,32.3909418 56.8846573,32.3909418 C56.5189873,32.3909418 56.3088835,32.201122 56.3088835,31.8762211 C56.3088835,31.5575004 56.4644497,31.1134103 56.7076337,30.7523112 C57.0303888,30.2481851 57.4345033,29.9285815 58.0505097,29.9285815 C58.3205154,29.9285815 58.5672755,29.9762571 58.8265525,30.0415905 L58.8015189,30.1404734 C58.5833686,30.8282391 58.4286965,31.5769238 58.4286965,31.8311941 C58.4286965,31.9962931 58.4626707,32.0784013 58.5395597,32.0784013 C58.5833686,32.0784013 58.7049606,32.0483832 58.8614208,31.9954103 L58.8784079,32.1755184 C58.5681696,32.2894103 58.2776006,32.3856445 58.1729957,32.3856445" id="Fill-91" fill="#000000"></path>
                    <path d="M61.0459636,30.2892391 L60.5524433,30.2759959 L60.2994247,31.5005544 C60.2279,31.8183923 60.2243238,31.9049148 60.2243238,31.9508247 C60.2243238,32.0364643 60.2690267,32.0788427 60.3423395,32.0788427 C60.3861484,32.0788427 60.4737661,32.0594193 60.6186036,32.0188067 L60.6820818,31.9958517 L60.700857,32.167131 C60.3852543,32.3057436 60.0616051,32.3799058 59.8872637,32.3799058 C59.7567311,32.3799058 59.678948,32.3242841 59.678948,32.2095094 C59.678948,32.1035634 59.7039816,31.9649508 59.7522608,31.7768968 C59.8023281,31.5597076 59.8488191,31.3893112 59.891734,31.157113 L60.0803803,30.275113 L59.7620955,30.2848247 L59.801434,30.0950049 C60.2180653,30.0181941 60.3593266,29.7091851 60.4675077,29.3569148 L60.761653,29.2959959 L60.608769,29.9952391 L61.1094418,29.9952391 L61.0459636,30.2892391 Z" id="Fill-93" fill="#000000"></path>
                    <path d="M62.852409,30.1663418 C62.5663103,30.1663418 62.2614363,30.5556932 62.104082,31.1383959 L62.1648779,31.1383959 C62.7227705,31.1383959 63.1492365,30.8426301 63.1492365,30.4656391 C63.1501305,30.2952427 63.0187039,30.1663418 62.852409,30.1663418 M62.2283561,31.3502878 C62.1854413,31.3502878 62.1362681,31.3502878 62.059379,31.3458733 C62.0379216,31.4562337 62.0325573,31.5507022 62.0325573,31.6336932 C62.0325573,31.9453508 62.1461027,32.0989724 62.3579946,32.0989724 C62.5484291,32.0989724 62.791613,31.9947922 63.1501305,31.7776031 L63.2064562,31.9789004 C62.761215,32.2570085 62.4268371,32.3859094 62.1183869,32.3859094 C61.7410942,32.3859094 61.5354607,32.1572427 61.5354607,31.7661256 C61.5354607,30.7878914 62.2068987,29.9270806 62.990094,29.9270806 C63.3754333,29.9270806 63.5900074,30.1010085 63.5900074,30.391477 C63.5909014,30.9450445 63.0017168,31.3502878 62.2283561,31.3502878" id="Fill-95" fill="#000000"></path>
                    <path d="M66.0121909,30.6966013 L65.8119218,30.6815923 C65.8217564,30.6074301 65.8289089,30.5164932 65.8289089,30.442331 C65.8289089,30.3363851 65.7368209,30.2551598 65.585725,30.2551598 C65.4927429,30.2551598 65.4051251,30.3090157 65.3255539,30.3990698 C65.0930987,30.6595202 65.0001166,31.0647634 64.8767365,31.7216283 L64.7569326,32.304331 C64.5289477,32.3131598 64.4699398,32.3219886 64.2330143,32.3422949 C64.2938103,32.1277544 64.334937,31.9441148 64.3823221,31.7410517 L64.5253715,31.1954301 C64.6085189,30.8210878 64.6514337,30.5774121 64.6514337,30.4520427 C64.6514337,30.3090157 64.6120951,30.246331 64.5414645,30.246331 C64.5110665,30.246331 64.457423,30.2551598 64.3912627,30.2684031 L64.2410608,30.3116643 L64.2187094,30.141268 C64.5262655,30.0176644 64.8525969,29.9258445 65.0027988,29.9258445 C65.0698532,29.9258445 65.0993571,29.9496824 65.1154501,30.0097184 C65.1369075,30.0750517 65.1494244,30.1651058 65.1547887,30.2604571 C65.4283706,30.0459166 65.6635081,29.922313 65.829803,29.922313 C65.952289,29.922313 66.089974,29.9735202 66.2303412,30.0750517 C66.1409354,30.2948896 66.0631523,30.4908896 66.0121909,30.6966013" id="Fill-97" fill="#000000"></path>
                    <path d="M68.4167615,32.3800823 C68.2942755,32.3800823 68.2245389,32.3094517 68.2245389,32.2008571 C68.2245389,32.1284607 68.2522547,31.9951454 68.3228854,31.7002625 L68.3818932,31.4451094 C68.5553406,30.7184968 68.6116663,30.452749 68.6116663,30.3573977 C68.6116663,30.2629292 68.5553406,30.2249653 68.4793456,30.2249653 C68.3756348,30.2249653 68.2048696,30.2770553 68.0242698,30.3865328 C67.8338353,30.4942445 67.6872097,30.6231454 67.615685,30.7343887 C67.5593593,30.8200283 67.5209148,30.9674697 67.4458139,31.2808932 C67.3474674,31.7258661 67.2911417,32.0189832 67.2428626,32.3015058 C67.005043,32.314749 66.9460351,32.3235778 66.7091096,32.3438841 C66.8342778,31.9059742 66.9174252,31.5378121 67.0086192,31.12374 C67.1042835,30.7273256 67.1364696,30.5242625 67.1364696,30.4280283 C67.1364696,30.2858842 67.096237,30.2249653 67.005043,30.2249653 C66.9505054,30.2249653 66.8503709,30.2470373 66.7091096,30.2894157 L66.6956987,30.1269653 C66.9862678,30.0104247 67.3027645,29.9265508 67.4449198,29.9265508 C67.5763464,29.9265508 67.6183672,30.0068932 67.6183672,30.2850013 L67.6183672,30.3291454 C68.0797014,30.0731094 68.5472941,29.9274337 68.8772017,29.9274337 C69.0765768,29.9274337 69.1498896,29.9751094 69.1498896,30.0969472 C69.1498896,30.2258481 69.1177035,30.4121364 68.9871709,30.9039022 C68.9201165,31.1722986 68.8485918,31.4610013 68.8244522,31.5960823 C68.7967364,31.7673616 68.775279,31.8821364 68.775279,31.9474697 C68.775279,32.0375238 68.8190879,32.0719562 68.9075997,32.0719562 C68.9639254,32.0719562 69.0765768,32.0534157 69.2196261,31.9969112 L69.2384014,32.1690733 C68.9227987,32.2838481 68.5562347,32.3800823 68.4167615,32.3800823" id="Fill-99" fill="#000000"></path>
                    <path d="M70.3000066,32.3727544 C70.1855671,32.3727544 70.1024196,32.3091868 70.1024196,32.2014751 C70.1024196,32.1502679 70.1194067,32.0531508 70.1498047,31.9242499 C70.2266938,31.6028805 70.3339808,31.1755652 70.398353,30.9530788 C70.4761361,30.6484842 70.5172628,30.4242319 70.5172628,30.3368265 C70.5172628,30.2626643 70.4761361,30.2335292 70.4207045,30.2335292 C70.3652728,30.2335292 70.3000066,30.2485382 70.1855671,30.2865022 L70.1328176,30.2962139 L70.1185127,30.1311148 C70.4466322,30.0075112 70.7810101,29.9271689 70.9410466,29.9271689 C71.0331346,29.9271689 71.0671088,29.9607184 71.0671088,30.031349 C71.0671088,30.099331 71.0367108,30.2891508 70.9258476,30.7182319 L70.8373358,31.0572589 C70.688922,31.6346643 70.6469013,31.8421418 70.6469013,31.9427904 C70.6469013,32.0187184 70.6969686,32.0716913 70.7926328,32.0716913 C70.8462764,32.0716913 70.9598218,32.0531508 71.1243286,31.9957634 L71.1404216,32.1582139 C70.8123021,32.2835832 70.4671955,32.3727544 70.3000066,32.3727544 M70.9598218,29.3285743 C70.7693873,29.3285743 70.6469013,29.2129166 70.6469013,29.0460518 C70.6469013,28.8350428 70.8069378,28.6849527 71.0206178,28.6849527 C71.2038998,28.6849527 71.3165512,28.7908986 71.3165512,28.9683581 C71.3165512,29.1767184 71.1699256,29.3285743 70.9598218,29.3285743" id="Fill-101" fill="#000000"></path>
                    <path d="M73.3375707,30.2892391 L72.8333216,30.2759959 L72.5856674,31.5005544 C72.5141427,31.8183923 72.5105664,31.9049148 72.5105664,31.9508247 C72.5105664,32.0364643 72.549905,32.0788427 72.6312644,32.0788427 C72.6768613,32.0788427 72.762691,32.0594193 72.9111047,32.0188067 L72.9656423,31.9958517 L72.9888878,32.167131 C72.6768613,32.3057436 72.3487418,32.3799058 72.1708242,32.3799058 C72.0492322,32.3799058 71.9607204,32.3242841 71.9607204,32.2095094 C71.9607204,32.1035634 71.9875422,31.9649508 72.045656,31.7768968 C72.0939351,31.5597076 72.1332737,31.3893112 72.183341,31.157113 L72.366623,30.275113 L72.0483382,30.2848247 L72.0930411,30.0950049 C72.5025199,30.0181941 72.6437812,29.7091851 72.7582207,29.3569148 L73.0452135,29.2959959 L72.8959057,29.9952391 L73.4028369,29.9952391 L73.3375707,30.2892391 Z" id="Fill-103" fill="#000000"></path>
                    <path d="M75.1335556,30.1663418 C74.8510331,30.1663418 74.5416888,30.5556932 74.3914869,31.1383959 L74.4513889,31.1383959 C75.0065992,31.1383959 75.4357474,30.8426301 75.4357474,30.4656391 C75.4366414,30.2952427 75.3025326,30.1663418 75.1335556,30.1663418 Z M74.5121848,31.3502878 C74.4737403,31.3502878 74.4272493,31.3502878 74.3423137,31.3458733 C74.3297969,31.4562337 74.3235385,31.5507022 74.3235385,31.6336932 C74.3235385,31.9453508 74.4272493,32.0989724 74.6391412,32.0989724 C74.8331519,32.0989724 75.0745477,31.9947922 75.4330652,31.7776031 L75.4929671,31.9789004 C75.04862,32.2570085 74.7115599,32.3859094 74.4120503,32.3859094 C74.0302873,32.3859094 73.82823,32.1572427 73.82823,31.7661256 C73.82823,30.7878914 74.4969858,29.9270806 75.277499,29.9270806 C75.6547917,29.9270806 75.8809886,30.1010085 75.8809886,30.391477 C75.8818826,30.9450445 75.2837574,31.3502878 74.5121848,31.3502878 Z M75.1889872,29.5615671 L74.9985527,29.3999995 L75.7379392,28.5806842 L76.269904,28.7113509 L75.1889872,29.5615671 Z" id="Fill-105" fill="#000000"></path>
                    <path d="M46.9051752,31.2635004 C47.3119718,31.2635004 47.6391973,30.9447797 47.6391973,30.5465995 C47.6391973,30.1545995 47.3128659,29.8279328 46.9051752,29.8279328 C46.5082131,29.8279328 46.1684709,30.1545995 46.1684709,30.5465995 C46.1684709,30.9456625 46.5082131,31.2635004 46.9051752,31.2635004" id="Fill-107" fill="#000000"></path>
                    <path d="M21.7776582,31.2635004 C22.1764083,31.2635004 22.5089981,30.9447797 22.5089981,30.5465995 C22.5089981,30.1545995 22.1764083,29.8279328 21.7776582,29.8279328 C21.3690734,29.8279328 21.0454242,30.1545995 21.0454242,30.5465995 C21.0463183,30.9456625 21.3690734,31.2635004 21.7776582,31.2635004" id="Fill-109" fill="#000000"></path>
                    <polygon id="Fill-111" fill="#000000" points="0.4470293 35.5033688 75.994981 35.5033688 75.994981 34.8738733 0.4470293 34.8738733"></polygon>
                </g>
            </g>
        </g>
    </g>
</svg>