<?xml version="1.0" encoding="UTF-8"?>
<svg width="215px" height="82px" version="1.1" xmlns="http://www.w3.org/2000/svg" xmlns:xlink="http://www.w3.org/1999/xlink">
  <title>A16E0484-0D24-4F73-9486-3BAEF52C387E</title>
  <desc>Created with sketchtool.</desc>
  <g id="Elements" stroke="none" stroke-width="1" fill="none" fill-rule="evenodd">
    <g id="Logos">
      <g id="6.-logos/logos--ministeres">
        <g id="Logo">
          <g id="MESRI" transform="translate(1.000000, 0.380200)">
            <polygon id="Stroke-117" stroke="#1A171B" fill="#FFFFFF" points="-1 80.6198 212 80.6198 212 0.6198 -1 0.6198"></polygon>
            <path d="M80.6809,25.7225 L77.6399,19.1005 L77.6399,24.3585 C77.6399,24.8425 77.6929,25.1435 77.7969,25.2645 C77.9399,25.4265 78.1659,25.5075 78.4759,25.5075 L78.7539,25.5075 L78.7539,25.7225 L76.0149,25.7225 L76.0149,25.5075 L76.2929,25.5075 C76.6259,25.5075 76.8629,25.4075 77.0009,25.2055 C77.0859,25.0825 77.1289,24.7995 77.1289,24.3585 L77.1289,19.2165 C77.1289,18.8685 77.0899,18.6175 77.0129,18.4625 C76.9589,18.3495 76.8599,18.2565 76.7139,18.1805 C76.5699,18.1055 76.3359,18.0675 76.0149,18.0675 L76.0149,17.8525 L78.2429,17.8525 L81.0989,24.0105 L83.9089,17.8525 L86.1369,17.8525 L86.1369,18.0675 L85.8639,18.0675 C85.5279,18.0675 85.2889,18.1685 85.1499,18.3685 C85.0649,18.4935 85.0229,18.7755 85.0229,19.2165 L85.0229,24.3585 C85.0229,24.8425 85.0769,25.1435 85.1849,25.2645 C85.3279,25.4265 85.5539,25.5075 85.8639,25.5075 L86.1369,25.5075 L86.1369,25.7225 L82.7929,25.7225 L82.7929,25.5075 L83.0729,25.5075 C83.4089,25.5075 83.6449,25.4075 83.7809,25.2055 C83.8659,25.0825 83.9089,24.7995 83.9089,24.3585 L83.9089,19.1005 L80.8719,25.7225 L80.6809,25.7225 Z" id="Fill-118" fill="#1A171B"></path>
            <path d="M90.0539,25.5076 L90.0539,25.7226 L86.6819,25.7226 L86.6819,25.5076 L86.9599,25.5076 C87.2849,25.5076 87.5219,25.4126 87.6679,25.2236 C87.7609,25.0996 87.8079,24.8016 87.8079,24.3296 L87.8079,19.2456 C87.8079,18.8466 87.7829,18.5836 87.7329,18.4566 C87.6939,18.3596 87.6149,18.2766 87.4939,18.2066 C87.3249,18.1136 87.1469,18.0676 86.9599,18.0676 L86.6819,18.0676 L86.6819,17.8526 L90.0539,17.8526 L90.0539,18.0676 L89.7699,18.0676 C89.4489,18.0676 89.2139,18.1626 89.0679,18.3516 C88.9709,18.4756 88.9219,18.7736 88.9219,19.2456 L88.9219,24.3296 C88.9219,24.7286 88.9479,24.9906 88.9969,25.1186 C89.0359,25.2156 89.1169,25.2986 89.2419,25.3686 C89.4079,25.4616 89.5839,25.5076 89.7699,25.5076 L90.0539,25.5076 Z" id="Fill-119" fill="#1A171B"></path>
            <path d="M90.1877,17.8529 L92.3237,17.8529 L97.1337,23.7549 L97.1337,19.2169 C97.1337,18.7329 97.0807,18.4309 96.9717,18.3109 C96.8287,18.1489 96.6027,18.0669 96.2927,18.0669 L96.0197,18.0669 L96.0197,17.8529 L98.7587,17.8529 L98.7587,18.0669 L98.4807,18.0669 C98.1477,18.0669 97.9127,18.1679 97.7727,18.3689 C97.6877,18.4929 97.6447,18.7749 97.6447,19.2169 L97.6447,25.8499 L97.4357,25.8499 L92.2477,19.5129 L92.2477,24.3589 C92.2477,24.8419 92.2997,25.1439 92.4047,25.2639 C92.5507,25.4269 92.7777,25.5079 93.0837,25.5079 L93.3617,25.5079 L93.3617,25.7229 L90.6227,25.7229 L90.6227,25.5079 L90.8957,25.5079 C91.2317,25.5079 91.4697,25.4069 91.6097,25.2059 C91.6947,25.0819 91.7367,24.7999 91.7367,24.3589 L91.7367,18.8859 C91.5087,18.6189 91.3347,18.4429 91.2167,18.3579 C91.0997,18.2719 90.9257,18.1929 90.6987,18.1199 C90.5857,18.0849 90.4157,18.0669 90.1877,18.0669 L90.1877,17.8529 Z" id="Fill-120" fill="#1A171B"></path>
            <path d="M102.5959,25.5076 L102.5959,25.7226 L99.2239,25.7226 L99.2239,25.5076 L99.5019,25.5076 C99.8269,25.5076 100.0639,25.4126 100.2099,25.2236 C100.3029,25.0996 100.3499,24.8016 100.3499,24.3296 L100.3499,19.2456 C100.3499,18.8466 100.3249,18.5836 100.2749,18.4566 C100.2359,18.3596 100.1569,18.2766 100.0359,18.2066 C99.8669,18.1136 99.6889,18.0676 99.5019,18.0676 L99.2239,18.0676 L99.2239,17.8526 L102.5959,17.8526 L102.5959,18.0676 L102.3119,18.0676 C101.9909,18.0676 101.7559,18.1626 101.6099,18.3516 C101.5129,18.4756 101.4639,18.7736 101.4639,19.2456 L101.4639,24.3296 C101.4639,24.7286 101.4899,24.9906 101.5389,25.1186 C101.5779,25.2156 101.6589,25.2986 101.7839,25.3686 C101.9499,25.4616 102.1259,25.5076 102.3119,25.5076 L102.5959,25.5076 Z" id="Fill-121" fill="#1A171B"></path>
            <path d="M108.3352,17.6727 L108.3352,20.3947 L108.1212,20.3947 C108.0512,19.8727 107.9262,19.4567 107.7462,19.1467 C107.5662,18.8377 107.3112,18.5917 106.9782,18.4097 C106.6452,18.2277 106.3002,18.1367 105.9442,18.1367 C105.5422,18.1367 105.2092,18.2597 104.9462,18.5057 C104.6832,18.7517 104.5522,19.0307 104.5522,19.3437 C104.5522,19.5847 104.6352,19.8027 104.8012,19.9997 C105.0412,20.2907 105.6112,20.6767 106.5132,21.1607 C107.2482,21.5557 107.7502,21.8587 108.0202,22.0687 C108.2882,22.2797 108.4952,22.5287 108.6402,22.8147 C108.7852,23.1017 108.8572,23.4017 108.8572,23.7147 C108.8572,24.3107 108.6272,24.8237 108.1642,25.2557 C107.7022,25.6867 107.1072,25.9017 106.3802,25.9017 C106.1512,25.9017 105.9372,25.8847 105.7352,25.8497 C105.6152,25.8307 105.3672,25.7597 104.9892,25.6387 C104.6122,25.5167 104.3732,25.4557 104.2732,25.4557 C104.1762,25.4557 104.1002,25.4847 104.0442,25.5427 C103.9872,25.6007 103.9462,25.7207 103.9192,25.9017 L103.7042,25.9017 L103.7042,23.2037 L103.9192,23.2037 C104.0202,23.7687 104.1542,24.1917 104.3252,24.4717 C104.4952,24.7527 104.7562,24.9847 105.1062,25.1717 C105.4562,25.3567 105.8402,25.4497 106.2582,25.4497 C106.7412,25.4497 107.1232,25.3217 107.4042,25.0667 C107.6852,24.8117 107.8242,24.5097 107.8242,24.1617 C107.8242,23.9677 107.7722,23.7727 107.6652,23.5747 C107.5592,23.3777 107.3942,23.1937 107.1692,23.0237 C107.0182,22.9077 106.6062,22.6607 105.9332,22.2837 C105.2602,21.9067 104.7802,21.6057 104.4962,21.3807 C104.2122,21.1567 103.9962,20.9097 103.8502,20.6387 C103.7022,20.3677 103.6292,20.0697 103.6292,19.7447 C103.6292,19.1797 103.8462,18.6937 104.2782,18.2847 C104.7122,17.8767 105.2642,17.6727 105.9332,17.6727 C106.3512,17.6727 106.7942,17.7757 107.2622,17.9807 C107.4792,18.0767 107.6312,18.1257 107.7212,18.1257 C107.8212,18.1257 107.9032,18.0957 107.9672,18.0357 C108.0302,17.9757 108.0822,17.8547 108.1212,17.6727 L108.3352,17.6727 Z" id="Fill-122" fill="#1A171B"></path>
            <path d="M116.3733,17.8529 L116.4613,19.6979 L116.2403,19.6979 C116.1973,19.3739 116.1403,19.1409 116.0653,19.0019 C115.9463,18.7779 115.7863,18.6119 115.5873,18.5059 C115.3883,18.3989 115.1263,18.3459 114.8013,18.3459 L113.6923,18.3459 L113.6923,24.3589 C113.6923,24.8419 113.7443,25.1439 113.8493,25.2639 C113.9963,25.4269 114.2233,25.5079 114.5283,25.5079 L114.8013,25.5079 L114.8013,25.7229 L111.4643,25.7229 L111.4643,25.5079 L111.7423,25.5079 C112.0753,25.5079 112.3113,25.4069 112.4503,25.2059 C112.5353,25.0819 112.5783,24.7999 112.5783,24.3589 L112.5783,18.3459 L111.6323,18.3459 C111.2653,18.3459 111.0033,18.3729 110.8493,18.4269 C110.6473,18.5009 110.4753,18.6419 110.3323,18.8509 C110.1883,19.0599 110.1033,19.3419 110.0763,19.6979 L109.8553,19.6979 L109.9493,17.8529 L116.3733,17.8529 Z" id="Fill-123" fill="#1A171B"></path>
            <path d="M119.1135,15.2933 L120.4075,15.2933 L121.0225,17.2953 L120.8195,17.2953 L119.1135,15.2933 Z M119.2415,18.2823 L119.2415,21.3933 L120.9705,21.3933 C121.4195,21.3933 121.7185,21.3253 121.8705,21.1893 C122.0715,21.0123 122.1835,20.6983 122.2065,20.2493 L122.4215,20.2493 L122.4215,22.9893 L122.2065,22.9893 C122.1525,22.6053 122.0985,22.3603 122.0445,22.2513 C121.9745,22.1163 121.8605,22.0103 121.7015,21.9323 C121.5435,21.8553 121.2995,21.8163 120.9705,21.8163 L119.2415,21.8163 L119.2415,24.4113 C119.2415,24.7593 119.2565,24.9713 119.2875,25.0463 C119.3185,25.1223 119.3725,25.1823 119.4505,25.2263 C119.5275,25.2713 119.6745,25.2933 119.8905,25.2933 L121.2255,25.2933 C121.6715,25.2933 121.9945,25.2623 122.1955,25.2003 C122.3965,25.1383 122.5905,25.0163 122.7755,24.8343 C123.0155,24.5943 123.2605,24.2323 123.5125,23.7493 L123.7445,23.7493 L123.0655,25.7223 L117.0015,25.7223 L117.0015,25.5073 L117.2795,25.5073 C117.4655,25.5073 117.6405,25.4633 117.8075,25.3743 C117.9305,25.3123 118.0155,25.2193 118.0595,25.0953 C118.1045,24.9723 118.1275,24.7183 118.1275,24.3353 L118.1275,19.2223 C118.1275,18.7233 118.0765,18.4163 117.9755,18.2993 C117.8365,18.1453 117.6045,18.0673 117.2795,18.0673 L117.0015,18.0673 L117.0015,17.8533 L123.0655,17.8533 L123.1525,19.5763 L122.9265,19.5763 C122.8445,19.1623 122.7555,18.8783 122.6565,18.7233 C122.5575,18.5683 122.4115,18.4503 122.2175,18.3693 C122.0635,18.3113 121.7915,18.2823 121.3995,18.2823 L119.2415,18.2823 Z" id="Fill-124" fill="#1A171B"></path>
            <path d="M126.4612,21.6771 C126.5342,21.6771 126.5992,21.6781 126.6522,21.6801 C126.7072,21.6821 126.7512,21.6831 126.7862,21.6831 C127.5362,21.6831 128.1032,21.5211 128.4832,21.1961 C128.8642,20.8701 129.0562,20.4561 129.0562,19.9531 C129.0562,19.4621 128.9012,19.0631 128.5942,18.7551 C128.2862,18.4481 127.8792,18.2941 127.3722,18.2941 C127.1482,18.2941 126.8442,18.3301 126.4612,18.4041 L126.4612,21.6771 Z M132.0502,25.7221 L129.9492,25.7221 L127.2852,22.0431 C127.0882,22.0511 126.9272,22.0541 126.8042,22.0541 C126.7532,22.0541 126.6992,22.0531 126.6412,22.0521 C126.5832,22.0501 126.5232,22.0471 126.4612,22.0431 L126.4612,24.3291 C126.4612,24.8251 126.5152,25.1331 126.6232,25.2521 C126.7712,25.4231 126.9912,25.5081 127.2852,25.5081 L127.5932,25.5081 L127.5932,25.7221 L124.2212,25.7221 L124.2212,25.5081 L124.5172,25.5081 C124.8502,25.5081 125.0872,25.3991 125.2312,25.1831 C125.3122,25.0631 125.3532,24.7791 125.3532,24.3291 L125.3532,19.2451 C125.3532,18.7501 125.2982,18.4431 125.1902,18.3231 C125.0392,18.1531 124.8152,18.0671 124.5172,18.0671 L124.2212,18.0671 L124.2212,17.8531 L127.0882,17.8531 C127.9242,17.8531 128.5402,17.9131 128.9372,18.0351 C129.3332,18.1571 129.6692,18.3821 129.9462,18.7091 C130.2232,19.0351 130.3612,19.4261 130.3612,19.8781 C130.3612,20.3621 130.2032,20.7811 129.8882,21.1371 C129.5722,21.4931 129.0842,21.7451 128.4232,21.8921 L130.0482,24.1501 C130.4192,24.6681 130.7382,25.0121 131.0052,25.1831 C131.2732,25.3531 131.6202,25.4611 132.0502,25.5081 L132.0502,25.7221 Z" id="Fill-125" fill="#1A171B"></path>
            <path d="M134.4299,18.2821 L134.4299,21.3931 L136.1589,21.3931 C136.6079,21.3931 136.9079,21.3251 137.0589,21.1901 C137.2599,21.0121 137.3719,20.6991 137.3949,20.2491 L137.6099,20.2491 L137.6099,22.9891 L137.3949,22.9891 C137.3409,22.6061 137.2869,22.3601 137.2329,22.2521 C137.1629,22.1161 137.0489,22.0101 136.8899,21.9321 C136.7319,21.8551 136.4879,21.8171 136.1589,21.8171 L134.4299,21.8171 L134.4299,24.4111 C134.4299,24.7591 134.4449,24.9711 134.4759,25.0461 C134.5069,25.1221 134.5609,25.1821 134.6389,25.2261 C134.7159,25.2711 134.8629,25.2931 135.0789,25.2931 L136.4139,25.2931 C136.8599,25.2931 137.1829,25.2621 137.3839,25.2001 C137.5849,25.1381 137.7789,25.0161 137.9639,24.8341 C138.2039,24.5941 138.4499,24.2331 138.7009,23.7491 L138.9329,23.7491 L138.2539,25.7221 L132.1899,25.7221 L132.1899,25.5081 L132.4679,25.5081 C132.6539,25.5081 132.8289,25.4631 132.9959,25.3741 C133.1189,25.3121 133.2039,25.2191 133.2479,25.0951 C133.2929,24.9721 133.3159,24.7191 133.3159,24.3351 L133.3159,19.2221 C133.3159,18.7231 133.2649,18.4161 133.1639,18.3001 C133.0249,18.1451 132.7929,18.0671 132.4679,18.0671 L132.1899,18.0671 L132.1899,17.8531 L138.2539,17.8531 L138.3409,19.5761 L138.1149,19.5761 C138.0339,19.1621 137.9439,18.8781 137.8449,18.7231 C137.7459,18.5691 137.5999,18.4501 137.4069,18.3691 C137.2519,18.3111 136.9799,18.2821 136.5879,18.2821 L134.4299,18.2821 Z" id="Fill-126" fill="#1A171B"></path>
            <path d="M14.3772,38.1199 C14.8682,38.2279 15.2802,38.2829 15.6132,38.2829 C16.5112,38.2829 17.2562,37.9669 17.8482,37.3369 C18.4392,36.7059 18.7352,35.8509 18.7352,34.7709 C18.7352,33.6839 18.4392,32.8269 17.8482,32.1999 C17.2562,31.5739 16.4952,31.2599 15.5662,31.2599 C15.2192,31.2599 14.8222,31.3159 14.3772,31.4289 L14.3772,38.1199 Z M12.1312,38.6889 L12.1312,38.4739 L12.4272,38.4739 C12.7602,38.4739 12.9962,38.3679 13.1352,38.1549 C13.2202,38.0269 13.2632,37.7409 13.2632,37.2959 L13.2632,32.2119 C13.2632,31.7209 13.2082,31.4129 13.1002,31.2889 C12.9492,31.1189 12.7252,31.0339 12.4272,31.0339 L12.1312,31.0339 L12.1312,30.8189 L15.3352,30.8189 C16.5112,30.8189 17.4052,30.9529 18.0192,31.2199 C18.6322,31.4859 19.1252,31.9319 19.4992,32.5539 C19.8722,33.1769 20.0592,33.8969 20.0592,34.7129 C20.0592,35.8079 19.7262,36.7239 19.0612,37.4579 C18.3142,38.2789 17.1762,38.6889 15.6482,38.6889 L12.1312,38.6889 Z" id="Fill-127" fill="#1A171B"></path>
            <path d="M22.9963,31.2484 L22.9963,34.3594 L24.7253,34.3594 C25.1743,34.3594 25.4743,34.2914 25.6253,34.1564 C25.8263,33.9784 25.9383,33.6654 25.9613,33.2154 L26.1763,33.2154 L26.1763,35.9554 L25.9613,35.9554 C25.9073,35.5724 25.8533,35.3264 25.7993,35.2184 C25.7293,35.0824 25.6153,34.9764 25.4563,34.8984 C25.2983,34.8214 25.0543,34.7834 24.7253,34.7834 L22.9963,34.7834 L22.9963,37.3774 C22.9963,37.7254 23.0113,37.9374 23.0423,38.0124 C23.0733,38.0884 23.1273,38.1484 23.2053,38.1924 C23.2823,38.2374 23.4293,38.2594 23.6453,38.2594 L24.9803,38.2594 C25.4263,38.2594 25.7493,38.2284 25.9503,38.1664 C26.1513,38.1044 26.3453,37.9824 26.5303,37.8004 C26.7703,37.5604 27.0163,37.1994 27.2673,36.7154 L27.4993,36.7154 L26.8203,38.6884 L20.7563,38.6884 L20.7563,38.4744 L21.0343,38.4744 C21.2203,38.4744 21.3953,38.4294 21.5623,38.3404 C21.6853,38.2784 21.7703,38.1854 21.8143,38.0614 C21.8593,37.9384 21.8823,37.6854 21.8823,37.3014 L21.8823,32.1884 C21.8823,31.6894 21.8313,31.3824 21.7303,31.2664 C21.5913,31.1114 21.3593,31.0334 21.0343,31.0334 L20.7563,31.0334 L20.7563,30.8194 L26.8203,30.8194 L26.9073,32.5424 L26.6813,32.5424 C26.6003,32.1284 26.5103,31.8444 26.4113,31.6894 C26.3123,31.5354 26.1663,31.4164 25.9733,31.3354 C25.8183,31.2774 25.5463,31.2484 25.1543,31.2484 L22.9963,31.2484 Z" id="Fill-128" fill="#1A171B"></path>
            <path d="M37.5569,36.5125 L37.7479,36.5535 L37.0759,38.6885 L30.9819,38.6885 L30.9819,38.4735 L31.2779,38.4735 C31.6099,38.4735 31.8479,38.3655 31.9919,38.1495 C32.0729,38.0255 32.1139,37.7395 32.1139,37.2895 L32.1139,32.2115 C32.1139,31.7205 32.0589,31.4125 31.9509,31.2885 C31.7999,31.1185 31.5759,31.0335 31.2779,31.0335 L30.9819,31.0335 L30.9819,30.8195 L34.5449,30.8195 L34.5449,31.0335 C34.1269,31.0305 33.8339,31.0685 33.6649,31.1495 C33.4969,31.2305 33.3819,31.3335 33.3209,31.4575 C33.2579,31.5815 33.2279,31.8775 33.2279,32.3455 L33.2279,37.2895 C33.2279,37.6115 33.2579,37.8315 33.3209,37.9515 C33.3669,38.0335 33.4389,38.0935 33.5359,38.1315 C33.6319,38.1705 33.9339,38.1895 34.4409,38.1895 L35.0149,38.1895 C35.6189,38.1895 36.0419,38.1455 36.2859,38.0555 C36.5299,37.9675 36.7519,37.8095 36.9529,37.5835 C37.1549,37.3565 37.3559,36.9995 37.5569,36.5125" id="Fill-129" fill="#1A171B"></path>
            <path d="M38.2942,33.6453 L38.2942,33.3723 C38.6922,33.1363 38.9642,32.9163 39.1062,32.7103 C39.2072,32.5633 39.2582,32.3883 39.2582,32.1833 C39.2582,32.0623 39.2362,31.9743 39.1942,31.9163 C39.1482,31.8573 39.0982,31.8293 39.0432,31.8293 C39.0002,31.8293 38.9442,31.8423 38.8752,31.8693 C38.7742,31.9043 38.6912,31.9213 38.6252,31.9213 C38.4712,31.9213 38.3332,31.8633 38.2132,31.7473 C38.0932,31.6313 38.0332,31.4863 38.0332,31.3123 C38.0332,31.1193 38.0932,30.9683 38.2132,30.8593 C38.3762,30.7123 38.5692,30.6393 38.7942,30.6393 C39.0532,30.6393 39.2862,30.7483 39.4932,30.9673 C39.7002,31.1853 39.8042,31.4573 39.8042,31.7823 C39.8042,32.2393 39.6312,32.6553 39.2872,33.0303 C39.0592,33.2773 38.7282,33.4823 38.2942,33.6453" id="Fill-130" fill="#1A171B"></path>
            <path d="M43.3557,31.2484 L43.3557,34.3594 L45.0847,34.3594 C45.5337,34.3594 45.8337,34.2914 45.9847,34.1564 C46.1857,33.9784 46.2977,33.6654 46.3207,33.2154 L46.5357,33.2154 L46.5357,35.9554 L46.3207,35.9554 C46.2667,35.5724 46.2127,35.3264 46.1587,35.2184 C46.0887,35.0824 45.9747,34.9764 45.8157,34.8984 C45.6577,34.8214 45.4137,34.7834 45.0847,34.7834 L43.3557,34.7834 L43.3557,37.3774 C43.3557,37.7254 43.3707,37.9374 43.4017,38.0124 C43.4327,38.0884 43.4867,38.1484 43.5647,38.1924 C43.6417,38.2374 43.7887,38.2594 44.0047,38.2594 L45.3397,38.2594 C45.7857,38.2594 46.1087,38.2284 46.3097,38.1664 C46.5107,38.1044 46.7047,37.9824 46.8897,37.8004 C47.1297,37.5604 47.3757,37.1994 47.6267,36.7154 L47.8587,36.7154 L47.1797,38.6884 L41.1157,38.6884 L41.1157,38.4744 L41.3937,38.4744 C41.5797,38.4744 41.7547,38.4294 41.9217,38.3404 C42.0447,38.2784 42.1297,38.1854 42.1737,38.0614 C42.2187,37.9384 42.2417,37.6854 42.2417,37.3014 L42.2417,32.1884 C42.2417,31.6894 42.1907,31.3824 42.0897,31.2664 C41.9507,31.1114 41.7187,31.0334 41.3937,31.0334 L41.1157,31.0334 L41.1157,30.8194 L47.1797,30.8194 L47.2667,32.5424 L47.0407,32.5424 C46.9597,32.1284 46.8697,31.8444 46.7707,31.6894 C46.6717,31.5354 46.5257,31.4164 46.3327,31.3354 C46.1777,31.2774 45.9057,31.2484 45.5137,31.2484 L43.3557,31.2484 Z" id="Fill-131" fill="#1A171B"></path>
            <path d="M47.9748,30.8192 L50.1108,30.8192 L54.9208,36.7212 L54.9208,32.1832 C54.9208,31.6992 54.8678,31.3972 54.7588,31.2772 C54.6158,31.1152 54.3898,31.0332 54.0798,31.0332 L53.8068,31.0332 L53.8068,30.8192 L56.5458,30.8192 L56.5458,31.0332 L56.2678,31.0332 C55.9348,31.0332 55.6998,31.1342 55.5598,31.3352 C55.4748,31.4592 55.4318,31.7412 55.4318,32.1832 L55.4318,38.8162 L55.2228,38.8162 L50.0348,32.4792 L50.0348,37.3252 C50.0348,37.8082 50.0868,38.1102 50.1918,38.2302 C50.3378,38.3932 50.5648,38.4742 50.8708,38.4742 L51.1488,38.4742 L51.1488,38.6892 L48.4098,38.6892 L48.4098,38.4742 L48.6828,38.4742 C49.0188,38.4742 49.2568,38.3732 49.3968,38.1722 C49.4818,38.0482 49.5238,37.7662 49.5238,37.3252 L49.5238,31.8522 C49.2958,31.5852 49.1218,31.4092 49.0038,31.3242 C48.8868,31.2382 48.7128,31.1592 48.4858,31.0862 C48.3728,31.0512 48.2028,31.0332 47.9748,31.0332 L47.9748,30.8192 Z" id="Fill-132" fill="#1A171B"></path>
            <path d="M62.1643,30.639 L62.1643,33.361 L61.9503,33.361 C61.8803,32.839 61.7553,32.423 61.5753,32.113 C61.3953,31.804 61.1403,31.558 60.8073,31.376 C60.4743,31.194 60.1293,31.103 59.7733,31.103 C59.3713,31.103 59.0383,31.226 58.7753,31.472 C58.5123,31.718 58.3813,31.997 58.3813,32.31 C58.3813,32.551 58.4643,32.769 58.6303,32.966 C58.8703,33.257 59.4403,33.643 60.3423,34.127 C61.0773,34.522 61.5793,34.825 61.8493,35.035 C62.1173,35.246 62.3243,35.495 62.4693,35.781 C62.6143,36.068 62.6863,36.368 62.6863,36.681 C62.6863,37.277 62.4563,37.79 61.9933,38.222 C61.5313,38.653 60.9363,38.868 60.2093,38.868 C59.9803,38.868 59.7663,38.851 59.5643,38.816 C59.4443,38.797 59.1963,38.726 58.8183,38.605 C58.4413,38.483 58.2023,38.422 58.1023,38.422 C58.0053,38.422 57.9293,38.451 57.8733,38.509 C57.8163,38.567 57.7753,38.687 57.7483,38.868 L57.5333,38.868 L57.5333,36.17 L57.7483,36.17 C57.8493,36.735 57.9833,37.158 58.1543,37.438 C58.3243,37.719 58.5853,37.951 58.9353,38.138 C59.2853,38.323 59.6693,38.416 60.0873,38.416 C60.5703,38.416 60.9523,38.288 61.2333,38.033 C61.5143,37.778 61.6533,37.476 61.6533,37.128 C61.6533,36.934 61.6013,36.739 61.4943,36.541 C61.3883,36.344 61.2233,36.16 60.9983,35.99 C60.8473,35.874 60.4353,35.627 59.7623,35.25 C59.0893,34.873 58.6093,34.572 58.3253,34.347 C58.0413,34.123 57.8253,33.876 57.6793,33.605 C57.5313,33.334 57.4583,33.036 57.4583,32.711 C57.4583,32.146 57.6753,31.66 58.1073,31.251 C58.5413,30.843 59.0933,30.639 59.7623,30.639 C60.1803,30.639 60.6233,30.742 61.0913,30.947 C61.3083,31.043 61.4603,31.092 61.5503,31.092 C61.6503,31.092 61.7323,31.062 61.7963,31.002 C61.8593,30.942 61.9113,30.821 61.9503,30.639 L62.1643,30.639 Z" id="Fill-133" fill="#1A171B"></path>
            <path d="M65.8098,31.2484 L65.8098,34.3594 L67.5388,34.3594 C67.9878,34.3594 68.2878,34.2914 68.4388,34.1564 C68.6398,33.9784 68.7518,33.6654 68.7748,33.2154 L68.9898,33.2154 L68.9898,35.9554 L68.7748,35.9554 C68.7208,35.5724 68.6668,35.3264 68.6128,35.2184 C68.5428,35.0824 68.4288,34.9764 68.2698,34.8984 C68.1118,34.8214 67.8678,34.7834 67.5388,34.7834 L65.8098,34.7834 L65.8098,37.3774 C65.8098,37.7254 65.8248,37.9374 65.8558,38.0124 C65.8868,38.0884 65.9408,38.1484 66.0188,38.1924 C66.0958,38.2374 66.2428,38.2594 66.4588,38.2594 L67.7938,38.2594 C68.2398,38.2594 68.5628,38.2284 68.7638,38.1664 C68.9648,38.1044 69.1588,37.9824 69.3438,37.8004 C69.5838,37.5604 69.8298,37.1994 70.0808,36.7154 L70.3128,36.7154 L69.6338,38.6884 L63.5698,38.6884 L63.5698,38.4744 L63.8478,38.4744 C64.0338,38.4744 64.2088,38.4294 64.3758,38.3404 C64.4988,38.2784 64.5838,38.1854 64.6278,38.0614 C64.6728,37.9384 64.6958,37.6854 64.6958,37.3014 L64.6958,32.1884 C64.6958,31.6894 64.6448,31.3824 64.5438,31.2664 C64.4048,31.1114 64.1728,31.0334 63.8478,31.0334 L63.5698,31.0334 L63.5698,30.8194 L69.6338,30.8194 L69.7208,32.5424 L69.4948,32.5424 C69.4138,32.1284 69.3238,31.8444 69.2248,31.6894 C69.1258,31.5354 68.9798,31.4164 68.7868,31.3354 C68.6318,31.2774 68.3598,31.2484 67.9678,31.2484 L65.8098,31.2484 Z" id="Fill-134" fill="#1A171B"></path>
            <path d="M74.2541,38.474 L74.2541,38.689 L70.8821,38.689 L70.8821,38.474 L71.1601,38.474 C71.4851,38.474 71.7221,38.379 71.8681,38.19 C71.9611,38.066 72.0081,37.768 72.0081,37.296 L72.0081,32.212 C72.0081,31.813 71.9831,31.55 71.9331,31.423 C71.8941,31.326 71.8151,31.243 71.6941,31.173 C71.5251,31.08 71.3471,31.034 71.1601,31.034 L70.8821,31.034 L70.8821,30.819 L74.2541,30.819 L74.2541,31.034 L73.9701,31.034 C73.6491,31.034 73.4141,31.129 73.2681,31.318 C73.1711,31.442 73.1221,31.74 73.1221,32.212 L73.1221,37.296 C73.1221,37.695 73.1481,37.957 73.1971,38.085 C73.2361,38.182 73.3171,38.265 73.4421,38.335 C73.6081,38.428 73.7841,38.474 73.9701,38.474 L74.2541,38.474 Z" id="Fill-135" fill="#1A171B"></path>
            <path d="M81.8391,30.639 L82.0421,33.123 L81.8391,33.123 C81.6341,32.504 81.3691,32.038 81.0441,31.724 C80.5761,31.272 79.9751,31.045 79.2391,31.045 C78.2371,31.045 77.4751,31.442 76.9521,32.235 C76.5161,32.905 76.2971,33.702 76.2971,34.626 C76.2971,35.377 76.4421,36.062 76.7331,36.681 C77.0231,37.3 77.4021,37.753 77.8721,38.042 C78.3431,38.33 78.8251,38.474 79.3201,38.474 C79.6101,38.474 79.8911,38.437 80.1621,38.364 C80.4331,38.29 80.6941,38.182 80.9451,38.039 L80.9451,35.764 C80.9451,35.369 80.9151,35.111 80.8561,34.989 C80.7961,34.867 80.7021,34.774 80.5771,34.71 C80.4511,34.646 80.2301,34.615 79.9121,34.615 L79.9121,34.394 L82.9591,34.394 L82.9591,34.615 L82.8151,34.615 C82.5131,34.615 82.3061,34.715 82.1931,34.916 C82.1161,35.059 82.0771,35.342 82.0771,35.764 L82.0771,38.172 C81.6321,38.412 81.1931,38.588 80.7601,38.701 C80.3261,38.813 79.8451,38.868 79.3151,38.868 C77.7941,38.868 76.6391,38.381 75.8501,37.406 C75.2581,36.675 74.9621,35.831 74.9621,34.876 C74.9621,34.183 75.1281,33.52 75.4611,32.885 C75.8561,32.131 76.3981,31.55 77.0861,31.144 C77.6621,30.807 78.3441,30.639 79.1291,30.639 C79.4151,30.639 79.6761,30.662 79.9091,30.709 C80.1441,30.755 80.4761,30.858 80.9051,31.016 C81.1211,31.097 81.2671,31.138 81.3401,31.138 C81.4131,31.138 81.4771,31.104 81.5281,31.036 C81.5811,30.969 81.6131,30.836 81.6241,30.639 L81.8391,30.639 Z" id="Fill-136" fill="#1A171B"></path>
            <path d="M82.9719,30.8192 L85.1079,30.8192 L89.9179,36.7212 L89.9179,32.1832 C89.9179,31.6992 89.8649,31.3972 89.7559,31.2772 C89.6129,31.1152 89.3869,31.0332 89.0769,31.0332 L88.8039,31.0332 L88.8039,30.8192 L91.5429,30.8192 L91.5429,31.0332 L91.2649,31.0332 C90.9319,31.0332 90.6969,31.1342 90.5569,31.3352 C90.4719,31.4592 90.4289,31.7412 90.4289,32.1832 L90.4289,38.8162 L90.2199,38.8162 L85.0319,32.4792 L85.0319,37.3252 C85.0319,37.8082 85.0839,38.1102 85.1889,38.2302 C85.3349,38.3932 85.5619,38.4742 85.8679,38.4742 L86.1459,38.4742 L86.1459,38.6892 L83.4069,38.6892 L83.4069,38.4742 L83.6799,38.4742 C84.0159,38.4742 84.2539,38.3732 84.3939,38.1722 C84.4789,38.0482 84.5209,37.7662 84.5209,37.3252 L84.5209,31.8522 C84.2929,31.5852 84.1189,31.4092 84.0009,31.3242 C83.8839,31.2382 83.7099,31.1592 83.4829,31.0862 C83.3699,31.0512 83.1999,31.0332 82.9719,31.0332 L82.9719,30.8192 Z" id="Fill-137" fill="#1A171B"></path>
            <path d="M94.1955,31.2484 L94.1955,34.3594 L95.9245,34.3594 C96.3735,34.3594 96.6735,34.2914 96.8245,34.1564 C97.0255,33.9784 97.1375,33.6654 97.1605,33.2154 L97.3755,33.2154 L97.3755,35.9554 L97.1605,35.9554 C97.1065,35.5724 97.0525,35.3264 96.9985,35.2184 C96.9285,35.0824 96.8145,34.9764 96.6555,34.8984 C96.4975,34.8214 96.2535,34.7834 95.9245,34.7834 L94.1955,34.7834 L94.1955,37.3774 C94.1955,37.7254 94.2105,37.9374 94.2415,38.0124 C94.2725,38.0884 94.3265,38.1484 94.4045,38.1924 C94.4815,38.2374 94.6285,38.2594 94.8445,38.2594 L96.1795,38.2594 C96.6255,38.2594 96.9485,38.2284 97.1495,38.1664 C97.3505,38.1044 97.5445,37.9824 97.7295,37.8004 C97.9695,37.5604 98.2155,37.1994 98.4665,36.7154 L98.6985,36.7154 L98.0195,38.6884 L91.9555,38.6884 L91.9555,38.4744 L92.2335,38.4744 C92.4195,38.4744 92.5945,38.4294 92.7615,38.3404 C92.8845,38.2784 92.9695,38.1854 93.0135,38.0614 C93.0585,37.9384 93.0815,37.6854 93.0815,37.3014 L93.0815,32.1884 C93.0815,31.6894 93.0305,31.3824 92.9295,31.2664 C92.7905,31.1114 92.5585,31.0334 92.2335,31.0334 L91.9555,31.0334 L91.9555,30.8194 L98.0195,30.8194 L98.1065,32.5424 L97.8805,32.5424 C97.7995,32.1284 97.7095,31.8444 97.6105,31.6894 C97.5115,31.5354 97.3655,31.4164 97.1725,31.3354 C97.0175,31.2774 96.7455,31.2484 96.3535,31.2484 L94.1955,31.2484 Z" id="Fill-138" fill="#1A171B"></path>
            <path d="M103.8352,38.6888 L100.7942,32.0668 L100.7942,37.3248 C100.7942,37.8088 100.8472,38.1098 100.9512,38.2308 C101.0942,38.3928 101.3202,38.4738 101.6302,38.4738 L101.9082,38.4738 L101.9082,38.6888 L99.1692,38.6888 L99.1692,38.4738 L99.4472,38.4738 C99.7802,38.4738 100.0172,38.3738 100.1552,38.1718 C100.2402,38.0488 100.2832,37.7658 100.2832,37.3248 L100.2832,32.1828 C100.2832,31.8348 100.2442,31.5838 100.1672,31.4288 C100.1132,31.3158 100.0142,31.2228 99.8682,31.1468 C99.7242,31.0718 99.4902,31.0338 99.1692,31.0338 L99.1692,30.8188 L101.3972,30.8188 L104.2532,36.9768 L107.0632,30.8188 L109.2912,30.8188 L109.2912,31.0338 L109.0182,31.0338 C108.6822,31.0338 108.4432,31.1348 108.3042,31.3348 C108.2192,31.4598 108.1772,31.7418 108.1772,32.1828 L108.1772,37.3248 C108.1772,37.8088 108.2312,38.1098 108.3392,38.2308 C108.4822,38.3928 108.7082,38.4738 109.0182,38.4738 L109.2912,38.4738 L109.2912,38.6888 L105.9472,38.6888 L105.9472,38.4738 L106.2272,38.4738 C106.5632,38.4738 106.7992,38.3738 106.9352,38.1718 C107.0202,38.0488 107.0632,37.7658 107.0632,37.3248 L107.0632,32.0668 L104.0262,38.6888 L103.8352,38.6888 Z" id="Fill-139" fill="#1A171B"></path>
            <path d="M112.0246,31.2484 L112.0246,34.3594 L113.7536,34.3594 C114.2026,34.3594 114.5026,34.2914 114.6536,34.1564 C114.8546,33.9784 114.9666,33.6654 114.9896,33.2154 L115.2046,33.2154 L115.2046,35.9554 L114.9896,35.9554 C114.9356,35.5724 114.8816,35.3264 114.8276,35.2184 C114.7576,35.0824 114.6436,34.9764 114.4846,34.8984 C114.3266,34.8214 114.0826,34.7834 113.7536,34.7834 L112.0246,34.7834 L112.0246,37.3774 C112.0246,37.7254 112.0396,37.9374 112.0706,38.0124 C112.1016,38.0884 112.1556,38.1484 112.2336,38.1924 C112.3106,38.2374 112.4576,38.2594 112.6736,38.2594 L114.0086,38.2594 C114.4546,38.2594 114.7776,38.2284 114.9786,38.1664 C115.1796,38.1044 115.3736,37.9824 115.5586,37.8004 C115.7986,37.5604 116.0446,37.1994 116.2956,36.7154 L116.5276,36.7154 L115.8486,38.6884 L109.7846,38.6884 L109.7846,38.4744 L110.0626,38.4744 C110.2486,38.4744 110.4236,38.4294 110.5906,38.3404 C110.7136,38.2784 110.7986,38.1854 110.8426,38.0614 C110.8876,37.9384 110.9106,37.6854 110.9106,37.3014 L110.9106,32.1884 C110.9106,31.6894 110.8596,31.3824 110.7586,31.2664 C110.6196,31.1114 110.3876,31.0334 110.0626,31.0334 L109.7846,31.0334 L109.7846,30.8194 L115.8486,30.8194 L115.9356,32.5424 L115.7096,32.5424 C115.6286,32.1284 115.5386,31.8444 115.4396,31.6894 C115.3406,31.5354 115.1946,31.4164 115.0016,31.3354 C114.8466,31.2774 114.5746,31.2484 114.1826,31.2484 L112.0246,31.2484 Z" id="Fill-140" fill="#1A171B"></path>
            <path d="M116.6447,30.8192 L118.7807,30.8192 L123.5907,36.7212 L123.5907,32.1832 C123.5907,31.6992 123.5377,31.3972 123.4287,31.2772 C123.2857,31.1152 123.0597,31.0332 122.7497,31.0332 L122.4767,31.0332 L122.4767,30.8192 L125.2157,30.8192 L125.2157,31.0332 L124.9377,31.0332 C124.6047,31.0332 124.3697,31.1342 124.2297,31.3352 C124.1447,31.4592 124.1017,31.7412 124.1017,32.1832 L124.1017,38.8162 L123.8927,38.8162 L118.7047,32.4792 L118.7047,37.3252 C118.7047,37.8082 118.7567,38.1102 118.8617,38.2302 C119.0077,38.3932 119.2347,38.4742 119.5407,38.4742 L119.8187,38.4742 L119.8187,38.6892 L117.0797,38.6892 L117.0797,38.4742 L117.3527,38.4742 C117.6887,38.4742 117.9267,38.3732 118.0667,38.1722 C118.1517,38.0482 118.1937,37.7662 118.1937,37.3252 L118.1937,31.8522 C117.9657,31.5852 117.7917,31.4092 117.6737,31.3242 C117.5567,31.2382 117.3827,31.1592 117.1557,31.0862 C117.0427,31.0512 116.8727,31.0332 116.6447,31.0332 L116.6447,30.8192 Z" id="Fill-141" fill="#1A171B"></path>
            <path d="M132.2619,30.8192 L132.3499,32.6642 L132.1289,32.6642 C132.0859,32.3402 132.0289,32.1072 131.9539,31.9682 C131.8349,31.7442 131.6749,31.5782 131.4759,31.4722 C131.2769,31.3652 131.0149,31.3122 130.6899,31.3122 L129.5809,31.3122 L129.5809,37.3252 C129.5809,37.8082 129.6329,38.1102 129.7379,38.2302 C129.8849,38.3932 130.1119,38.4742 130.4169,38.4742 L130.6899,38.4742 L130.6899,38.6892 L127.3529,38.6892 L127.3529,38.4742 L127.6309,38.4742 C127.9639,38.4742 128.1999,38.3732 128.3389,38.1722 C128.4239,38.0482 128.4669,37.7662 128.4669,37.3252 L128.4669,31.3122 L127.5209,31.3122 C127.1539,31.3122 126.8919,31.3392 126.7379,31.3932 C126.5359,31.4672 126.3639,31.6082 126.2209,31.8172 C126.0769,32.0262 125.9919,32.3082 125.9649,32.6642 L125.7439,32.6642 L125.8379,30.8192 L132.2619,30.8192 Z" id="Fill-142" fill="#1A171B"></path>
            <path d="M140.8508,30.639 L140.8508,33.361 L140.6368,33.361 C140.5668,32.839 140.4418,32.423 140.2618,32.113 C140.0818,31.804 139.8268,31.558 139.4938,31.376 C139.1608,31.194 138.8158,31.103 138.4598,31.103 C138.0578,31.103 137.7248,31.226 137.4618,31.472 C137.1988,31.718 137.0678,31.997 137.0678,32.31 C137.0678,32.551 137.1508,32.769 137.3168,32.966 C137.5568,33.257 138.1268,33.643 139.0288,34.127 C139.7638,34.522 140.2658,34.825 140.5358,35.035 C140.8038,35.246 141.0108,35.495 141.1558,35.781 C141.3008,36.068 141.3728,36.368 141.3728,36.681 C141.3728,37.277 141.1428,37.79 140.6798,38.222 C140.2178,38.653 139.6228,38.868 138.8958,38.868 C138.6668,38.868 138.4528,38.851 138.2508,38.816 C138.1308,38.797 137.8828,38.726 137.5048,38.605 C137.1278,38.483 136.8888,38.422 136.7888,38.422 C136.6918,38.422 136.6158,38.451 136.5598,38.509 C136.5028,38.567 136.4618,38.687 136.4348,38.868 L136.2198,38.868 L136.2198,36.17 L136.4348,36.17 C136.5358,36.735 136.6698,37.158 136.8408,37.438 C137.0108,37.719 137.2718,37.951 137.6218,38.138 C137.9718,38.323 138.3558,38.416 138.7738,38.416 C139.2568,38.416 139.6388,38.288 139.9198,38.033 C140.2008,37.778 140.3398,37.476 140.3398,37.128 C140.3398,36.934 140.2878,36.739 140.1808,36.541 C140.0748,36.344 139.9098,36.16 139.6848,35.99 C139.5338,35.874 139.1218,35.627 138.4488,35.25 C137.7758,34.873 137.2958,34.572 137.0118,34.347 C136.7278,34.123 136.5118,33.876 136.3658,33.605 C136.2178,33.334 136.1448,33.036 136.1448,32.711 C136.1448,32.146 136.3618,31.66 136.7938,31.251 C137.2278,30.843 137.7798,30.639 138.4488,30.639 C138.8668,30.639 139.3098,30.742 139.7778,30.947 C139.9948,31.043 140.1468,31.092 140.2368,31.092 C140.3368,31.092 140.4188,31.062 140.4828,31.002 C140.5458,30.942 140.5978,30.821 140.6368,30.639 L140.8508,30.639 Z" id="Fill-143" fill="#1A171B"></path>
            <path d="M147.6819,31.0335 L147.6819,30.8195 L150.4679,30.8195 L150.4679,31.0335 L150.1719,31.0335 C149.8629,31.0335 149.6239,31.1635 149.4579,31.4225 C149.3769,31.5425 149.3359,31.8215 149.3359,32.2585 L149.3359,35.4505 C149.3359,36.2395 149.2579,36.8515 149.1009,37.2875 C148.9449,37.7225 148.6369,38.0955 148.1779,38.4075 C147.7199,38.7185 147.0959,38.8745 146.3069,38.8745 C145.4479,38.8745 144.7959,38.7255 144.3509,38.4275 C143.9059,38.1295 143.5899,37.7295 143.4049,37.2265 C143.2809,36.8825 143.2189,36.2355 143.2189,35.2875 L143.2189,32.2115 C143.2189,31.7285 143.1529,31.4105 143.0189,31.2605 C142.8849,31.1095 142.6699,31.0335 142.3709,31.0335 L142.0759,31.0335 L142.0759,30.8195 L145.4769,30.8195 L145.4769,31.0335 L145.1749,31.0335 C144.8499,31.0335 144.6179,31.1365 144.4789,31.3415 C144.3819,31.4805 144.3329,31.7705 144.3329,32.2115 L144.3329,35.6415 C144.3329,35.9475 144.3619,36.2975 144.4169,36.6925 C144.4739,37.0865 144.5759,37.3945 144.7219,37.6155 C144.8689,37.8355 145.0809,38.0175 145.3579,38.1605 C145.6339,38.3045 145.9739,38.3755 146.3759,38.3755 C146.8909,38.3755 147.3519,38.2625 147.7579,38.0385 C148.1639,37.8145 148.4419,37.5275 148.5899,37.1775 C148.7399,36.8265 148.8139,36.2335 148.8139,35.3985 L148.8139,32.2115 C148.8139,31.7205 148.7599,31.4125 148.6519,31.2885 C148.4999,31.1185 148.2759,31.0335 147.9779,31.0335 L147.6819,31.0335 Z" id="Fill-144" fill="#1A171B"></path>
            <path d="M153.0334,34.6727 C153.2384,34.7117 153.4204,34.7407 153.5794,34.7597 C153.7374,34.7787 153.8734,34.7887 153.9854,34.7887 C154.3874,34.7887 154.7344,34.6327 155.0264,34.3217 C155.3194,34.0097 155.4654,33.6067 155.4654,33.1117 C155.4654,32.7707 155.3954,32.4547 155.2564,32.1627 C155.1174,31.8707 154.9204,31.6517 154.6644,31.5067 C154.4094,31.3617 154.1184,31.2887 153.7944,31.2887 C153.5964,31.2887 153.3434,31.3257 153.0334,31.3997 L153.0334,34.6727 Z M153.0334,35.0037 L153.0334,37.2957 C153.0334,37.7917 153.0874,38.0987 153.1954,38.2187 C153.3434,38.3887 153.5654,38.4737 153.8634,38.4737 L154.1654,38.4737 L154.1654,38.6887 L150.7934,38.6887 L150.7934,38.4737 L151.0894,38.4737 C151.4224,38.4737 151.6604,38.3657 151.8034,38.1497 C151.8804,38.0287 151.9194,37.7447 151.9194,37.2957 L151.9194,32.2117 C151.9194,31.7167 151.8674,31.4087 151.7624,31.2887 C151.6114,31.1187 151.3874,31.0337 151.0894,31.0337 L150.7934,31.0337 L150.7934,30.8187 L153.6784,30.8187 C154.3824,30.8187 154.9364,30.8917 155.3434,31.0367 C155.7494,31.1817 156.0924,31.4267 156.3704,31.7707 C156.6494,32.1147 156.7884,32.5237 156.7884,32.9957 C156.7884,33.6377 156.5764,34.1597 156.1524,34.5627 C155.7294,34.9647 155.1304,35.1657 154.3564,35.1657 C154.1674,35.1657 153.9624,35.1527 153.7414,35.1257 C153.5204,35.0987 153.2854,35.0577 153.0334,35.0037 Z" id="Fill-145" fill="#1A171B"></path>
            <path d="M162.1565,28.2596 L160.4445,30.2616 L160.2475,30.2616 L160.8565,28.2596 L162.1565,28.2596 Z M159.6905,31.2486 L159.6905,34.3596 L161.4205,34.3596 C161.8685,34.3596 162.1685,34.2916 162.3195,34.1556 C162.5205,33.9786 162.6335,33.6646 162.6555,33.2156 L162.8705,33.2156 L162.8705,35.9556 L162.6555,35.9556 C162.6015,35.5716 162.5485,35.3266 162.4935,35.2176 C162.4245,35.0826 162.3095,34.9766 162.1505,34.8986 C161.9925,34.8216 161.7485,34.7826 161.4205,34.7826 L159.6905,34.7826 L159.6905,37.3776 C159.6905,37.7256 159.7055,37.9376 159.7365,38.0126 C159.7675,38.0886 159.8215,38.1486 159.8995,38.1926 C159.9765,38.2376 160.1235,38.2596 160.3405,38.2596 L161.6755,38.2596 C162.1205,38.2596 162.4435,38.2286 162.6445,38.1666 C162.8455,38.1046 163.0395,37.9826 163.2245,37.8006 C163.4655,37.5606 163.7105,37.1986 163.9625,36.7156 L164.1935,36.7156 L163.5145,38.6886 L157.4505,38.6886 L157.4505,38.4736 L157.7285,38.4736 C157.9145,38.4736 158.0905,38.4296 158.2575,38.3406 C158.3805,38.2786 158.4655,38.1856 158.5095,38.0616 C158.5535,37.9386 158.5765,37.6846 158.5765,37.3016 L158.5765,32.1886 C158.5765,31.6896 158.5255,31.3826 158.4255,31.2656 C158.2855,31.1116 158.0535,31.0336 157.7285,31.0336 L157.4505,31.0336 L157.4505,30.8196 L163.5145,30.8196 L163.6015,32.5426 L163.3755,32.5426 C163.2945,32.1286 163.2045,31.8446 163.1055,31.6896 C163.0075,31.5346 162.8605,31.4166 162.6675,31.3356 C162.5125,31.2776 162.2405,31.2486 161.8485,31.2486 L159.6905,31.2486 Z" id="Fill-146" fill="#1A171B"></path>
            <path d="M166.9104,34.6434 C166.9834,34.6434 167.0484,34.6444 167.1014,34.6464 C167.1564,34.6484 167.2004,34.6494 167.2354,34.6494 C167.9854,34.6494 168.5524,34.4874 168.9324,34.1624 C169.3134,33.8364 169.5054,33.4224 169.5054,32.9194 C169.5054,32.4284 169.3504,32.0294 169.0434,31.7214 C168.7354,31.4144 168.3284,31.2604 167.8214,31.2604 C167.5974,31.2604 167.2934,31.2964 166.9104,31.3704 L166.9104,34.6434 Z M172.4994,38.6884 L170.3984,38.6884 L167.7344,35.0094 C167.5374,35.0174 167.3764,35.0204 167.2534,35.0204 C167.2024,35.0204 167.1484,35.0194 167.0904,35.0184 C167.0324,35.0164 166.9724,35.0134 166.9104,35.0094 L166.9104,37.2954 C166.9104,37.7914 166.9644,38.0994 167.0724,38.2184 C167.2204,38.3894 167.4404,38.4744 167.7344,38.4744 L168.0424,38.4744 L168.0424,38.6884 L164.6704,38.6884 L164.6704,38.4744 L164.9664,38.4744 C165.2994,38.4744 165.5364,38.3654 165.6804,38.1494 C165.7614,38.0294 165.8024,37.7454 165.8024,37.2954 L165.8024,32.2114 C165.8024,31.7164 165.7474,31.4094 165.6394,31.2894 C165.4884,31.1194 165.2644,31.0334 164.9664,31.0334 L164.6704,31.0334 L164.6704,30.8194 L167.5374,30.8194 C168.3734,30.8194 168.9894,30.8794 169.3864,31.0014 C169.7824,31.1234 170.1184,31.3484 170.3954,31.6754 C170.6724,32.0014 170.8104,32.3924 170.8104,32.8444 C170.8104,33.3284 170.6524,33.7474 170.3374,34.1034 C170.0214,34.4594 169.5334,34.7114 168.8724,34.8584 L170.4974,37.1164 C170.8684,37.6344 171.1874,37.9784 171.4544,38.1494 C171.7224,38.3194 172.0694,38.4274 172.4994,38.4744 L172.4994,38.6884 Z" id="Fill-147" fill="#1A171B"></path>
            <path d="M176.0627,38.474 L176.0627,38.689 L172.6907,38.689 L172.6907,38.474 L172.9687,38.474 C173.2937,38.474 173.5307,38.379 173.6767,38.19 C173.7697,38.066 173.8167,37.768 173.8167,37.296 L173.8167,32.212 C173.8167,31.813 173.7917,31.55 173.7417,31.423 C173.7027,31.326 173.6237,31.243 173.5027,31.173 C173.3337,31.08 173.1557,31.034 172.9687,31.034 L172.6907,31.034 L172.6907,30.819 L176.0627,30.819 L176.0627,31.034 L175.7787,31.034 C175.4577,31.034 175.2227,31.129 175.0767,31.318 C174.9797,31.442 174.9307,31.74 174.9307,32.212 L174.9307,37.296 C174.9307,37.695 174.9567,37.957 175.0057,38.085 C175.0447,38.182 175.1257,38.265 175.2507,38.335 C175.4167,38.428 175.5927,38.474 175.7787,38.474 L176.0627,38.474 Z" id="Fill-148" fill="#1A171B"></path>
            <path d="M178.8371,31.2484 L178.8371,34.3594 L180.5661,34.3594 C181.0151,34.3594 181.3151,34.2914 181.4661,34.1564 C181.6671,33.9784 181.7791,33.6654 181.8021,33.2154 L182.0171,33.2154 L182.0171,35.9554 L181.8021,35.9554 C181.7481,35.5724 181.6941,35.3264 181.6401,35.2184 C181.5701,35.0824 181.4561,34.9764 181.2971,34.8984 C181.1391,34.8214 180.8951,34.7834 180.5661,34.7834 L178.8371,34.7834 L178.8371,37.3774 C178.8371,37.7254 178.8521,37.9374 178.8831,38.0124 C178.9141,38.0884 178.9681,38.1484 179.0461,38.1924 C179.1231,38.2374 179.2701,38.2594 179.4861,38.2594 L180.8211,38.2594 C181.2671,38.2594 181.5901,38.2284 181.7911,38.1664 C181.9921,38.1044 182.1861,37.9824 182.3711,37.8004 C182.6111,37.5604 182.8571,37.1994 183.1081,36.7154 L183.3401,36.7154 L182.6611,38.6884 L176.5971,38.6884 L176.5971,38.4744 L176.8751,38.4744 C177.0611,38.4744 177.2361,38.4294 177.4031,38.3404 C177.5261,38.2784 177.6111,38.1854 177.6551,38.0614 C177.7001,37.9384 177.7231,37.6854 177.7231,37.3014 L177.7231,32.1884 C177.7231,31.6894 177.6721,31.3824 177.5711,31.2664 C177.4321,31.1114 177.2001,31.0334 176.8751,31.0334 L176.5971,31.0334 L176.5971,30.8194 L182.6611,30.8194 L182.7481,32.5424 L182.5221,32.5424 C182.4411,32.1284 182.3511,31.8444 182.2521,31.6894 C182.1531,31.5354 182.0071,31.4164 181.8141,31.3354 C181.6591,31.2774 181.3871,31.2484 180.9951,31.2484 L178.8371,31.2484 Z" id="Fill-149" fill="#1A171B"></path>
            <path d="M189.2834,31.0335 L189.2834,30.8195 L192.0694,30.8195 L192.0694,31.0335 L191.7734,31.0335 C191.4644,31.0335 191.2254,31.1635 191.0594,31.4225 C190.9784,31.5425 190.9374,31.8215 190.9374,32.2585 L190.9374,35.4505 C190.9374,36.2395 190.8594,36.8515 190.7024,37.2875 C190.5464,37.7225 190.2384,38.0955 189.7794,38.4075 C189.3214,38.7185 188.6974,38.8745 187.9084,38.8745 C187.0494,38.8745 186.3974,38.7255 185.9524,38.4275 C185.5074,38.1295 185.1914,37.7295 185.0064,37.2265 C184.8824,36.8825 184.8204,36.2355 184.8204,35.2875 L184.8204,32.2115 C184.8204,31.7285 184.7544,31.4105 184.6204,31.2605 C184.4864,31.1095 184.2714,31.0335 183.9724,31.0335 L183.6774,31.0335 L183.6774,30.8195 L187.0784,30.8195 L187.0784,31.0335 L186.7764,31.0335 C186.4514,31.0335 186.2194,31.1365 186.0804,31.3415 C185.9834,31.4805 185.9344,31.7705 185.9344,32.2115 L185.9344,35.6415 C185.9344,35.9475 185.9634,36.2975 186.0184,36.6925 C186.0754,37.0865 186.1774,37.3945 186.3234,37.6155 C186.4704,37.8355 186.6824,38.0175 186.9594,38.1605 C187.2354,38.3045 187.5754,38.3755 187.9774,38.3755 C188.4924,38.3755 188.9534,38.2625 189.3594,38.0385 C189.7654,37.8145 190.0434,37.5275 190.1914,37.1775 C190.3414,36.8265 190.4154,36.2335 190.4154,35.3985 L190.4154,32.2115 C190.4154,31.7205 190.3614,31.4125 190.2534,31.2885 C190.1014,31.1185 189.8774,31.0335 189.5794,31.0335 L189.2834,31.0335 Z" id="Fill-150" fill="#1A171B"></path>
            <path d="M194.6399,34.6434 C194.7129,34.6434 194.7779,34.6444 194.8309,34.6464 C194.8859,34.6484 194.9299,34.6494 194.9649,34.6494 C195.7149,34.6494 196.2819,34.4874 196.6619,34.1624 C197.0429,33.8364 197.2349,33.4224 197.2349,32.9194 C197.2349,32.4284 197.0799,32.0294 196.7729,31.7214 C196.4649,31.4144 196.0579,31.2604 195.5509,31.2604 C195.3269,31.2604 195.0229,31.2964 194.6399,31.3704 L194.6399,34.6434 Z M200.2289,38.6884 L198.1279,38.6884 L195.4639,35.0094 C195.2669,35.0174 195.1059,35.0204 194.9829,35.0204 C194.9319,35.0204 194.8779,35.0194 194.8199,35.0184 C194.7619,35.0164 194.7019,35.0134 194.6399,35.0094 L194.6399,37.2954 C194.6399,37.7914 194.6939,38.0994 194.8019,38.2184 C194.9499,38.3894 195.1699,38.4744 195.4639,38.4744 L195.7719,38.4744 L195.7719,38.6884 L192.3999,38.6884 L192.3999,38.4744 L192.6959,38.4744 C193.0289,38.4744 193.2659,38.3654 193.4099,38.1494 C193.4909,38.0294 193.5319,37.7454 193.5319,37.2954 L193.5319,32.2114 C193.5319,31.7164 193.4769,31.4094 193.3689,31.2894 C193.2179,31.1194 192.9939,31.0334 192.6959,31.0334 L192.3999,31.0334 L192.3999,30.8194 L195.2669,30.8194 C196.1029,30.8194 196.7189,30.8794 197.1159,31.0014 C197.5119,31.1234 197.8479,31.3484 198.1249,31.6754 C198.4019,32.0014 198.5399,32.3924 198.5399,32.8444 C198.5399,33.3284 198.3819,33.7474 198.0669,34.1034 C197.7509,34.4594 197.2629,34.7114 196.6019,34.8584 L198.2269,37.1164 C198.5979,37.6344 198.9169,37.9784 199.1839,38.1494 C199.4519,38.3194 199.7989,38.4274 200.2289,38.4744 L200.2289,38.6884 Z" id="Fill-151" fill="#1A171B"></path>
            <path d="M200.7639,40.6678 L200.7639,40.4128 C201.1619,40.2808 201.4709,40.0768 201.6899,39.7998 C201.9079,39.5238 202.0169,39.2308 202.0169,38.9208 C202.0169,38.8478 201.9999,38.7858 201.9649,38.7348 C201.9379,38.7008 201.9099,38.6828 201.8839,38.6828 C201.8409,38.6828 201.7479,38.7218 201.6049,38.7988 C201.5349,38.8338 201.4619,38.8518 201.3849,38.8518 C201.1949,38.8518 201.0439,38.7948 200.9319,38.6828 C200.8199,38.5708 200.7639,38.4158 200.7639,38.2188 C200.7639,38.0288 200.8359,37.8668 200.9819,37.7308 C201.1259,37.5958 201.3029,37.5278 201.5119,37.5278 C201.7679,37.5278 201.9949,37.6398 202.1949,37.8618 C202.3939,38.0848 202.4929,38.3788 202.4929,38.7468 C202.4929,39.1458 202.3549,39.5158 202.0779,39.8578 C201.8019,40.2008 201.3639,40.4708 200.7639,40.6678" id="Fill-152" fill="#1A171B"></path>
            <path d="M56.1438,51.0867 C56.6348,51.1947 57.0468,51.2497 57.3798,51.2497 C58.2778,51.2497 59.0228,50.9337 59.6148,50.3037 C60.2058,49.6727 60.5018,48.8177 60.5018,47.7377 C60.5018,46.6497 60.2058,45.7937 59.6148,45.1667 C59.0228,44.5407 58.2618,44.2267 57.3328,44.2267 C56.9858,44.2267 56.5888,44.2827 56.1438,44.3957 L56.1438,51.0867 Z M53.8978,51.6557 L53.8978,51.4407 L54.1938,51.4407 C54.5268,51.4407 54.7628,51.3337 54.9018,51.1207 C54.9868,50.9937 55.0298,50.7077 55.0298,50.2627 L55.0298,45.1787 C55.0298,44.6877 54.9748,44.3797 54.8668,44.2557 C54.7158,44.0857 54.4918,43.9997 54.1938,43.9997 L53.8978,43.9997 L53.8978,43.7857 L57.1018,43.7857 C58.2778,43.7857 59.1718,43.9197 59.7858,44.1867 C60.3988,44.4527 60.8918,44.8987 61.2658,45.5217 C61.6388,46.1447 61.8258,46.8627 61.8258,47.6797 C61.8258,48.7747 61.4928,49.6907 60.8278,50.4257 C60.0808,51.2457 58.9428,51.6557 57.4148,51.6557 L53.8978,51.6557 Z" id="Fill-153" fill="#1A171B"></path>
            <path d="M64.7629,44.2147 L64.7629,47.3257 L66.4919,47.3257 C66.9409,47.3257 67.2409,47.2577 67.3919,47.1227 C67.5929,46.9447 67.7049,46.6317 67.7279,46.1827 L67.9429,46.1827 L67.9429,48.9217 L67.7279,48.9217 C67.6739,48.5387 67.6199,48.2927 67.5659,48.1857 C67.4959,48.0497 67.3819,47.9437 67.2229,47.8647 C67.0649,47.7887 66.8209,47.7497 66.4919,47.7497 L64.7629,47.7497 L64.7629,50.3437 C64.7629,50.6927 64.7779,50.9037 64.8089,50.9797 C64.8399,51.0547 64.8939,51.1147 64.9719,51.1597 C65.0489,51.2037 65.1959,51.2267 65.4119,51.2267 L66.7469,51.2267 C67.1929,51.2267 67.5159,51.1947 67.7169,51.1327 C67.9179,51.0717 68.1119,50.9487 68.2969,50.7677 C68.5369,50.5267 68.7829,50.1657 69.0339,49.6827 L69.2659,49.6827 L68.5869,51.6557 L62.5229,51.6557 L62.5229,51.4417 L62.8009,51.4417 C62.9869,51.4417 63.1619,51.3967 63.3289,51.3077 C63.4519,51.2457 63.5369,51.1517 63.5809,51.0287 C63.6259,50.9047 63.6489,50.6517 63.6489,50.2687 L63.6489,45.1557 C63.6489,44.6557 63.5979,44.3497 63.4969,44.2327 C63.3579,44.0777 63.1259,43.9997 62.8009,43.9997 L62.5229,43.9997 L62.5229,43.7857 L68.5869,43.7857 L68.6739,45.5097 L68.4479,45.5097 C68.3669,45.0957 68.2769,44.8117 68.1779,44.6557 C68.0789,44.5017 67.9329,44.3837 67.7399,44.3027 C67.5849,44.2437 67.3129,44.2147 66.9209,44.2147 L64.7629,44.2147 Z" id="Fill-154" fill="#1A171B"></path>
            <path d="M79.3235,49.4793 L79.5145,49.5193 L78.8425,51.6563 L72.7485,51.6563 L72.7485,51.4413 L73.0445,51.4413 C73.3765,51.4413 73.6145,51.3323 73.7585,51.1163 C73.8395,50.9923 73.8805,50.7063 73.8805,50.2563 L73.8805,45.1783 C73.8805,44.6873 73.8255,44.3793 73.7175,44.2553 C73.5665,44.0853 73.3425,44.0003 73.0445,44.0003 L72.7485,44.0003 L72.7485,43.7863 L76.3115,43.7863 L76.3115,44.0003 C75.8935,43.9973 75.6005,44.0353 75.4315,44.1173 C75.2635,44.1973 75.1485,44.3003 75.0875,44.4233 C75.0245,44.5483 74.9945,44.8433 74.9945,45.3123 L74.9945,50.2563 C74.9945,50.5783 75.0245,50.7983 75.0875,50.9173 C75.1335,51.0003 75.2055,51.0603 75.3025,51.0983 C75.3985,51.1363 75.7005,51.1563 76.2075,51.1563 L76.7815,51.1563 C77.3855,51.1563 77.8085,51.1123 78.0525,51.0233 C78.2965,50.9333 78.5185,50.7763 78.7195,50.5503 C78.9215,50.3243 79.1225,49.9663 79.3235,49.4793" id="Fill-155" fill="#1A171B"></path>
            <path d="M85.0461,48.5916 L83.7111,45.4106 L82.3421,48.5916 L85.0461,48.5916 Z M85.2091,49.0216 L82.1621,49.0216 L81.6281,50.2626 C81.4961,50.5686 81.4311,50.7966 81.4311,50.9466 C81.4311,51.0686 81.4871,51.1736 81.6021,51.2636 C81.7161,51.3556 81.9621,51.4136 82.3421,51.4416 L82.3421,51.6556 L79.8631,51.6556 L79.8631,51.4416 C80.1921,51.3826 80.4051,51.3076 80.5021,51.2146 C80.6991,51.0296 80.9181,50.6526 81.1571,50.0826 L83.9261,43.6056 L84.1291,43.6056 L86.8681,50.1526 C87.0891,50.6786 87.2891,51.0196 87.4691,51.1766 C87.6501,51.3336 87.9001,51.4216 88.2211,51.4416 L88.2211,51.6556 L85.1161,51.6556 L85.1161,51.4416 C85.4291,51.4256 85.6411,51.3726 85.7511,51.2836 C85.8611,51.1956 85.9171,51.0866 85.9171,50.9586 C85.9171,50.7886 85.8391,50.5196 85.6851,50.1526 L85.2091,49.0216 Z" id="Fill-156" fill="#1A171B"></path>
            <path d="M93.1135,47.6102 C93.1865,47.6102 93.2515,47.6112 93.3045,47.6132 C93.3595,47.6152 93.4035,47.6162 93.4385,47.6162 C94.1885,47.6162 94.7555,47.4542 95.1355,47.1292 C95.5165,46.8032 95.7085,46.3892 95.7085,45.8862 C95.7085,45.3952 95.5535,44.9962 95.2465,44.6882 C94.9385,44.3812 94.5315,44.2262 94.0245,44.2262 C93.8005,44.2262 93.4965,44.2632 93.1135,44.3382 L93.1135,47.6102 Z M98.7025,51.6562 L96.6015,51.6562 L93.9375,47.9762 C93.7405,47.9842 93.5795,47.9882 93.4565,47.9882 C93.4055,47.9882 93.3515,47.9862 93.2935,47.9842 C93.2355,47.9822 93.1755,47.9802 93.1135,47.9762 L93.1135,50.2622 C93.1135,50.7572 93.1675,51.0662 93.2755,51.1852 C93.4235,51.3552 93.6435,51.4412 93.9375,51.4412 L94.2455,51.4412 L94.2455,51.6562 L90.8735,51.6562 L90.8735,51.4412 L91.1695,51.4412 C91.5025,51.4412 91.7395,51.3322 91.8835,51.1162 C91.9645,50.9962 92.0055,50.7122 92.0055,50.2622 L92.0055,45.1782 C92.0055,44.6832 91.9505,44.3762 91.8425,44.2562 C91.6915,44.0862 91.4675,44.0002 91.1695,44.0002 L90.8735,44.0002 L90.8735,43.7862 L93.7405,43.7862 C94.5765,43.7862 95.1925,43.8462 95.5895,43.9682 C95.9855,44.0902 96.3215,44.3142 96.5985,44.6422 C96.8755,44.9682 97.0135,45.3592 97.0135,45.8112 C97.0135,46.2952 96.8555,46.7142 96.5405,47.0702 C96.2245,47.4262 95.7365,47.6772 95.0755,47.8252 L96.7005,50.0832 C97.0715,50.6012 97.3905,50.9452 97.6575,51.1162 C97.9255,51.2862 98.2725,51.3942 98.7025,51.4412 L98.7025,51.6562 Z" id="Fill-157" fill="#1A171B"></path>
            <path d="M101.0822,44.2147 L101.0822,47.3257 L102.8112,47.3257 C103.2602,47.3257 103.5602,47.2577 103.7112,47.1227 C103.9122,46.9447 104.0242,46.6317 104.0472,46.1827 L104.2622,46.1827 L104.2622,48.9217 L104.0472,48.9217 C103.9932,48.5387 103.9392,48.2927 103.8852,48.1857 C103.8152,48.0497 103.7012,47.9437 103.5422,47.8647 C103.3842,47.7887 103.1402,47.7497 102.8112,47.7497 L101.0822,47.7497 L101.0822,50.3437 C101.0822,50.6927 101.0972,50.9037 101.1282,50.9797 C101.1592,51.0547 101.2132,51.1147 101.2912,51.1597 C101.3682,51.2037 101.5152,51.2267 101.7312,51.2267 L103.0662,51.2267 C103.5122,51.2267 103.8352,51.1947 104.0362,51.1327 C104.2372,51.0717 104.4312,50.9487 104.6162,50.7677 C104.8562,50.5267 105.1022,50.1657 105.3532,49.6827 L105.5852,49.6827 L104.9062,51.6557 L98.8422,51.6557 L98.8422,51.4417 L99.1202,51.4417 C99.3062,51.4417 99.4812,51.3967 99.6482,51.3077 C99.7712,51.2457 99.8562,51.1517 99.9002,51.0287 C99.9452,50.9047 99.9682,50.6517 99.9682,50.2687 L99.9682,45.1557 C99.9682,44.6557 99.9172,44.3497 99.8162,44.2327 C99.6772,44.0777 99.4452,43.9997 99.1202,43.9997 L98.8422,43.9997 L98.8422,43.7857 L104.9062,43.7857 L104.9932,45.5097 L104.7672,45.5097 C104.6862,45.0957 104.5962,44.8117 104.4972,44.6557 C104.3982,44.5017 104.2522,44.3837 104.0592,44.3027 C103.9042,44.2437 103.6322,44.2147 103.2402,44.2147 L101.0822,44.2147 Z" id="Fill-158" fill="#1A171B"></path>
            <path d="M113.0149,43.6053 L113.1949,46.2813 L113.0149,46.2813 C112.7749,45.4803 112.4319,44.9043 111.9879,44.5523 C111.5419,44.2003 111.0079,44.0233 110.3859,44.0233 C109.8639,44.0233 109.3909,44.1563 108.9689,44.4213 C108.5479,44.6863 108.2159,45.1093 107.9739,45.6893 C107.7329,46.2693 107.6119,46.9923 107.6119,47.8543 C107.6119,48.5663 107.7259,49.1833 107.9529,49.7053 C108.1819,50.2283 108.5259,50.6283 108.9839,50.9073 C109.4429,51.1853 109.9659,51.3243 110.5539,51.3243 C111.0649,51.3243 111.5149,51.2153 111.9069,50.9973 C112.2969,50.7783 112.7269,50.3433 113.1949,49.6943 L113.3739,49.8103 C112.9799,50.5103 112.5199,51.0233 111.9939,51.3473 C111.4669,51.6733 110.8419,51.8353 110.1189,51.8353 C108.8149,51.8353 107.8049,51.3513 107.0889,50.3843 C106.5549,49.6653 106.2879,48.8183 106.2879,47.8423 C106.2879,47.0563 106.4639,46.3353 106.8169,45.6773 C107.1679,45.0193 107.6529,44.5093 108.2699,44.1483 C108.8869,43.7873 109.5619,43.6053 110.2919,43.6053 C110.8619,43.6053 111.4219,43.7453 111.9759,44.0233 C112.1379,44.1093 112.2539,44.1513 112.3249,44.1513 C112.4279,44.1513 112.5199,44.1153 112.5969,44.0413 C112.6979,43.9373 112.7689,43.7913 112.8119,43.6053 L113.0149,43.6053 Z" id="Fill-159" fill="#1A171B"></path>
            <path d="M116.2297,47.4364 L119.8857,47.4364 L119.8857,45.1844 C119.8857,44.7824 119.8607,44.5174 119.8107,44.3894 C119.7717,44.2924 119.6907,44.2084 119.5667,44.1404 C119.4007,44.0464 119.2247,43.9994 119.0387,43.9994 L118.7597,43.9994 L118.7597,43.7864 L122.1257,43.7864 L122.1257,43.9994 L121.8477,43.9994 C121.6627,43.9994 121.4857,44.0444 121.3197,44.1344 C121.1957,44.1964 121.1117,44.2904 121.0667,44.4154 C121.0227,44.5404 121.0007,44.7974 121.0007,45.1844 L121.0007,50.2624 C121.0007,50.6624 121.0257,50.9234 121.0757,51.0524 C121.1147,51.1484 121.1937,51.2324 121.3137,51.3014 C121.4837,51.3944 121.6627,51.4414 121.8477,51.4414 L122.1257,51.4414 L122.1257,51.6564 L118.7597,51.6564 L118.7597,51.4414 L119.0387,51.4414 C119.3597,51.4414 119.5937,51.3454 119.7417,51.1564 C119.8377,51.0334 119.8857,50.7344 119.8857,50.2624 L119.8857,47.8654 L116.2297,47.8654 L116.2297,50.2624 C116.2297,50.6624 116.2547,50.9234 116.3047,51.0524 C116.3437,51.1484 116.4247,51.2324 116.5487,51.3014 C116.7147,51.3944 116.8917,51.4414 117.0777,51.4414 L117.3617,51.4414 L117.3617,51.6564 L113.9897,51.6564 L113.9897,51.4414 L114.2677,51.4414 C114.5927,51.4414 114.8297,51.3454 114.9757,51.1564 C115.0687,51.0334 115.1157,50.7344 115.1157,50.2624 L115.1157,45.1844 C115.1157,44.7824 115.0897,44.5174 115.0407,44.3894 C115.0007,44.2924 114.9217,44.2084 114.8017,44.1404 C114.6317,44.0464 114.4537,43.9994 114.2677,43.9994 L113.9897,43.9994 L113.9897,43.7864 L117.3617,43.7864 L117.3617,43.9994 L117.0777,43.9994 C116.8917,43.9994 116.7147,44.0444 116.5487,44.1344 C116.4287,44.1964 116.3457,44.2904 116.2987,44.4154 C116.2527,44.5404 116.2297,44.7974 116.2297,45.1844 L116.2297,47.4364 Z" id="Fill-160" fill="#1A171B"></path>
            <path d="M124.8537,44.2147 L124.8537,47.3257 L126.5827,47.3257 C127.0317,47.3257 127.3317,47.2577 127.4827,47.1227 C127.6837,46.9447 127.7957,46.6317 127.8187,46.1827 L128.0337,46.1827 L128.0337,48.9217 L127.8187,48.9217 C127.7647,48.5387 127.7107,48.2927 127.6567,48.1857 C127.5867,48.0497 127.4727,47.9437 127.3137,47.8647 C127.1557,47.7887 126.9117,47.7497 126.5827,47.7497 L124.8537,47.7497 L124.8537,50.3437 C124.8537,50.6927 124.8687,50.9037 124.8997,50.9797 C124.9307,51.0547 124.9847,51.1147 125.0627,51.1597 C125.1397,51.2037 125.2867,51.2267 125.5027,51.2267 L126.8377,51.2267 C127.2837,51.2267 127.6067,51.1947 127.8077,51.1327 C128.0087,51.0717 128.2027,50.9487 128.3877,50.7677 C128.6277,50.5267 128.8737,50.1657 129.1247,49.6827 L129.3567,49.6827 L128.6777,51.6557 L122.6137,51.6557 L122.6137,51.4417 L122.8917,51.4417 C123.0777,51.4417 123.2527,51.3967 123.4197,51.3077 C123.5427,51.2457 123.6277,51.1517 123.6717,51.0287 C123.7167,50.9047 123.7397,50.6517 123.7397,50.2687 L123.7397,45.1557 C123.7397,44.6557 123.6887,44.3497 123.5877,44.2327 C123.4487,44.0777 123.2167,43.9997 122.8917,43.9997 L122.6137,43.9997 L122.6137,43.7857 L128.6777,43.7857 L128.7647,45.5097 L128.5387,45.5097 C128.4577,45.0957 128.3677,44.8117 128.2687,44.6557 C128.1697,44.5017 128.0237,44.3837 127.8307,44.3027 C127.6757,44.2437 127.4037,44.2147 127.0117,44.2147 L124.8537,44.2147 Z" id="Fill-161" fill="#1A171B"></path>
            <path d="M132.0735,47.6102 C132.1465,47.6102 132.2115,47.6112 132.2645,47.6132 C132.3195,47.6152 132.3635,47.6162 132.3985,47.6162 C133.1485,47.6162 133.7155,47.4542 134.0955,47.1292 C134.4765,46.8032 134.6685,46.3892 134.6685,45.8862 C134.6685,45.3952 134.5135,44.9962 134.2065,44.6882 C133.8985,44.3812 133.4915,44.2262 132.9845,44.2262 C132.7605,44.2262 132.4565,44.2632 132.0735,44.3382 L132.0735,47.6102 Z M137.6625,51.6562 L135.5615,51.6562 L132.8975,47.9762 C132.7005,47.9842 132.5395,47.9882 132.4165,47.9882 C132.3655,47.9882 132.3115,47.9862 132.2535,47.9842 C132.1955,47.9822 132.1355,47.9802 132.0735,47.9762 L132.0735,50.2622 C132.0735,50.7572 132.1275,51.0662 132.2355,51.1852 C132.3835,51.3552 132.6035,51.4412 132.8975,51.4412 L133.2055,51.4412 L133.2055,51.6562 L129.8335,51.6562 L129.8335,51.4412 L130.1295,51.4412 C130.4625,51.4412 130.6995,51.3322 130.8435,51.1162 C130.9245,50.9962 130.9655,50.7122 130.9655,50.2622 L130.9655,45.1782 C130.9655,44.6832 130.9105,44.3762 130.8025,44.2562 C130.6515,44.0862 130.4275,44.0002 130.1295,44.0002 L129.8335,44.0002 L129.8335,43.7862 L132.7005,43.7862 C133.5365,43.7862 134.1525,43.8462 134.5495,43.9682 C134.9455,44.0902 135.2815,44.3142 135.5585,44.6422 C135.8355,44.9682 135.9735,45.3592 135.9735,45.8112 C135.9735,46.2952 135.8155,46.7142 135.5005,47.0702 C135.1845,47.4262 134.6965,47.6772 134.0355,47.8252 L135.6605,50.0832 C136.0315,50.6012 136.3505,50.9452 136.6175,51.1162 C136.8855,51.2862 137.2325,51.3942 137.6625,51.4412 L137.6625,51.6562 Z" id="Fill-162" fill="#1A171B"></path>
            <path d="M144.7141,43.6053 L144.8941,46.2813 L144.7141,46.2813 C144.4741,45.4803 144.1311,44.9043 143.6871,44.5523 C143.2411,44.2003 142.7071,44.0233 142.0851,44.0233 C141.5631,44.0233 141.0901,44.1563 140.6681,44.4213 C140.2471,44.6863 139.9151,45.1093 139.6731,45.6893 C139.4321,46.2693 139.3111,46.9923 139.3111,47.8543 C139.3111,48.5663 139.4251,49.1833 139.6521,49.7053 C139.8811,50.2283 140.2251,50.6283 140.6831,50.9073 C141.1421,51.1853 141.6651,51.3243 142.2531,51.3243 C142.7641,51.3243 143.2141,51.2153 143.6061,50.9973 C143.9961,50.7783 144.4261,50.3433 144.8941,49.6943 L145.0731,49.8103 C144.6791,50.5103 144.2191,51.0233 143.6931,51.3473 C143.1661,51.6733 142.5411,51.8353 141.8181,51.8353 C140.5141,51.8353 139.5041,51.3513 138.7881,50.3843 C138.2541,49.6653 137.9871,48.8183 137.9871,47.8423 C137.9871,47.0563 138.1631,46.3353 138.5161,45.6773 C138.8671,45.0193 139.3521,44.5093 139.9691,44.1483 C140.5861,43.7873 141.2611,43.6053 141.9911,43.6053 C142.5611,43.6053 143.1211,43.7453 143.6751,44.0233 C143.8371,44.1093 143.9531,44.1513 144.0241,44.1513 C144.1271,44.1513 144.2191,44.1153 144.2961,44.0413 C144.3971,43.9373 144.4681,43.7913 144.5111,43.6053 L144.7141,43.6053 Z" id="Fill-163" fill="#1A171B"></path>
            <path d="M147.9289,47.4364 L151.5849,47.4364 L151.5849,45.1844 C151.5849,44.7824 151.5599,44.5174 151.5099,44.3894 C151.4709,44.2924 151.3899,44.2084 151.2659,44.1404 C151.0999,44.0464 150.9239,43.9994 150.7379,43.9994 L150.4589,43.9994 L150.4589,43.7864 L153.8249,43.7864 L153.8249,43.9994 L153.5469,43.9994 C153.3619,43.9994 153.1849,44.0444 153.0189,44.1344 C152.8949,44.1964 152.8109,44.2904 152.7659,44.4154 C152.7219,44.5404 152.6999,44.7974 152.6999,45.1844 L152.6999,50.2624 C152.6999,50.6624 152.7249,50.9234 152.7749,51.0524 C152.8139,51.1484 152.8929,51.2324 153.0129,51.3014 C153.1829,51.3944 153.3619,51.4414 153.5469,51.4414 L153.8249,51.4414 L153.8249,51.6564 L150.4589,51.6564 L150.4589,51.4414 L150.7379,51.4414 C151.0589,51.4414 151.2929,51.3454 151.4409,51.1564 C151.5369,51.0334 151.5849,50.7344 151.5849,50.2624 L151.5849,47.8654 L147.9289,47.8654 L147.9289,50.2624 C147.9289,50.6624 147.9539,50.9234 148.0039,51.0524 C148.0429,51.1484 148.1239,51.2324 148.2479,51.3014 C148.4139,51.3944 148.5909,51.4414 148.7769,51.4414 L149.0609,51.4414 L149.0609,51.6564 L145.6889,51.6564 L145.6889,51.4414 L145.9669,51.4414 C146.2919,51.4414 146.5289,51.3454 146.6749,51.1564 C146.7679,51.0334 146.8149,50.7344 146.8149,50.2624 L146.8149,45.1844 C146.8149,44.7824 146.7889,44.5174 146.7399,44.3894 C146.6999,44.2924 146.6209,44.2084 146.5009,44.1404 C146.3309,44.0464 146.1529,43.9994 145.9669,43.9994 L145.6889,43.9994 L145.6889,43.7864 L149.0609,43.7864 L149.0609,43.9994 L148.7769,43.9994 C148.5909,43.9994 148.4139,44.0444 148.2479,44.1344 C148.1279,44.1964 148.0449,44.2904 147.9979,44.4154 C147.9519,44.5404 147.9289,44.7974 147.9289,45.1844 L147.9289,47.4364 Z" id="Fill-164" fill="#1A171B"></path>
            <path d="M156.5539,44.2147 L156.5539,47.3257 L158.2829,47.3257 C158.7319,47.3257 159.0319,47.2577 159.1829,47.1227 C159.3839,46.9447 159.4959,46.6317 159.5189,46.1827 L159.7339,46.1827 L159.7339,48.9217 L159.5189,48.9217 C159.4649,48.5387 159.4109,48.2927 159.3569,48.1857 C159.2869,48.0497 159.1729,47.9437 159.0139,47.8647 C158.8559,47.7887 158.6119,47.7497 158.2829,47.7497 L156.5539,47.7497 L156.5539,50.3437 C156.5539,50.6927 156.5689,50.9037 156.5999,50.9797 C156.6309,51.0547 156.6849,51.1147 156.7629,51.1597 C156.8399,51.2037 156.9869,51.2267 157.2029,51.2267 L158.5379,51.2267 C158.9839,51.2267 159.3069,51.1947 159.5079,51.1327 C159.7089,51.0717 159.9029,50.9487 160.0879,50.7677 C160.3279,50.5267 160.5739,50.1657 160.8249,49.6827 L161.0569,49.6827 L160.3779,51.6557 L154.3139,51.6557 L154.3139,51.4417 L154.5919,51.4417 C154.7779,51.4417 154.9529,51.3967 155.1199,51.3077 C155.2429,51.2457 155.3279,51.1517 155.3719,51.0287 C155.4169,50.9047 155.4399,50.6517 155.4399,50.2687 L155.4399,45.1557 C155.4399,44.6557 155.3889,44.3497 155.2879,44.2327 C155.1489,44.0777 154.9169,43.9997 154.5919,43.9997 L154.3139,43.9997 L154.3139,43.7857 L160.3779,43.7857 L160.4649,45.5097 L160.2389,45.5097 C160.1579,45.0957 160.0679,44.8117 159.9689,44.6557 C159.8699,44.5017 159.7239,44.3837 159.5309,44.3027 C159.3759,44.2437 159.1039,44.2147 158.7119,44.2147 L156.5539,44.2147 Z" id="Fill-165" fill="#1A171B"></path>
            <path d="M50.6799,57.1815 L50.6799,60.2925 L52.4089,60.2925 C52.8579,60.2925 53.1579,60.2245 53.3089,60.0895 C53.5099,59.9115 53.6219,59.5975 53.6449,59.1485 L53.8599,59.1485 L53.8599,61.8885 L53.6449,61.8885 C53.5909,61.5055 53.5369,61.2595 53.4829,61.1515 C53.4129,61.0155 53.2989,60.9105 53.1399,60.8315 C52.9819,60.7545 52.7379,60.7165 52.4089,60.7165 L50.6799,60.7165 L50.6799,63.3105 C50.6799,63.6585 50.6949,63.8705 50.7259,63.9455 C50.7569,64.0215 50.8109,64.0815 50.8889,64.1255 C50.9659,64.1695 51.1129,64.1925 51.3289,64.1925 L52.6639,64.1925 C53.1099,64.1925 53.4329,64.1615 53.6339,64.0995 C53.8349,64.0375 54.0289,63.9155 54.2139,63.7345 C54.4539,63.4935 54.6999,63.1325 54.9509,62.6485 L55.1829,62.6485 L54.5039,64.6215 L48.4399,64.6215 L48.4399,64.4075 L48.7179,64.4075 C48.9039,64.4075 49.0789,64.3635 49.2459,64.2735 C49.3689,64.2115 49.4539,64.1185 49.4979,63.9945 C49.5429,63.8705 49.5659,63.6185 49.5659,63.2345 L49.5659,58.1215 C49.5659,57.6225 49.5149,57.3155 49.4139,57.1995 C49.2749,57.0445 49.0429,56.9665 48.7179,56.9665 L48.4399,56.9665 L48.4399,56.7515 L54.5039,56.7515 L54.5909,58.4765 L54.3649,58.4765 C54.2839,58.0625 54.1939,57.7775 54.0949,57.6225 C53.9959,57.4685 53.8499,57.3495 53.6569,57.2685 C53.5019,57.2105 53.2299,57.1815 52.8379,57.1815 L50.6799,57.1815 Z" id="Fill-166" fill="#1A171B"></path>
            <path d="M62.3332,56.7518 L62.4212,58.5978 L62.2002,58.5978 C62.1572,58.2728 62.1002,58.0408 62.0252,57.9008 C61.9062,57.6778 61.7462,57.5118 61.5472,57.4048 C61.3482,57.2988 61.0862,57.2458 60.7612,57.2458 L59.6522,57.2458 L59.6522,63.2578 C59.6522,63.7418 59.7042,64.0428 59.8092,64.1638 C59.9562,64.3258 60.1832,64.4068 60.4882,64.4068 L60.7612,64.4068 L60.7612,64.6218 L57.4242,64.6218 L57.4242,64.4068 L57.7022,64.4068 C58.0352,64.4068 58.2712,64.3068 58.4102,64.1058 C58.4952,63.9818 58.5382,63.6988 58.5382,63.2578 L58.5382,57.2458 L57.5922,57.2458 C57.2252,57.2458 56.9632,57.2728 56.8092,57.3258 C56.6072,57.3998 56.4352,57.5408 56.2922,57.7498 C56.1482,57.9588 56.0632,58.2418 56.0362,58.5978 L55.8152,58.5978 L55.9092,56.7518 L62.3332,56.7518 Z" id="Fill-167" fill="#1A171B"></path>
            <path d="M67.9221,64.0526 C68.4131,64.1616 68.8251,64.2156 69.1581,64.2156 C70.0561,64.2156 70.8011,63.9006 71.3931,63.2696 C71.9841,62.6386 72.2801,61.7836 72.2801,60.7046 C72.2801,59.6166 71.9841,58.7596 71.3931,58.1326 C70.8011,57.5066 70.0401,57.1936 69.1111,57.1936 C68.7641,57.1936 68.3671,57.2496 67.9221,57.3616 L67.9221,64.0526 Z M65.6761,64.6216 L65.6761,64.4066 L65.9721,64.4066 C66.3051,64.4066 66.5411,64.3006 66.6801,64.0876 C66.7651,63.9606 66.8081,63.6736 66.8081,63.2286 L66.8081,58.1446 C66.8081,57.6546 66.7531,57.3456 66.6451,57.2226 C66.4941,57.0526 66.2701,56.9666 65.9721,56.9666 L65.6761,56.9666 L65.6761,56.7516 L68.8801,56.7516 C70.0561,56.7516 70.9501,56.8856 71.5641,57.1526 C72.1771,57.4196 72.6701,57.8656 73.0441,58.4876 C73.4171,59.1106 73.6041,59.8296 73.6041,60.6466 C73.6041,61.7416 73.2711,62.6566 72.6061,63.3916 C71.8591,64.2116 70.7211,64.6216 69.1931,64.6216 L65.6761,64.6216 Z" id="Fill-168" fill="#1A171B"></path>
            <path d="M76.5412,57.1815 L76.5412,60.2925 L78.2702,60.2925 C78.7192,60.2925 79.0192,60.2245 79.1702,60.0895 C79.3712,59.9115 79.4832,59.5975 79.5062,59.1485 L79.7212,59.1485 L79.7212,61.8885 L79.5062,61.8885 C79.4522,61.5055 79.3982,61.2595 79.3442,61.1515 C79.2742,61.0155 79.1602,60.9105 79.0012,60.8315 C78.8432,60.7545 78.5992,60.7165 78.2702,60.7165 L76.5412,60.7165 L76.5412,63.3105 C76.5412,63.6585 76.5562,63.8705 76.5872,63.9455 C76.6182,64.0215 76.6722,64.0815 76.7502,64.1255 C76.8272,64.1695 76.9742,64.1925 77.1902,64.1925 L78.5252,64.1925 C78.9712,64.1925 79.2942,64.1615 79.4952,64.0995 C79.6962,64.0375 79.8902,63.9155 80.0752,63.7345 C80.3152,63.4935 80.5612,63.1325 80.8122,62.6485 L81.0442,62.6485 L80.3652,64.6215 L74.3012,64.6215 L74.3012,64.4075 L74.5792,64.4075 C74.7652,64.4075 74.9402,64.3635 75.1072,64.2735 C75.2302,64.2115 75.3152,64.1185 75.3592,63.9945 C75.4042,63.8705 75.4272,63.6185 75.4272,63.2345 L75.4272,58.1215 C75.4272,57.6225 75.3762,57.3155 75.2752,57.1995 C75.1362,57.0445 74.9042,56.9665 74.5792,56.9665 L74.3012,56.9665 L74.3012,56.7515 L80.3652,56.7515 L80.4522,58.4765 L80.2262,58.4765 C80.1452,58.0625 80.0552,57.7775 79.9562,57.6225 C79.8572,57.4685 79.7112,57.3495 79.5182,57.2685 C79.3632,57.2105 79.0912,57.1815 78.6992,57.1815 L76.5412,57.1815 Z" id="Fill-169" fill="#1A171B"></path>
            <path d="M91.1018,62.4451 L91.2928,62.4861 L90.6208,64.6221 L84.5268,64.6221 L84.5268,64.4071 L84.8228,64.4071 C85.1548,64.4071 85.3928,64.2991 85.5368,64.0821 C85.6178,63.9591 85.6588,63.6721 85.6588,63.2221 L85.6588,58.1441 C85.6588,57.6541 85.6038,57.3451 85.4958,57.2221 C85.3448,57.0521 85.1208,56.9661 84.8228,56.9661 L84.5268,56.9661 L84.5268,56.7521 L88.0898,56.7521 L88.0898,56.9661 C87.6718,56.9631 87.3788,57.0021 87.2098,57.0831 C87.0418,57.1641 86.9268,57.2671 86.8658,57.3901 C86.8028,57.5141 86.7728,57.8101 86.7728,58.2791 L86.7728,63.2221 C86.7728,63.5451 86.8028,63.7651 86.8658,63.8841 C86.9118,63.9661 86.9838,64.0261 87.0808,64.0641 C87.1768,64.1031 87.4788,64.1231 87.9858,64.1231 L88.5598,64.1231 C89.1638,64.1231 89.5868,64.0781 89.8308,63.9891 C90.0748,63.9001 90.2968,63.7421 90.4978,63.5161 C90.6998,63.2901 90.9008,62.9331 91.1018,62.4451" id="Fill-170" fill="#1A171B"></path>
            <path d="M91.8391,59.578 L91.8391,59.306 C92.2371,59.07 92.5091,58.849 92.6511,58.644 C92.7521,58.497 92.8031,58.321 92.8031,58.116 C92.8031,57.996 92.7811,57.907 92.7391,57.849 C92.6931,57.791 92.6431,57.762 92.5881,57.762 C92.5451,57.762 92.4891,57.775 92.4201,57.803 C92.3191,57.838 92.2361,57.855 92.1701,57.855 C92.0161,57.855 91.8781,57.797 91.7581,57.681 C91.6381,57.564 91.5781,57.42 91.5781,57.246 C91.5781,57.053 91.6381,56.901 91.7581,56.793 C91.9211,56.646 92.1141,56.572 92.3391,56.572 C92.5981,56.572 92.8311,56.682 93.0381,56.9 C93.2451,57.119 93.3491,57.39 93.3491,57.716 C93.3491,58.172 93.1761,58.588 92.8321,58.963 C92.6041,59.211 92.2731,59.416 91.8391,59.578" id="Fill-171" fill="#1A171B"></path>
            <path d="M98.0842,64.4071 L98.0842,64.6221 L94.7122,64.6221 L94.7122,64.4071 L94.9902,64.4071 C95.3152,64.4071 95.5522,64.3121 95.6982,64.1231 C95.7912,63.9991 95.8382,63.7011 95.8382,63.2281 L95.8382,58.1441 C95.8382,57.7461 95.8132,57.4831 95.7632,57.3551 C95.7242,57.2601 95.6452,57.1761 95.5242,57.1061 C95.3552,57.0131 95.1772,56.9671 94.9902,56.9671 L94.7122,56.9671 L94.7122,56.7521 L98.0842,56.7521 L98.0842,56.9671 L97.8002,56.9671 C97.4792,56.9671 97.2442,57.0621 97.0982,57.2521 C97.0012,57.3751 96.9522,57.6741 96.9522,58.1441 L96.9522,63.2281 C96.9522,63.6281 96.9782,63.8901 97.0272,64.0181 C97.0662,64.1151 97.1472,64.1981 97.2722,64.2671 C97.4382,64.3611 97.6142,64.4071 97.8002,64.4071 L98.0842,64.4071 Z" id="Fill-172" fill="#1A171B"></path>
            <path d="M98.218,56.7518 L100.354,56.7518 L105.164,62.6538 L105.164,58.1158 C105.164,57.6328 105.111,57.3298 105.002,57.2108 C104.859,57.0488 104.633,56.9668 104.323,56.9668 L104.05,56.9668 L104.05,56.7518 L106.789,56.7518 L106.789,56.9668 L106.511,56.9668 C106.178,56.9668 105.943,57.0678 105.803,57.2688 C105.718,57.3928 105.675,57.6748 105.675,58.1158 L105.675,64.7498 L105.466,64.7498 L100.278,58.4118 L100.278,63.2578 C100.278,63.7418 100.33,64.0428 100.435,64.1638 C100.581,64.3258 100.808,64.4068 101.114,64.4068 L101.392,64.4068 L101.392,64.6218 L98.653,64.6218 L98.653,64.4068 L98.926,64.4068 C99.262,64.4068 99.5,64.3068 99.64,64.1058 C99.725,63.9818 99.767,63.6988 99.767,63.2578 L99.767,57.7848 C99.539,57.5188 99.365,57.3418 99.247,57.2578 C99.13,57.1718 98.956,57.0928 98.729,57.0198 C98.616,56.9838 98.446,56.9668 98.218,56.9668 L98.218,56.7518 Z" id="Fill-173" fill="#1A171B"></path>
            <path d="M106.802,56.7518 L108.938,56.7518 L113.748,62.6538 L113.748,58.1158 C113.748,57.6328 113.695,57.3298 113.586,57.2108 C113.443,57.0488 113.217,56.9668 112.907,56.9668 L112.634,56.9668 L112.634,56.7518 L115.373,56.7518 L115.373,56.9668 L115.095,56.9668 C114.762,56.9668 114.527,57.0678 114.387,57.2688 C114.302,57.3928 114.259,57.6748 114.259,58.1158 L114.259,64.7498 L114.05,64.7498 L108.862,58.4118 L108.862,63.2578 C108.862,63.7418 108.914,64.0428 109.019,64.1638 C109.165,64.3258 109.392,64.4068 109.698,64.4068 L109.976,64.4068 L109.976,64.6218 L107.237,64.6218 L107.237,64.4068 L107.51,64.4068 C107.846,64.4068 108.084,64.3068 108.224,64.1058 C108.309,63.9818 108.351,63.6988 108.351,63.2578 L108.351,57.7848 C108.123,57.5188 107.949,57.3418 107.831,57.2578 C107.714,57.1718 107.54,57.0928 107.313,57.0198 C107.2,56.9838 107.03,56.9668 106.802,56.9668 L106.802,56.7518 Z" id="Fill-174" fill="#1A171B"></path>
            <path d="M119.7785,56.9959 C119.0745,56.9959 118.5095,57.2579 118.0845,57.7789 C117.5535,58.4299 117.2895,59.3809 117.2895,60.6349 C117.2895,61.9199 117.5635,62.9079 118.1135,63.5999 C118.5355,64.1269 119.0915,64.3909 119.7845,64.3909 C120.5235,64.3909 121.1335,64.1009 121.6155,63.5249 C122.0975,62.9489 122.3385,62.0389 122.3385,60.7969 C122.3385,59.4509 122.0735,58.4469 121.5435,57.7849 C121.1175,57.2599 120.5295,56.9959 119.7785,56.9959 M119.8885,56.5719 C120.9105,56.5719 121.7965,56.9609 122.5445,57.7359 C123.2935,58.5119 123.6675,59.4799 123.6675,60.6409 C123.6675,61.8359 123.2905,62.8279 122.5355,63.6179 C121.7815,64.4069 120.8685,64.8019 119.7965,64.8019 C118.7135,64.8019 117.8025,64.4169 117.0655,63.6459 C116.3285,62.8769 115.9605,61.8809 115.9605,60.6579 C115.9605,59.4079 116.3855,58.3889 117.2365,57.5999 C117.9755,56.9139 118.8595,56.5719 119.8885,56.5719" id="Fill-175" fill="#1A171B"></path>
            <path d="M132.5637,56.7518 L132.5637,56.9668 C132.2857,57.0178 132.0747,57.1058 131.9307,57.2338 C131.7257,57.4238 131.5437,57.7138 131.3857,58.1048 L128.6407,64.8018 L128.4257,64.8018 L125.4777,58.0178 C125.3267,57.6698 125.2197,57.4568 125.1587,57.3788 C125.0617,57.2598 124.9427,57.1658 124.8007,57.0978 C124.6607,57.0288 124.4697,56.9858 124.2297,56.9668 L124.2297,56.7518 L127.4447,56.7518 L127.4447,56.9668 C127.0817,57.0018 126.8447,57.0638 126.7367,57.1518 C126.6277,57.2418 126.5747,57.3558 126.5747,57.4948 C126.5747,57.6888 126.6637,57.9898 126.8407,58.3998 L128.8437,63.0148 L130.7007,58.4588 C130.8827,58.0098 130.9737,57.6978 130.9737,57.5228 C130.9737,57.4118 130.9177,57.3048 130.8047,57.2018 C130.6927,57.0998 130.5027,57.0268 130.2367,56.9838 C130.2167,56.9808 130.1837,56.9748 130.1377,56.9668 L130.1377,56.7518 L132.5637,56.7518 Z" id="Fill-176" fill="#1A171B"></path>
            <path d="M136.4524,61.5574 L135.1174,58.3764 L133.7484,61.5574 L136.4524,61.5574 Z M136.6154,61.9874 L133.5684,61.9874 L133.0344,63.2284 C132.9024,63.5354 132.8374,63.7634 132.8374,63.9134 C132.8374,64.0344 132.8934,64.1394 133.0084,64.2304 C133.1224,64.3214 133.3684,64.3804 133.7484,64.4074 L133.7484,64.6214 L131.2694,64.6214 L131.2694,64.4074 C131.5984,64.3494 131.8114,64.2734 131.9084,64.1814 C132.1054,63.9954 132.3244,63.6184 132.5634,63.0484 L135.3324,56.5724 L135.5354,56.5724 L138.2744,63.1194 C138.4954,63.6444 138.6954,63.9864 138.8754,64.1424 C139.0564,64.2994 139.3064,64.3884 139.6274,64.4074 L139.6274,64.6214 L136.5224,64.6214 L136.5224,64.4074 C136.8354,64.3924 137.0474,64.3394 137.1574,64.2494 C137.2674,64.1614 137.3234,64.0524 137.3234,63.9254 C137.3234,63.7554 137.2454,63.4864 137.0914,63.1194 L136.6154,61.9874 Z" id="Fill-177" fill="#1A171B"></path>
            <path d="M145.3205,56.7518 L145.4085,58.5978 L145.1875,58.5978 C145.1445,58.2728 145.0875,58.0408 145.0125,57.9008 C144.8935,57.6778 144.7335,57.5118 144.5345,57.4048 C144.3355,57.2988 144.0735,57.2458 143.7485,57.2458 L142.6395,57.2458 L142.6395,63.2578 C142.6395,63.7418 142.6915,64.0428 142.7965,64.1638 C142.9435,64.3258 143.1705,64.4068 143.4755,64.4068 L143.7485,64.4068 L143.7485,64.6218 L140.4115,64.6218 L140.4115,64.4068 L140.6895,64.4068 C141.0225,64.4068 141.2585,64.3068 141.3975,64.1058 C141.4825,63.9818 141.5255,63.6988 141.5255,63.2578 L141.5255,57.2458 L140.5795,57.2458 C140.2125,57.2458 139.9505,57.2728 139.7965,57.3258 C139.5945,57.3998 139.4225,57.5408 139.2795,57.7498 C139.1355,57.9588 139.0505,58.2418 139.0235,58.5978 L138.8025,58.5978 L138.8965,56.7518 L145.3205,56.7518 Z" id="Fill-178" fill="#1A171B"></path>
            <path d="M149.3713,64.4071 L149.3713,64.6221 L145.9993,64.6221 L145.9993,64.4071 L146.2773,64.4071 C146.6023,64.4071 146.8393,64.3121 146.9853,64.1231 C147.0783,63.9991 147.1253,63.7011 147.1253,63.2281 L147.1253,58.1441 C147.1253,57.7461 147.1003,57.4831 147.0503,57.3551 C147.0113,57.2601 146.9323,57.1761 146.8113,57.1061 C146.6423,57.0131 146.4643,56.9671 146.2773,56.9671 L145.9993,56.9671 L145.9993,56.7521 L149.3713,56.7521 L149.3713,56.9671 L149.0873,56.9671 C148.7663,56.9671 148.5313,57.0621 148.3853,57.2521 C148.2883,57.3751 148.2393,57.6741 148.2393,58.1441 L148.2393,63.2281 C148.2393,63.6281 148.2653,63.8901 148.3143,64.0181 C148.3533,64.1151 148.4343,64.1981 148.5593,64.2671 C148.7253,64.3611 148.9013,64.4071 149.0873,64.4071 L149.3713,64.4071 Z" id="Fill-179" fill="#1A171B"></path>
            <path d="M153.8977,56.9959 C153.1937,56.9959 152.6287,57.2579 152.2037,57.7789 C151.6727,58.4299 151.4087,59.3809 151.4087,60.6349 C151.4087,61.9199 151.6827,62.9079 152.2327,63.5999 C152.6547,64.1269 153.2107,64.3909 153.9037,64.3909 C154.6427,64.3909 155.2527,64.1009 155.7347,63.5249 C156.2167,62.9489 156.4577,62.0389 156.4577,60.7969 C156.4577,59.4509 156.1927,58.4469 155.6627,57.7849 C155.2367,57.2599 154.6487,56.9959 153.8977,56.9959 M154.0077,56.5719 C155.0297,56.5719 155.9157,56.9609 156.6637,57.7359 C157.4127,58.5119 157.7867,59.4799 157.7867,60.6409 C157.7867,61.8359 157.4097,62.8279 156.6547,63.6179 C155.9007,64.4069 154.9877,64.8019 153.9157,64.8019 C152.8327,64.8019 151.9217,64.4169 151.1847,63.6459 C150.4477,62.8769 150.0797,61.8809 150.0797,60.6579 C150.0797,59.4079 150.5047,58.3889 151.3557,57.5999 C152.0947,56.9139 152.9787,56.5719 154.0077,56.5719" id="Fill-180" fill="#1A171B"></path>
            <path d="M158.0891,56.7518 L160.2251,56.7518 L165.0351,62.6538 L165.0351,58.1158 C165.0351,57.6328 164.9821,57.3298 164.8731,57.2108 C164.7301,57.0488 164.5041,56.9668 164.1941,56.9668 L163.9211,56.9668 L163.9211,56.7518 L166.6601,56.7518 L166.6601,56.9668 L166.3821,56.9668 C166.0491,56.9668 165.8141,57.0678 165.6741,57.2688 C165.5891,57.3928 165.5461,57.6748 165.5461,58.1158 L165.5461,64.7498 L165.3371,64.7498 L160.1491,58.4118 L160.1491,63.2578 C160.1491,63.7418 160.2011,64.0428 160.3061,64.1638 C160.4521,64.3258 160.6791,64.4068 160.9851,64.4068 L161.2631,64.4068 L161.2631,64.6218 L158.5241,64.6218 L158.5241,64.4068 L158.7971,64.4068 C159.1331,64.4068 159.3711,64.3068 159.5111,64.1058 C159.5961,63.9818 159.6381,63.6988 159.6381,63.2578 L159.6381,57.7848 C159.4101,57.5188 159.2361,57.3418 159.1181,57.2578 C159.0011,57.1718 158.8271,57.0928 158.6001,57.0198 C158.4871,56.9838 158.3171,56.9668 158.0891,56.9668 L158.0891,56.7518 Z" id="Fill-181" fill="#1A171B"></path>
          </g>
        </g>
      </g>
    </g>
  </g>
</svg>
