<?xml version="1.0" encoding="UTF-8"?>
<svg width="12px" height="12px" viewBox="0 0 12 12" version="1.1" xmlns="http://www.w3.org/2000/svg" xmlns:xlink="http://www.w3.org/1999/xlink">
  <g id="HOME" stroke="none" stroke-width="1" fill="none" fill-rule="evenodd">
    <g id="Home-3--V-1" transform="translate(-1387.000000, -462.000000)" fill="#000000" fill-rule="nonzero">
      <g id="Group-2" transform="translate(1020.000000, 444.000000)">
        <path d="M374.193202,24.2500161 L378.54237,28.599184 C378.652027,28.7088754 378.652027,28.8871281 378.54237,28.9967852 L377.746756,29.7923994 C377.637099,29.9020565 377.458846,29.9020565 377.349155,29.7923994 L372.999987,25.4432315 L368.650475,29.7923994 C368.540784,29.9020565 368.362531,29.9020565 368.25284,29.7923994 L367.45726,28.9967852 C367.347569,28.8871281 367.347569,28.7088754 367.45726,28.599184 L371.806771,24.2500161 L367.45726,19.9005048 C367.347569,19.7908135 367.347569,19.6125607 367.45726,19.5028694 L368.253218,18.7072894 C368.362875,18.5975981 368.541127,18.5975981 368.650819,18.7072894 L372.999987,23.0568007 L377.349155,18.7076328 C377.458846,18.5979757 377.637099,18.5979757 377.746756,18.7076328 L378.54237,19.503247 C378.652027,19.612904 378.652027,19.7911568 378.54237,19.9008481 L374.193202,24.2500161 Z" id="ï€"></path>
      </g>
    </g>
  </g>
</svg>
