<svg width="18" height="18" xmlns="http://www.w3.org/2000/svg"><path d="M9 17.969a8.717 8.717 0 008.719-8.719A8.717 8.717 0 009 .531 8.717 8.717 0 00.281 9.25 8.717 8.717 0 009 17.969zm2.746-12.094H6.254C6.841 3.207 8.054 1.656 9 1.656s2.159 1.55 2.746 4.219zm4.046 0h-2.9c-.317-1.56-.848-2.89-1.519-3.835a7.627 7.627 0 014.42 3.835zm-10.684 0h-2.9A7.627 7.627 0 016.627 2.04c-.668.942-1.202 2.27-1.519 3.835zm6.835 5.625H6.057a16.615 16.615 0 01-.15-2.25c0-.805.055-1.554.15-2.25h5.886c.094.696.15 1.445.15 2.25 0 .805-.056 1.554-.15 2.25zm-7.014 0H1.747a7.546 7.546 0 01-.34-2.25c0-.784.119-1.54.34-2.25H4.93a17.195 17.195 0 000 4.5zm11.324 0H13.07a17.195 17.195 0 000-4.5h3.182c.221.71.34 1.466.34 2.25s-.119 1.54-.34 2.25zm-9.626 4.96a7.627 7.627 0 01-4.42-3.835h2.901c.317 1.561.847 2.89 1.519 3.836zM9 16.845c-.946 0-2.159-1.55-2.746-4.219h5.492c-.587 2.668-1.8 4.219-2.746 4.219zm2.373-.383c.668-.943 1.202-2.272 1.519-3.836h2.9a7.627 7.627 0 01-4.419 3.836zM9 17.969a8.717 8.717 0 008.719-8.719A8.717 8.717 0 009 .531 8.717 8.717 0 00.281 9.25 8.717 8.717 0 009 17.969zm2.746-12.094H6.254C6.841 3.207 8.054 1.656 9 1.656s2.159 1.55 2.746 4.219zm4.046 0h-2.9c-.317-1.56-.848-2.89-1.519-3.835a7.627 7.627 0 014.42 3.835zm-10.684 0h-2.9A7.627 7.627 0 016.627 2.04c-.668.942-1.202 2.27-1.519 3.835zm6.835 5.625H6.057a16.615 16.615 0 01-.15-2.25c0-.805.055-1.554.15-2.25h5.886c.094.696.15 1.445.15 2.25 0 .805-.056 1.554-.15 2.25zm-7.014 0H1.747a7.546 7.546 0 01-.34-2.25c0-.784.119-1.54.34-2.25H4.93a17.195 17.195 0 000 4.5zm11.324 0H13.07a17.195 17.195 0 000-4.5h3.182c.221.71.34 1.466.34 2.25s-.119 1.54-.34 2.25zm-9.626 4.96a7.627 7.627 0 01-4.42-3.835h2.901c.317 1.561.847 2.89 1.519 3.836zM9 16.845c-.946 0-2.159-1.55-2.746-4.219h5.492c-.587 2.668-1.8 4.219-2.746 4.219zm2.373-.383c.668-.943 1.202-2.272 1.519-3.836h2.9a7.627 7.627 0 01-4.419 3.836z" fill="#000" fill-rule="nonzero"/></svg>