<?xml version="1.0" encoding="UTF-8"?>
<svg width="18px" height="18px" viewBox="0 0 18 18" version="1.1" xmlns="http://www.w3.org/2000/svg" xmlns:xlink="http://www.w3.org/1999/xlink">
  <title>gglobe</title>
  <g id="R&amp;D-switch-langue" stroke="none" stroke-width="1" fill="none" fill-rule="evenodd">
    <g id="ORG-switch_Final" transform="translate(-981.000000, -31.000000)" fill="#000000" fill-rule="nonzero">
      <g id="Group-37" transform="translate(981.000000, 29.000000)">
        <path d="M8.99997921,19.9687453 C13.816374,19.9687453 17.7187084,16.0664109 17.7187084,11.2500161 C17.7187084,6.43362133 13.816374,2.53128688 8.99997921,2.53128688 C4.18358445,2.53128688 0.28125,6.43362133 0.28125,11.2500161 C0.28125,16.0664109 4.18358445,19.9687453 8.99997921,19.9687453 Z M11.7456621,7.87502414 L6.25429637,7.87502414 C6.84137688,5.20665739 8.05426461,3.6562842 8.99997921,3.6562842 C9.94569382,3.6562842 11.1585815,5.20665739 11.7456621,7.87502414 Z M15.7921574,7.87502414 L12.8917737,7.87502414 C12.5753682,6.31407663 12.0444895,4.98518041 11.3730204,4.03950014 C13.3066096,4.6793149 14.8956751,6.07502156 15.7921574,7.87502414 Z M5.10818475,7.87502414 L2.20780104,7.87502414 C3.10428328,6.07502156 4.69334886,4.6793149 6.626938,4.03950014 C5.95897084,4.98167853 5.42459025,6.31057474 5.10818475,7.87502414 Z M11.9425572,13.5000107 L6.05740124,13.5000107 C5.96247272,12.8039255 5.90623659,12.055106 5.90623659,11.2500161 C5.90623659,10.4449262 5.96247272,9.69610668 6.05740124,9.00002146 L11.9425572,9.00002146 C12.0374857,9.69610668 12.0937218,10.4449262 12.0937218,11.2500161 C12.0937218,12.055106 12.0374857,12.8039255 11.9425572,13.5000107 Z M4.92890204,13.5000107 L1.747269,13.5000107 C1.52579202,12.7898493 1.40624732,12.0339917 1.40624732,11.2500161 C1.40624732,10.4660405 1.52579202,9.71018288 1.747269,9.00002146 L4.92890204,9.00002146 C4.8374754,9.72072286 4.78123927,10.4695423 4.78123927,11.2500161 C4.78123927,12.0304898 4.83397352,12.7793093 4.92890204,13.5000107 Z M16.2526894,13.5000107 L13.0710564,13.5000107 C13.162483,12.7793093 13.2187192,12.0304898 13.2187192,11.2500161 C13.2187192,10.4695423 13.1659849,9.72072286 13.0710564,9.00002146 L16.2526894,9.00002146 C16.4741664,9.71018288 16.5937111,10.4660405 16.5937111,11.2500161 C16.5937111,12.0339917 16.4741664,12.7898493 16.2526894,13.5000107 Z M6.626938,18.460532 C4.69334886,17.8207173 3.10428328,16.4250106 2.20780104,14.625008 L5.10818475,14.625008 C5.42459025,16.1859556 5.95546895,17.5148518 6.626938,18.460532 Z M8.99997921,18.843748 C8.05426461,18.843748 6.84137688,17.2933748 6.25429637,14.625008 L11.7456621,14.625008 C11.1585815,17.2933748 9.94569382,18.843748 8.99997921,18.843748 Z M11.3730204,18.460532 C12.0409876,17.5183537 12.5753682,16.1894574 12.8917737,14.625008 L15.7921574,14.625008 C14.8956751,16.4250106 13.3066096,17.8207173 11.3730204,18.460532 Z M8.99997921,19.9687453 C13.816374,19.9687453 17.7187084,16.0664109 17.7187084,11.2500161 C17.7187084,6.43362133 13.816374,2.53128688 8.99997921,2.53128688 C4.18358445,2.53128688 0.28125,6.43362133 0.28125,11.2500161 C0.28125,16.0664109 4.18358445,19.9687453 8.99997921,19.9687453 Z M11.7456621,7.87502414 L6.25429637,7.87502414 C6.84137688,5.20665739 8.05426461,3.6562842 8.99997921,3.6562842 C9.94569382,3.6562842 11.1585815,5.20665739 11.7456621,7.87502414 Z M15.7921574,7.87502414 L12.8917737,7.87502414 C12.5753682,6.31407663 12.0444895,4.98518041 11.3730204,4.03950014 C13.3066096,4.6793149 14.8956751,6.07502156 15.7921574,7.87502414 Z M5.10818475,7.87502414 L2.20780104,7.87502414 C3.10428328,6.07502156 4.69334886,4.6793149 6.626938,4.03950014 C5.95897084,4.98167853 5.42459025,6.31057474 5.10818475,7.87502414 Z M11.9425572,13.5000107 L6.05740124,13.5000107 C5.96247272,12.8039255 5.90623659,12.055106 5.90623659,11.2500161 C5.90623659,10.4449262 5.96247272,9.69610668 6.05740124,9.00002146 L11.9425572,9.00002146 C12.0374857,9.69610668 12.0937218,10.4449262 12.0937218,11.2500161 C12.0937218,12.055106 12.0374857,12.8039255 11.9425572,13.5000107 Z M4.92890204,13.5000107 L1.747269,13.5000107 C1.52579202,12.7898493 1.40624732,12.0339917 1.40624732,11.2500161 C1.40624732,10.4660405 1.52579202,9.71018288 1.747269,9.00002146 L4.92890204,9.00002146 C4.8374754,9.72072286 4.78123927,10.4695423 4.78123927,11.2500161 C4.78123927,12.0304898 4.83397352,12.7793093 4.92890204,13.5000107 Z M16.2526894,13.5000107 L13.0710564,13.5000107 C13.162483,12.7793093 13.2187192,12.0304898 13.2187192,11.2500161 C13.2187192,10.4695423 13.1659849,9.72072286 13.0710564,9.00002146 L16.2526894,9.00002146 C16.4741664,9.71018288 16.5937111,10.4660405 16.5937111,11.2500161 C16.5937111,12.0339917 16.4741664,12.7898493 16.2526894,13.5000107 Z M6.626938,18.460532 C4.69334886,17.8207173 3.10428328,16.4250106 2.20780104,14.625008 L5.10818475,14.625008 C5.42459025,16.1859556 5.95546895,17.5148518 6.626938,18.460532 Z M8.99997921,18.843748 C8.05426461,18.843748 6.84137688,17.2933748 6.25429637,14.625008 L11.7456621,14.625008 C11.1585815,17.2933748 9.94569382,18.843748 8.99997921,18.843748 Z M11.3730204,18.460532 C12.0409876,17.5183537 12.5753682,16.1894574 12.8917737,14.625008 L15.7921574,14.625008 C14.8956751,16.4250106 13.3066096,17.8207173 11.3730204,18.460532 Z" id="gglobe"></path>
      </g>
    </g>
  </g>
</svg>
