<?xml version="1.0" encoding="UTF-8"?>
<svg width="135px" height="135px" viewBox="0 0 135 135" version="1.1" xmlns="http://www.w3.org/2000/svg" xmlns:xlink="http://www.w3.org/1999/xlink">
  <g id="HOME" stroke="none" stroke-width="1" fill="none" fill-rule="evenodd">
    <g id="Home-3--V-1" transform="translate(-1044.000000, -530.000000)" fill-rule="nonzero">
      <g id="usability" transform="translate(1044.000000, 530.000000)">
        <path d="M135,20.0390625 L135,95.1855469 L127.089844,103.095703 L67.5,103.095703 L67.5,16.0839844 L131.044922,16.0839844 C133.260029,16.0839844 135,17.8239551 135,20.0390625 Z" id="Path" fill="#293939"></path>
        <path d="M135,20.0390625 L135,95.1855469 L127.089844,103.095703 L7.91015625,103.095703 L0,95.1855469 L0,20.0390625 C0,17.8239551 1.7399707,16.0839844 3.95507812,16.0839844 L131.044922,16.0839844 C133.260029,16.0839844 135,17.8239551 135,20.0390625 Z" id="Path" fill="#2C3B73"></path>
        <rect id="Rectangle" fill="#979FEF" x="7.91015625" y="23.9941406" width="119.179688" height="79.1015625"></rect>
        <rect id="Rectangle" fill="#737EE6" x="67.5" y="23.9941406" width="59.5898437" height="79.1015625"></rect>
        <path d="M111.005859,3.95507812 L111.005859,99.140625 C111.005859,101.355205 109.265889,103.095703 107.050781,103.095703 L27.9492187,103.095703 C25.7341113,103.095703 23.9941406,101.355205 23.9941406,99.140625 L23.9941406,3.95507812 C23.9941406,1.7399707 25.7341113,0 27.9492187,0 L107.050781,0 C109.265889,0 111.005859,1.7399707 111.005859,3.95507812 Z" id="Path" fill="#EDF5FF"></path>
        <path d="M111.005859,3.95507812 L111.005859,99.140625 C111.005859,101.355205 109.265889,103.095703 107.050781,103.095703 L67.5,103.095703 L67.5,0 L107.050781,0 C109.265889,0 111.005859,1.7399707 111.005859,3.95507812 Z" id="Path" fill="#D7E9FF"></path>
        <rect id="Rectangle" fill="#EDF5FF" x="47.7246094" y="107.050781" width="39.5507812" height="23.9941406"></rect>
        <rect id="Rectangle" fill="#D7E9FF" x="67.5" y="107.050781" width="19.7753906" height="23.9941406"></rect>
        <path d="M103.095703,131.044922 C103.095703,133.259502 101.355732,135 99.140625,135 L35.859375,135 C33.6442676,135 31.9042969,133.259502 31.9042969,131.044922 C31.9042969,128.829814 33.6442676,127.089844 35.859375,127.089844 L99.140625,127.089844 C101.355732,127.089844 103.095703,128.829814 103.095703,131.044922 Z" id="Path" fill="#D7E9FF"></path>
        <path d="M51.6796875,35.859375 C50.6677148,35.859375 49.6557422,35.4730957 48.8834473,34.7005371 L40.973291,26.7903809 C39.4284375,25.2455273 39.4284375,22.7424902 40.973291,21.1976367 C42.5181445,19.6527832 45.0211816,19.6527832 46.5660352,21.1976367 L51.6796875,26.3115527 L60.7486816,17.2425586 C62.2935352,15.6977051 64.7965723,15.6977051 66.3414258,17.2425586 C67.8862793,18.7874121 67.8862793,21.2904492 66.3414258,22.8353027 L54.4761914,34.7005371 C53.7036328,35.4730957 52.6916602,35.859375 51.6796875,35.859375 Z" id="Path" fill="#8A49FF" opacity="0.425920759"></path>
        <path d="M51.6796875,59.5898437 C50.6677148,59.5898437 49.6557422,59.2035645 48.8834473,58.4310059 L40.973291,50.5208496 C39.4284375,48.9759961 39.4284375,46.472959 40.973291,44.9281055 C42.5181445,43.383252 45.0211816,43.383252 46.5660352,44.9281055 L51.6796875,50.0420215 L60.7486816,40.9730273 C62.2935352,39.4281738 64.7965723,39.4281738 66.3414258,40.9730273 C67.8862793,42.5178809 67.8862793,45.020918 66.3414258,46.5657715 L54.4761914,58.4310059 C53.7036328,59.2035645 52.6916602,59.5898437 51.6796875,59.5898437 Z" id="Path" fill="#8A49FF" opacity="0.425920759"></path>
        <path d="M51.6796875,83.3203125 C50.6677148,83.3203125 49.6557422,82.9340332 48.8834473,82.1614746 L40.973291,74.2513184 C39.4284375,72.7064648 39.4284375,70.2034277 40.973291,68.6585742 C42.5181445,67.1137207 45.0211816,67.1137207 46.5660352,68.6585742 L51.6796875,73.7724902 L60.7486816,64.7034961 C62.2935352,63.1586426 64.7965723,63.1586426 66.3414258,64.7034961 C67.8862793,66.2483496 67.8862793,68.7513867 66.3414258,70.2962402 L54.4761914,82.1614746 C53.7036328,82.9340332 52.6916602,83.3203125 51.6796875,83.3203125 Z" id="Path" fill="#8A49FF" opacity="0.425920759"></path>
        <path d="M91.2304687,31.9042969 L75.4101562,31.9042969 C73.2240527,31.9042969 71.4550781,30.1353223 71.4550781,27.9492187 C71.4550781,25.7631152 73.2240527,23.9941406 75.4101562,23.9941406 L91.2304687,23.9941406 C93.4165723,23.9941406 95.1855469,25.7631152 95.1855469,27.9492187 C95.1855469,30.1353223 93.4165723,31.9042969 91.2304687,31.9042969 Z" id="Path" fill="#B0D5F7"></path>
        <path d="M91.2304687,55.6347656 L75.4101562,55.6347656 C73.2240527,55.6347656 71.4550781,53.865791 71.4550781,51.6796875 C71.4550781,49.493584 73.2240527,47.7246094 75.4101562,47.7246094 L91.2304687,47.7246094 C93.4165723,47.7246094 95.1855469,49.493584 95.1855469,51.6796875 C95.1855469,53.865791 93.4165723,55.6347656 91.2304687,55.6347656 Z" id="Path" fill="#B0D5F7"></path>
        <path d="M91.2304687,79.3652344 L75.4101562,79.3652344 C73.2240527,79.3652344 71.4550781,77.5962598 71.4550781,75.4101562 C71.4550781,73.2240527 73.2240527,71.4550781 75.4101562,71.4550781 L91.2304687,71.4550781 C93.4165723,71.4550781 95.1855469,73.2240527 95.1855469,75.4101562 C95.1855469,77.5962598 93.4165723,79.3652344 91.2304687,79.3652344 Z" id="Path" fill="#B0D5F7"></path>
        <path d="M103.095703,131.044922 C103.095703,133.259502 101.355732,135 99.140625,135 L67.5,135 L67.5,127.089844 L99.140625,127.089844 C101.355732,127.089844 103.095703,128.829814 103.095703,131.044922 Z" id="Path" fill="#B0D5F7"></path>
        <path d="M135,95.1855469 L135,107.050781 C135,109.265361 133.260029,111.005859 131.044922,111.005859 L3.95507812,111.005859 C1.7399707,111.005859 0,109.265361 0,107.050781 L0,95.1855469 L135,95.1855469 Z" id="Path" fill="#D7E9FF"></path>
        <path d="M135,95.1855469 L135,107.050781 C135,109.265361 133.260029,111.005859 131.044922,111.005859 L67.5,111.005859 L67.5,95.1855469 L135,95.1855469 Z" id="Path" fill="#B0D5F7"></path>
      </g>
    </g>
  </g>
</svg>
