<?xml version="1.0" encoding="UTF-8"?>
<svg width="21px" height="14px" viewBox="0 0 21 14" version="1.1" xmlns="http://www.w3.org/2000/svg" xmlns:xlink="http://www.w3.org/1999/xlink">
    <title>code-ico</title>
    <g id="Modules-design" stroke="none" stroke-width="1" fill="none" fill-rule="evenodd">
        <g id="navigation--1280-v2" transform="translate(-826.000000, -30.000000)" fill="#172B4D" fill-rule="nonzero">
            <g id="Group-36" transform="translate(826.375000, 18.000000)">
                <g id="Group-3" transform="translate(0.000000, 8.000000)">
                    <path d="M18.5624557,18 C19.4944375,18 20.2499517,17.2444857 20.2499517,16.312504 L20.2499517,12.6562627 L19.9687024,12.6562627 C19.1920738,12.6562627 18.5624557,12.0266446 18.5624557,11.2500161 C18.5624557,10.4733875 19.1920738,9.84376945 19.9687024,9.84376945 L20.2499517,9.84376945 L20.2499517,6.18752816 C20.2499517,5.25554644 19.4944375,4.50003219 18.5624557,4.50003219 L1.68749598,4.50003219 C0.755514251,4.50003219 0,5.25554644 0,6.18752816 L0,9.84376945 L0.281249329,9.84376945 C1.05787788,9.84376945 1.68749598,10.4733875 1.68749598,11.2500161 C1.68749598,12.0266446 1.05787788,12.6562627 0.281249329,12.6562627 L0,12.6562627 L0,16.312504 C0,17.2444857 0.755514251,18 1.68749598,18 L18.5624557,18 Z M18.5624557,16.312504 L1.68749598,16.312504 L1.68749598,14.0052776 C2.68841675,13.4923546 3.37499195,12.4498576 3.37499195,11.2500161 C3.37499195,10.0501746 2.68841675,9.00767754 1.68749598,8.49475457 L1.68749598,6.18752816 L18.5624557,6.18752816 L18.5624557,8.49475457 C17.5615693,9.00767754 16.8749598,10.0501746 16.8749598,11.2500161 C16.8749598,12.4498576 17.5615693,13.4923546 18.5624557,14.0052776 L18.5624557,16.312504 Z M14.9062145,14.625008 C15.3722053,14.625008 15.7499624,14.2472509 15.7499624,13.7812601 L15.7499624,8.71877213 C15.7499624,8.25278127 15.3722053,7.87502414 14.9062145,7.87502414 L5.34373726,7.87502414 C4.8777464,7.87502414 4.49998927,8.25278127 4.49998927,8.71877213 L4.49998927,13.7812601 C4.49998927,14.2472509 4.8777464,14.625008 5.34373726,14.625008 L14.9062145,14.625008 Z M14.0624665,12.9375121 L6.18748525,12.9375121 L6.18748525,9.56252012 L14.0624665,9.56252012 L14.0624665,12.9375121 Z" id="code-ico"></path>
                </g>
            </g>
        </g>
    </g>
</svg>
