<?xml version="1.0" encoding="UTF-8"?>
<svg width="18px" height="18px" viewBox="0 0 18 18" version="1.1" xmlns="http://www.w3.org/2000/svg" xmlns:xlink="http://www.w3.org/1999/xlink">
    <title>connexion-ico</title>
    <g id="Modules-design" stroke="none" stroke-width="1" fill="none" fill-rule="evenodd">
        <g id="navigation--1280-v2" transform="translate(-962.000000, -28.000000)" fill="#505F79" fill-rule="nonzero">
            <g id="Group-36" transform="translate(826.375000, 18.000000)">
                <g id="Group-3" transform="translate(135.906250, 8.000000)">
                    <path d="M8.71872921,19.9687453 C13.535124,19.9687453 17.4374584,16.0664109 17.4374584,11.2500161 C17.4374584,6.43362133 13.535124,2.53128688 8.71872921,2.53128688 C3.90233445,2.53128688 0,6.43362133 0,11.2500161 C0,16.0664109 3.90233445,19.9687453 8.71872921,19.9687453 Z M14.4386443,15.3246295 C13.5808201,14.2207121 12.2554258,13.5000107 10.7437107,13.5000107 C10.3851452,13.5000107 9.82965033,13.8374962 8.71872921,13.8374962 C7.61130998,13.8374962 7.0523132,13.5000107 6.69374777,13.5000107 C5.18553451,13.5000107 3.86014018,14.2207121 2.99881411,15.3246295 C2.17618042,14.175016 1.68749598,12.7687693 1.68749598,11.2500161 C1.68749598,7.37229783 4.84101095,4.21878286 8.71872921,4.21878286 C12.5964475,4.21878286 15.7499624,7.37229783 15.7499624,11.2500161 C15.7499624,12.7687693 15.261278,14.175016 14.4386443,15.3246295 Z M8.71872921,12.6562627 C10.582006,12.6562627 12.0937212,11.1445476 12.0937212,9.28127079 C12.0937212,7.41799398 10.582006,5.90627883 8.71872921,5.90627883 C6.85545241,5.90627883 5.34373726,7.41799398 5.34373726,9.28127079 C5.34373726,11.1445476 6.85545241,12.6562627 8.71872921,12.6562627 Z M8.71872921,10.9687668 C7.78709081,10.9687668 7.03123324,10.2129092 7.03123324,9.28127079 C7.03123324,8.34963238 7.78709081,7.59377481 8.71872921,7.59377481 C9.65036762,7.59377481 10.4062252,8.34963238 10.4062252,9.28127079 C10.4062252,10.2129092 9.65036762,10.9687668 8.71872921,10.9687668 Z M8.71872921,18.2812493 C6.97146089,18.2812493 5.37539154,17.6378984 4.14492573,16.5796772 C4.668732,15.7710853 5.56521424,15.2226629 6.59178116,15.1910086 C7.32302255,15.4160218 8.01910777,15.5285284 8.71872921,15.5285284 C9.41835065,15.5285284 10.1144359,15.4195237 10.8456773,15.1910086 C11.8722442,15.2261648 12.7687264,15.7710853 13.2925327,16.5796772 C12.0620669,17.6378984 10.4659975,18.2812493 8.71872921,18.2812493 Z" id="connexion-ico"></path>
                </g>
            </g>
        </g>
    </g>
</svg>