<svg width="14" height="20" viewBox="0 0 14 20" fill="none" xmlns="http://www.w3.org/2000/svg">
<path d="M13.5898 2.75C13.8086 2.75 14 2.94141 14 3.16016L13.9727 7.61719C13.9727 7.83594 13.8086 8 13.5898 8H12.6875C12.4688 8 12.2773 7.83594 12.2773 7.61719L12.3594 5.59375L12.3047 5.53906L4.67578 13.168C4.62109 13.2227 4.51172 13.2773 4.45703 13.2773C4.375 13.2773 4.26562 13.2227 4.21094 13.168L3.58203 12.5391C3.52734 12.4844 3.47266 12.375 3.47266 12.293C3.47266 12.2383 3.52734 12.1289 3.58203 12.0742L11.2109 4.44531L11.1562 4.39062L9.13281 4.47266C8.91406 4.47266 8.75 4.28125 8.75 4.0625V3.16016C8.75 2.94141 8.91406 2.77734 9.13281 2.77734L13.5898 2.75ZM11.8125 10.625C12.0312 10.625 12.25 10.8438 12.25 11.0625V15.4375C12.25 16.1758 11.6484 16.75 10.9375 16.75H1.3125C0.574219 16.75 0 16.1758 0 15.4375V5.8125C0 5.10156 0.574219 4.5 1.3125 4.5H5.6875C5.90625 4.5 6.125 4.71875 6.125 4.9375V5.375C6.125 5.62109 5.90625 5.8125 5.6875 5.8125H1.47656C1.36719 5.8125 1.3125 5.89453 1.3125 5.97656V15.2734C1.3125 15.3828 1.36719 15.4375 1.47656 15.4375H10.7734C10.8555 15.4375 10.9375 15.3828 10.9375 15.2734V11.0625C10.9375 10.8438 11.1289 10.625 11.375 10.625H11.8125Z" fill="#344563"/>
</svg>
