<?xml version="1.0" encoding="UTF-8"?>
<svg width="22px" height="19px" viewBox="0 0 22 19" version="1.1" xmlns="http://www.w3.org/2000/svg" xmlns:xlink="http://www.w3.org/1999/xlink">
    <!-- Generator: Sketch 50.2 (55047) - http://www.bohemiancoding.com/sketch -->
    <title>Icon</title>
    <desc>Created with Sketch.</desc>
    <defs>
        <path d="M28.8,11.7302308 C28.0053263,12.0923077 27.151913,12.3366923 26.2546137,12.4453846 C27.1694674,11.8832308 27.8723181,10.9929231 28.203826,9.93230769 C27.3470368,10.4522308 26.3990998,10.8316154 25.3897224,11.0344615 C24.5808702,10.1517692 23.4290323,9.6 22.1536384,9.6 C19.7061515,9.6 17.7231808,11.634 17.7231808,14.1436154 C17.7231808,14.4994615 17.7616654,14.847 17.8372843,15.1793077 C14.1542386,14.9896154 10.8891223,13.1806154 8.70292573,10.4314615 C8.32213053,11.103 8.10337584,11.8832308 8.10337584,12.7160769 C8.10337584,14.2931538 8.88589647,15.6833077 10.0741935,16.4988462 C9.3483871,16.4746154 8.66511628,16.2710769 8.0675919,15.9304615 C8.06691673,15.9491538 8.06691673,15.9692308 8.06691673,15.9872308 C8.06691673,18.1894615 9.59414854,20.0261538 11.6216804,20.4436154 C11.2503376,20.5467692 10.8587397,20.6028462 10.4543136,20.6028462 C10.168042,20.6028462 9.89122281,20.5744615 9.62115529,20.5218462 C10.1842461,22.326 11.8215304,23.64 13.75994,23.6773846 C12.244186,24.8958462 10.3334584,25.6234615 8.25731433,25.6234615 C7.89947487,25.6234615 7.54636159,25.602 7.2,25.5597692 C9.16069017,26.8474615 11.4900225,27.6 13.9928732,27.6 C22.1435109,27.6 26.6016504,20.6762308 26.6016504,14.6711538 C26.6016504,14.4745385 26.5962491,14.2779231 26.588147,14.0826923 C27.4543886,13.4423077 28.2051763,12.6426923 28.8,11.7302308 Z" id="path-1"></path>
    </defs>
    <g id="SCO" stroke="none" stroke-width="1" fill="none" fill-rule="evenodd">
        <g id="Home-Sco-V2" transform="translate(-1180.000000, -5563.000000)">
            <g id="FOOTER" transform="translate(0.000000, 5390.255952)">
                <g id="Group-7" transform="translate(1173.000000, 164.000000)">
                    <g id="Group-10">
                        <mask id="mask-2" fill="white">
                            <use xlink:href="#path-1"></use>
                        </mask>
                        <use id="Icon" fill="#FFFFFF" xlink:href="#path-1"></use>
                    </g>
                </g>
            </g>
        </g>
    </g>
</svg>