<svg width="19" height="22" viewBox="0 0 19 22" fill="none" xmlns="http://www.w3.org/2000/svg">
<path d="M9.75 7.65625C9.8125 7.59375 9.90625 7.5625 10 7.5625C10.0625 7.5625 10.1562 7.59375 10.2188 7.65625L16 12.375V17.5C16 17.7812 15.75 18 15.5 18H11.9688C11.7188 18 11.4688 17.7812 11.4688 17.5V14.5C11.4688 14.25 11.25 14 10.9688 14H8.96875C8.71875 14 8.46875 14.25 8.46875 14.5V17.5C8.46875 17.7812 8.25 18 8 18H4.5C4.21875 18 4 17.7812 4 17.5V12.4062L9.75 7.65625ZM18.8438 10.875C18.9375 10.9375 19 11.0625 19 11.1562C19 11.25 18.9375 11.3438 18.9062 11.4062L18.0938 12.375C18.0312 12.4375 17.9062 12.5 17.8125 12.5C17.75 12.5 17.625 12.4688 17.5625 12.4062L10.2188 6.375C10.1562 6.3125 10.0625 6.28125 10 6.28125C9.90625 6.28125 9.8125 6.3125 9.75 6.375L2.40625 12.4062C2.34375 12.4688 2.21875 12.5 2.15625 12.5C2.0625 12.5 1.9375 12.4375 1.875 12.375L1.0625 11.4062C1.03125 11.3438 0.96875 11.25 0.96875 11.1562C0.96875 11.0625 1.03125 10.9375 1.125 10.875L9.03125 4.34375C9.25 4.15625 9.6875 4.03125 9.96875 4.03125C10.2812 4.03125 10.7188 4.15625 10.9375 4.34375L13.75 6.65625V4.40625C13.75 4.1875 13.9062 4.03125 14.125 4.03125H15.875C16.0625 4.03125 16.25 4.1875 16.25 4.40625V8.71875L18.8438 10.875Z" fill="#344563"/>
</svg>
