<?xml version="1.0" encoding="UTF-8"?>
<svg width="22px" height="23px" viewBox="0 0 22 23" version="1.1" xmlns="http://www.w3.org/2000/svg" xmlns:xlink="http://www.w3.org/1999/xlink">
    <title>globe-europe</title>
    <g id="Page-1" stroke="none" stroke-width="1" fill="none" fill-rule="evenodd">
        <g id="Home-refont-v4_switch" transform="translate(-830.000000, -72.000000)" fill="#344563" fill-rule="nonzero">
            <g id="Group-40-Copy" transform="translate(814.000000, 56.000000)">
                <g id="globe-europe" transform="translate(16.000000, 16.093795)">
                    <path d="M7.89957945,5.1318635 C7.89957945,4.85685484 7.6733871,4.63066249 7.39837843,4.63066249 C7.26531392,4.63066249 7.13671087,4.68385364 7.04353972,4.77702479 L5.91695281,5.90361171 C5.82378166,5.99678286 5.77054719,6.1253859 5.77054719,6.25845042 C5.77054719,6.53345908 5.99678286,6.75969475 6.27179152,6.75969475 L6.98146894,6.75969475 C7.11453346,6.75969475 7.2431365,6.70646028 7.33630765,6.61328913 L7.75321714,6.19637963 C7.84638829,6.10320848 7.89957945,5.97460544 7.89957945,5.84154092 L7.89957945,5.1318635 Z M11,0 C4.9233871,0 0,4.9233871 0,11 C0,17.0766129 4.9233871,22 11,22 C17.0766129,22 22,17.0766129 22,11 C22,4.9233871 17.0766129,0 11,0 Z M18.7665149,15.2758238 L18.1721861,15.2758238 C17.9592915,15.2758238 17.7508151,15.1915323 17.5999913,15.0407085 L16.8326613,14.2733784 C16.5665323,14.0072494 16.2072754,13.8564689 15.8302593,13.8564689 L15.0185311,13.8564689 L13.1024367,12.2108784 C12.7387183,11.8959764 12.2729925,11.7274367 11.7895075,11.7274367 L10.4056278,11.7274367 C10.0419528,11.7274367 9.68265263,11.8249827 9.3677506,12.0157431 L7.46491069,13.1556278 C6.85724074,13.5193462 6.48468608,14.1757891 6.48468608,14.8854665 L6.48468608,15.9455645 C6.48468608,16.57983 6.78187216,17.1786204 7.29195281,17.560098 L8.27659558,18.3007891 C8.65807318,18.5890956 9.3677506,18.8242109 9.84677419,18.8242109 L10.7427506,18.8242109 C11.1330645,18.8242109 11.452428,19.1435311 11.452428,19.5338883 L11.452428,19.8487903 C11.3016042,19.85767 11.1552419,19.8709677 11.0044182,19.8709677 C6.11208811,19.8709677 2.13345042,15.89233 2.13345042,11 C2.13345042,6.19637963 5.9790236,2.27985604 10.7516302,2.14233005 L9.46087843,3.10483871 C9.37216876,3.17137097 9.31893429,3.27783991 9.31893429,3.388727 L9.31893429,4.27582378 C9.31893429,4.47095908 9.4786377,4.63066249 9.673773,4.63066249 L10.3834504,4.63066249 C10.578629,4.63066249 10.7382891,4.47095908 10.7382891,4.27582378 L10.7382891,3.92098507 L11.4479665,3.21130765 L12.3661204,3.21130765 C12.641129,3.21130765 12.8673214,3.43308184 12.8673214,3.71250866 C12.8673214,3.84557318 12.8141302,3.97417622 12.7209591,4.06734737 L11.5322581,5.25604839 C11.4790236,5.30928286 11.4124913,5.3536377 11.3370794,5.37581511 L9.5628859,5.96572581 C9.4165236,6.0144988 9.31893429,6.14756332 9.31893429,6.30280525 C9.31893429,6.59557318 9.20362903,6.87058184 8.9996141,7.07901493 L8.10805585,7.97057318 C7.97499134,8.1036377 7.89957945,8.28547521 7.89957945,8.47177419 L7.89957945,9.59840442 C7.89957945,9.98871834 8.21894295,10.3080818 8.60925687,10.3080818 L9.58952479,10.3080818 C9.86007198,10.3080818 10.1040236,10.1572581 10.2237903,9.91772461 L10.6407431,9.08832378 C10.7028139,8.96855705 10.8225806,8.89314516 10.9600633,8.89314516 L11.0975893,8.89314516 C11.2927246,8.89314516 11.452428,9.05280525 11.452428,9.24798387 C11.452428,9.44316249 11.6120881,9.60282258 11.8072667,9.60282258 L12.5169441,9.60282258 C12.7120794,9.60282258 12.8717829,9.44316249 12.8717829,9.24798387 L12.8717829,9.15039456 C12.8717829,8.9996141 12.9693722,8.86208811 13.1157345,8.81331511 L14.51733,8.34758931 C14.8056365,8.25 15.0008151,7.97945281 15.0008151,7.6733871 L15.0008151,7.47379032 C15.0008151,7.0834764 15.3201786,6.7641129 15.7104925,6.7641129 L17.3383238,6.7641129 C17.6132891,6.7641129 17.8395248,6.99030525 17.8395248,7.26531392 L17.8395248,7.68226673 C17.8395248,7.95727539 17.6132891,8.18346774 17.3383238,8.18346774 L15.9189689,8.18346774 C15.7859044,8.18346774 15.6572581,8.23670221 15.5641302,8.32983005 L15.1471774,8.74678286 C15.0540496,8.83991069 15.0008151,8.96855705 15.0008151,9.10162157 C15.0008151,9.37663023 15.2270075,9.60282258 15.5020161,9.60282258 L16.2116935,9.60282258 C16.3447581,9.60282258 16.4734044,9.65605705 16.5665323,9.74918489 L16.9834851,10.1661377 C17.0766129,10.2592655 17.1298474,10.3879119 17.1298474,10.5209764 L17.1298474,10.9068722 L16.5754119,11.4613076 C16.3713536,11.6653226 16.3713536,11.9935657 16.5709504,12.2019988 L17.9858871,13.6479925 C18.1189516,13.7854752 18.3007891,13.8608871 18.4915496,13.8608871 L19.3919441,13.8608871 C19.2234044,14.3487903 19.014928,14.8233958 18.7665149,15.2758238 Z" id="Shape"></path>
                </g>
            </g>
        </g>
    </g>
</svg>