<svg width="179" height="134" fill="none" xmlns="http://www.w3.org/2000/svg"><path fill-rule="evenodd" clip-rule="evenodd" d="M147.583 51.249l2.7 3.265c2.402 2.76 4.109 5.427 5.122 8.053l20.552-25.01c3.731-4.764 3.553-5.646-2.664-5.646h-2.132c-6.217 0-8.526 1.235-12.256 5.646L147.583 51.25zm7.822 22.703c-1.013 2.627-2.72 5.293-5.122 8.054l-2.7 3.265 11.322 13.69c3.73 4.412 6.039 5.647 12.256 5.647h2.132c6.217 0 6.395-.882 2.664-5.646l-20.552-25.01zm-39.21 30.656c-6.217 0-6.395-.882-2.665-5.646l21.316-25.938c1.599-1.941 2.487-3.53 2.487-4.764 0-1.412-.888-3-2.487-4.764L113.53 37.557c-3.73-4.764-3.552-5.646 2.665-5.646h2.132c6.217 0 8.526 1.235 12.256 5.646l16.342 19.763c6.928 7.94 6.928 13.94 0 21.88l-16.342 19.762c-3.73 4.411-6.039 5.646-12.256 5.646h-2.132zM.648 127.229c0 5.268 1.326 6.585 6.63 6.585h1.767c5.304 0 6.63-1.317 6.63-6.585V96.645c3.977 6.292 11.196 9.511 21.655 9.511 20.477 0 30.642-10.682 30.642-31.9V61.523c0-21.219-10.901-31.17-33.735-31.17-21.214 0-33.589 10.244-33.589 31.17v65.705zm52.15-52.681c0 12.292-4.124 17.414-18.414 17.414-14.585 0-18.71-5.268-18.71-17.414V61.963c0-12.292 4.42-17.56 18.71-17.56 14.584 0 18.415 5.268 18.415 17.56v12.585zm29.345 23.299c0 5.268 1.326 6.585 6.629 6.585h1.915c5.303 0 6.63-1.317 6.63-6.585V38.435c0-5.268-1.327-6.585-6.63-6.585h-1.915c-5.303 0-6.63 1.317-6.63 6.585v59.412zm1.03-81.801c3.684 3.512 9.576 3.512 13.112 0 3.683-3.659 3.683-9.512 0-13.024-3.536-3.659-9.428-3.659-13.111 0-3.683 3.512-3.683 9.365 0 13.024z" fill="#fff"/></svg>