<svg width="1393" height="430" fill="none" xmlns="http://www.w3.org/2000/svg"><path d="M441.142 345.997a1.546 1.546 0 100-3.092 1.546 1.546 0 000 3.092zm171.718-38.659a1.032 1.032 0 10-.001-2.063 1.032 1.032 0 00.001 2.063zm-84.442-16.065a1.289 1.289 0 100-2.578 1.289 1.289 0 000 2.578zm-40.975-.086a1.718 1.718 0 100-3.436 1.718 1.718 0 000 3.436zm-21.304-74.398a1.376 1.376 0 10-.001-2.751 1.376 1.376 0 00.001 2.751zm47.074-11.77a1.375 1.375 0 100-2.75 1.375 1.375 0 000 2.75zm-52.142-44.158a1.03 1.03 0 100-2.062 1.03 1.03 0 000 2.062zm-94.836 88.144a1.032 1.032 0 10-.001-2.063 1.032 1.032 0 00.001 2.063zm6.787 61.683a1.03 1.03 0 100-2.06 1.03 1.03 0 000 2.06zm2.233 104.381a1.032 1.032 0 10-.001-2.063 1.032 1.032 0 00.001 2.063zm81.864-17.955a1.03 1.03 0 100-2.062 1.03 1.03 0 000 2.062zm-187.266 14.948a1.03 1.03 0 100-2.062 1.03 1.03 0 000 2.062zM95.987 388.609a1.375 1.375 0 100-2.75 1.375 1.375 0 000 2.75zm-61.162-21.306a1.374 1.374 0 100-2.748 1.374 1.374 0 000 2.748zm6.185 15.893a.945.945 0 100-1.89.945.945 0 000 1.89zM1.151 309.142a.945.945 0 100-1.89.945.945 0 000 1.89zm92.001-3.437a.945.945 0 100-1.89.945.945 0 000 1.89zm-32.556-57.989a1.288 1.288 0 100-2.577 1.288 1.288 0 000 2.577zm-24.139-.859a.945.945 0 100-1.89.945.945 0 000 1.89zm13.487-63.401a.945.945 0 100-1.89.945.945 0 000 1.89zm56.094 10.051a.945.945 0 100-1.89.945.945 0 000 1.89zm-94.235-4.467a.945.945 0 100-1.89.945.945 0 000 1.89zm151.446 117.782a.945.945 0 100-1.89.945.945 0 000 1.89zm67.347-78.521a.945.945 0 100-1.89.945.945 0 000 1.89zm11.253-15.722a.945.945 0 100-1.89.945.945 0 000 1.89zm61.677-44.845a.945.945 0 100-1.89.945.945 0 000 1.89zm84.185 51.031a.945.945 0 10-.001-1.89.945.945 0 00.001 1.89zM769.631 41.36a1.031 1.031 0 100-2.062 1.031 1.031 0 000 2.063zm6.701 61.684a1.03 1.03 0 10-.001-2.061 1.03 1.03 0 00.001 2.061zm2.233 104.381a1.032 1.032 0 10-.001-2.063 1.032 1.032 0 00.001 2.063zm-105.402-3.007a1.032 1.032 0 10-.001-2.063 1.032 1.032 0 00.001 2.063zM499.297 181.05a1.375 1.375 0 100-2.75 1.375 1.375 0 000 2.75zm-61.162-21.391a1.376 1.376 0 10-.001-2.751 1.376 1.376 0 00.001 2.751zm6.185 15.893a.945.945 0 100-1.89.945.945 0 000 1.89zm52.143-77.405a.945.945 0 10-.001-1.89.945.945 0 00.001 1.89zm-32.557-58.075a1.289 1.289 0 10-.001-2.577 1.289 1.289 0 00.001 2.577zm-24.053-.859a.945.945 0 100-1.89.945.945 0 000 1.89zm126.792 60.051a.945.945 0 100-1.89.945.945 0 000 1.89zm67.261-78.608a.945.945 0 100-1.89.945.945 0 000 1.89zm157.115-9.536a.946.946 0 10-.001-1.891.946.946 0 00.001 1.891zM449.99 255.276a.946.946 0 10-.001-1.891.946.946 0 00.001 1.891zm100.247 144.587a1.03 1.03 0 100-2.062 1.03 1.03 0 000 2.062zm65.114 6.787a1.032 1.032 0 10-.001-2.063 1.032 1.032 0 00.001 2.063zm75.164 3.35a1.03 1.03 0 100-2.062 1.03 1.03 0 000 2.062zm-3.35-25.773a1.03 1.03 0 100-2.062 1.03 1.03 0 000 2.062zm21.304-13.488a1.03 1.03 0 100-2.062 1.03 1.03 0 000 2.062zm52.142-87.714a.858.858 0 10.002-1.716.858.858 0 00-.002 1.716zm92.603 53.694a1.804 1.804 0 100-3.609 1.804 1.804 0 000 3.609zm5.068-11.254a.687.687 0 100-1.374.687.687 0 000 1.374zm2.749-86.34a.687.687 0 100-1.374.687.687 0 000 1.374zm37.625-62.886a.687.687 0 100-1.374.687.687 0 000 1.374zm-65.629 4.467a.687.687 0 100-1.374.687.687 0 000 1.374zm59.015 228.006a.86.86 0 10-.001-1.72.86.86 0 00.001 1.72zm-62.28-18.557a.859.859 0 100-1.718.859.859 0 000 1.718zm-14.603 39.261a.859.859 0 100-1.718.859.859 0 000 1.718zM790.42 281.049a.859.859 0 100-1.718.859.859 0 000 1.718zm-3.093-37.886a.86.86 0 10-.001-1.72.86.86 0 00.001 1.72zm-97.07-6.443a.859.859 0 100-1.718.859.859 0 000 1.718zm33.674-30.842a.859.859 0 100-1.718.859.859 0 000 1.718zm-126.791-4.467a.86.86 0 10-.001-1.72.86.86 0 00.001 1.72zm-51.37 179.981a1.03 1.03 0 10.002-2.06 1.03 1.03 0 00-.002 2.06zm422.982-206.441a1.032 1.032 0 10-.001-2.063 1.032 1.032 0 00.001 2.063zm-84.441-15.98a1.288 1.288 0 100-2.577 1.288 1.288 0 000 2.577zm-15.205-86.339a1.374 1.374 0 100-2.749 1.374 1.374 0 000 2.749zm328.404 217.18a1.03 1.03 0 100-2.064 1.03 1.03 0 000 2.064zm6.7 61.769a1.03 1.03 0 100-2.061 1.03 1.03 0 100 2.061zm-69.75-276.544a1.03 1.03 0 10-1.03-1.03c0 .569.46 1.03 1.03 1.03zm-105.4-3.007c.56 0 1.03-.461 1.03-1.03a1.036 1.036 0 00-2.07-.001c0 .57.47 1.031 1.04 1.031zM855.189 48.663a1.374 1.374 0 10.001-2.749 1.374 1.374 0 00-.001 2.749zm69.237 297.936a.945.945 0 100-1.89.945.945 0 000 1.89zm70.097 1.116a.945.945 0 10-.001-1.89.945.945 0 00.001 1.89zm349.537-12.972a1.03 1.03 0 100-2.06 1.03 1.03 0 000 2.06zm-1218.179-94.93a1.032 1.032 0 10-.001-2.063 1.032 1.032 0 00.001 2.063zm945.009 151.631c.52 0 .94-.423.94-.945a.942.942 0 00-.94-.945.95.95 0 00-.95.945c0 .522.43.945.95.945zm70.18 1.116a.95.95 0 00.95-.945.951.951 0 00-.95-.945c-.52 0-.94.424-.94.945 0 .522.42.945.94.945zM906.129 267.562a1.03 1.03 0 100-2.062 1.03 1.03 0 000 2.062zm65.114 6.701a1.03 1.03 0 100-2.062 1.03 1.03 0 000 2.062zm75.167 3.35a1.03 1.03 0 100-2.06 1.03 1.03 0 000 2.06zm-3.35-25.773a1.03 1.03 0 100-2.06 1.03 1.03 0 000 2.06zm21.3-13.488a1.03 1.03 0 100-2.064 1.03 1.03 0 000 2.064zm52.14-87.714c.48 0 .86-.385.86-.859a.856.856 0 00-.86-.859c-.47 0-.86.384-.86.859 0 .474.39.859.86.859zm92.61 53.694a1.805 1.805 0 10-.01-3.61 1.805 1.805 0 00.01 3.61zm5.06-11.169c.38 0 .69-.307.69-.687a.69.69 0 00-.69-.687c-.38 0-.68.308-.68.687 0 .38.3.687.68.687zm2.75-86.425a.69.69 0 00.69-.687.69.69 0 00-.69-.688c-.38 0-.68.308-.68.688 0 .379.3.687.68.687zm37.63-62.886a.69.69 0 00.69-.687.69.69 0 00-1.38 0c0 .38.31.687.69.687zm-65.63 4.553a.69.69 0 00.69-.687.69.69 0 00-1.38 0c0 .38.31.687.69.687zm59.01 227.919c.48 0 .86-.384.86-.859a.857.857 0 00-.86-.859c-.47 0-.86.385-.86.859 0 .475.39.859.86.859zm-62.28-18.47c.48 0 .86-.385.86-.859a.855.855 0 10-1.71 0c0 .474.38.859.85.859zm-14.6 39.261c.48 0 .86-.385.86-.86a.857.857 0 00-.86-.859c-.47 0-.86.385-.86.859 0 .475.39.86.86.86zm-24.74-148.453c.48 0 .86-.385.86-.859a.856.856 0 00-.86-.859c-.47 0-.86.384-.86.859 0 .474.39.859.86.859zm-3.09-37.8c.47 0 .86-.385.86-.859a.862.862 0 00-.86-.859c-.48 0-.86.384-.86.859 0 .474.38.859.86.859zm-97.07-6.444c.47 0 .86-.384.86-.859a.863.863 0 00-.86-.859c-.47 0-.86.385-.86.859 0 .475.39.859.86.859zm33.67-30.928c.48 0 .86-.384.86-.858 0-.475-.38-.86-.86-.86-.47 0-.86.385-.86.86 0 .474.39.859.86.859zm-126.788-4.467a.86.86 0 100-1.718.86.86 0 000 1.718zm-51.369 179.982a1.032 1.032 0 10-.001-2.063 1.032 1.032 0 00.001 2.063zM98.564 44.969a1.03 1.03 0 100-2.062 1.03 1.03 0 000 2.062zM14.037 28.904a1.289 1.289 0 100-2.578 1.289 1.289 0 000 2.578zm21.905 108.59a1.031 1.031 0 100-2.062 1.031 1.031 0 000 2.062zm65.028 6.787a1.032 1.032 0 10-.001-2.063 1.032 1.032 0 00.001 2.063zm75.164 3.35a1.03 1.03 0 100-2.062 1.03 1.03 0 000 2.062zm-3.35-25.859a1.03 1.03 0 100-2.062 1.03 1.03 0 000 2.062zm21.303-13.402a1.03 1.03 0 10.002-2.06 1.03 1.03 0 00-.002 2.06zm52.229-87.714a.86.86 0 100-1.718.86.86 0 000 1.718zm92.516 53.694a1.804 1.804 0 100-3.607 1.804 1.804 0 000 3.607zm5.069-11.254a.687.687 0 100-1.375.687.687 0 000 1.375zm33.759 83.246a.859.859 0 100-1.718.859.859 0 000 1.718zm-62.279-18.556a.86.86 0 10-.001-1.72.86.86 0 00.001 1.72zm-49.823 259.448a1.374 1.374 0 100-2.748 1.374 1.374 0 000 2.748zm47.074-11.77a1.375 1.375 0 100-2.75 1.375 1.375 0 000 2.75zm-52.142-44.071a1.032 1.032 0 10-.001-2.063 1.032 1.032 0 00.001 2.063zm-157.545 6.787a.946.946 0 10-.001-1.891.946.946 0 00.001 1.891zm84.184 51.116a.945.945 0 100-1.89.945.945 0 000 1.89zm111.587-37.801a1.375 1.375 0 100-2.75 1.375 1.375 0 000 2.75zm-61.162-21.305a1.375 1.375 0 10-.001-2.75 1.375 1.375 0 00.001 2.75zm6.185 15.807a.945.945 0 100-1.89.945.945 0 000 1.89zm-66.66-29.209a.86.86 0 10-.001-1.72.86.86 0 00.001 1.72zM114.8 298.317a.859.859 0 100-1.718.859.859 0 000 1.718zm1144.73 126.975c.71 0 1.29-.577 1.29-1.289a1.29 1.29 0 00-2.58 0c0 .712.58 1.289 1.29 1.289zm.6-40.549a1.719 1.719 0 10-1.72-1.718c0 .949.77 1.718 1.72 1.718zm74.05-21.65c.76 0 1.37-.615 1.37-1.374a1.37 1.37 0 00-1.37-1.375c-.76 0-1.38.616-1.38 1.375s.62 1.374 1.38 1.374zm11.77 47.165c.76 0 1.37-.615 1.37-1.375a1.37 1.37 0 00-1.37-1.374c-.76 0-1.38.615-1.38 1.374 0 .76.62 1.375 1.38 1.375zm43.81-52.577a1.03 1.03 0 100-2.06 1.03 1.03 0 000 2.06zm-88.14-94.759a1.03 1.03 0 10-1.03-1.03c0 .569.46 1.03 1.03 1.03zm-61.68 6.701c.57 0 1.04-.461 1.04-1.031a1.036 1.036 0 00-2.07 0c0 .57.47 1.031 1.03 1.031zM86.624 91.016a.945.945 0 100-1.89.945.945 0 000 1.89zm58.328-32.13a1.289 1.289 0 10-.001-2.577 1.289 1.289 0 00.001 2.577zm.601-24.484a.945.945 0 100-1.89.945.945 0 000 1.89zm63.395 13.488a.945.945 0 100-1.89.945.945 0 000 1.89zm384.498 98.367a.945.945 0 100-1.89.945.945 0 000 1.89zm58.327-32.217a1.289 1.289 0 100-2.577 1.289 1.289 0 000 2.577zm.602-24.484a.945.945 0 100-1.89.945.945 0 000 1.89zm63.396 13.488a.945.945 0 10-.001-1.89.945.945 0 00.001 1.89zM1357.03 2.615c.52 0 .94-.423.94-.945a.942.942 0 00-.94-.945.95.95 0 00-.95.945c0 .522.43.945.95.945zm-113.39 57.216c.52 0 .94-.423.94-.945a.942.942 0 00-.94-.945.95.95 0 00-.95.945c0 .522.43.945.95.945zm78.6 67.268c.52 0 .94-.423.94-.945a.942.942 0 00-.94-.945.95.95 0 00-.95.945c0 .522.43.945.95.945zm15.72 11.254c.52 0 .94-.423.94-.945a.942.942 0 00-.94-.945.95.95 0 00-.95.945c0 .522.43.945.95.945zm44.84 61.683c.52 0 .94-.423.94-.945a.942.942 0 00-.94-.945.95.95 0 00-.95.945c0 .522.43.945.95.945zm-51.03 84.192a.944.944 0 100-1.89c-.52 0-.94.423-.94.945s.42.945.94.945zM145.038 239.641a1.375 1.375 0 10-.001-2.75 1.375 1.375 0 00.001 2.75zm1246.182 95.446c.76 0 1.37-.616 1.37-1.375a1.37 1.37 0 00-1.37-1.374c-.76 0-1.38.615-1.38 1.374 0 .759.62 1.375 1.38 1.375zm-16.24 5.756a.95.95 0 00.95-.945.95.95 0 00-.95-.945c-.52 0-.94.423-.94.945s.42.945.94.945zm-79.71 5.67c.52 0 .94-.423.94-.945a.944.944 0 10-.94.945zm-61.6-273.023c.48 0 .86-.384.86-.858 0-.475-.38-.86-.86-.86-.47 0-.86.385-.86.86 0 .474.39.859.86.859zm18.47-62.284c.48 0 .86-.384.86-.859 0-.474-.38-.86-.86-.86-.47 0-.86.386-.86.86 0 .475.39.86.86.86zM276.038 18.68a.86.86 0 100-1.718.86.86 0 000 1.718zM31.389 119.023a1.03 1.03 0 100-2.061 1.03 1.03 0 000 2.061z" opacity=".6" fill="#fff"/></svg>
