<svg id="Layer_1" data-name="Layer 1" xmlns="http://www.w3.org/2000/svg" viewBox="0 0 223.07 65.1"><defs><style>.cls-1{fill:#054d74;}.cls-2{fill:#054d75;}.cls-3{fill:#c4192d;}.cls-4{fill:#074e76;}.cls-5{fill:#c51a2e;}.cls-6{fill:#c61e32;}.cls-7{fill:#c51c2f;}.cls-8{fill:#084f76;}.cls-9{fill:#c51c30;}.cls-10{fill:#fefefe;}.cls-11{fill:#fdfefe;}.cls-12{fill:#c0d2dc;}</style></defs><title>unesco_logo</title><path class="cls-1" d="M190.45,0a32.55,32.55,0,1,1-32.57,32.16A32.55,32.55,0,0,1,190.45,0Z"/><path class="cls-2" d="M25.68,4.1C25,6,24.4,7.75,23.78,9.49c-.26.75-.57,1.49-.8,2.25-.12.38-.35.39-.67.41s-.47-.12-.58-.44c-.8-2.41-1.66-4.81-2.35-7.26,0-.07,0-.16-.1-.18-.14,2.46-.27,4.92-.42,7.38,0,.18.1.46-.19.49a3.69,3.69,0,0,1-.94,0c-.12,0-.07-.21-.06-.33.2-2.94.41-5.88.61-8.82a.38.38,0,0,1,.06-.22c.26-.28,1.57,0,1.69.37.81,2.39,1.74,4.75,2.4,7.32.18-.58.3-1.06.47-1.52C23.59,7,24.3,5,25,3.05a.48.48,0,0,1,.56-.38c1.18,0,1.17,0,1.24,1.13.15,2.6.32,5.21.48,7.81,0,.26.14.63-.35.54-.33-.06-.83.3-.87-.48C25.92,9.2,25.73,6.74,25.68,4.1Z"/><path class="cls-2" d="M113,49.4c.06,2.38,0,4.76,0,7.13,0,.53-.22.53-.63.56s-.54-.16-.53-.58c0-2.79,0-5.59,0-8.38,0-.41.09-.51.51-.54a1.24,1.24,0,0,1,1.29.7c1.34,2.26,2.88,4.4,4.08,6.75,0,0,0,0,.07,0V53.33c0-1.76,0-3.51,0-5.27,0-.53.29-.45.6-.45s.57-.09.56.42c0,2.88,0,5.75,0,8.62,0,.35-.1.42-.43.44a1.15,1.15,0,0,1-1.24-.65C115.84,54.08,114.27,51.82,113,49.4Z"/><path class="cls-2" d="M37.09,6.53c1.12-1.55,3.12-1.69,4.09,0A2.7,2.7,0,0,1,43,5.33a2.26,2.26,0,0,1,2.6,2.37c.06,1.38,0,2.76,0,4.13,0,.61-.46.25-.71.31s-.51.1-.49-.34c0-1,0-2.08,0-3.11a4.76,4.76,0,0,0-.1-1.13c-.19-.77-.61-1.18-1.28-1.21a1.56,1.56,0,0,0-1.49,1.09,2.61,2.61,0,0,0-.13.88c0,1.14,0,2.28,0,3.41,0,.56-.33.42-.62.42s-.63.13-.61-.43c0-1.11,0-2.23,0-3.35a3.05,3.05,0,0,0-.17-1.12,1.3,1.3,0,0,0-2.14-.55,2,2,0,0,0-.69,1.59c0,1.16,0,2.32,0,3.47,0,.6-.39.36-.65.39s-.58.11-.57-.4c0-2,0-4,0-6,0-.3.13-.37.35-.31s.68-.25.75.27A6.61,6.61,0,0,1,37.09,6.53Z"/><path class="cls-3" d="M1.15,21.41c1.53-1.57,3-1.53,4,.09.11,0,.16-.1.22-.17a2.4,2.4,0,0,1,2.64-1,2.2,2.2,0,0,1,1.59,2.17c.08,1.43,0,2.87,0,4.3,0,.2-.06.27-.27.3-.87.1-.93.05-.93-.83s0-1.83,0-2.75a4.9,4.9,0,0,0,0-.77c-.16-1-.66-1.49-1.43-1.47A1.61,1.61,0,0,0,5.46,23c0,1.22,0,2.43,0,3.65,0,.6-.3.49-.65.52s-.59-.07-.57-.54c0-1.06,0-2.12,0-3.17a5.69,5.69,0,0,0-.07-.83C4,21.81,3.65,21.42,3,21.34a1.53,1.53,0,0,0-1.53.92,2.32,2.32,0,0,0-.23,1.1c0,1.1,0,2.19,0,3.29,0,.56-.29.47-.62.48s-.61,0-.61-.5c0-2,0-3.91,0-5.86,0-.33.15-.4.39-.34s.69-.27.72.31C1.12,21,1.13,21.16,1.15,21.41Z"/><path class="cls-2" d="M102.81,51c0-.88,0-1.75,0-2.63,0-.42-.09-.78.6-.77s.64.26.63.74c0,1.55,0,3.11,0,4.66a4.67,4.67,0,0,0,.34,2,1.91,1.91,0,0,0,1.89,1.21,2,2,0,0,0,2-1.26,5.18,5.18,0,0,0,.32-2.06c0-1.59,0-3.19,0-4.78,0-.51.25-.5.58-.47s.68-.17.67.44c0,1.83,0,3.67,0,5.5-.11,3.27-2.5,4-4.72,3.5A3.09,3.09,0,0,1,102.84,54c0-1,0-2,0-3Z"/><path class="cls-3" d="M113.25,32.67c1.34-.08,1.34-.08,1.7,1.09.71,2.27,1.48,4.53,2.11,7,.32-1,.6-2,.91-2.87.5-1.51,1.06-3,1.52-4.52.17-.58.44-.77,1-.68a5.76,5.76,0,0,0,.59,0l-2.12,6c-.37,1-.76,2.09-1.11,3.14-.11.32-.28.44-.57.37s-.85.27-1-.27C115.24,38.79,114.26,35.75,113.25,32.67Z"/><path class="cls-2" d="M120.92,52.31c0-1.4,0-2.8,0-4.19,0-.36,0-.53.48-.52,1.39,0,2.79,0,4.19,0,.38,0,.49.12.46.48s0,.57-.45.56c-1,0-2,0-3,0-.37,0-.47.1-.46.47a19.64,19.64,0,0,1,0,2c0,.45.15.53.55.52.83,0,1.67,0,2.51,0,.38,0,.67-.05.67.53s-.36.48-.69.48c-.88,0-1.76,0-2.64,0-.32,0-.4.09-.4.4,0,.88,0,1.76,0,2.63,0,.33.12.4.42.4,1.08,0,2.16,0,3.24,0,.46,0,.45.21.45.54s0,.5-.43.5c-1.48,0-3,0-4.44,0-.37,0-.46-.1-.46-.46C120.93,55.18,120.92,53.74,120.92,52.31Z"/><path class="cls-2" d="M139,47.49a5.89,5.89,0,0,1,1.83.25c.59.16.13.51.12.76s-.07.46-.44.3a4.21,4.21,0,0,0-2.53-.17A3.66,3.66,0,0,0,135.25,53c.36,2.57,2.48,3.76,5.2,2.91.18,0,.45-.24.45.15s.45.61-.07.8c-1.51.54-4.09.61-5.58-.86a5.47,5.47,0,0,1-1-5.64A4.68,4.68,0,0,1,139,47.49Z"/><path class="cls-3" d="M106.73,10.87c.42,1,.37,1.08-.65,1.27a6.76,6.76,0,0,1-3,0,4.32,4.32,0,0,1-3.26-4.28c-.14-4.1,3.14-6,6.83-5,.64.17.19.52.18.79s-.19.4-.51.27a4.25,4.25,0,0,0-2.47-.15c-1.92.42-3,2.2-2.69,4.38.38,2.8,2.65,3.57,5.09,2.94A4,4,0,0,0,106.73,10.87Z"/><path class="cls-3" d="M103.85,40.82c.42,1,.38,1.08-.65,1.27a6.33,6.33,0,0,1-3.37-.15A4.18,4.18,0,0,1,97,38c-.28-4.33,3.19-6.19,6.87-5.19.58.16.12.51.11.76s-.08.45-.44.3a4.14,4.14,0,0,0-2.53-.17c-1.92.42-3,2.2-2.69,4.37.38,2.8,2.66,3.57,5.09,2.95C103.55,40.94,103.7,40.87,103.85,40.82Z"/><path class="cls-2" d="M129.69,57.19a5.38,5.38,0,0,1-2-.36c-.7-.24-.25-.67-.17-1s.39-.08.54,0a4,4,0,0,0,2.22.32,1.56,1.56,0,0,0,.65-2.9,11.19,11.19,0,0,0-1.57-.73,2.68,2.68,0,0,1-1.85-2.08,2.43,2.43,0,0,1,1.79-2.75,4.47,4.47,0,0,1,2.93.12c.6.21.17.56.13.86s-.31.23-.51.15a3.31,3.31,0,0,0-1.94-.21,1.37,1.37,0,0,0-1.15,1.07A1.31,1.31,0,0,0,129.3,51a4.37,4.37,0,0,0,1,.57c.31.13.63.26.93.41a2.61,2.61,0,0,1,1.64,3.1,2.81,2.81,0,0,1-2.68,2.08C130.05,57.2,129.87,57.19,129.69,57.19Z"/><path class="cls-3" d="M112.91,26a2.82,2.82,0,0,1-2.21,1.22A2.22,2.22,0,0,1,108.26,25c-.09-1.41,0-2.83,0-4.24,0-.25.1-.29.32-.31.91-.06.9-.07.91.86,0,1.09,0,2.19,0,3.29s.6,1.67,1.56,1.64a1.75,1.75,0,0,0,1.7-1.8c0-1.14,0-2.28,0-3.41,0-.58.24-.57.66-.58s.59.13.59.59c0,1.89,0,3.79,0,5.68,0,.27,0,.52-.33.44s-.79.28-.78-.38Z"/><path class="cls-2" d="M91.44,41a2.89,2.89,0,0,1-2.26,1.22,2.22,2.22,0,0,1-2.39-2.29c-.08-1.41,0-2.83,0-4.25,0-.23.08-.29.31-.3.91-.07.9-.08.91.84,0,1.1,0,2.2.06,3.29s.59,1.68,1.55,1.65a1.74,1.74,0,0,0,1.7-1.8c0-1.15,0-2.31,0-3.47,0-.6.3-.49.66-.51s.6,0,.59.52c0,1.93,0,3.87,0,5.8,0,.27,0,.46-.33.38s-.74.3-.79-.31C91.43,41.58,91.44,41.38,91.44,41Z"/><path class="cls-3" d="M77.61,26.05a2.73,2.73,0,0,1-2.9,1.14A2.23,2.23,0,0,1,73,24.88c0-1.37,0-2.75,0-4.12,0-.26.08-.33.34-.35.89,0,.88-.05.89.82,0,1.11,0,2.23.06,3.35s.61,1.65,1.57,1.62a1.76,1.76,0,0,0,1.68-1.82c0-1.16,0-2.32,0-3.47,0-.56.28-.49.62-.49s.64-.08.63.48c0,2,0,3.91,0,5.86,0,.24,0,.43-.3.36s-.72.27-.81-.28A7,7,0,0,1,77.61,26.05Z"/><path class="cls-3" d="M20.34,21.47a2.58,2.58,0,0,1,2.1-1.17,2.24,2.24,0,0,1,2.42,2.2c.08,1.44,0,2.88,0,4.31,0,.47-.32.28-.54.32-.51.08-.73-.06-.7-.65.06-1,0-2,0-3a3.83,3.83,0,0,0-.08-.83c-.15-.8-.55-1.22-1.2-1.3a1.67,1.67,0,0,0-1.76,1,2.32,2.32,0,0,0-.19,1c0,1.12,0,2.24,0,3.35,0,.46-.24.46-.51.4s-.72.28-.73-.37c0-2,.08-4-.07-6,0-.2.06-.33.26-.28s.71-.24.87.24A4.15,4.15,0,0,1,20.34,21.47Z"/><path class="cls-2" d="M58.35,36.46a2.63,2.63,0,0,1,1.85-1.18,2.29,2.29,0,0,1,2.68,2.24c.07,1.41,0,2.83,0,4.25,0,.26-.09.33-.35.34-.88,0-.88,0-.88-.81s0-1.8,0-2.7c0-.2,0-.4,0-.6-.1-1.13-.62-1.69-1.54-1.68a1.71,1.71,0,0,0-1.66,1.77c0,1.14,0,2.28,0,3.41,0,.2.14.51-.13.57a2.59,2.59,0,0,1-1,0c-.15,0-.08-.25-.08-.38,0-2,.06-4-.08-6,0-.25.09-.35.3-.3s.72-.26.84.28A6.92,6.92,0,0,1,58.35,36.46Z"/><path class="cls-2" d="M20.81,36.46a2.63,2.63,0,0,1,1.85-1.18,2.3,2.3,0,0,1,2.69,2.3c.06,1.39,0,2.79,0,4.19,0,.25-.08.33-.34.34-.88,0-.88.06-.88-.81V38.66c0-.17,0-.35,0-.53-.07-1.22-.59-1.82-1.54-1.81a1.75,1.75,0,0,0-1.68,1.89c0,1.09,0,2.19,0,3.29,0,.2.14.51-.12.57a2.64,2.64,0,0,1-1,0c-.14,0-.08-.24-.08-.37,0-2,.06-4-.08-6,0-.24.08-.36.3-.3s.72-.26.84.27A7.13,7.13,0,0,1,20.81,36.46Z"/><path class="cls-3" d="M145.07,21.47a2.6,2.6,0,0,1,2.6-1.15,2.22,2.22,0,0,1,1.91,2.14c.08,1.46,0,2.91,0,4.37,0,.24-.1.29-.32.3-.91.08-.91.08-.91-.85s0-1.75,0-2.63c0-.22,0-.44,0-.66-.1-1.09-.62-1.65-1.51-1.64a1.7,1.7,0,0,0-1.69,1.74c0,1.16,0,2.32,0,3.47,0,.49-.14.59-.6.58s-.65,0-.65-.59c0-1.93.08-3.87-.06-5.8,0-.22,0-.38.28-.32s.71-.25.85.25A5.25,5.25,0,0,1,145.07,21.47Z"/><path class="cls-2" d="M45.17,51.41a2.58,2.58,0,0,1,2.59-1.14,2.22,2.22,0,0,1,1.92,2.14c.07,1.45,0,2.91,0,4.37,0,.24-.09.28-.31.3-.91.07-.91.08-.91-.85V53.6c0-.24,0-.48,0-.72-.12-1.06-.64-1.59-1.52-1.58A1.68,1.68,0,0,0,45.28,53c0,1.2-.05,2.4,0,3.59,0,.61-.31.49-.66.51s-.59,0-.59-.52c0-2,.08-3.91-.06-5.86,0-.22,0-.38.28-.32s.71-.26.85.25A5.23,5.23,0,0,1,45.17,51.41Z"/><path class="cls-3" d="M145.07,6.49a2.55,2.55,0,0,1,2.77-1.1,2.27,2.27,0,0,1,1.77,2.28c0,1.37,0,2.75,0,4.13,0,.59-.43.31-.68.34s-.57.14-.55-.35c0-1.06,0-2.11,0-3.17a5,5,0,0,0-.08-.95,1.38,1.38,0,0,0-1.16-1.28,1.66,1.66,0,0,0-1.75.87,2.2,2.2,0,0,0-.25,1.1c0,1.11,0,2.23,0,3.35,0,.53-.28.45-.6.44s-.65.13-.65-.45c0-2,.08-3.95-.06-5.92,0-.22,0-.38.28-.33s.71-.24.85.26A5.23,5.23,0,0,1,145.07,6.49Z"/><path class="cls-2" d="M66.19,42.24A4.89,4.89,0,0,1,64.78,42c-.41-.12-.52-.29-.36-.73s.28-.43.62-.25a2.44,2.44,0,0,0,1.57.23,1,1,0,0,0,.94-.79.92.92,0,0,0-.57-1c-.42-.22-.88-.37-1.31-.58A1.78,1.78,0,0,1,64.48,37a2,2,0,0,1,1.6-1.64,3.59,3.59,0,0,1,2.17.17c.5.19.13.48.1.72s-.19.34-.45.2a2.2,2.2,0,0,0-1.34-.21.91.91,0,0,0-.88.75.8.8,0,0,0,.56.89c.37.19.77.33,1.15.5a1.94,1.94,0,0,1,1.38,2.13,2,2,0,0,1-1.86,1.66A5.85,5.85,0,0,1,66.19,42.24Z"/><path class="cls-3" d="M130.17,18.52c0,.48,0,1,0,1.43s.13.52.5.48.48,0,.72,0,.59,0,.58.47-.19.5-.57.5c-1.23,0-1.23,0-1.23,1.22,0,.82,0,1.64,0,2.45s.32,1.18,1.27,1.13c.21,0,.43,0,.38.26s.23.63-.26.73c-1.39.28-2.55-.08-2.6-1.79,0-1.18,0-2.36,0-3.53,0-.47-.19-.54-.56-.48s-.53-.11-.53-.52.16-.49.5-.44.67-.09.58-.57c0,0,0,0,0-.06C129,18.69,129,18.69,130.17,18.52Z"/><path class="cls-3" d="M130.17,3.55c0,.44,0,.88,0,1.31s.06.67.57.59c.21,0,.44,0,.65,0,.51-.08.6.16.57.6,0,.29-.1.37-.38.37-.45,0-1.06-.2-1.32.09s-.07.91-.08,1.38c0,.74,0,1.48,0,2.21,0,.94.32,1.17,1.27,1.13.17,0,.41-.09.37.21s.25.59-.19.76A1.86,1.86,0,0,1,129,10.47c0-1.2,0-2.39,0-3.59,0-.4-.12-.53-.51-.48s-.58,0-.59-.46.28-.53.63-.49S129,5.36,129,5a1,1,0,0,1,0-.17C129,3.71,129,3.71,130.17,3.55Z"/><path class="cls-3" d="M115.52,23.85c-.08-2.72,2.45-4.17,5-3.33.56.18.13.51.12.77s-.23.26-.46.18a2.47,2.47,0,0,0-3.35,3.07,2.39,2.39,0,0,0,3.23,1.58c.19-.05.5-.42.62.14.08.4.17.7-.39.82a5.72,5.72,0,0,1-2.14.13A3.11,3.11,0,0,1,115.52,23.85Z"/><path class="cls-2" d="M54.61,57.2A3.21,3.21,0,0,1,51.11,54a3.4,3.4,0,0,1,3.29-3.77,5.2,5.2,0,0,1,1.71.19c.56.17.2.5.17.76s-.22.31-.49.22a2.46,2.46,0,0,0-3.33,3.08,2.39,2.39,0,0,0,3.24,1.56c.18-.05.48-.41.59.11.06.34.3.73-.33.84A6.8,6.8,0,0,1,54.61,57.2Z"/><path class="cls-3" d="M140.49,34.15c-.44.24-.79.45-1.17.62-.14.07-.36.35-.48,0s-.36-.67-.07-.82c.81-.42,1.53-1.11,2.57-1,.29,0,.35.12.35.39,0,2.77,0,5.55,0,8.32,0,.58-.37.38-.64.4s-.59.13-.58-.4c0-2.29,0-4.59,0-6.88Z"/><path class="cls-2" d="M35.43,52.11c0,1.49,0,3,0,4.49,0,.56-.29.48-.62.48s-.63.07-.62-.49c0-3,0-6,0-9,0-.56.29-.48.62-.48s.64-.07.62.49C35.4,49.11,35.43,50.61,35.43,52.11Z"/><path class="cls-2" d="M96.69,52.1c0-1.49,0-3,0-4.49,0-.56.29-.48.63-.48s.62-.08.62.48q0,4.5,0,9c0,.56-.29.49-.62.49s-.65.08-.63-.49C96.72,55.1,96.69,53.6,96.69,52.1Z"/><path class="cls-3" d="M88.8,7.19c0,1.49,0,3,0,4.48,0,.56-.28.49-.62.49s-.63.07-.62-.49q0-4.49,0-9c0-.55.28-.48.62-.48s.64-.07.62.49C88.77,4.19,88.8,5.69,88.8,7.19Z"/><path class="cls-3" d="M123.7,7.18c0,1.5,0,3,0,4.49,0,.56-.28.49-.62.49s-.63.07-.62-.49q0-4.49,0-9c0-.56.28-.49.62-.49s.64-.08.62.48C123.67,4.19,123.7,5.69,123.7,7.18Z"/><path class="cls-3" d="M45.62,22.16c0,1.49,0,3,0,4.48,0,.56-.28.49-.62.49s-.64.08-.63-.48c0-3,0-6,0-9,0-.55.28-.49.62-.49s.65-.07.63.49C45.59,19.16,45.62,20.66,45.62,22.16Z"/><path class="cls-3" d="M88.18,22.1c0-1.48,0-3,0-4.43,0-.56.3-.48.63-.49s.63-.06.62.49c0,3,0,6,0,9,0,.56-.28.48-.62.48s-.64.07-.63-.49C88.21,25.13,88.18,23.61,88.18,22.1Z"/><path class="cls-3" d="M123.34,37.36c0,1.44,0,2.88,0,4.31,0,.5-.25.46-.55.43s-.69.21-.69-.41c0-2.87,0-5.75,0-8.62,0-.55.32-.43.61-.43s.64-.15.63.41C123.32,34.49,123.34,35.93,123.34,37.36Z"/><path class="cls-2" d="M90.25,51.57a2.24,2.24,0,0,1,1.61-1.31c.2,0,.53-.13.6.1a2.59,2.59,0,0,1,0,1c0,.13-.2.06-.31.07a1.61,1.61,0,0,0-1.67,1.41,19,19,0,0,0-.11,3.46c0,.76-.28,1-1,.78-.28-.07-.18-.27-.19-.42,0-2,.07-4-.08-6,0-.31.15-.36.36-.3s.67-.27.75.27C90.21,50.92,90.22,51.19,90.25,51.57Z"/><path class="cls-2" d="M31.49,36.58a2.19,2.19,0,0,1,1.86-1.32c.49,0,.41.3.37.55s.26.66-.36.66a1.57,1.57,0,0,0-1.66,1.41,20,20,0,0,0-.1,3.46c0,.73-.35,1-1.05.76-.28-.08-.17-.28-.17-.43,0-1.24,0-2.48,0-3.71,0-.72,0-1.44-.06-2.15,0-.25,0-.49.3-.4s.77-.32.8.34C31.42,36,31.46,36.24,31.49,36.58Z"/><path class="cls-3" d="M81.73,21.61a2.24,2.24,0,0,1,1.8-1.32c.39,0,.53.13.45.48s.27.74-.42.73A1.56,1.56,0,0,0,82,22.89a17.15,17.15,0,0,0-.09,3.58c0,.55-.15.69-.69.68s-.56-.11-.56-.56c0-1.94.07-3.87-.06-5.8,0-.24,0-.43.29-.36s.72-.29.81.27C81.7,21,81.7,21.25,81.73,21.61Z"/><path class="cls-2" d="M56.55,6.64a2.23,2.23,0,0,1,1.79-1.32c.39,0,.54.12.45.47s.28.75-.41.73a1.55,1.55,0,0,0-1.61,1.4,19,19,0,0,0-.11,3.46c0,.76-.29,1-1,.78-.29-.07-.19-.27-.19-.43,0-1.09,0-2.19,0-3.29,0-.87,0-1.75-.07-2.63,0-.23,0-.43.29-.35s.71-.3.81.27C56.51,6,56.52,6.27,56.55,6.64Z"/><path class="cls-3" d="M134.37,8.83c0,1,0,1.95,0,2.93,0,.52-.31.41-.58.39s-.66.21-.66-.38c0-2,0-3.95,0-5.93,0-.58.38-.37.65-.38s.61-.16.59.37C134.35,6.83,134.37,7.83,134.37,8.83Z"/><path class="cls-3" d="M126.82,8.85c0,1,0,1.92,0,2.87,0,.5-.25.47-.55.43s-.7.22-.69-.41c0-2,0-3.91,0-5.86,0-.56.32-.44.61-.43s.65-.16.63.41C126.79,6.86,126.82,7.86,126.82,8.85Z"/><path class="cls-3" d="M134.37,23.77c0,1,0,2,0,2.94,0,.55-.33.42-.61.41s-.64.14-.63-.41c0-2,0-3.91,0-5.87,0-.55.34-.42.62-.41s.65-.15.62.41C134.34,21.82,134.37,22.8,134.37,23.77Z"/><path class="cls-3" d="M35.91,23.78c0,1,0,1.95,0,2.93,0,.56-.34.41-.62.41s-.63.14-.62-.42c0-1.95,0-3.91,0-5.86,0-.62.41-.38.69-.41s.58-.09.55.42C35.88,21.82,35.91,22.8,35.91,23.78Z"/><path class="cls-4" d="M99.46,51a21,21,0,0,0,.75-3c0-.22.11-.36.38-.37a9.76,9.76,0,0,0,1-.1,16.11,16.11,0,0,1-1.18,3.12C100.21,51,99.84,50.8,99.46,51Z"/><path class="cls-5" d="M90.94,21a20.54,20.54,0,0,0,.76-3c0-.23.13-.35.39-.36a7.65,7.65,0,0,0,1-.11,13.25,13.25,0,0,1-1.21,3.19C91.66,21.05,91.3,20.85,90.94,21Z"/><path class="cls-6" d="M136.14,38.75c-.43,0-.87,0-1.31,0s-.46,0-.45-.41,0-.52.45-.51c.87,0,1.75,0,2.62,0,.38,0,.41.16.41.46s0,.49-.4.46S136.58,38.75,136.14,38.75Z"/><path class="cls-7" d="M95.48,19.44c.41-.66.77-1.22,1.1-1.8.16-.28.4-.2.63-.21h.91c-.6.7-1.11,1.34-1.67,1.92C96.23,19.58,95.88,19.41,95.48,19.44Z"/><path class="cls-8" d="M59.5,49.4c.4-.67.77-1.23,1.1-1.81.16-.29.4-.21.62-.22h.92c-.6.7-1.11,1.34-1.67,1.93C60.26,49.52,59.9,49.36,59.5,49.4Z"/><path class="cls-8" d="M36.69,34.46a14.88,14.88,0,0,1,1.19-1.9c.33-.38.89-.09,1.49-.18-.61.72-1.12,1.34-1.66,1.93C37.47,34.56,37.11,34.36,36.69,34.46Z"/><path class="cls-9" d="M133.76,2.69a.71.71,0,0,1,.73.81c0,.49-.31.7-.76.73a.73.73,0,0,1-.78-.78A.74.74,0,0,1,133.76,2.69Z"/><path class="cls-9" d="M126.94,3.45a.77.77,0,0,1-1.54,0,.73.73,0,0,1,.75-.81A.71.71,0,0,1,126.94,3.45Z"/><path class="cls-9" d="M134.49,18.47a.71.71,0,0,1-.81.73.7.7,0,0,1-.72-.77.77.77,0,1,1,1.53,0Z"/><path class="cls-9" d="M36,18.46a.77.77,0,1,1-.75-.79A.7.7,0,0,1,36,18.46Z"/><path class="cls-10" d="M190.5,48.55q12.65,0,25.29,0c.53,0,.66.12.65.65,0,1.32,0,1.32-1.35,1.32q-24.9,0-49.8,0c-.59,0-.73-.14-.71-.71,0-1.26,0-1.26,1.28-1.26Z"/><path class="cls-11" d="M190.31,47.39q-11.56,0-23.14,0c-.53,0-.67-.13-.65-.66,0-1.36,0-1.36,1.38-1.36q22.72,0,45.44,0c.61,0,.77.15.74.75,0,1.26,0,1.26-1.29,1.26Z"/><path class="cls-10" d="M190.28,44.26c-6.91,0-13.82,0-20.74,0-.53,0-.66-.12-.64-.65,0-1.38,0-1.38,1.41-1.38q20.37,0,40.76,0c.56,0,.68.15.67.69,0,1.34,0,1.34-1.38,1.34Z"/><path class="cls-11" d="M190.26,21.92c-6.9,0-13.79,0-20.69,0-.56,0-.68-.17-.67-.7,0-1.32,0-1.32,1.34-1.32h40.83c.55,0,.69.15.67.68,0,1.33,0,1.33-1.34,1.33Z"/><path class="cls-10" d="M168.93,18.72c0-.67-.2-1.36,0-1.83s1-.46,1.6-.63c6.42-2,12.84-4,19.25-5.93a1.48,1.48,0,0,1,.93,0q10.26,3.16,20.52,6.3c.33.1.48.24.46.61s0,1,0,1.51l-4.19-1.27L190.6,12.36a1.43,1.43,0,0,0-.87,0l-20.18,6.16Z"/><path class="cls-10" d="M207.81,18.76a41.12,41.12,0,0,1-4.84,0,23.51,23.51,0,0,1-3.84-1.1Q195,16.38,190.9,15.1a1.36,1.36,0,0,0-.87,0c-3.82,1.14-7.64,2.27-11.46,3.42a5.31,5.31,0,0,1-1.58.24c-1.38,0-2.76,0-4.16-.11l3.55-1.09c4.52-1.38,9-2.74,13.56-4.13a1.61,1.61,0,0,1,1,0q8.19,2.55,16.39,5.07l.44.15Z"/><path class="cls-10" d="M209.35,32v8.08a1.46,1.46,0,0,1-1.6,1.65,1.42,1.42,0,0,1-1.56-1.62V24a1.39,1.39,0,0,1,.73-1.4,2,2,0,0,1,1.84,0,1.24,1.24,0,0,1,.59,1.22Z"/><path class="cls-10" d="M174.81,31.59v8.26a1.34,1.34,0,0,1-1.49,1.53,1.45,1.45,0,0,1-1.67-1.52c0-5.57,0-11.14,0-16.7,0-.56.29-.48.63-.49s.62-.06.61.49c0,5.53,0,11.06,0,16.59,0,.52.2.72.53.55s.21-.4.21-.63V33.74c0-3.49,0-7,0-10.47,0-.54.18-.6.64-.61s.58.16.58.61C174.8,26,174.81,28.81,174.81,31.59Z"/><path class="cls-10" d="M179.46,41.47c-.55.14-.75,0-.75-.62,0-5.87,0-11.73,0-17.6,0-.47.12-.61.58-.59s.36.27.38.49c.22,2,.42,4,.63,5.94a14.66,14.66,0,0,0,.36,2.17V29.42c0-2.11,0-4.23,0-6.34,0-.38.15-.41.46-.41s.39.1.39.41q0,9,0,18c0,.29,0,.48-.38.41s-.56.17-.6-.33c-.26-3.08-.55-6.15-.84-9.23-.15-.23-.09-.5-.13-.67-.05,1.23,0,2.54,0,3.85,0,1.92,0,3.85,0,5.78C179.52,41.09,179.58,41.29,179.46,41.47Z"/><path class="cls-10" d="M193.64,37.88c0,.71,0,1.43,0,2.15,0,.13-.07.32.13.34s.24-.17.26-.33,0-.2,0-.3a27.38,27.38,0,0,0-.69-7.6c-.34-1.43-.64-2.88-.84-4.34a19.8,19.8,0,0,1,0-4A1.32,1.32,0,0,1,194,22.6a1.18,1.18,0,0,1,1.22,1.28c0,1.32,0,2.64,0,3.95,0,.54-.39.33-.64.35s-.58.13-.57-.35c0-1.1,0-2.2,0-3.3,0-.16,0-.32,0-.48s-.07-.35-.26-.34-.12.24-.12.38c0,1.3,0,2.6,0,3.89a15.78,15.78,0,0,0,1,3.94,15.82,15.82,0,0,1,.8,5.59c0,.77,0,1.55,0,2.33a1.3,1.3,0,0,1-1.36,1.42A1.35,1.35,0,0,1,192.44,40v-.18c0-1.38,0-2.75,0-4.13,0-.54.3-.44.61-.45s.64-.09.61.45c-.05.74,0,1.48,0,2.22Z"/><path class="cls-11" d="M199.51,31.9c0-2.57,0-5.15,0-7.72,0-1.1.63-1.68,1.65-1.51a1.2,1.2,0,0,1,1.09,1.22c0,1.32,0,2.63,0,3.95,0,.54-.4.32-.64.34s-.58.13-.57-.35c0-1.18,0-2.36,0-3.54,0-.28.09-.66-.37-.65s-.37.35-.37.63V39.53a1.93,1.93,0,0,0,0,.24c0,.25.13.42.4.42s.33-.22.33-.45V36c0-.82,0-.8.84-.77.28,0,.37.11.37.39,0,1.47,0,2.95,0,4.43A1.25,1.25,0,0,1,201,41.24a1.26,1.26,0,0,1-1.44-1,2.8,2.8,0,0,1-.06-.71C199.51,37,199.51,34.45,199.51,31.9Z"/><path class="cls-10" d="M185.8,32.11c0-3,0-5.91,0-8.86,0-.48.13-.62.6-.58a11.37,11.37,0,0,0,1.43,0c.33,0,.35.16.35.41s0,.39-.36.41c-.81,0-.81.06-.81.88,0,2,0,4,0,6,0,.46.13.62.57.54s.62.15.62.63-.16.65-.61.57-.59.06-.58.54c0,2.51,0,5,0,7.54,0,.43.14.56.54.51.2,0,.4,0,.6,0s.44.1.44.44-.13.4-.42.39c-.6,0-1.2,0-1.8,0-.44,0-.56-.09-.56-.55C185.81,38,185.8,35.06,185.8,32.11Z"/><path class="cls-12" d="M179.46,41.47V30.73c.1.41.34.79.23,1.21-.2.22-.13.49-.13.73q0,4.09,0,8.19C179.55,41.06,179.66,41.3,179.46,41.47Z"/><path class="cls-2" d="M150,50.91a4,4,0,0,0-2.89-3.26,4.13,4.13,0,0,0-4.42,1.24,5.22,5.22,0,0,0-1.18,3.91c.24,4,3.53,5.16,6.1,4,1.89-.85,2.47-2.53,2.52-4.46A5.33,5.33,0,0,0,150,50.91ZM148,55a2.67,2.67,0,0,1-4.52-.11,4.68,4.68,0,0,1,0-5.15,2.69,2.69,0,0,1,4.65.15,4.73,4.73,0,0,1,.62,2.46A4.54,4.54,0,0,1,148,55Z"/><path class="cls-3" d="M133.09,36.55a3.93,3.93,0,0,0-3.24-3.84,12.63,12.63,0,0,0-4.16-.07c-.37,0-.33.27-.33.51V37.4c0,1.41,0,2.83,0,4.24,0,.39.11.52.49.54a19.25,19.25,0,0,0,2.63,0c2.56-.21,4-1.43,4.52-3.69A6.8,6.8,0,0,0,133.09,36.55Zm-1.27,1.27c-.37,3.08-2.8,3.6-5,3.37-.34,0-.28-.26-.28-.47V37.43c0-1.08,0-2.15,0-3.23,0-.5.15-.64.62-.67a7,7,0,0,1,2.14.11C131.15,34.1,132.08,35.68,131.82,37.82Z"/><path class="cls-3" d="M113,35.93a4.1,4.1,0,0,0-3.54-3.4A4.18,4.18,0,0,0,105,35a5.91,5.91,0,0,0-.27,4,4.19,4.19,0,0,0,6.42,2.48,4.72,4.72,0,0,0,2-4.25A5.31,5.31,0,0,0,113,35.93Zm-1.9,4a2.68,2.68,0,0,1-4.59-.07,4.71,4.71,0,0,1,0-5.1,2.69,2.69,0,0,1,4.68.16,4.78,4.78,0,0,1,.6,2.4A4.6,4.6,0,0,1,111.12,40Z"/><path class="cls-2" d="M53.88,8.16a2.94,2.94,0,0,0-1.94-2.7,2.8,2.8,0,0,0-3.2,1V2.69c0-.15.08-.4-.08-.43a2.41,2.41,0,0,0-1,0c-.28.06-.13.38-.13.57,0,2.91,0,5.82-.07,8.73,0,.52.08.66.58.63s.57-.06.53-.48a2.53,2.53,0,0,1,.08-.59,2.49,2.49,0,0,0,2.77,1.13,2.89,2.89,0,0,0,2.29-2.12A4.46,4.46,0,0,0,53.88,8.16ZM52.44,10a1.9,1.9,0,0,1-3.7-.63V8.88c0-1.38.42-2.14,1.35-2.46a1.82,1.82,0,0,1,2.28,1A3.23,3.23,0,0,1,52.44,10Z"/><path class="cls-2" d="M75.69,11.77c0-.7-.06-1.39-.06-2.09,0-2.33,0-4.66,0-7,0-.57-.3-.47-.63-.48s-.64-.06-.62.49c0,1.15,0,2.31,0,3.57a2.82,2.82,0,0,0-4.66.7,4.28,4.28,0,0,0-.06,3.65,2.76,2.76,0,0,0,4.82.44c0,.34,0,.58,0,.81.12.58.58.19.88.27S75.7,12,75.69,11.77ZM74.32,9.9a1.82,1.82,0,0,1-1.63,1.36,1.78,1.78,0,0,1-1.83-1.09,3.23,3.23,0,0,1,.07-2.83A1.81,1.81,0,0,1,74.38,8a7.82,7.82,0,0,1,0,.84A3.45,3.45,0,0,1,74.32,9.9Z"/><path class="cls-3" d="M32.7,17.58c0-.59-.39-.37-.65-.38s-.6-.15-.59.38c0,1.19,0,2.38,0,3.62a2.88,2.88,0,0,0-4.91,1.4,4.49,4.49,0,0,0,.1,2.76,2.67,2.67,0,0,0,2.16,1.86A2.61,2.61,0,0,0,31.57,26a7.81,7.81,0,0,0,.05.83c.08.52.5.22.76.28s.41.06.39-.27C32.6,23.76,32.72,20.67,32.7,17.58Zm-1.31,7.29a1.81,1.81,0,0,1-1.63,1.36,1.77,1.77,0,0,1-1.83-1.08A3.23,3.23,0,0,1,28,22.32a1.82,1.82,0,0,1,3.46.64,7.85,7.85,0,0,1,0,.84A3.49,3.49,0,0,1,31.39,24.87Z"/><path class="cls-3" d="M106.51,26.76c0-.68-.06-1.36-.06-2,0-2.36,0-4.71,0-7.07,0-.56-.3-.47-.63-.48s-.64-.05-.62.5c.05,1.15,0,2.3,0,3.56a2.8,2.8,0,0,0-4.55.52,4.23,4.23,0,0,0-.21,3.75,2.76,2.76,0,0,0,4.9.48,7.48,7.48,0,0,0,0,.83c.09.61.57.21.86.3S106.53,27,106.51,26.76Zm-1.38-1.82a1.83,1.83,0,0,1-1.57,1.29,1.74,1.74,0,0,1-1.83-1,3.2,3.2,0,0,1,.06-3,1.8,1.8,0,0,1,1.9-1,1.84,1.84,0,0,1,1.51,1.57,6.76,6.76,0,0,1,0,.9A3.13,3.13,0,0,1,105.13,24.94Z"/><path class="cls-2" d="M80.73,52.07a2.72,2.72,0,0,0-3-1.81,2.79,2.79,0,0,0-2,1.21c0-.32,0-.53,0-.75,0-.65-.53-.27-.81-.34s-.36.16-.35.42c0,1,.07,2,.07,3.05,0,1.86,0,3.71,0,5.56,0,.57.34.41.62.42s.64.14.62-.42c0-1,0-2,0-3.14a2.93,2.93,0,0,0,4.86-.93A4.45,4.45,0,0,0,80.73,52.07ZM79.52,55a1.89,1.89,0,0,1-3.67-.64c0-.2,0-.4,0-.6,0-1.36.45-2.14,1.41-2.43a1.82,1.82,0,0,1,2.22,1A3.27,3.27,0,0,1,79.52,55Z"/><path class="cls-2" d="M46.15,35.39a2.92,2.92,0,0,0-3.26,1.11c0-.32,0-.53,0-.75,0-.66-.52-.27-.8-.35s-.39.15-.36.42c.1,1.14.08,2.27.08,3.41,0,1.73,0,3.47,0,5.2,0,.56.33.43.62.42s.65.16.63-.41c0-1,0-2,0-3.13a2.94,2.94,0,0,0,4.94-1.16,5.36,5.36,0,0,0,.2-1.95A3.11,3.11,0,0,0,46.15,35.39ZM46.66,40A1.89,1.89,0,0,1,43,39.37c0-.2,0-.4,0-.6,0-1.35.46-2.13,1.42-2.42a1.81,1.81,0,0,1,2.21,1A3.27,3.27,0,0,1,46.66,40Z"/><path class="cls-3" d="M62,20.43a2.93,2.93,0,0,0-3.31,1.08c0-.31,0-.52,0-.74,0-.64-.53-.27-.81-.34s-.36.16-.35.43c0,1,.07,1.95.07,2.92,0,1.9,0,3.79,0,5.68,0,.56.33.42.62.42s.64.14.62-.42c0-1,0-2.05,0-3.13a2.94,2.94,0,0,0,4.94-1.16A5.43,5.43,0,0,0,64,23.34,3.16,3.16,0,0,0,62,20.43Zm-.82,5.77a1.86,1.86,0,0,1-2.35-1.45,5.17,5.17,0,0,1,0-1.84,2,2,0,0,1,1.83-1.63,1.93,1.93,0,0,1,1.86,1.43,5.52,5.52,0,0,1,.19,1A2.33,2.33,0,0,1,61.21,26.2Z"/><path class="cls-3" d="M149.94,34.94a2.62,2.62,0,0,0-2.15-2,3,3,0,0,0-3,1c-1.49,1.72-.79,4.42,1.29,4.87a3,3,0,0,0,2.75-.71A3.44,3.44,0,0,1,146.45,41a4.8,4.8,0,0,1-1.36.19c-.47,0-.25.36-.27.57s-.12.47.26.46a4.7,4.7,0,0,0,4.11-1.92A6.18,6.18,0,0,0,149.94,34.94Zm-2.74,3a1.73,1.73,0,0,1-1.91-1.82A2,2,0,0,1,147,33.84c1.17,0,1.86.86,1.94,2.51A1.67,1.67,0,0,1,147.2,37.91Z"/><path class="cls-3" d="M141.12,6a3.22,3.22,0,0,0-3.55-.31c-1.33.63-1.79,1.8-1.79,3.43a3.2,3.2,0,0,0,3.91,3.12,3,3,0,0,0,2.55-2.45A3.52,3.52,0,0,0,141.12,6Zm-.6,4.6a1.82,1.82,0,0,1-2.94,0,3.18,3.18,0,0,1,0-3.59,1.85,1.85,0,0,1,3,.08,3.34,3.34,0,0,1,.5,1.71A3.2,3.2,0,0,1,140.52,10.58Z"/><path class="cls-2" d="M54.58,36A3.3,3.3,0,0,0,51,35.62c-1.32.63-1.78,1.8-1.78,3.52a3.08,3.08,0,0,0,1.15,2.38A3.41,3.41,0,0,0,55,41.05,3.86,3.86,0,0,0,54.58,36Zm-.49,4.32a1.83,1.83,0,0,1-3.28,0A3.16,3.16,0,0,1,50.93,37a1.83,1.83,0,0,1,3.1.08A3,3,0,0,1,54.09,40.27Z"/><path class="cls-3" d="M16.51,21A3.23,3.23,0,0,0,13,20.64c-1.32.64-1.77,1.81-1.78,3.44a3.13,3.13,0,0,0,.66,2,3.09,3.09,0,0,0,3.25,1.16,3,3,0,0,0,2.55-2.45A3.51,3.51,0,0,0,16.51,21Zm-.58,4.58a1.81,1.81,0,0,1-3,0A3.17,3.17,0,0,1,13,22a1.84,1.84,0,0,1,3,0,3.3,3.3,0,0,1,.52,1.73A3.22,3.22,0,0,1,15.93,25.53Z"/><path class="cls-3" d="M113.08,6a3.3,3.3,0,0,0-3.56-.32,3.2,3.2,0,0,0-1.8,3.19,3.38,3.38,0,0,0,1.13,2.72,3.42,3.42,0,0,0,4.72-.5A3.87,3.87,0,0,0,113.08,6Zm-.46,4.34a1.76,1.76,0,0,1-1.64,1,1.86,1.86,0,0,1-1.68-1.08A3.21,3.21,0,0,1,109,8.82a3.32,3.32,0,0,1,.48-1.71,1.83,1.83,0,0,1,3.11,0A3.05,3.05,0,0,1,112.62,10.32Z"/><path class="cls-3" d="M68.37,20.3A3.2,3.2,0,0,0,65,23.77c0,2.11,1.25,3.48,3.18,3.48a3.23,3.23,0,0,0,3.37-3.51A3.12,3.12,0,0,0,68.37,20.3Zm1.53,5a1.83,1.83,0,0,1-3.26,0,3,3,0,0,1-.38-1.48c0-1.57.88-2.59,2.09-2.57s2,1.1,2,2.55A3,3,0,0,1,69.9,25.33Z"/><path class="cls-3" d="M141.15,21a3.3,3.3,0,0,0-3.62-.3c-1.29.63-1.74,1.78-1.75,3.45a3.1,3.1,0,0,0,1.13,2.42,3.4,3.4,0,0,0,4.72-.48A3.86,3.86,0,0,0,141.15,21Zm-.58,4.52a1.83,1.83,0,0,1-3,0,3.2,3.2,0,0,1,0-3.5,1.85,1.85,0,0,1,3,0,3.3,3.3,0,0,1,.52,1.73A3.22,3.22,0,0,1,140.57,25.48Z"/><path class="cls-2" d="M87.34,56.81c-.19-1.39,0-2.78-.11-4.18a2.13,2.13,0,0,0-1.31-2.15,4,4,0,0,0-3.24.22c-.41.19-.11.42-.07.64s.19.27.43.15a3.25,3.25,0,0,1,1.74-.3,1.24,1.24,0,0,1,1.16,1c.15.5,0,.64-.5.64a4.1,4.1,0,0,0-2.79.87A2,2,0,0,0,82,55.77a1.75,1.75,0,0,0,1.42,1.37,2.7,2.7,0,0,0,2.66-.88c.12.86.18.9,1,.82C87.28,57.06,87.37,57,87.34,56.81ZM86,54.32c0,1.19-.61,1.91-1.6,1.94a1.07,1.07,0,0,1-1.15-.67,1.25,1.25,0,0,1,.38-1.45,3.1,3.1,0,0,1,2.17-.51C86.27,53.66,85.92,54.12,86,54.32Z"/><path class="cls-2" d="M42.15,52.64a2.24,2.24,0,0,0-2.06-2.37,4.44,4.44,0,0,0-2,.21c-.82.29-.83.32-.41,1.14a3.45,3.45,0,0,1,2-.43,1.24,1.24,0,0,1,1.17,1c.14.48.06.64-.49.64a4.11,4.11,0,0,0-2.8.87A2.12,2.12,0,0,0,37,56a1.94,1.94,0,0,0,1.88,1.21A2.87,2.87,0,0,0,41,56.29c.12.84.16.86,1,.79.19,0,.29,0,.26-.26A38.88,38.88,0,0,1,42.15,52.64ZM41,54.31c0,1.24-.65,1.95-1.69,1.95a1,1,0,0,1-1-.63,1.17,1.17,0,0,1,.26-1.38,2.88,2.88,0,0,1,2.29-.62C41.18,53.66,40.78,54.15,41,54.31Z"/><path class="cls-2" d="M85,37.61a2.15,2.15,0,0,0-1-2,3.75,3.75,0,0,0-3.56.11c-.39.19,0,.44,0,.66s.2.2.38.11a3.2,3.2,0,0,1,1.75-.3,1.22,1.22,0,0,1,1.17.94c.14.46.09.65-.48.65a4.07,4.07,0,0,0-2.84.9,2,2,0,0,0-.61,2.07,1.75,1.75,0,0,0,1.42,1.38,2.67,2.67,0,0,0,2.66-.87c.14.82.3.93,1,.82.19,0,.23-.09.21-.26C84.87,40.44,85,39,85,37.61Zm-1.19,1.76a1.68,1.68,0,0,1-1.63,1.92A1,1,0,0,1,81,40.65a1.2,1.2,0,0,1,.26-1.38,2.91,2.91,0,0,1,2.3-.61C84,38.69,83.66,39.16,83.76,39.37Z"/><path class="cls-3" d="M95.39,7.66a2.14,2.14,0,0,0-1.31-2.1,3.93,3.93,0,0,0-3.25.22c-.41.19-.1.43-.06.64s.21.25.43.14A3.19,3.19,0,0,1,93,6.28a1.17,1.17,0,0,1,1.13.9c.18.62.16.63-.5.67a4.24,4.24,0,0,0-2.84.94,2.11,2.11,0,0,0-.49,2.31,2,2,0,0,0,1.85,1.18,2.82,2.82,0,0,0,2.14-.91c.15.8.31.9,1,.79.19,0,.23-.08.21-.26C95.31,10.49,95.45,9.07,95.39,7.66ZM94.2,9.39c0,1.24-.65,1.95-1.69,1.95a1,1,0,0,1-1.05-.63,1.19,1.19,0,0,1,.25-1.38A2.91,2.91,0,0,1,94,8.71C94.44,8.74,94,9.23,94.2,9.39Z"/><path class="cls-3" d="M42.5,22.63a2.14,2.14,0,0,0-1.26-2.08,3.94,3.94,0,0,0-3.3.2c-.41.2-.1.44-.06.65s.22.24.43.13a3.33,3.33,0,0,1,1.76-.28,1.2,1.2,0,0,1,1.11.85c.21.64.17.68-.49.72a4.25,4.25,0,0,0-2.84.95,2.11,2.11,0,0,0-.49,2.31,2,2,0,0,0,1.86,1.17,2.8,2.8,0,0,0,2.14-.91c.14.8.3.91,1,.79.19,0,.22-.08.2-.26C42.42,25.46,42.56,24,42.5,22.63Zm-1.19,1.73c0,1.2-.61,1.92-1.6,1.95a1,1,0,0,1-1.17-.71A1.21,1.21,0,0,1,39,24.16a3.16,3.16,0,0,1,2.11-.48C41.54,23.71,41.18,24.17,41.31,24.36Z"/><path class="cls-3" d="M120.57,7.66a2.12,2.12,0,0,0-1.31-2.1,3.91,3.91,0,0,0-3.24.22c-.41.19-.11.43-.07.64s.22.25.44.14a3.19,3.19,0,0,1,1.75-.28,1.17,1.17,0,0,1,1.13.9c.18.62.16.63-.51.67a4.23,4.23,0,0,0-2.83.94,2.14,2.14,0,0,0-.5,2.32,2,2,0,0,0,1.86,1.17,2.84,2.84,0,0,0,2.14-.91c.14.8.3.9,1,.79.18,0,.23-.08.21-.26C120.49,10.49,120.64,9.07,120.57,7.66Zm-2.77,3.68a1.07,1.07,0,0,1-1.18-.7,1.24,1.24,0,0,1,.47-1.48,3.64,3.64,0,0,1,2.06-.47c.23,0,.23,0,.23.73C119.38,10.58,118.78,11.3,117.8,11.34Z"/><path class="cls-3" d="M126.82,24.93c0-.72,0-1.44,0-2.16a2.19,2.19,0,0,0-1.08-2.12,3.73,3.73,0,0,0-3.51.13c-.4.19,0,.44,0,.65s.21.2.39.11a3.32,3.32,0,0,1,1.75-.29,1.23,1.23,0,0,1,1.17.94c.15.5,0,.64-.5.64a4,4,0,0,0-2.88,1,2,2,0,0,0-.47,2.27,1.92,1.92,0,0,0,1.84,1.19,3,3,0,0,0,2.19-.92c.1.91.1.91,1.24.74A11,11,0,0,1,126.82,24.93Zm-1.2-.59c0,1.22-.62,1.94-1.61,2a1.06,1.06,0,0,1-1.14-.66,1.26,1.26,0,0,1,.38-1.46,3.14,3.14,0,0,1,2.16-.51C125.86,23.71,125.45,24.19,125.62,24.34Z"/><path class="cls-2" d="M68.25,50.38a3.18,3.18,0,0,0-4.14,3A3.27,3.27,0,0,0,66,56.93a5.14,5.14,0,0,0,3.46,0c.5-.15.14-.48.13-.73s-.25-.22-.44-.15a4.26,4.26,0,0,1-1.59.22,2.12,2.12,0,0,1-2.2-1.93c0-.34,0-.47.39-.46.65,0,1.31,0,2,0h2c.16,0,.35.06.42-.21A3,3,0,0,0,68.25,50.38ZM68.63,53H65.36c.19-1.28,1-2,2.08-1.84a1.62,1.62,0,0,1,1.44,1.57C68.89,52.93,68.84,53,68.63,53Z"/><path class="cls-2" d="M73.38,35.29a3.06,3.06,0,0,0-3.46,2.27c-.67,2.25.39,4.27,2.47,4.62A6,6,0,0,0,74.87,42c.48-.12.46-.35.36-.73s-.37-.23-.62-.17a5.43,5.43,0,0,1-.58.13c-1.65.27-2.72-.37-3-1.76-.1-.43-.06-.63.45-.59s1.24,0,1.86,0h2c.18,0,.34,0,.39-.25A2.92,2.92,0,0,0,73.38,35.29ZM74.22,38H71a1.85,1.85,0,0,1,1.93-1.86,1.62,1.62,0,0,1,1.57,1.56C74.53,38,74.45,38,74.22,38Z"/><path class="cls-2" d="M38.31,35.38a3.08,3.08,0,0,0-3.85,2c-.75,2.28.3,4.37,2.41,4.74A5.68,5.68,0,0,0,39.36,42c.45-.11.49-.31.38-.71s-.36-.27-.61-.2a3.71,3.71,0,0,1-.64.15c-1.7.24-2.83-.48-3-1.93,0-.29,0-.45.36-.43.65,0,1.31,0,2,0h2c.17,0,.37,0,.4-.23A3,3,0,0,0,38.31,35.38ZM38.73,38H35.48c.22-1.11.73-1.7,1.54-1.83a1.62,1.62,0,0,1,2,1.47C39,37.89,39,38.07,38.73,38Z"/><path class="cls-2" d="M60.67,50.26a3.07,3.07,0,0,0-3.47,2.28c-.66,2.25.4,4.26,2.48,4.61A6,6,0,0,0,62.17,57c.48-.12.44-.36.35-.73s-.38-.23-.62-.16l-.59.13c-1.67.26-2.75-.4-3-1.83-.07-.37,0-.55.41-.53.64,0,1.28,0,1.92,0h2c.18,0,.34,0,.39-.25A2.93,2.93,0,0,0,60.67,50.26ZM61.56,53H58.28c.18-1.25.95-1.94,2-1.85a1.62,1.62,0,0,1,1.5,1.57C61.81,52.92,61.78,53,61.56,53Z"/><path class="cls-2" d="M16.17,35.37a3.08,3.08,0,0,0-3.71,1.85c-.91,2.27.18,4.58,2.35,5A5.83,5.83,0,0,0,17.3,42c.47-.12.47-.34.37-.72s-.37-.25-.62-.18a4.56,4.56,0,0,1-.64.14c-1.68.24-2.76-.45-3-1.88-.06-.37,0-.5.42-.48.64,0,1.28,0,1.91,0h2c.18,0,.37,0,.39-.24A3,3,0,0,0,16.17,35.37ZM16.66,38c-.85,0-1.71,0-2.56,0h-.69c.22-1.11.73-1.7,1.54-1.83a1.64,1.64,0,0,1,2,1.47C17,37.89,17,38,16.66,38Z"/><path class="cls-2" d="M81.21,5.46a3.09,3.09,0,0,0-3.93,2c-.77,2.29.31,4.42,2.44,4.77a5.57,5.57,0,0,0,2.43-.17c.4-.11.52-.26.42-.69s-.39-.29-.66-.21-.39.1-.58.13c-1.7.26-2.82-.45-3-1.9,0-.33,0-.47.38-.46.66,0,1.32,0,2,0h2c.16,0,.35.06.42-.2A3,3,0,0,0,81.21,5.46Zm.3,2.63H78.3c.19-1.16.81-1.81,1.74-1.86a1.64,1.64,0,0,1,1.79,1.54C81.86,8,81.77,8.09,81.51,8.09Z"/><path class="cls-3" d="M97.15,20.43A3.17,3.17,0,0,0,93,23.49,3.25,3.25,0,0,0,94.87,27a5.2,5.2,0,0,0,3.46,0c.46-.14.17-.44.15-.68s-.21-.31-.45-.21a4.09,4.09,0,0,1-1.59.22,2.13,2.13,0,0,1-2.21-1.93c0-.33,0-.47.39-.45.66,0,1.32,0,2,0s1.32,0,2,0c.16,0,.35.06.42-.2A3,3,0,0,0,97.15,20.43Zm.24,2.63c-.45,0-.91,0-1.37,0s-.88,0-1.31,0-.49-.18-.37-.54a1.86,1.86,0,0,1,1.9-1.32,1.59,1.59,0,0,1,1.52,1.42C97.83,23,97.75,23.09,97.39,23.06Z"/><path class="cls-3" d="M51.1,20.43A3.18,3.18,0,0,0,47,23.49,3.26,3.26,0,0,0,48.82,27a5.2,5.2,0,0,0,3.46,0c.46-.14.16-.45.15-.68s-.22-.3-.46-.21a4.09,4.09,0,0,1-1.59.22,2.12,2.12,0,0,1-2.2-1.93c0-.34,0-.47.39-.45.66,0,1.32,0,2,0s1.32,0,2,0c.16,0,.35.06.42-.21A3,3,0,0,0,51.1,20.43Zm.31,2.63H48.2c.18-1.13.78-1.78,1.68-1.86a1.63,1.63,0,0,1,1.84,1.52C51.75,23,51.68,23.06,51.41,23.06Z"/><path class="cls-2" d="M63.19,5.42a3.08,3.08,0,0,0-3.71,1.85c-.91,2.27.17,4.58,2.35,5a6,6,0,0,0,2.49-.18c.46-.11.46-.34.36-.72s-.37-.24-.62-.18a4.56,4.56,0,0,1-.64.14c-1.68.24-2.76-.44-3-1.88-.07-.36,0-.5.41-.48.64,0,1.28,0,1.92,0h2c.18,0,.37,0,.39-.24A3,3,0,0,0,63.19,5.42Zm.44,2.67c-.47,0-1,0-1.43,0s-.91,0-1.37,0-.44-.07-.34-.42a1.86,1.86,0,0,1,1.93-1.44A1.59,1.59,0,0,1,64,7.71C64,8,64,8.11,63.63,8.09Z"/><path class="cls-2" d="M32.36,5.38A3.08,3.08,0,0,0,28.9,7c-1.14,2.25,0,4.84,2.23,5.23a6,6,0,0,0,2.49-.18c.47-.12.45-.35.36-.72s-.38-.24-.62-.18-.39.1-.58.14c-1.65.26-2.72-.37-3-1.77-.09-.42-.06-.62.45-.59s1.24,0,1.86,0h2c.17,0,.36,0,.38-.24A3,3,0,0,0,32.36,5.38ZM33,8.08H29.72C30,6.67,30.87,6,32,6.27a1.7,1.7,0,0,1,1.23,1.57C33.26,8.1,33.14,8.08,33,8.08Z"/><path class="cls-2" d="M208.15,32q0,3.83,0,7.66c0,.27.13.68-.32.71s-.41-.38-.41-.7V24.39c0-.29-.08-.68.35-.69s.39.38.39.68Z"/></svg>